/* XPM */
static char *bdd116[] = {
/* columns rows colors chars-per-pixel */
"116 116 3 1",
"  c black s dark_piece",
". c green s dark_square",
"X c white s light_piece",
/* pixels */
"....................................................................................................................",
"....................................................................................................................",
"....................................................................................................................",
"....................................................................................................................",
"....................................................................................................................",
"....................................................................................................................",
"....................................................................................................................",
"....................................................................................................................",
"....................................................................................................................",
"....................................................................................................................",
".......................................................     ........................................................",
".....................................................         ......................................................",
"....................................................           .....................................................",
"...................................................             ....................................................",
"...................................................             ....................................................",
"..................................................               ...................................................",
"..................................................               ...................................................",
"..................................................               ...................................................",
"..................................................               ...................................................",
"..................................................               ...................................................",
"...................................................             ....................................................",
"...................................................             ....................................................",
"....................................................           .....................................................",
".....................................................         ......................................................",
"....................................................           .....................................................",
"...................................................             ....................................................",
".................................................                 ..................................................",
"................................................                   .................................................",
"..............................................                       ...............................................",
".............................................                         ..............................................",
"...........................................                             ............................................",
"..........................................                               ...........................................",
"........................................                                   .........................................",
".......................................                                     ........................................",
"......................................                                       .......................................",
".....................................                                         ......................................",
"....................................                                           .....................................",
"...................................                                             ....................................",
"..................................                                               ...................................",
"..................................                       X                       ...................................",
".................................                       XXX                       ..................................",
".................................                       XXX                       ..................................",
"................................                        XXX                        .................................",
"................................                        XXX                        .................................",
"...............................                         XXX                         ................................",
"...............................                         XXX                         ................................",
"...............................                         XXX                         ................................",
"..............................                          XXX                          ...............................",
"..............................                  XXXXXXXXXXXXXXXXXXX                  ...............................",
"..............................                 XXXXXXXXXXXXXXXXXXXXX                 ...............................",
"..............................                  XXXXXXXXXXXXXXXXXXX                  ...............................",
"..............................                          XXX                          ...............................",
"..............................                          XXX                          ...............................",
"..............................                          XXX                          ...............................",
"..............................                          XXX                          ...............................",
"..............................                          XXX                          ...............................",
"...............................                         XXX                         ................................",
"...............................                         XXX                         ................................",
"...............................                         XXX                         ................................",
"...............................                          X                          ................................",
"................................                                                   .................................",
"................................                                                   .................................",
".................................                                                 ..................................",
".................................                                                 ..................................",
"..................................                                               ...................................",
"..................................                                               ...................................",
"...................................                                             ....................................",
"...................................                                             ....................................",
"....................................          XXXXXXXXXXXXXXXXXXXXXXX          .....................................",
".....................................      XXXXXXXXXXXXXXXXXXXXXXXXXXXXX      ......................................",
"......................................     XXXXXXXXXXXXXXXXXXXXXXXXXXXXX     .......................................",
".......................................    XXXXXX                 XXXXXX    ........................................",
".......................................                                     ........................................",
"......................................                                       .......................................",
"......................................                                       .......................................",
"......................................                                       .......................................",
".....................................                                         ......................................",
".....................................                                         ......................................",
".....................................        XXXXXXXXXXXXXXXXXXXXXXXXX        ......................................",
"....................................    XXXXXXXXXXXXXXXXXXXXXXXXXXXXXXXXXXX    .....................................",
"....................................   XXXXXXXXXXXXXXXXXXXXXXXXXXXXXXXXXXXXX   .....................................",
"...................................    XXXXXXXXXX                 XXXXXXXXXX    ....................................",
"...................................                                             ....................................",
"...................................                                             ....................................",
"..................................                                               ...................................",
"..................................                                               ...................................",
".................................                                                 ..................................",
"..................................                                               ...................................",
"....................................                                           .....................................",
".........................................                                 ..........................................",
"................................................                   .................................................",
".....................................................         ......................................................",
"...................................................             ....................................................",
".................................................                 ..................................................",
"..............................................                       ...............................................",
".......................               .....                             .....               ........................",
"..................                                                                               ...................",
"...............                                                                                     ................",
".............                                                                                         ..............",
"...........                                                                                             ............",
"..........                                               .                                               ...........",
"..........                                             .....                                             ...........",
"...........                                           .......                                           ............",
"...........                                         ...........                                         ............",
"............                                     .................                                     .............",
".............         .............           .......................           .............         ..............",
".............      .............................................................................      ..............",
"..............  ...................................................................................  ...............",
"....................................................................................................................",
"....................................................................................................................",
"....................................................................................................................",
"....................................................................................................................",
"....................................................................................................................",
"....................................................................................................................",
"....................................................................................................................",
"...................................................................................................................."
};
