/* XPM */
static char *bdd54[] = {
/* columns rows colors chars-per-pixel */
"54 54 3 1",
"  c black s dark_piece",
". c green s dark_square",
"X c white s light_piece",
/* pixels */
"......................................................",
"......................................................",
"......................................................",
"..........................  ..........................",
"........................      ........................",
".......................        .......................",
".......................        .......................",
".......................        .......................",
".......................        .......................",
"........................      ........................",
"........................      ........................",
"......................          ......................",
".....................            .....................",
"...................                ...................",
"..................                  ..................",
".................                    .................",
"................                      ................",
"...............           XX           ...............",
"...............           XX           ...............",
"..............            XX            ..............",
"..............            XX            ..............",
"..............        XXXXXXXXXX        ..............",
"..............        XXXXXXXXXX        ..............",
"..............            XX            ..............",
"..............            XX            ..............",
"..............            XX            ..............",
"..............            XX            ..............",
"...............                        ...............",
"...............                        ...............",
"...............                        ...............",
"................      XXXXXXXXXX      ................",
".................   XXXXXXXXXXXXXX   .................",
"..................   XXX      XXX   ..................",
".................                    .................",
".................                    .................",
".................   XXXXXXXXXXXXXX   .................",
"................   XXXXXXXXXXXXXXXX   ................",
"................                      ................",
"................                      ................",
"...............                        ...............",
"................                      ................",
"....................              ....................",
".......................        .......................",
".......            .              .            .......",
".....                                            .....",
"....                                              ....",
".....                                            .....",
".....                     ..                     .....",
"......                   ....                   ......",
".......  .......       ........       .......  .......",
"......................................................",
"......................................................",
"......................................................",
"......................................................"
};
