/* XPM */
static char *bdd87[] = {
/* columns rows colors chars-per-pixel */
"87 87 3 1",
"  c black s dark_piece",
". c green s dark_square",
"X c white s light_piece",
/* pixels */
".......................................................................................",
".......................................................................................",
".......................................................................................",
".......................................................................................",
".......................................................................................",
".......................................................................................",
".........................................     .........................................",
".......................................         .......................................",
"......................................           ......................................",
"......................................           ......................................",
".....................................             .....................................",
".....................................             .....................................",
".....................................             .....................................",
".....................................             .....................................",
"......................................           ......................................",
"......................................           ......................................",
".......................................         .......................................",
".......................................         .......................................",
"......................................           ......................................",
"....................................               ....................................",
"...................................                 ...................................",
".................................                     .................................",
"................................                       ................................",
"..............................                           ..............................",
".............................                             .............................",
"............................                               ............................",
"...........................                                 ...........................",
"..........................                                   ..........................",
".........................                  X                  .........................",
".........................                 XXX                 .........................",
"........................                  XXX                  ........................",
"........................                  XXX                  ........................",
".......................                   XXX                   .......................",
".......................                   XXX                   .......................",
"......................                    XXX                    ......................",
"......................              XXXXXXXXXXXXXXX              ......................",
"......................             XXXXXXXXXXXXXXXXX             ......................",
"......................              XXXXXXXXXXXXXXX              ......................",
"......................                    XXX                    ......................",
"......................                    XXX                    ......................",
"......................                    XXX                    ......................",
"......................                    XXX                    ......................",
".......................                   XXX                   .......................",
".......................                   XXX                   .......................",
".......................                                         .......................",
"........................                                       ........................",
"........................                                       ........................",
".........................                                     .........................",
".........................                                     .........................",
"..........................                                   ..........................",
"...........................       XXXXXXXXXXXXXXXXXXX       ...........................",
"...........................      XXXXXXXXXXXXXXXXXXXXX      ...........................",
"............................     XXXXXXXXXXXXXXXXXXXXX     ............................",
".............................     X                 X     .............................",
"............................                               ............................",
"............................                               ............................",
"............................                               ............................",
"...........................        XXXXXXXXXXXXXXXXX        ...........................",
"...........................    XXXXXXXXXXXXXXXXXXXXXXXXX    ...........................",
"...........................   XXXXXXXXXXXXXXXXXXXXXXXXXXX   ...........................",
"..........................    XXXXXXX             XXXXXXX    ..........................",
"..........................                                   ..........................",
"..........................                                   ..........................",
".........................                                     .........................",
".........................                                     .........................",
"..........................                                   ..........................",
".............................                             .............................",
"...................................                 ...................................",
".......................................          ......................................",
".....................................              ....................................",
".............            ..........                  .........            .............",
"..........                                                                   ..........",
"........                                                                       ........",
".......                                                                         .......",
".......                                                                         .......",
".......                                                                         .......",
"........                                                                       ........",
".........                                  .                                  .........",
".........                                .....                                .........",
"..........                             .........                             ..........",
"...........    ..........           ...............           ..........    ...........",
"............ ............................................................. ............",
".......................................................................................",
".......................................................................................",
".......................................................................................",
".......................................................................................",
"......................................................................................."
};
