/* XPM */
static char *bdl129[] = {
/* columns rows colors chars-per-pixel */
"129 129 3 1",
"  c black s dark_piece",
". c gray s light_square",
"X c white s light_piece",
/* pixels */
".................................................................................................................................",
".................................................................................................................................",
".................................................................................................................................",
".................................................................................................................................",
".................................................................................................................................",
".................................................................................................................................",
".................................................................................................................................",
".................................................................................................................................",
".............................................................      ..............................................................",
"...........................................................          ............................................................",
"..........................................................            ...........................................................",
".........................................................              ..........................................................",
"........................................................                .........................................................",
"........................................................                .........................................................",
".......................................................                  ........................................................",
".......................................................                  ........................................................",
".......................................................                  ........................................................",
".......................................................                  ........................................................",
".......................................................                  ........................................................",
".......................................................                  ........................................................",
"........................................................                .........................................................",
"........................................................                .........................................................",
".........................................................              ..........................................................",
"..........................................................            ...........................................................",
"...........................................................          ............................................................",
"..........................................................            ...........................................................",
"........................................................                .........................................................",
".......................................................                  ........................................................",
".....................................................                      ......................................................",
"....................................................                        .....................................................",
"..................................................                            ...................................................",
".................................................                              ..................................................",
"................................................                                .................................................",
"..............................................                                    ...............................................",
".............................................                                      ..............................................",
"............................................                                        .............................................",
"...........................................                                          ............................................",
"..........................................                                            ...........................................",
".........................................                                              ..........................................",
"........................................                                                .........................................",
".......................................                                                  ........................................",
"......................................                                                    .......................................",
".....................................                          XX                          ......................................",
".....................................                         XXXX                         ......................................",
"....................................                          XXXX                          .....................................",
"....................................                          XXXX                          .....................................",
"...................................                           XXXX                           ....................................",
"...................................                           XXXX                           ....................................",
"..................................                            XXXX                            ...................................",
"..................................                            XXXX                            ...................................",
"..................................                            XXXX                            ...................................",
".................................                             XXXX                             ..................................",
".................................                    XXXXXXXXXXXXXXXXXXXXXX                    ..................................",
".................................                   XXXXXXXXXXXXXXXXXXXXXXXX                   ..................................",
".................................                   XXXXXXXXXXXXXXXXXXXXXXXX                   ..................................",
".................................                    XXXXXXXXXXXXXXXXXXXXXX                    ..................................",
".................................                             XXXX                             ..................................",
".................................                             XXXX                             ..................................",
".................................                             XXXX                             ..................................",
".................................                             XXXX                             ..................................",
".................................                             XXXX                             ..................................",
".................................                             XXXX                             ..................................",
"..................................                            XXXX                            ...................................",
"..................................                            XXXX                            ...................................",
"..................................                            XXXX                            ...................................",
"..................................                             XX                             ...................................",
"...................................                                                          ....................................",
"...................................                                                          ....................................",
"...................................                                                          ....................................",
"....................................                                                        .....................................",
"....................................                                                        .....................................",
".....................................                                                      ......................................",
"......................................                                                    .......................................",
"......................................                                                    .......................................",
".......................................                                                  ........................................",
"........................................         XXXXXXXXXXXXXXXXXXXXXXXXXXXXXX         .........................................",
".........................................       XXXXXXXXXXXXXXXXXXXXXXXXXXXXXXXX       ..........................................",
"..........................................      XXXXXXXXXXXXXXXXXXXXXXXXXXXXXXXX      ...........................................",
"..........................................      XXXXXXXXXXXXXXXXXXXXXXXXXXXXXXXX      ...........................................",
"..........................................       XXX                        XXX       ...........................................",
"..........................................                                            ...........................................",
"..........................................                                            ...........................................",
".........................................                                              ..........................................",
".........................................                                              ..........................................",
".........................................                                              ..........................................",
"........................................                                                .........................................",
"........................................         XXXXXXXXXXXXXXXXXXXXXXXXXXXXXX         .........................................",
".......................................     XXXXXXXXXXXXXXXXXXXXXXXXXXXXXXXXXXXXXXXX     ........................................",
".......................................    XXXXXXXXXXXXXXXXXXXXXXXXXXXXXXXXXXXXXXXXXX    ........................................",
".......................................    XXXXXXXXXXXXXXXXXXXXXXXXXXXXXXXXXXXXXXXXXX    ........................................",
"......................................      XXXXXXXXXXX                  XXXXXXXXXXX      .......................................",
"......................................                                                    .......................................",
"......................................                                                    .......................................",
".....................................                                                      ......................................",
".....................................                                                      ......................................",
"....................................                                                        .....................................",
".....................................                                                      ......................................",
"......................................                                                    .......................................",
"........................................                                                .........................................",
"..............................................                                    ...............................................",
".....................................................                      ......................................................",
"..........................................................            ...........................................................",
"........................................................                .........................................................",
".......................................................                  ........................................................",
".....................................................                      ......................................................",
".....................                .............                            .............                ......................",
".................                                                                                              ..................",
"..............                                                                                                    ...............",
"............                                                                                                        .............",
"..........                                                                                                            ...........",
".........                                                                                                              ..........",
".........                                                                                                              ..........",
".........                                                                                                              ..........",
"..........                                                     ..                                                     ...........",
"...........                                                  ......                                                  ............",
"...........                                                ..........                                                ............",
"............                                             ..............                                             .............",
".............                                          ..................                                          ..............",
"..............         ..............              ..........................              ..............         ...............",
"..............      ........................................................................................      ...............",
"...............   ............................................................................................   ................",
".................................................................................................................................",
".................................................................................................................................",
".................................................................................................................................",
".................................................................................................................................",
".................................................................................................................................",
".................................................................................................................................",
".................................................................................................................................",
"................................................................................................................................."
};
