/* XPM */
static char *bdl108[] = {
/* columns rows colors chars-per-pixel */
"108 108 3 1",
"  c black s dark_piece",
". c gray s light_square",
"X c white s light_piece",
/* pixels */
"............................................................................................................",
"............................................................................................................",
"............................................................................................................",
"............................................................................................................",
"............................................................................................................",
"............................................................................................................",
"............................................................................................................",
"...................................................     ....................................................",
".................................................         ..................................................",
"................................................           .................................................",
"...............................................             ................................................",
"...............................................             ................................................",
"..............................................               ...............................................",
"..............................................               ...............................................",
"..............................................               ...............................................",
"..............................................               ...............................................",
"...............................................             ................................................",
"...............................................             ................................................",
"................................................           .................................................",
".................................................         ..................................................",
"..................................................       ...................................................",
"................................................           .................................................",
"...............................................             ................................................",
".............................................                 ..............................................",
"............................................                   .............................................",
"...........................................                     ............................................",
".........................................                         ..........................................",
"........................................                           .........................................",
".......................................                             ........................................",
".....................................                                 ......................................",
"....................................                                   .....................................",
"...................................                                     ....................................",
"..................................                                       ...................................",
".................................                                         ..................................",
"................................                                           .................................",
"...............................                      X                      ................................",
"...............................                     XXX                     ................................",
"..............................                      XXX                      ...............................",
".............................                       XXX                       ..............................",
".............................                       XXX                       ..............................",
"............................                        XXX                        .............................",
"............................                        XXX                        .............................",
"............................                        XXX                        .............................",
"...........................                 XXXXXXXXXXXXXXXXXXX                 ............................",
"...........................                 XXXXXXXXXXXXXXXXXXX                 ............................",
"...........................                 XXXXXXXXXXXXXXXXXXX                 ............................",
"...........................                         XXX                         ............................",
"...........................                         XXX                         ............................",
"...........................                         XXX                         ............................",
"...........................                         XXX                         ............................",
"...........................                         XXX                         ............................",
"...........................                         XXX                         ............................",
"............................                        XXX                        .............................",
"............................                        XXX                        .............................",
"............................                         X                         .............................",
".............................                                                 ..............................",
".............................                                                 ..............................",
".............................                                                 ..............................",
"..............................                                               ...............................",
"..............................                                               ...............................",
"...............................                                             ................................",
"................................                                           .................................",
"................................                                           .................................",
".................................          XXXXXXXXXXXXXXXXXXXXX          ..................................",
"..................................      XXXXXXXXXXXXXXXXXXXXXXXXXXX      ...................................",
"...................................    XXXXXXXXXXXXXXXXXXXXXXXXXXXXX    ....................................",
"....................................    XXXXXX               XXXXXX    .....................................",
"...................................                                     ....................................",
"...................................                                     ....................................",
"...................................                                     ....................................",
"..................................                                       ...................................",
"..................................                                       ...................................",
"..................................         XXXXXXXXXXXXXXXXXXXXX         ...................................",
".................................    XXXXXXXXXXXXXXXXXXXXXXXXXXXXXXXXX    ..................................",
".................................   XXXXXXXXXXXXXXXXXXXXXXXXXXXXXXXXXXX   ..................................",
".................................   XXXXXXXXXX               XXXXXXXXXX   ..................................",
"................................     X                               X     .................................",
"................................                                           .................................",
"................................                                           .................................",
"...............................                                             ................................",
"...............................                                             ................................",
"...............................                                             ................................",
".................................                                         ..................................",
".....................................                                 ......................................",
"............................................                   .............................................",
".................................................          .................................................",
"...............................................              ...............................................",
".............................................                  .............................................",
"...........................................                      ...........................................",
"..................                                                                       ...................",
"..............                                                                               ...............",
"...........                                                                                     ............",
".........                                                                                         ..........",
"........                                                                                           .........",
"........                                             .                                             .........",
".........                                          .....                                          ..........",
".........                                        .........                                        ..........",
"..........                                    ...............                                    ...........",
"...........        .............           .....................           .............        ............",
"............    ...........................................................................    .............",
"............  ...............................................................................  .............",
"............................................................................................................",
"............................................................................................................",
"............................................................................................................",
"............................................................................................................",
"............................................................................................................",
"............................................................................................................",
"............................................................................................................"
};
