/* XPM */
static char *bdl25[] = {
/* columns rows colors chars-per-pixel */
"25 25 3 1",
"  c black s dark_piece",
". c gray s light_square",
"X c white s light_piece",
/* pixels */
".........................",
"............ ............",
"...........   ...........",
"...........   ...........",
"...........   ...........",
"..........     ..........",
"........         ........",
".......           .......",
"......      X      ......",
"......      X      ......",
"......    XXXXX    ......",
"......      X      ......",
"......      X      ......",
".......           .......",
"........  XXXXX  ........",
"........         ........",
"........ XXXXXXX ........",
".......           .......",
"........         ........",
"...........   ...........",
"..                     ..",
"..                     ..",
"...         .         ...",
"... ....  .....  .... ...",
"........................."
};
