/* XPM */
static char *bdl37[] = {
/* columns rows colors chars-per-pixel */
"37 37 3 1",
"  c black s dark_piece",
". c gray s light_square",
"X c white s light_piece",
/* pixels */
".....................................",
".....................................",
".....................................",
".................   .................",
"................     ................",
"................     ................",
"................     ................",
".................   .................",
"................     ................",
"..............         ..............",
".............           .............",
"............             ............",
"...........               ...........",
"...........       X       ...........",
"..........        X        ..........",
"..........     XXXXXXX     ..........",
"..........        X        ..........",
"..........        X        ..........",
"..........        X        ..........",
"...........               ...........",
"...........               ...........",
"............             ............",
"............  XXXXXXXXX  ............",
"............             ............",
"............             ............",
"............ XXXXXXXXXXX ............",
"...........               ...........",
"...........               ...........",
".............           .............",
"................    .................",
"........  ....         ....  ........",
"....                             ....",
"...               .               ...",
"....            .....            ....",
"....  .........................  ....",
".....................................",
"....................................."
};
