/* XPM */
static char *bdl49[] = {
/* columns rows colors chars-per-pixel */
"49 49 3 1",
"  c black s dark_piece",
". c gray s light_square",
"X c white s light_piece",
/* pixels */
".................................................",
".................................................",
".................................................",
".......................   .......................",
"......................     ......................",
".....................       .....................",
".....................       .....................",
"......................     ......................",
".......................   .......................",
"......................     ......................",
"....................         ....................",
"...................           ...................",
".................               .................",
"................                 ................",
"...............                   ...............",
"..............                     ..............",
".............           X           .............",
".............           X           .............",
"............            X            ............",
"............            X            ............",
"............        XXXXXXXXX        ............",
"............            X            ............",
"............            X            ............",
"............            X            ............",
"............            X            ............",
".............                       .............",
".............                       .............",
"..............                     ..............",
"...............                   ...............",
"...............    XXXXXXXXXXX    ...............",
"................  X           X  ................",
"................                 ................",
"................                 ................",
"...............                   ...............",
"............... XXXXXXXXXXXXXXXXX ...............",
"...............                   ...............",
"..............                     ..............",
"..............                     ..............",
"..................             ..................",
"......................     ......................",
"....................         ....................",
"........                                 ........",
".....                   .                   .....",
"....                  .....                  ....",
"....                .........                ....",
"....    .................................    ....",
".................................................",
".................................................",
"................................................."
};
