/* XPM */
static char *bdl95[] = {
/* columns rows colors chars-per-pixel */
"95 95 3 1",
"  c black s dark_piece",
". c gray s light_square",
"X c white s light_piece",
/* pixels */
"...............................................................................................",
"...............................................................................................",
"...............................................................................................",
"...............................................................................................",
"...............................................................................................",
"...............................................................................................",
"...............................................................................................",
".............................................     .............................................",
"...........................................         ...........................................",
"..........................................           ..........................................",
"..........................................           ..........................................",
".........................................             .........................................",
".........................................             .........................................",
".........................................             .........................................",
".........................................             .........................................",
"..........................................           ..........................................",
"..........................................           ..........................................",
"...........................................         ...........................................",
"............................................       ............................................",
"..........................................           ..........................................",
".........................................             .........................................",
".......................................                 .......................................",
"......................................                   ......................................",
"....................................                       ....................................",
"...................................                         ...................................",
".................................                             .................................",
"................................                               ................................",
"...............................                                 ...............................",
"..............................                                   ..............................",
".............................                                     .............................",
"............................                                       ............................",
"...........................                   XXX                   ...........................",
"...........................                   XXX                   ...........................",
"..........................                    XXX                    ..........................",
"..........................                    XXX                    ..........................",
".........................                     XXX                     .........................",
".........................                     XXX                     .........................",
"........................                      XXX                      ........................",
"........................               XXXXXXXXXXXXXXXXX               ........................",
"........................               XXXXXXXXXXXXXXXXX               ........................",
"........................               XXXXXXXXXXXXXXXXX               ........................",
"........................                      XXX                      ........................",
"........................                      XXX                      ........................",
"........................                      XXX                      ........................",
"........................                      XXX                      ........................",
".........................                     XXX                     .........................",
".........................                     XXX                     .........................",
".........................                     XXX                     .........................",
"..........................                                           ..........................",
"..........................                                           ..........................",
"..........................                                           ..........................",
"...........................                                         ...........................",
"...........................                                         ...........................",
"............................                                       ............................",
".............................                                     .............................",
"..............................      XXXXXXXXXXXXXXXXXXXXXXX      ..............................",
"..............................      XXXXXXXXXXXXXXXXXXXXXXX      ..............................",
"................................    XXXXXXXXXXXXXXXXXXXXXXX    ................................",
"................................                               ................................",
"...............................                                 ...............................",
"...............................                                 ...............................",
"...............................                                 ...............................",
"..............................                                   ..............................",
"..............................     XXXXXXXXXXXXXXXXXXXXXXXXX     ..............................",
"..............................   XXXXXXXXXXXXXXXXXXXXXXXXXXXXX   ..............................",
".............................    XXXXXXXXXXXXXXXXXXXXXXXXXXXXX    .............................",
".............................    XXXXX                   XXXXX    .............................",
"............................                                       ............................",
"............................                                       ............................",
"............................                                       ............................",
"............................                                       ............................",
"............................                                       ............................",
"................................                               ................................",
".......................................                 .......................................",
"..........................................           ..........................................",
"........................................               ........................................",
"......................................                   ......................................",
"...............                                                                 ...............",
"............                                                                       ............",
"..........                                                                           ..........",
"........                                                                               ........",
".......                                                                                 .......",
"........                                                                               ........",
".........                                      .                                      .........",
".........                                    .....                                    .........",
"..........                                ...........                                ..........",
"...........      ...........           .................           ...........      ...........",
"............   .................................................................   ............",
"............ ..................................................................... ............",
"...............................................................................................",
"...............................................................................................",
"...............................................................................................",
"...............................................................................................",
"...............................................................................................",
"..............................................................................................."
};
