/* XPM */
static char *bld80[] = {
/* columns rows colors chars-per-pixel */
"80 80 3 1",
"  c black s dark_piece",
". c green s dark_square",
"X c white s light_piece",
/* pixels */
"................................................................................",
"................................................................................",
"................................................................................",
"................................................................................",
"................................................................................",
"......................................    ......................................",
"....................................        ....................................",
"...................................   XXXX   ...................................",
"...................................  XXXXXX  ...................................",
"...................................  XXXXXX  ...................................",
"...................................  XXXXXX  ...................................",
"...................................  XXXXXX  ...................................",
"...................................   XXXX   ...................................",
"....................................        ....................................",
".....................................      .....................................",
"....................................   XX   ....................................",
"..................................    XXXX    ..................................",
".................................   XXXXXXXX   .................................",
"...............................    XXXXXXXXXX    ...............................",
"..............................   XXXXXXXXXXXXXX   ..............................",
"............................    XXXXXXXXXXXXXXXX    ............................",
"...........................   XXXXXXXXXXXXXXXXXXXX   ...........................",
"..........................   XXXXXXXXXXXXXXXXXXXXXX   ..........................",
".........................   XXXXXXXXXXXXXXXXXXXXXXXX   .........................",
"........................   XXXXXXXXXXXXXXXXXXXXXXXXXX   ........................",
".......................   XXXXXXXXXXXXX  XXXXXXXXXXXXX   .......................",
".......................  XXXXXXXXXXXXXX  XXXXXXXXXXXXXX  .......................",
"......................   XXXXXXXXXXXXXX  XXXXXXXXXXXXXX   ......................",
"......................  XXXXXXXXXXXXXXX  XXXXXXXXXXXXXXX  ......................",
".....................   XXXXXXXXXXXXXXX  XXXXXXXXXXXXXXX   .....................",
".....................  XXXXXXXXXXXXXXXX  XXXXXXXXXXXXXXXX  .....................",
".....................  XXXXXXXXXX              XXXXXXXXXX  .....................",
".....................  XXXXXXXXXX              XXXXXXXXXX  .....................",
".....................  XXXXXXXXXXXXXXXX  XXXXXXXXXXXXXXXX  .....................",
".....................  XXXXXXXXXXXXXXXX  XXXXXXXXXXXXXXXX  .....................",
".....................  XXXXXXXXXXXXXXXX  XXXXXXXXXXXXXXXX  .....................",
".....................  XXXXXXXXXXXXXXXX  XXXXXXXXXXXXXXXX  .....................",
".....................   XXXXXXXXXXXXXXX  XXXXXXXXXXXXXXX   .....................",
"......................  XXXXXXXXXXXXXXX  XXXXXXXXXXXXXXX  ......................",
"......................  XXXXXXXXXXXXXXXXXXXXXXXXXXXXXXXX  ......................",
"......................   XXXXXXXXXXXXXXXXXXXXXXXXXXXXXX   ......................",
".......................  XXXXXXXXXXXXXXXXXXXXXXXXXXXXXX  .......................",
".......................   XXXXXXXXXXXXXXXXXXXXXXXXXXXX   .......................",
"........................  XXXXXXXXXXXXXXXXXXXXXXXXXXXX  ........................",
"........................   XXXXXXXXXXXXXXXXXXXXXXXXXX   ........................",
".........................   XXXXX              XXXXX   .........................",
"..........................                            ..........................",
"...........................      XXXXXXXXXXXXXX      ...........................",
"...........................  XXXXXXXXXXXXXXXXXXXXXX  ...........................",
"..........................   XXXXXXXXXXXXXXXXXXXXXX   ..........................",
"..........................  XXXXXXXXXXXXXXXXXXXXXXXX  ..........................",
"..........................  XXXXXXXXXXXXXXXXXXXXXXXX  ..........................",
".........................   XXXX                XXXX   .........................",
".........................                              .........................",
".........................       XXXXXXXXXXXXXXXX       .........................",
"........................   XXXXXXXXXXXXXXXXXXXXXXXXXX   ........................",
"........................  XXXXXXXXXXXXXXXXXXXXXXXXXXXX  ........................",
".......................   XXXXXXXXXXXXXXXXXXXXXXXXXXXX   .......................",
".......................         XXXXXXXXXXXXXXXX         .......................",
"..........................                            ..........................",
"................................                ................................",
"....................................        ....................................",
"..................................    XXXX    ..................................",
"................................    XXXXXXXX    ................................",
"..............                    XXXXXXXXXXXX                    ..............",
"..........                      XXXXXXXXXXXXXXXX                      ..........",
"........      XXXXXXXXXXXXXXXXXXXXXXXXX  XXXXXXXXXXXXXXXXXXXXXXXXX      ........",
".......   XXXXXXXXXXXXXXXXXXXXXXXXXXX      XXXXXXXXXXXXXXXXXXXXXXXXXXX   .......",
"......   XXXXXXXXXXXXXXXXXXXXXXXXX     ..     XXXXXXXXXXXXXXXXXXXXXXXXX   ......",
".......  XXXXXXX         XXXXXX      ......      XXXXXX         XXXXXXX  .......",
".......   XX                      ............                      XX   .......",
"........        .........      ..................      .........        ........",
".........   ........................................................   .........",
".......... .......................................................... ..........",
"................................................................................",
"................................................................................",
"................................................................................",
"................................................................................",
"................................................................................",
"................................................................................"
};
