/* XPM */
static char *bll116[] = {
/* columns rows colors chars-per-pixel */
"116 116 3 1",
"  c black s dark_piece",
". c gray s light_square",
"X c white s light_piece",
/* pixels */
"....................................................................................................................",
"....................................................................................................................",
"....................................................................................................................",
"....................................................................................................................",
"....................................................................................................................",
"....................................................................................................................",
"....................................................................................................................",
"....................................................................................................................",
"....................................................................................................................",
".......................................................     ........................................................",
".....................................................         ......................................................",
"....................................................           .....................................................",
"...................................................    XXXXX    ....................................................",
"...................................................   XXXXXXX   ....................................................",
"..................................................   XXXXXXXXX   ...................................................",
"..................................................   XXXXXXXXX   ...................................................",
"..................................................   XXXXXXXXX   ...................................................",
"..................................................   XXXXXXXXX   ...................................................",
"..................................................   XXXXXXXXX   ...................................................",
"...................................................   XXXXXXX   ....................................................",
"...................................................    XXXXX    ....................................................",
"....................................................           .....................................................",
".....................................................         ......................................................",
".....................................................         ......................................................",
"...................................................     XXX     ....................................................",
"..................................................     XXXXX     ...................................................",
"................................................     XXXXXXXXX     .................................................",
"...............................................     XXXXXXXXXXX     ................................................",
"..............................................    XXXXXXXXXXXXXXX    ...............................................",
"............................................     XXXXXXXXXXXXXXXXX     .............................................",
"...........................................     XXXXXXXXXXXXXXXXXXX     ............................................",
"..........................................    XXXXXXXXXXXXXXXXXXXXXXX    ...........................................",
"........................................     XXXXXXXXXXXXXXXXXXXXXXXXX     .........................................",
".......................................     XXXXXXXXXXXXXXXXXXXXXXXXXXX     ........................................",
"......................................    XXXXXXXXXXXXXXXXXXXXXXXXXXXXXXX    .......................................",
".....................................    XXXXXXXXXXXXXXXXXXXXXXXXXXXXXXXXX    ......................................",
"....................................    XXXXXXXXXXXXXXXXXXXXXXXXXXXXXXXXXXX    .....................................",
"...................................    XXXXXXXXXXXXXXXXXXXXXXXXXXXXXXXXXXXXX    ....................................",
"..................................    XXXXXXXXXXXXXXXXXXX XXXXXXXXXXXXXXXXXXX    ...................................",
"..................................   XXXXXXXXXXXXXXXXXXX   XXXXXXXXXXXXXXXXXXX   ...................................",
".................................   XXXXXXXXXXXXXXXXXXXX   XXXXXXXXXXXXXXXXXXXX   ..................................",
"................................    XXXXXXXXXXXXXXXXXXXX   XXXXXXXXXXXXXXXXXXXX    .................................",
"................................   XXXXXXXXXXXXXXXXXXXXX   XXXXXXXXXXXXXXXXXXXXX   .................................",
"...............................   XXXXXXXXXXXXXXXXXXXXXX   XXXXXXXXXXXXXXXXXXXXXX   ................................",
"...............................   XXXXXXXXXXXXXXXXXXXXXX   XXXXXXXXXXXXXXXXXXXXXX   ................................",
"...............................   XXXXXXXXXXXXXXXXXXXXXX   XXXXXXXXXXXXXXXXXXXXXX   ................................",
"..............................   XXXXXXXXXXXXXXXXXXXXXXX   XXXXXXXXXXXXXXXXXXXXXXX   ...............................",
"..............................   XXXXXXXXXXXXXXX                   XXXXXXXXXXXXXXX   ...............................",
"..............................   XXXXXXXXXXXXXX                     XXXXXXXXXXXXXX   ...............................",
"..............................   XXXXXXXXXXXXXXX                   XXXXXXXXXXXXXXX   ...............................",
"..............................   XXXXXXXXXXXXXXXXXXXXXXX   XXXXXXXXXXXXXXXXXXXXXXX   ...............................",
"..............................   XXXXXXXXXXXXXXXXXXXXXXX   XXXXXXXXXXXXXXXXXXXXXXX   ...............................",
"..............................   XXXXXXXXXXXXXXXXXXXXXXX   XXXXXXXXXXXXXXXXXXXXXXX   ...............................",
"..............................   XXXXXXXXXXXXXXXXXXXXXXX   XXXXXXXXXXXXXXXXXXXXXXX   ...............................",
"..............................   XXXXXXXXXXXXXXXXXXXXXXX   XXXXXXXXXXXXXXXXXXXXXXX   ...............................",
"...............................   XXXXXXXXXXXXXXXXXXXXXX   XXXXXXXXXXXXXXXXXXXXXX   ................................",
"...............................   XXXXXXXXXXXXXXXXXXXXXX   XXXXXXXXXXXXXXXXXXXXXX   ................................",
"...............................   XXXXXXXXXXXXXXXXXXXXXX   XXXXXXXXXXXXXXXXXXXXXX   ................................",
"...............................   XXXXXXXXXXXXXXXXXXXXXXXXXXXXXXXXXXXXXXXXXXXXXXX   ................................",
"................................   XXXXXXXXXXXXXXXXXXXXXXXXXXXXXXXXXXXXXXXXXXXXX   .................................",
"................................   XXXXXXXXXXXXXXXXXXXXXXXXXXXXXXXXXXXXXXXXXXXXX   .................................",
".................................   XXXXXXXXXXXXXXXXXXXXXXXXXXXXXXXXXXXXXXXXXXX   ..................................",
".................................   XXXXXXXXXXXXXXXXXXXXXXXXXXXXXXXXXXXXXXXXXXX   ..................................",
"..................................   XXXXXXXXXXXXXXXXXXXXXXXXXXXXXXXXXXXXXXXXX   ...................................",
"..................................   XXXXXXXXXXXXXXXXXXXXXXXXXXXXXXXXXXXXXXXXX   ...................................",
"...................................   XXXXXXXXXXXXXXXXXXXXXXXXXXXXXXXXXXXXXXX   ....................................",
"...................................    XXXXXXXXXXXXXXXXXXXXXXXXXXXXXXXXXXXXX    ....................................",
"....................................    XXXXXXX                     XXXXXXX    .....................................",
".....................................                                         ......................................",
"......................................                                       .......................................",
".......................................        XXXXXXXXXXXXXXXXXXXXX        ........................................",
".......................................   XXXXXXXXXXXXXXXXXXXXXXXXXXXXXXX   ........................................",
"......................................   XXXXXXXXXXXXXXXXXXXXXXXXXXXXXXXXX   .......................................",
"......................................   XXXXXXXXXXXXXXXXXXXXXXXXXXXXXXXXX   .......................................",
"......................................   XXXXXXXXXXXXXXXXXXXXXXXXXXXXXXXXX   .......................................",
".....................................   XXXXXXXXXXXXXXXXXXXXXXXXXXXXXXXXXXX   ......................................",
".....................................   XXXXXXXXXXXXXXXXXXXXXXXXXXXXXXXXXXX   ......................................",
".....................................   XXXXXXX                     XXXXXXX   ......................................",
"....................................   X                                   X   .....................................",
"....................................                                           .....................................",
"....................................           XXXXXXXXXXXXXXXXXXXXX           .....................................",
"...................................     XXXXXXXXXXXXXXXXXXXXXXXXXXXXXXXXXXX     ....................................",
"...................................   XXXXXXXXXXXXXXXXXXXXXXXXXXXXXXXXXXXXXXX   ....................................",
"...................................   XXXXXXXXXXXXXXXXXXXXXXXXXXXXXXXXXXXXXXX   ....................................",
"..................................   XXXXXXXXXXXXXXXXXXXXXXXXXXXXXXXXXXXXXXXXX   ...................................",
"..................................       XXXXXXXXXXXXXXXXXXXXXXXXXXXXXXXXX       ...................................",
"..................................              XXXXXXXXXXXXXXXXXXX              ...................................",
"....................................                                           .....................................",
".........................................                                 ..........................................",
"................................................                   .................................................",
"....................................................     X     .....................................................",
"..................................................      XXX      ...................................................",
"................................................      XXXXXXX      .................................................",
"..............................................      XXXXXXXXXXX      ...............................................",
".....................                             XXXXXXXXXXXXXXX                             ......................",
"................                                XXXXXXXXXXXXXXXXXXX                                .................",
"..............                                XXXXXXXXXX  XXXXXXXXXXX                                ...............",
"............         XXXXXXXXXXXXXXXXXXXXXXXXXXXXXXXXXX     XXXXXXXXXXXXXXXXXXXXXXXXXXXXXXXXXX         .............",
"..........      XXXXXXXXXXXXXXXXXXXXXXXXXXXXXXXXXXXXX         XXXXXXXXXXXXXXXXXXXXXXXXXXXXXXXXXXXXX      ...........",
".........     XXXXXXXXXXXXXXXXXXXXXXXXXXXXXXXXXXXXX      .      XXXXXXXXXXXXXXXXXXXXXXXXXXXXXXXXXXXXX     ..........",
".........    XXXXXXXXXXXXXXXXXXXXXXXXXXXXXXXXXXXX      .....      XXXXXXXXXXXXXXXXXXXXXXXXXXXXXXXXXXXX    ..........",
"..........   XXXXXXXXXXXXXXXXXXXXXXXXXXXXXXXXX        .......        XXXXXXXXXXXXXXXXXXXXXXXXXXXXXXXXX   ...........",
"...........   XXXXXXXX                              ...........                              XXXXXXXX   ............",
"...........    XXX                               .................                               XXX    ............",
"............   X                              .......................                              X   .............",
".............         .......................................................................         ..............",
".............     ...............................................................................     ..............",
"..............  ...................................................................................  ...............",
"....................................................................................................................",
"....................................................................................................................",
"....................................................................................................................",
"....................................................................................................................",
"....................................................................................................................",
"....................................................................................................................",
"....................................................................................................................",
"...................................................................................................................."
};
