/* XPM */
static char *bll108[] = {
/* columns rows colors chars-per-pixel */
"108 108 3 1",
"  c black s dark_piece",
". c gray s light_square",
"X c white s light_piece",
/* pixels */
"............................................................................................................",
"............................................................................................................",
"............................................................................................................",
"............................................................................................................",
"............................................................................................................",
"............................................................................................................",
"............................................................................................................",
"....................................................   .....................................................",
"..................................................       ...................................................",
".................................................         ..................................................",
"................................................    XXX    .................................................",
"................................................   XXXXX   .................................................",
"...............................................   XXXXXXX   ................................................",
"...............................................   XXXXXXX   ................................................",
"...............................................   XXXXXXX   ................................................",
"...............................................   XXXXXXX   ................................................",
"................................................   XXXXX   .................................................",
"................................................    XXX    .................................................",
".................................................         ..................................................",
"..................................................       ...................................................",
"..................................................       ...................................................",
"................................................     X     .................................................",
"...............................................     XXX     ................................................",
".............................................     XXXXXXX     ..............................................",
"...........................................      XXXXXXXXX      ............................................",
"..........................................     XXXXXXXXXXXXX     ...........................................",
"........................................     XXXXXXXXXXXXXXXXX     .........................................",
".......................................     XXXXXXXXXXXXXXXXXXX     ........................................",
"......................................    XXXXXXXXXXXXXXXXXXXXXXX    .......................................",
"....................................     XXXXXXXXXXXXXXXXXXXXXXXXX     .....................................",
"...................................     XXXXXXXXXXXXXXXXXXXXXXXXXXX     ....................................",
"..................................    XXXXXXXXXXXXXXXXXXXXXXXXXXXXXXX    ...................................",
".................................    XXXXXXXXXXXXXXXXXXXXXXXXXXXXXXXXX    ..................................",
"................................    XXXXXXXXXXXXXXXXXXXXXXXXXXXXXXXXXXX    .................................",
"...............................    XXXXXXXXXXXXXXXXXXXXXXXXXXXXXXXXXXXXX    ................................",
"...............................   XXXXXXXXXXXXXXXXXXX XXXXXXXXXXXXXXXXXXX   ................................",
"..............................   XXXXXXXXXXXXXXXXXXX   XXXXXXXXXXXXXXXXXXX   ...............................",
".............................    XXXXXXXXXXXXXXXXXXX   XXXXXXXXXXXXXXXXXXX    ..............................",
".............................   XXXXXXXXXXXXXXXXXXXX   XXXXXXXXXXXXXXXXXXXX   ..............................",
"............................   XXXXXXXXXXXXXXXXXXXXX   XXXXXXXXXXXXXXXXXXXXX   .............................",
"............................   XXXXXXXXXXXXXXXXXXXXX   XXXXXXXXXXXXXXXXXXXXX   .............................",
"............................   XXXXXXXXXXXXXXXXXXXXX   XXXXXXXXXXXXXXXXXXXXX   .............................",
"...........................   XXXXXXXXXXXXXXXXXXXXXX   XXXXXXXXXXXXXXXXXXXXXX   ............................",
"...........................   XXXXXXXXXXXXXX                   XXXXXXXXXXXXXX   ............................",
"...........................   XXXXXXXXXXXXXX                   XXXXXXXXXXXXXX   ............................",
"...........................   XXXXXXXXXXXXXX                   XXXXXXXXXXXXXX   ............................",
"...........................   XXXXXXXXXXXXXXXXXXXXXX   XXXXXXXXXXXXXXXXXXXXXX   ............................",
"...........................   XXXXXXXXXXXXXXXXXXXXXX   XXXXXXXXXXXXXXXXXXXXXX   ............................",
"...........................   XXXXXXXXXXXXXXXXXXXXXX   XXXXXXXXXXXXXXXXXXXXXX   ............................",
"...........................   XXXXXXXXXXXXXXXXXXXXXX   XXXXXXXXXXXXXXXXXXXXXX   ............................",
"...........................   XXXXXXXXXXXXXXXXXXXXXX   XXXXXXXXXXXXXXXXXXXXXX   ............................",
"...........................   XXXXXXXXXXXXXXXXXXXXXX   XXXXXXXXXXXXXXXXXXXXXX   ............................",
"............................   XXXXXXXXXXXXXXXXXXXXX   XXXXXXXXXXXXXXXXXXXXX   .............................",
"............................   XXXXXXXXXXXXXXXXXXXXX   XXXXXXXXXXXXXXXXXXXXX   .............................",
"............................   XXXXXXXXXXXXXXXXXXXXXX XXXXXXXXXXXXXXXXXXXXXX   .............................",
".............................   XXXXXXXXXXXXXXXXXXXXXXXXXXXXXXXXXXXXXXXXXXX   ..............................",
".............................   XXXXXXXXXXXXXXXXXXXXXXXXXXXXXXXXXXXXXXXXXXX   ..............................",
"..............................   XXXXXXXXXXXXXXXXXXXXXXXXXXXXXXXXXXXXXXXXX   ...............................",
"..............................   XXXXXXXXXXXXXXXXXXXXXXXXXXXXXXXXXXXXXXXXX   ...............................",
"...............................   XXXXXXXXXXXXXXXXXXXXXXXXXXXXXXXXXXXXXXX   ................................",
"...............................    XXXXXXXXXXXXXXXXXXXXXXXXXXXXXXXXXXXXX    ................................",
"................................    XXXXXXXXXXXXXXXXXXXXXXXXXXXXXXXXXXX    .................................",
".................................    XXXXXXXXXXXXXXXXXXXXXXXXXXXXXXXXX    ..................................",
"..................................    XXXXX                     XXXXX    ...................................",
"...................................                                     ....................................",
"....................................                                   .....................................",
"....................................       XXXXXXXXXXXXXXXXXXXXX       .....................................",
"...................................   XXXXXXXXXXXXXXXXXXXXXXXXXXXXXXX   ....................................",
"...................................   XXXXXXXXXXXXXXXXXXXXXXXXXXXXXXX   ....................................",
"...................................   XXXXXXXXXXXXXXXXXXXXXXXXXXXXXXX   ....................................",
"..................................   XXXXXXXXXXXXXXXXXXXXXXXXXXXXXXXXX   ...................................",
"..................................   XXXXXXXXXXXXXXXXXXXXXXXXXXXXXXXXX   ...................................",
"..................................   XXXXXXX                   XXXXXXX   ...................................",
".................................   X                                 X   ..................................",
".................................                                         ..................................",
".................................           XXXXXXXXXXXXXXXXXXX           ..................................",
"................................     XXXXXXXXXXXXXXXXXXXXXXXXXXXXXXXXX     .................................",
"................................   XXXXXXXXXXXXXXXXXXXXXXXXXXXXXXXXXXXXX   .................................",
"...............................   XXXXXXXXXXXXXXXXXXXXXXXXXXXXXXXXXXXXXXX   ................................",
"...............................      XXXXXXXXXXXXXXXXXXXXXXXXXXXXXXXXX      ................................",
"...............................             XXXXXXXXXXXXXXXXXXX             ................................",
"................................                                           .................................",
".....................................                                 ......................................",
"............................................                   .............................................",
"................................................     X     .................................................",
"...............................................     XXX     ................................................",
".............................................     XXXXXXX     ..............................................",
"..........................................       XXXXXXXXX       ...........................................",
"..................                             XXXXXXXXXXXXX                             ...................",
"..............                               XXXXXXXXXXXXXXXXX                               ...............",
"...........                               XXXXXXXXXXXXXXXXXXXXXXX                               ............",
".........         XXXXXXXXXXXXXXXXXXXXXXXXXXXXXXXXXX  XXXXXXXXXXXXXXXXXXXXXXXXXXXXXXXXXXX         ..........",
"........      XXXXXXXXXXXXXXXXXXXXXXXXXXXXXXXXXXXXX     XXXXXXXXXXXXXXXXXXXXXXXXXXXXXXXXXXXXX      .........",
".......    XXXXXXXXXXXXXXXXXXXXXXXXXXXXXXXXXXXXXXX       XXXXXXXXXXXXXXXXXXXXXXXXXXXXXXXXXXXXXXX    ........",
".......    XXXXXXXXXXXXXXXXXXXXXXXXXXXXXXXXXXXXX     .     XXXXXXXXXXXXXXXXXXXXXXXXXXXXXXXXXXXXX    ........",
"........    XXXXXXXXXXXXXXXXXXXXXXXXXXXXXXXXXX      ...      XXXXXXXXXXXXXXXXXXXXXXXXXXXXXXXXXXX   .........",
".........   XXXXXXX             XXXXXXXXXXX       .......       XXXXXXXXXXX             XXXXXXX   ..........",
"..........   XXX                                ...........                                XXX    ..........",
"..........                                    ...............                                    ...........",
"...........        .............           .....................           .............        ............",
"............    ...........................................................................    .............",
"............  ...............................................................................  .............",
"............................................................................................................",
"............................................................................................................",
"............................................................................................................",
"............................................................................................................",
"............................................................................................................",
"............................................................................................................"
};
