/* XPM */
static char *bll29[] = {
/* columns rows colors chars-per-pixel */
"29 29 3 1",
"  c black s dark_piece",
". c gray s light_square",
"X c white s light_piece",
/* pixels */
".............................",
".............................",
".............. ..............",
"............. X .............",
"............. X .............",
".............   .............",
"............ XXX ............",
"..........  XXXXX  ..........",
"......... XXXXXXXXX .........",
"........ XXXXX XXXXX ........",
"....... XXXXXX XXXXXX .......",
"....... XXXX     XXXX .......",
"....... XXXXXX XXXXXX .......",
"....... XXXXXX XXXXXX .......",
"........ XXXXXXXXXXX ........",
"........ XXXXXXXXXXX ........",
"......... X       X .........",
".......... XXXXXXX ..........",
"......... XXXXXXXXX .........",
".........           .........",
"........  XXXXXXXXX  ........",
"..........         ..........",
"............  X  ............",
"...         XXXXX         ...",
".. XXXXXXXXXXX XXXXXXXXXXX ..",
"... XX XXXXX  .  XXXXX XX ...",
"...   .     .....     .   ...",
".............................",
"............................."
};
