/* XPM */
static char *bll25[] = {
/* columns rows colors chars-per-pixel */
"25 25 3 1",
"  c black s dark_piece",
". c gray s light_square",
"X c white s light_piece",
/* pixels */
".........................",
"............ ............",
"........... X ...........",
"........... X ...........",
"............ ............",
"..........  X  ..........",
"........  XXXXX  ........",
"....... XXXXXXXXX .......",
"...... XXXXX XXXXX ......",
"...... XXXXX XXXXX ......",
"...... XXX     XXX ......",
"...... XXXXX XXXXX ......",
"...... XXXXX XXXXX ......",
"....... XXXXXXXXX .......",
"........         ........",
"........ XXXXXXX ........",
"........         ........",
"....... XXXXXXXXX .......",
"........         ........",
"........... X ...........",
"..         XXX         ..",
".. XXXXXXXXX XXXXXXXXX ..",
"...     XX  .  XX     ...",
"... ....  .....  .... ...",
"........................."
};
