/* XPM */
static char *bll21[] = {
/* columns rows colors chars-per-pixel */
"21 21 3 1",
"  c black s dark_piece",
". c gray s light_square",
"X c white s light_piece",
/* pixels */
".....................",
".........   .........",
"......... X .........",
"........  X  ........",
".......  XXX  .......",
"......  XXXXX  ......",
".....  XXX XXX  .....",
"..... XXXX XXXX .....",
"..... XX     XX .....",
"..... XXXX XXXX .....",
".....  XXX XXX  .....",
"......  XXXXX  ......",
".......       .......",
"......  XXXXX  ......",
"......         ......",
"...... XXXXXXX ......",
"..   ..       ..   ..",
".  XX    XXX    XX  .",
".  XXXXXX   XXXXXX  .",
"..        .        ..",
"....................."
};
