/* XPM */
static char * bll37[] = {
"37 37 3 1",
" 	c gray s light_square",
".	c black s dark_piece",
"X	c white s light_piece",
"                                     ",
"                                     ",
"                                     ",
"                 ...                 ",
"                .XXX.                ",
"                .XXX.                ",
"                .XXX.                ",
"                 ...                 ",
"                ..X..                ",
"              ..XXXXX..              ",
"             .XXXXXXXXX.             ",
"            .XXXXXXXXXXX.            ",
"           .XXXXXXXXXXXXX.           ",
"           .XXXXXX.XXXXXX.           ",
"          .XXXXXXX.XXXXXXX.          ",
"          .XXXX.......XXXX.          ",
"          .XXXXXXX.XXXXXXX.          ",
"          .XXXXXXX.XXXXXXX.          ",
"          .XXXXXXX.XXXXXXX.          ",
"           .XXXXXXXXXXXXX.           ",
"           .XXXXXXXXXXXXX.           ",
"            .XXXXXXXXXXX.            ",
"            .............            ",
"            .XXXXXXXXXXX.            ",
"            .XXXXXXXXXXX.            ",
"            .............            ",
"           ..XXXXXXXXXXX..           ",
"           ..XXXXXXXXXXX..           ",
"             ...........             ",
"                ..X..                ",
"        ..    ..XXXXX..    ..        ",
"    ....XX....XXXX.XXXX....XX....    ",
"   .XXXXXXXXXXXX.. ..XXXXXXXXXXXX.   ",
"    .X..........     ..........X.    ",
"    ..                         ..    ",
"                                     ",
"                                     "};
