/* XPM */
static char *bll58[] = {
/* columns rows colors chars-per-pixel */
"58 58 3 1",
"  c black s dark_piece",
". c gray s light_square",
"X c white s light_piece",
/* pixels */
"..........................................................",
"..........................................................",
"..........................................................",
"............................  ............................",
"..........................      ..........................",
".........................   XX   .........................",
".........................  XXXX  .........................",
".........................  XXXX  .........................",
".........................   XX   .........................",
"..........................      ..........................",
"...........................    ...........................",
".........................        .........................",
"........................   XXXX   ........................",
"......................    XXXXXX    ......................",
"....................    XXXXXXXXXX    ....................",
"...................   XXXXXXXXXXXXXX   ...................",
"..................   XXXXXXXXXXXXXXXX   ..................",
".................   XXXXXXXXXXXXXXXXXX   .................",
"................   XXXXXXXXX  XXXXXXXXX   ................",
"................  XXXXXXXXXX  XXXXXXXXXX  ................",
"...............   XXXXXXXXXX  XXXXXXXXXX   ...............",
"...............  XXXXXXXXXXX  XXXXXXXXXXX  ...............",
"...............  XXXXXXX          XXXXXXX  ...............",
"...............  XXXXXXX          XXXXXXX  ...............",
"...............  XXXXXXXXXXX  XXXXXXXXXXX  ...............",
"...............  XXXXXXXXXXX  XXXXXXXXXXX  ...............",
"...............  XXXXXXXXXXX  XXXXXXXXXXX  ...............",
"...............   XXXXXXXXXX  XXXXXXXXXX   ...............",
"................  XXXXXXXXXX  XXXXXXXXXX  ................",
"................   XXXXXXXXXXXXXXXXXXXX   ................",
".................  XXXXXXXXXXXXXXXXXXXX   ................",
".................   XXXXXXXXXXXXXXXXXX   .................",
"..................   XXXXXXXXXXXXXXXX   ..................",
"...................                    ...................",
"...................                    ...................",
"...................  XXXXXXXXXXXXXXXX  ...................",
"..................   XXXXXXXXXXXXXXXX   ..................",
"..................  XXXXXXXXXXXXXXXXXX  ..................",
"..................                      ..................",
".................                        .................",
".................   XXXXXXXXXXXXXXXXXX   .................",
".................     XXXXXXXXXXXXXX     .................",
".................                        .................",
"......................              ......................",
"..........................      ..........................",
"........................    XX    ........................",
"........                  XXXXXX                  ........",
"......                  XXXXXXXXXX                  ......",
"....    XXXXXXXXXXXXXXXXXXXXXXXXXXXXXXXXXXXXXXXXXX    ....",
"....   XXXXXXXXXXXXXXXXXXXXX  XXXXXXXXXXXXXXXXXXXXX   ....",
".....  XXXXXXXXXXXXXXXXXXX      XXXXXXXXXXXXXXXXXXX  .....",
".....   X        XXXXXXX    ..    XXXXXXX        X   .....",
"......                    ......                    ......",
".......  ........       ..........       ........  .......",
"..........................................................",
"..........................................................",
"..........................................................",
".........................................................."
};
