/* XPM */
static char *bll64[] = {
/* columns rows colors chars-per-pixel */
"64 64 3 1",
"  c black s dark_piece",
". c gray s light_square",
"X c white s light_piece",
/* pixels */
"................................................................",
"................................................................",
"................................................................",
"................................................................",
"...............................  ...............................",
".............................      .............................",
"............................   XX   ............................",
"............................  XXXX  ............................",
"............................  XXXX  ............................",
"............................   XX   ............................",
".............................      .............................",
"..............................    ..............................",
"............................        ............................",
"...........................   XXXX   ...........................",
".........................    XXXXXX    .........................",
"........................   XXXXXXXXXX   ........................",
"......................    XXXXXXXXXXXX    ......................",
".....................   XXXXXXXXXXXXXXXX   .....................",
"....................   XXXXXXXXXXXXXXXXXX   ....................",
"...................   XXXXXXXXXXXXXXXXXXXX   ...................",
"...................  XXXXXXXXXX  XXXXXXXXXX  ...................",
"..................   XXXXXXXXXX  XXXXXXXXXX   ..................",
"..................  XXXXXXXXXXX  XXXXXXXXXXX  ..................",
".................   XXXXXXXXXXX  XXXXXXXXXXX   .................",
".................  XXXXXXXXXXXX  XXXXXXXXXXXX  .................",
".................  XXXXXXX            XXXXXXX  .................",
".................  XXXXXXX            XXXXXXX  .................",
".................  XXXXXXXXXXXX  XXXXXXXXXXXX  .................",
".................  XXXXXXXXXXXX  XXXXXXXXXXXX  .................",
".................  XXXXXXXXXXXX  XXXXXXXXXXXX  .................",
".................   XXXXXXXXXXX  XXXXXXXXXXX   .................",
"..................  XXXXXXXXXXXXXXXXXXXXXXXX  ..................",
"..................  XXXXXXXXXXXXXXXXXXXXXXXX  ..................",
"..................   XXXXXXXXXXXXXXXXXXXXXX   ..................",
"...................  XXXXXXXXXXXXXXXXXXXXXX  ...................",
"...................   XXXXXXXXXXXXXXXXXXXX   ...................",
"....................   XX              XX   ....................",
".....................                      .....................",
".....................    XXXXXXXXXXXXXX    .....................",
".....................  XXXXXXXXXXXXXXXXXX  .....................",
".....................  XXXXXXXXXXXXXXXXXX  .....................",
"....................   XXXXXXXXXXXXXXXXXX   ....................",
"....................  X                  X  ....................",
"....................                        ....................",
"...................    XXXXXXXXXXXXXXXXXX    ...................",
"...................  XXXXXXXXXXXXXXXXXXXXXX  ...................",
"...................      XXXXXXXXXXXXXX      ...................",
"....................                        ....................",
".........................              .........................",
"............................        ............................",
"..........................    XXXX    ..........................",
".........                   XXXXXXXX                   .........",
".......                   XXXXXXXXXXXX                   .......",
".....    XXXXXXXXXXXXXXXXXXXXXXXXXXXXXXXXXXXXXXXXXXXXXX    .....",
"....   XXXXXXXXXXXXXXXXXXXXXXXX  XXXXXXXXXXXXXXXXXXXXXXXX   ....",
".....   XXXXXXXXXXXXXXXXXXXXX      XXXXXXXXXXXXXXXXXXXXX   .....",
"......  XXX        XXXXXXXX    ..    XXXXXXXX        XXX  ......",
"......                       ......                       ......",
".......    ........        ..........        ........    .......",
"........ .............................................. ........",
"................................................................",
"................................................................",
"................................................................",
"................................................................"
};
