/* XPM */
static char *bll95[] = {
/* columns rows colors chars-per-pixel */
"95 95 3 1",
"  c black s dark_piece",
". c gray s light_square",
"X c white s light_piece",
/* pixels */
"...............................................................................................",
"...............................................................................................",
"...............................................................................................",
"...............................................................................................",
"...............................................................................................",
"...............................................................................................",
"...............................................................................................",
".............................................     .............................................",
"...........................................         ...........................................",
"..........................................           ..........................................",
"..........................................   XXXXX   ..........................................",
".........................................   XXXXXXX   .........................................",
".........................................   XXXXXXX   .........................................",
".........................................   XXXXXXX   .........................................",
".........................................   XXXXXXX   .........................................",
"..........................................   XXXXX   ..........................................",
"..........................................           ..........................................",
"...........................................         ...........................................",
"............................................       ............................................",
"...........................................    X    ...........................................",
".........................................     XXX     .........................................",
"........................................     XXXXX     ........................................",
"......................................     XXXXXXXXX     ......................................",
".....................................     XXXXXXXXXXX     .....................................",
"....................................    XXXXXXXXXXXXXXX    ....................................",
"..................................     XXXXXXXXXXXXXXXXX     ..................................",
".................................     XXXXXXXXXXXXXXXXXXX     .................................",
"................................    XXXXXXXXXXXXXXXXXXXXXXX    ................................",
"...............................    XXXXXXXXXXXXXXXXXXXXXXXXX    ...............................",
"..............................    XXXXXXXXXXXXXXXXXXXXXXXXXXX    ..............................",
".............................    XXXXXXXXXXXXXXXXXXXXXXXXXXXXX    .............................",
"............................    XXXXXXXXXXXXXX   XXXXXXXXXXXXXX    ............................",
"............................   XXXXXXXXXXXXXXX   XXXXXXXXXXXXXXX   ............................",
"...........................   XXXXXXXXXXXXXXXX   XXXXXXXXXXXXXXXX   ...........................",
"...........................   XXXXXXXXXXXXXXXX   XXXXXXXXXXXXXXXX   ...........................",
"..........................   XXXXXXXXXXXXXXXXX   XXXXXXXXXXXXXXXXX   ..........................",
"..........................   XXXXXXXXXXXXXXXXX   XXXXXXXXXXXXXXXXX   ..........................",
".........................   XXXXXXXXXXXXXXXXXX   XXXXXXXXXXXXXXXXXX   .........................",
".........................   XXXXXXXXXXX                 XXXXXXXXXXX   .........................",
".........................   XXXXXXXXXXX                 XXXXXXXXXXX   .........................",
".........................   XXXXXXXXXXX                 XXXXXXXXXXX   .........................",
".........................   XXXXXXXXXXXXXXXXXX   XXXXXXXXXXXXXXXXXX   .........................",
".........................   XXXXXXXXXXXXXXXXXX   XXXXXXXXXXXXXXXXXX   .........................",
".........................   XXXXXXXXXXXXXXXXXX   XXXXXXXXXXXXXXXXXX   .........................",
".........................   XXXXXXXXXXXXXXXXXX   XXXXXXXXXXXXXXXXXX   .........................",
".........................   XXXXXXXXXXXXXXXXXX   XXXXXXXXXXXXXXXXXX   .........................",
"..........................   XXXXXXXXXXXXXXXXX   XXXXXXXXXXXXXXXXX   ..........................",
"..........................   XXXXXXXXXXXXXXXXXX XXXXXXXXXXXXXXXXXX   ..........................",
"..........................   XXXXXXXXXXXXXXXXXXXXXXXXXXXXXXXXXXXXX   ..........................",
"...........................   XXXXXXXXXXXXXXXXXXXXXXXXXXXXXXXXXXX   ...........................",
"...........................   XXXXXXXXXXXXXXXXXXXXXXXXXXXXXXXXXXX   ...........................",
"............................   XXXXXXXXXXXXXXXXXXXXXXXXXXXXXXXXX   ............................",
"............................   XXXXXXXXXXXXXXXXXXXXXXXXXXXXXXXXX   ............................",
".............................   XXXXXXXXXXXXXXXXXXXXXXXXXXXXXXX   .............................",
".............................    XXXXXXXXXXXXXXXXXXXXXXXXXXXXX    .............................",
"..............................    X                         X    ..............................",
"...............................                                 ...............................",
"................................                               ................................",
"................................   XXXXXXXXXXXXXXXXXXXXXXXXX   ................................",
"...............................   XXXXXXXXXXXXXXXXXXXXXXXXXXX   ...............................",
"...............................   XXXXXXXXXXXXXXXXXXXXXXXXXXX   ...............................",
"...............................   XXXXXXXXXXXXXXXXXXXXXXXXXXX   ...............................",
"..............................   XXXXXXXXXXXXXXXXXXXXXXXXXXXXX   ..............................",
"..............................   XXXX                     XXXX   ..............................",
"..............................                                   ..............................",
".............................                                     .............................",
".............................        XXXXXXXXXXXXXXXXXXXXX        .............................",
".............................   XXXXXXXXXXXXXXXXXXXXXXXXXXXXXXX   .............................",
"............................   XXXXXXXXXXXXXXXXXXXXXXXXXXXXXXXXX   ............................",
"............................    XXXXXXXXXXXXXXXXXXXXXXXXXXXXXXX    ............................",
"............................           XXXXXXXXXXXXXXXXX           ............................",
"............................                                       ............................",
"................................                               ................................",
".......................................                 .......................................",
"..........................................     X     ..........................................",
"........................................      XXX      ........................................",
"...............             ..........      XXXXXXX      ..........             ...............",
"............                              XXXXXXXXXXX                              ............",
"..........                              XXXXXXXXXXXXXXX                              ..........",
"........       XXXXXXXXXXXXX          XXXXXXXXXXXXXXXXXXX          XXXXXXXXXXXXX       ........",
".......     XXXXXXXXXXXXXXXXXXXXXXXXXXXXXXXXXXX  XXXXXXXXXXXXXXXXXXXXXXXXXXXXXXXXXX     .......",
".......   XXXXXXXXXXXXXXXXXXXXXXXXXXXXXXXXXXX     XXXXXXXXXXXXXXXXXXXXXXXXXXXXXXXXXXX   .......",
"........   XXXXXXXXXXXXXXXXXXXXXXXXXXXXXXXX         XXXXXXXXXXXXXXXXXXXXXXXXXXXXXXXX   ........",
"........    XXXXXXXXXXXXXXXXXXXXXXXXXXXXX      .      XXXXXXXXXXXXXXXXXXXXXXXXXXXXX    ........",
".........   XXXXX           XXXXXXXXXX       .....       XXXXXXXXXX           XXXXX   .........",
"..........   X                             .........                             X   ..........",
"..........                               .............                               ..........",
"...........      ...........          ...................          ...........      ...........",
"............  ...................................................................  ............",
"...............................................................................................",
"...............................................................................................",
"...............................................................................................",
"...............................................................................................",
"...............................................................................................",
"..............................................................................................."
};
