/* XPM */
static char *kdd108[] = {
/* columns rows colors chars-per-pixel */
"108 108 3 1",
"  c black s dark_piece",
". c green s dark_square",
"X c white s light_piece",
/* pixels */
"............................................................................................................",
"............................................................................................................",
"............................................................................................................",
"............................................................................................................",
"............................................................................................................",
"............................................................................................................",
"............................................................................................................",
"............................................................................................................",
"....................................................   .....................................................",
"....................................................   .....................................................",
"....................................................   .....................................................",
"....................................................   .....................................................",
"....................................................   .....................................................",
"...............................................             ................................................",
"..............................................               ...............................................",
"...............................................             ................................................",
"....................................................   .....................................................",
"....................................................   .....................................................",
"....................................................   .....................................................",
"....................................................   .....................................................",
"....................................................   .....................................................",
"....................................................   .....................................................",
"....................................................   .....................................................",
"....................................................   .....................................................",
"....................................................   .....................................................",
"...................................................     ....................................................",
".................................................         ..................................................",
"................................................           .................................................",
"...............................................     XXX     ................................................",
"..............................................    XXXXXXX    ...............................................",
"..............................................   XXXXXXXXX   ...............................................",
".............................................   XXXX   XXXX   ..............................................",
".............................................   XXX     XXX   ..............................................",
".............................................   XXX     XXX   ..............................................",
"............................................   XXX       XXX   .............................................",
"......................          ............   XXX       XXX   ............          .......................",
"..................                 .........   XXX       XXX   .........                 ...................",
"................                     .......   XXX       XXX   .......                     .................",
"...............       XXXXXXXXXX       .....   XXX       XXX   .....       XXXXXXXXXX       ................",
".............      XXXXXXXXXXXXXXXX      ...   XXX       XXX   ...      XXXXXXXXXXXXXXXX      ..............",
"............     XXXXXXXXXXXXXXXXXXXX      .   XXX       XXX   .      XXXXXXXXXXXXXXXXXXXX     .............",
"...........     XXXXXXXX       XXXXXXXX        XXX       XXX        XXXXXXXX       XXXXXXXX     ............",
"..........     XXXXX               XXXXXX       XXX     XXX       XXXXXX               XXXXX     ...........",
"..........    XXXX                   XXXXX      XXX     XXX      XXXXX                   XXXX    ...........",
".........    XXXX                     XXXXX     XXX     XXX     XXXXX                     XXXX    ..........",
".........    XXX                        XXXX     XXX   XXX     XXXX                        XXX    ..........",
"........    XXXX                         XXXX    XXX   XXX    XXXX                         XXXX    .........",
"........    XXX                           XXXX    XXX XXX    XXXX                           XXX    .........",
"........   XXXX                            XXXX   XXX XXX   XXXX                            XXXX   .........",
".......    XXX                             XXXX    XXXXX    XXXX                             XXX    ........",
".......    XXX                              XXXX   XXXXX   XXXX                              XXX    ........",
".......    XXX                               XXX    XXX    XXX                               XXX    ........",
".......    XXX                               XXXX   XXX   XXXX                               XXX    ........",
".......    XXX                                XXX   XXX   XXX                                XXX    ........",
".......    XXX                                XXXX   X   XXXX                                XXX    ........",
".......    XXXX                                XXX       XXX                                XXXX    ........",
"........    XXX                                XXX       XXX                                XXX    .........",
"........    XXX                                XXXX     XXXX                                XXX    .........",
"........     XXX                                XXX     XXX                                XXX     .........",
".........    XXXX                               XXX     XXX                               XXXX    ..........",
".........     XXX                               XXXX   XXXX                               XXX     ..........",
"..........    XXXX                              XXXX   XXXX                              XXXX    ...........",
"...........    XXXX                              XXX   XXX                              XXXX    ............",
"...........     XXXX                             XXX   XXX                             XXXX     ............",
"............     XXXXX                           XXX   XXX                           XXXXX     .............",
".............     XXXXX                          XXX   XXX                          XXXXX     ..............",
"..............     XXXXX                         XXX   XXX                         XXXXX     ...............",
"...............     XXXXX                 XXXXXXXXXXXXXXXXXXXXXXX                 XXXXX     ................",
"................      XXXX         XXXXXXXXXXXXXXXXXXXXXXXXXXXXXXXXXXXXX         XXXX      .................",
".................      XXXX   XXXXXXXXXXXXXXXXXXXXXXXXXXXXXXXXXXXXXXXXXXXXXXX   XXXX      ..................",
"..................      XXXXXXXXXXXXXXXXXXXXX                 XXXXXXXXXXXXXXXXXXXXX      ...................",
"...................      XXXXXXXXXXX                                   XXXXXXXXXXX      ....................",
".....................     XXXXX                                             XXXXX     ......................",
"......................                                                               .......................",
"......................                                                               .......................",
"......................                                                               .......................",
"......................                                                               .......................",
"......................                      XXXXXXXXXXXXXXXXXXX                      .......................",
"......................                XXXXXXXXXXXXXXXXXXXXXXXXXXXXXXX               ........................",
"......................            XXXXXXXXXXXXXXXXXXXXXXXXXXXXXXXXXXXXXXX           ........................",
"......................        XXXXXXXXXXXXXXXX               XXXXXXXXXXXXXXXX       ........................",
"......................      XXXXXXXXXXX                             XXXXXXXXXXX     ........................",
"......................     XXXXXXXX                                     XXXXXXXX    ........................",
".......................     XXX                                             XXX     ........................",
".......................                                                             ........................",
".......................                     XXXXXXXXXXXXXXXXXXX                     ........................",
".......................               XXXXXXXXXXXXXXXXXXXXXXXXXXXXXXX               ........................",
".......................           XXXXXXXXXXXXXXXXXXXXXXXXXXXXXXXXXXXXXXX           ........................",
".......................        XXXXXXXXXXXXXXX               XXXXXXXXXXXXXXX        ........................",
".......................     XXXXXXXXXXXX                           XXXXXXXXXXXX     ........................",
".......................    XXXXXXXX                                     XXXXXXXX    ........................",
".......................     XXXX                                           XXXX     ........................",
".......................                                                             ........................",
".......................                                                             ........................",
".........................                                                         ..........................",
"...........................                                                    .............................",
"..............................                                              ................................",
"..................................                                       ...................................",
"......................................                               .......................................",
".............................................                 ..............................................",
"............................................................................................................",
"............................................................................................................",
"............................................................................................................",
"............................................................................................................",
"............................................................................................................",
"............................................................................................................",
"............................................................................................................",
"............................................................................................................"
};
