/* XPM */
static char *kdd21[] = {
/* columns rows colors chars-per-pixel */
"21 21 3 1",
"  c black s dark_piece",
". c green s dark_square",
"X c white s light_piece",
/* pixels */
".....................",
".......... ..........",
".........   .........",
".......... ..........",
".........   .........",
"....   .. X ..   ....",
"..   X  . X .  X   ..",
".  XX XX  X  XX XX  .",
". X     X   X     X .",
". X      X X      X .",
". X       X       X .",
".  X             X  .",
"..  X  XXXXXXX  X  ..",
"...  XX       XX  ...",
"....             ....",
"....    XXXXX    ....",
"....             ....",
"....  XXXXXXXXX  ....",
".....           .....",
".....................",
"....................."
};
