/* XPM */
static char *kdd25[] = {
/* columns rows colors chars-per-pixel */
"25 25 3 1",
"  c black s dark_piece",
". c green s dark_square",
"X c white s light_piece",
/* pixels */
".........................",
"............ ............",
"...........   ...........",
"............ ............",
"............ ............",
"...........   ...........",
"..........  X  ..........",
"....     . X X .     ....",
"...  XXXX  X X  XXXX  ...",
"..  X    X X X X    X  ..",
".. X      X X X      X ..",
".. X      X X X      X ..",
".. X       X X       X ..",
"... X      X X      X ...",
"...  X     X X     X ....",
"....  XXXXXXXXXXXXX .....",
".....               .....",
".....   XXXXXXXXX   .....",
".....  XX       XX  .....",
".....   XXXXXXXXX   .....",
"...... X         X ......",
"......            .......",
".........       .........",
".........................",
"........................."
};
