/* XPM */
static char *kdd29[] = {
/* columns rows colors chars-per-pixel */
"29 29 3 1",
"  c black s dark_piece",
". c green s dark_square",
"X c white s light_piece",
/* pixels */
".............................",
".............. ..............",
".............. ..............",
"............     ............",
".............. ..............",
".............. ..............",
".............   .............",
"............  X  ............",
"............ X X ............",
".....     .. X X ..     .....",
".... XXXXX   X X   XXXXX ....",
"... X    XX  X X  XX    X ...",
".. X       X  X  X       X ..",
".. X        X X X        X ..",
".. X        X   X        X ..",
"..  X        X X        X  ..",
"...  X       X X       X  ...",
"....  X  XXXXXXXXXXX  X  ....",
".....  XXX         XXX  .....",
"......                 ......",
"......   XXXXXXXXXXX   ......",
"......  XX         XX  ......",
"......    XXXXXXXXX    ......",
"......  XX         XX  ......",
".......                ......",
"..........          .........",
".............................",
".............................",
"............................."
};
