/* XPM */
static char *kdd33[] = {
/* columns rows colors chars-per-pixel */
"33 33 3 1",
"  c black s dark_piece",
". c green s dark_square",
"X c white s light_piece",
/* pixels */
".................................",
".................................",
"................ ................",
"................ ................",
"..............     ..............",
"................ ................",
"................ ................",
"................ ................",
"...............   ...............",
".............. XXX ..............",
"............. X   X .............",
"......     .. X   X ..     ......",
"..... XXXXX   X   X   XXXXX .....",
".... X     XX X   X XX     X ....",
"... X        X X X X        X ...",
"... X         X X X         X ...",
"... X         X X X         X ...",
"... X          X X          X ...",
".... X         X X         X  ...",
"....  X        X X        X  ....",
".....  X    XXXXXXXXX    X  .....",
"......  XXXX         XXXX  ......",
".......                   .......",
".......                   .......",
"........  XXXXXXXXXXXXX   .......",
"........ XX           XX  .......",
"........    XXXXXXXXX     .......",
"........ XXX         XXX  .......",
"........                  .......",
".........                ........",
"............          ...........",
".................................",
"................................."
};
