/* XPM */
static char *kdd37[] = {
/* columns rows colors chars-per-pixel */
"37 37 3 1",
"  c black s dark_piece",
". c green s dark_square",
"X c white s light_piece",
/* pixels */
".....................................",
".....................................",
".....................................",
".................. ..................",
".................. ..................",
"................     ................",
".................. ..................",
".................. ..................",
".................. ..................",
".................   .................",
"................ XXX ................",
"............... X   X ...............",
".......     ... X   X ...     .......",
".....  XXXXX  . X   X .  XXXXX  .....",
"....  XX    XX  X   X  XX    XX  ....",
"...  X        X  X X  X        X  ...",
"... X          X X X X          X ...",
"... X           X X X           X ...",
"... X           X X X           X ...",
"... X           XX XX           X ...",
".... X           X X           X ....",
"....  X          X X          X  ....",
".....  X         X X         X  .....",
"......  X   XXXXXXXXXXXXX   X  ......",
".......  XXXX           XXXX  .......",
"........                     ........",
"........                     ........",
"........   XXXXXXXXXXXXXXX   ........",
"........  XX             XX  ........",
"........      XXXXXXXXX      ........",
"........  XXXX         XXXX  ........",
"........                     ........",
"..........                 ..........",
".............          ..............",
".....................................",
".....................................",
"....................................."
};
