/* XPM */
static char *kdd45[] = {
/* columns rows colors chars-per-pixel */
"45 45 3 1",
"  c black s dark_piece",
". c green s dark_square",
"X c white s light_piece",
/* pixels */
".............................................",
".............................................",
".............................................",
"...................... ......................",
"...................... ......................",
"....................     ....................",
"...................... ......................",
"...................... ......................",
"...................... ......................",
"...................... ......................",
"....................     ....................",
"...................  XXX  ...................",
"..................  X   X  ..................",
".................. X     X ..................",
".................. X     X ..................",
"........       ... X     X ...       ........",
"......   XXXXXX  . X     X .  XXXXXX   ......",
".....  XX      XX  X     X  XX      XX  .....",
"....  X          X  X   X  X          X  ....",
".... X            X X   X X            X ....",
"... X              X X X X              X ...",
"... X              X  X  X              X ...",
"... X               X X X               X ...",
"... X               X   X               X ...",
".... X               X X               X  ...",
".... X               X X               X ....",
"..... X              X X              X  ....",
"...... X             X X             X  .....",
"....... XX      XXXXXXXXXXXXX      XX  ......",
"........ XX XXXXX           XXXXX XX  .......",
".........  X                     X   ........",
".........                           .........",
".........                           .........",
".........       XXXXXXXXXXXXX       .........",
".......... XXXXX             XXXXX ..........",
".......... X                     X ..........",
"..........       XXXXXXXXXXX       ..........",
"..........   XXXX           XXXX   ..........",
".......... XX                   XX ..........",
"..........                         ..........",
".............                    ............",
".................            ................",
".............................................",
".............................................",
"............................................."
};
