/* XPM */
static char *kdd64[] = {
/* columns rows colors chars-per-pixel */
"64 64 3 1",
"  c black s dark_piece",
". c green s dark_square",
"X c white s light_piece",
/* pixels */
"................................................................",
"................................................................",
"................................................................",
"...............................  ...............................",
"...............................  ...............................",
"...............................  ...............................",
"...............................  ...............................",
"............................        ............................",
"............................        ............................",
"...............................  ...............................",
"...............................  ...............................",
"...............................  ...............................",
"...............................  ...............................",
"..............................    ..............................",
"............................        ............................",
"...........................   XXXX   ...........................",
"...........................  XXXXXX  ...........................",
"..........................  XXX  XXX  ..........................",
"..........................  XX    XX  ..........................",
".............       ......  XX    XX  ......       .............",
"...........           ....  XX    XX  ....           ...........",
".........    XXXXXXX    ..  XX    XX  ..    XXXXXXX    .........",
"........   XXXXXXXXXXX      XX    XX      XXXXXXXXXXX   ........",
".......   XXXX     XXXXX    XXX  XXX    XXXXX     XXXX   .......",
"......   XXX         XXXX    XX  XX    XXXX         XXX   ......",
"......  XXX            XXX   XXXXXX   XXX            XXX  ......",
".....  XXX              XXX   XXXX   XXX              XXX  .....",
".....  XXX               XXX  XXXX  XXX               XXX  .....",
".....  XX                 XXX  XX  XXX                 XX  .....",
".....  XX                 XXX  XX  XXX                 XX  .....",
".....  XX                  XXX    XXX                  XX  .....",
".....  XXX                 XXX    XXX                 XXX  .....",
"......  XXX                 XX    XX                 XXX  ......",
"......  XXX                 XXX  XXX                 XXX  ......",
".......  XXX                XXX  XXX                XXX  .......",
".......   XXX                XX  XX                XXX   .......",
"........   XXX               XX  XX               XXX   ........",
".........   XXX              XX  XX              XXX   .........",
"..........   XXX       XXXXXXXXXXXXXXXXXX       XXX   ..........",
"...........   XXX XXXXXXXXXXXXXXXXXXXXXXXXXXXX XXX   ...........",
"............   XXXXXXXXXX              XXXXXXXXXX   ............",
".............   XXX                          XXX   .............",
"..............                                    ..............",
"..............                                    ..............",
"..............           XXXXXXXXXXXXXX           ..............",
"..............      XXXXXXXXXXXXXXXXXXXXXXXX      ..............",
"..............   XXXXXXXXX            XXXXXXXXX   ..............",
"..............   XXXX                      XXXX   ..............",
"..............                                    ..............",
"..............          XXXXXXXXXXXXXXXX          ..............",
"..............     XXXXXXXXXXXXXXXXXXXXXXXXXX     ..............",
"..............   XXXXXXXXX            XXXXXXXXX   ..............",
"..............   XXX                        XXX   ..............",
"...............                                   ..............",
".................                              .................",
".....................                       ....................",
".........................              .........................",
"................................................................",
"................................................................",
"................................................................",
"................................................................",
"................................................................",
"................................................................",
"................................................................"
};
