/* XPM */
static char *kdd72[] = {
/* columns rows colors chars-per-pixel */
"72 72 3 1",
"  c black s dark_piece",
". c green s dark_square",
"X c white s light_piece",
/* pixels */
"........................................................................",
"........................................................................",
"........................................................................",
"........................................................................",
"...................................  ...................................",
"...................................  ...................................",
"...................................  ...................................",
"...................................  ...................................",
"...............................          ...............................",
"...............................          ...............................",
"...................................  ...................................",
"...................................  ...................................",
"...................................  ...................................",
"...................................  ...................................",
"...................................  ...................................",
"...................................  ...................................",
"..................................    ..................................",
"................................        ................................",
"...............................    XX    ...............................",
"..............................   XXXXXX   ..............................",
"..............................  XXX  XXX  ..............................",
".............................   XX    XX   .............................",
".............................  XXX    XXX  .............................",
"..............        .......  XX      XX  .......        ..............",
"...........              ....  XX      XX  ....              ...........",
".........     XXXXXXXX     ..  XX      XX  ..     XXXXXXXX     .........",
"........    XXXXXXXXXXXXX      XX      XX      XXXXXXXXXXXXX    ........",
".......   XXXXX      XXXXX     XXX    XXX     XXXXX      XXXXX   .......",
"......   XXX            XXXX    XX    XX    XXXX            XXX   ......",
"......  XXX               XXX   XX    XX   XXX               XXX  ......",
".....  XXX                 XXX   XX  XX   XXX                 XXX  .....",
".....  XX                   XXX  XX  XX  XXX                   XX  .....",
"....  XXX                    XXX  XXXX  XXX                    XXX  ....",
"....  XX                     XXX  XXXX  XXX                     XX  ....",
"....  XX                      XXX  XX  XXX                      XX  ....",
"....  XX                      XXX  XX  XXX                      XX  ....",
"....  XX                       XXX    XXX                       XX  ....",
"....  XXX                      XXX    XXX                      XXX  ....",
"....  XXX                       XX    XX                       XXX  ....",
".....  XXX                      XXX  XXX                      XXX  .....",
".....  XXX                      XXX  XXX                      XXX  .....",
"......  XXX                      XX  XX                      XXX  ......",
"......   XXX                     XX  XX                     XXX   ......",
".......   XXX                    XX  XX                    XXX   .......",
"........   XXXX                  XX  XX                  XXXX   ........",
".........   XXXX           XXXXXXXXXXXXXXXXXX           XXXX   .........",
"..........   XXXX     XXXXXXXXXXXXXXXXXXXXXXXXXXXX     XXXX   ..........",
"...........    XXXXXXXXXXXXXX              XXXXXXXXXXXXXX    ...........",
".............   XXXXXXX                          XXXXXXX   .............",
"..............   XX                                  XX   ..............",
"..............                                            ..............",
"..............                                            ..............",
"..............                                            ..............",
"...............            XXXXXXXXXXXXXXXXXX            ...............",
"...............      XXXXXXXXXXXXXXXXXXXXXXXXXXXXXX      ...............",
"...............   XXXXXXXXXXX              XXXXXXXXXXX   ...............",
"...............   XXXX                            XXXX   ...............",
"...............                                          ...............",
"...............             XXXXXXXXXXXXXXXX             ...............",
"...............        XXXXXXXXXXXXXXXXXXXXXXXXXX        ...............",
"...............     XXXXXXXXXX            XXXXXXXXXX     ...............",
"...............   XXXXXX                        XXXXXX   ...............",
"...............   XXX                              XXX   ...............",
"...............                                          ...............",
".................                                      .................",
"....................                                ....................",
".......................                         ........................",
".............................              .............................",
"........................................................................",
"........................................................................",
"........................................................................",
"........................................................................"
};
