/* XPM */
static char *kdl129[] = {
/* columns rows colors chars-per-pixel */
"129 129 3 1",
"  c black s dark_piece",
". c gray s light_square",
"X c white s light_piece",
/* pixels */
".................................................................................................................................",
".................................................................................................................................",
".................................................................................................................................",
".................................................................................................................................",
".................................................................................................................................",
".................................................................................................................................",
".................................................................................................................................",
".................................................................................................................................",
".................................................................................................................................",
".................................................................................................................................",
"...............................................................  ................................................................",
"..............................................................    ...............................................................",
"..............................................................    ...............................................................",
"..............................................................    ...............................................................",
"..............................................................    ...............................................................",
"..............................................................    ...............................................................",
"........................................................                .........................................................",
".......................................................                  ........................................................",
".......................................................                  ........................................................",
"........................................................                .........................................................",
"..............................................................    ...............................................................",
"..............................................................    ...............................................................",
"..............................................................    ...............................................................",
"..............................................................    ...............................................................",
"..............................................................    ...............................................................",
"..............................................................    ...............................................................",
"..............................................................    ...............................................................",
"..............................................................    ...............................................................",
"..............................................................    ...............................................................",
"..............................................................    ...............................................................",
"............................................................        .............................................................",
"..........................................................            ...........................................................",
".........................................................              ..........................................................",
"........................................................                .........................................................",
".......................................................      XXXXXX      ........................................................",
"......................................................      XXXXXXXX      .......................................................",
"......................................................     XXXXXXXXXX     .......................................................",
".....................................................     XXXXXXXXXXXX     ......................................................",
".....................................................    XXXXX    XXXXX    ......................................................",
".....................................................    XXXX      XXXX    ......................................................",
"....................................................     XXXX      XXXX     .....................................................",
"....................................................    XXXXX      XXXXX    .....................................................",
"...........................           ..............    XXXX        XXXX    ..............           ............................",
"........................                  ..........    XXXX        XXXX    ..........                  .........................",
"......................                      ........    XXXX        XXXX    ........                      .......................",
"....................                          ......    XXXX        XXXX    ......                          .....................",
"..................         XXXXXXXXXXXX         ....    XXXX        XXXX    ....         XXXXXXXXXXXX         ...................",
".................       XXXXXXXXXXXXXXXXXX       ...    XXXX        XXXX    ...       XXXXXXXXXXXXXXXXXX       ..................",
"................      XXXXXXXXXXXXXXXXXXXXXX       .    XXXX        XXXX    .       XXXXXXXXXXXXXXXXXXXXXX      .................",
"...............     XXXXXXXXXXXXXXXXXXXXXXXXXX          XXXXX      XXXXX          XXXXXXXXXXXXXXXXXXXXXXXXXX     ................",
"..............     XXXXXXXXXXX      XXXXXXXXXXX          XXXX      XXXX          XXXXXXXXXXX      XXXXXXXXXXX     ...............",
".............     XXXXXXXXX             XXXXXXXXX        XXXX      XXXX        XXXXXXXXX             XXXXXXXXX     ..............",
"............     XXXXXXX                  XXXXXXXX       XXXXX    XXXXX       XXXXXXXX                  XXXXXXX     .............",
"............    XXXXXX                      XXXXXXX       XXXX    XXXX       XXXXXXX                      XXXXXX    .............",
"...........     XXXXX                         XXXXXX      XXXXX  XXXXX      XXXXXX                         XXXXX     ............",
"...........    XXXXX                           XXXXXX      XXXX  XXXX      XXXXXX                           XXXXX    ............",
"..........    XXXXX                             XXXXXX     XXXXXXXXXX     XXXXXX                             XXXXX    ...........",
"..........    XXXXX                              XXXXXX     XXXXXXXX     XXXXXX                              XXXXX    ...........",
"..........   XXXXX                                XXXXX     XXXXXXXX     XXXXX                                XXXXX   ...........",
".........    XXXXX                                 XXXXX     XXXXXX     XXXXX                                 XXXXX    ..........",
".........    XXXXX                                  XXXXX    XXXXXX    XXXXX                                  XXXXX    ..........",
".........    XXXX                                   XXXXX     XXXX     XXXXX                                   XXXX    ..........",
".........    XXXX                                    XXXXX    XXXX    XXXXX                                    XXXX    ..........",
".........    XXXX                                    XXXXX     XX     XXXXX                                    XXXX    ..........",
".........    XXXX                                     XXXXX    XX    XXXXX                                     XXXX    ..........",
".........    XXXXX                                    XXXXX    XX    XXXXX                                    XXXXX    ..........",
".........    XXXXX                                     XXXXX        XXXXX                                     XXXXX    ..........",
"..........   XXXXX                                     XXXXX        XXXXX                                     XXXXX   ...........",
"..........    XXXXX                                     XXXX        XXXX                                     XXXXX    ...........",
"..........    XXXXX                                     XXXXX      XXXXX                                     XXXXX    ...........",
"...........    XXXXX                                    XXXXX      XXXXX                                    XXXXX    ............",
"...........    XXXXX                                     XXXX      XXXX                                     XXXXX    ............",
"............    XXXXX                                    XXXXX    XXXXX                                    XXXXX    .............",
"............     XXXXX                                   XXXXX    XXXXX                                   XXXXX     .............",
".............    XXXXXX                                  XXXXX    XXXXX                                  XXXXXX    ..............",
"..............    XXXXXX                                 XXXXX    XXXXX                                 XXXXXX    ...............",
"..............     XXXXXX                                 XXXX    XXXX                                 XXXXXX     ...............",
"...............     XXXXXXX                               XXXX    XXXX                               XXXXXXX     ................",
"................     XXXXXXX                              XXXX    XXXX                              XXXXXXX     .................",
".................     XXXXXXX                             XXXX    XXXX                             XXXXXXX     ..................",
"..................      XXXXXX                     XXXXXXXXXXXXXXXXXXXXXXXXXX                     XXXXXX      ...................",
"...................      XXXXXX            XXXXXXXXXXXXXXXXXXXXXXXXXXXXXXXXXXXXXXXXXX            XXXXXX      ....................",
"....................      XXXXXX      XXXXXXXXXXXXXXXXXXXXXXXXXXXXXXXXXXXXXXXXXXXXXXXXXXXX      XXXXXX      .....................",
".....................      XXXXXX XXXXXXXXXXXXXXXXXXXXXXXXXXXXXXXXXXXXXXXXXXXXXXXXXXXXXXXXXXXX XXXXXX      ......................",
"......................       XXXXXXXXXXXXXXXXXXXXXXXXXXX                XXXXXXXXXXXXXXXXXXXXXXXXXXX       .......................",
".......................       XXXXXXXXXXXXXXXXX                                  XXXXXXXXXXXXXXXXX       ........................",
"........................       XXXXXXXXXX                                              XXXXXXXXXX      ..........................",
"..........................      XXXXX                                                      XXXXX      ...........................",
"...........................                                                                          ............................",
"...........................                                                                          ............................",
"...........................                                                                          ............................",
"...........................                                                                          ............................",
"...........................                                                                          ............................",
"...........................                        XXXXXXXXXXXXXXXXXXXXXXXXXX                        ............................",
"...........................                 XXXXXXXXXXXXXXXXXXXXXXXXXXXXXXXXXXXXXXXX                 ............................",
"...........................             XXXXXXXXXXXXXXXXXXXXXXXXXXXXXXXXXXXXXXXXXXXXXXXX             ............................",
"...........................         XXXXXXXXXXXXXXXXXXXXXXXXXXXXXXXXXXXXXXXXXXXXXXXXXXXXXXXX        .............................",
"...........................       XXXXXXXXXXXXXXXXXXXXXXX              XXXXXXXXXXXXXXXXXXXXXXX      .............................",
"...........................      XXXXXXXXXXXXXXX                                XXXXXXXXXXXXXXX     .............................",
"...........................      XXXXXXXXX                                            XXXXXXXXX     .............................",
"...........................       XXXX                                                    XXXX      .............................",
"...........................                                                                         .............................",
"...........................                         XXXXXXXXXXXXXXXXXXXXXXXX                        .............................",
"...........................                   XXXXXXXXXXXXXXXXXXXXXXXXXXXXXXXXXXXX                  .............................",
"...........................               XXXXXXXXXXXXXXXXXXXXXXXXXXXXXXXXXXXXXXXXXXXX              .............................",
"...........................           XXXXXXXXXXXXXXXXXXXXXXXXXXXXXXXXXXXXXXXXXXXXXXXXXXXX          .............................",
"...........................        XXXXXXXXXXXXXXXXXXXXXX              XXXXXXXXXXXXXXXXXXXXXX       .............................",
"...........................       XXXXXXXXXXXXXXX                              XXXXXXXXXXXXXXX      .............................",
"...........................      XXXXXXXXXXX                                        XXXXXXXXXXX     .............................",
"...........................      XXXXXXX                                                XXXXXXX     .............................",
"............................      XXX                                                      XXX      .............................",
"............................                                                                        .............................",
"............................                                                                       ..............................",
"..............................                                                                    ...............................",
"................................                                                               ..................................",
"...................................                                                         .....................................",
"......................................                                                   ........................................",
"..........................................                                           ............................................",
"...............................................                                  ................................................",
"......................................................                    .......................................................",
".................................................................................................................................",
".................................................................................................................................",
".................................................................................................................................",
".................................................................................................................................",
".................................................................................................................................",
".................................................................................................................................",
".................................................................................................................................",
".................................................................................................................................",
"................................................................................................................................."
};
