/* XPM */
static char * kdl40[] = {
"40 40 3 1",
" 	c gray s light_square",
".	c black s dark_piece",
"X	c white s light_piece",
"                                        ",
"                    .                   ",
"                    .                   ",
"                  .....                 ",
"                    .                   ",
"                    .                   ",
"                    .                   ",
"                    .                   ",
"                   ...                  ",
"                  .XXX.                 ",
"                 .X...X.                ",
"                 .X...X.                ",
"        .....    .X...X.    .....       ",
"      ..XXXXX..  .X...X.  ..XXXXX..     ",
"     .XX.....XX...X...X...XX.....XX.    ",
"    .X.........X...X.X...X.........X.   ",
"   .X...........X..X.X..X...........X.  ",
"   .X............X..X..X............X.  ",
"   .X............XX.X.XX............X.  ",
"   .X.............X...X.............X.  ",
"   .XX............XX.XX............XX.  ",
"    .X.............X.X.............X.   ",
"     .X............X.X............X.    ",
"      .XX......XXXXXXXXXXX......XX.     ",
"       ..X.XXXXX.........XXXXX.X..      ",
"        ..XX.................XX..       ",
"         .......................        ",
"         .......................        ",
"         ....XXXXXXXXXXXXXXX....        ",
"         ..XXX.............XXX..        ",
"         .......XXXXXXXXX.......        ",
"         ...XXXX.........XXXX...        ",
"         ..XX...............XX..        ",
"         .......................        ",
"           ...................          ",
"               ...........              ",
"                                        ",
"                                        ",
"                                        ",
"                                        "};
