/* XPM */
static char *kdl49[] = {
/* columns rows colors chars-per-pixel */
"49 49 3 1",
"  c black s dark_piece",
". c gray s light_square",
"X c white s light_piece",
/* pixels */
".................................................",
".................................................",
".................................................",
"........................ ........................",
"........................ ........................",
"........................ ........................",
".....................       .....................",
"........................ ........................",
"........................ ........................",
"........................ ........................",
"........................ ........................",
"......................     ......................",
".....................  XXX  .....................",
"....................  X   X  ....................",
".................... X     X ....................",
".................... X     X ....................",
".........       .... X     X ....       .........",
".......  XXXXXX   .. X     X ..   XXXXXX  .......",
"...... XX      XX    X     X    XX      XX ......",
"..... X          XX   X   X   XX          X .....",
".... .             X  X   X  X             . ....",
"......              X  X X  X              ......",
"... .                X X X X                . ...",
"... .                X  X  X                . ...",
"... .                 X X X                 . ...",
"... .                 X   X                 . ...",
"...  X                XX XX                X  ...",
".... X                 X X                 X ....",
"....  X                X X                X  ....",
".....  X               X X               X  .....",
"......  XX        XXXXXXXXXXXXX        XX  ......",
".......   X   XXXXX      X    XXXXX   X   .......",
"........   XXX                     XXX   ........",
"..........                              .........",
"..........                             ..........",
"..........                             ..........",
"..........       XXXXXXXXXXXXXXX       ..........",
"..........  XXXXXX             XXXXXX  ..........",
"..........                             ..........",
"..........         XXXXXXXXXXX         ..........",
"..........     XXXX           XXXX     ..........",
"..........  XXX                   XXX  ..........",
"..........                             ..........",
"...........                           ...........",
"..............                     ..............",
"...................            ..................",
".................................................",
".................................................",
"................................................."
};
