/* XPM */
static char *kdl58[] = {
/* columns rows colors chars-per-pixel */
"58 58 3 1",
"  c black s dark_piece",
". c gray s light_square",
"X c white s light_piece",
/* pixels */
"..........................................................",
"..........................................................",
"..........................................................",
"..........................................................",
"..........................................................",
"............................  ............................",
"............................  ............................",
"............................  ............................",
".........................        .........................",
".........................        .........................",
"............................  ............................",
"............................  ............................",
"............................  ............................",
"............................  ............................",
"............................  ............................",
"..........................      ..........................",
".........................  XXXX  .........................",
"......................... XXXXXX .........................",
"........................  XX  XX  ........................",
"...........       ......  XX  XX  ......       ...........",
".........           ....  XX  XX  ....           .........",
".......    XXXXXXX    ..  XX  XX  ..    XXXXXXX    .......",
"......   XXXXXXXXXXX      XX  XX      XXXXXXXXXXX   ......",
".....   XXXX     XXXXX    XXXXXX    XXXXX     XXXX   .....",
".....  XXX         XXXX    XXXX    XXXX         XXX  .....",
"....  XXX            XXX   XXXX   XXX            XXX  ....",
"....  XXX             XXX  XXXX  XXX             XXX  ....",
"....  XX               XXX  XX  XXX               XX  ....",
"....  XX               XXX  XX  XXX               XX  ....",
"....  XX                XXX    XXX                XX  ....",
"....  XXX               XXX    XXX               XXX  ....",
"....   XX                XX    XX                XX   ....",
".....  XXX               XXX  XXX               XXX  .....",
".....   XXX               XX  XX               XXX  ......",
"......   XXX              XX  XX              XXX   ......",
".......   XXX             XX  XX             XXX   .......",
"........   XXXX      XXXXXXXXXXXXXXXX      XXXX   ........",
".........   XXXX XXXXXXXXXXXXXXXXXXXXXXXX XXXX   .........",
"..........   XXXXXXXXXX            XXXXXXXXXX   ..........",
"...........   XXX                        XXX   ...........",
"............                                  ............",
"............                                  ............",
"............         XXXXXXXXXXXXXXXX         ............",
"............     XXXXXXXXXXXXXXXXXXXXXXXX     ............",
"............   XXXXXXXX            XXXXXXXX   ............",
"............    X                        X    ............",
"............          XXXXXXXXXXXXXX          ............",
"............      XXXXXXXXXXXXXXXXXXXXXX      ............",
"............   XXXXXXXX            XXXXXXXX   ............",
"............   XXX                      XXX   ............",
"............                                  ............",
"...............                            ...............",
"..................                      ..................",
".......................            .......................",
"..........................................................",
"..........................................................",
"..........................................................",
".........................................................."
};
