/* XPM */
static char *kdl54[] = {
/* columns rows colors chars-per-pixel */
"54 54 3 1",
"  c black s dark_piece",
". c gray s light_square",
"X c white s light_piece",
/* pixels */
"......................................................",
"......................................................",
"......................................................",
"..........................  ..........................",
"..........................  ..........................",
"..........................  ..........................",
".......................        .......................",
".......................        .......................",
"..........................  ..........................",
"..........................  ..........................",
"..........................  ..........................",
"..........................  ..........................",
"..........................  ..........................",
"........................      ........................",
".......................  XXXX  .......................",
"....................... XXXXXX .......................",
"......................  XX  XX  ......................",
"...........      .....  XX  XX  .....      ...........",
".........           ..  XX  XX  ..           .........",
".......    XXXXXX       XX  XX       XXXXXX    .......",
"......   XXXXXXXXXX     XX  XX     XXXXXXXXXX   ......",
".....   XXXX     XXXX   XXXXXX   XXXX     XXXX   .....",
".....  XXX         XXX   XXXX   XXX         XXX  .....",
"....  XXX           XXX   XX   XXX           XXX  ....",
"....  XXX            XXX  XX  XXX            XXX  ....",
"....  XX              XX      XX              XX  ....",
"....  XX              XXX    XXX              XX  ....",
"....  XXX              XX    XX              XXX  ....",
"....  XXX              XXX  XXX              XXX  ....",
".....  XXX             XXX  XXX             XXX  .....",
".....   XXX             XX  XX             XXX   .....",
"......   XXX            XX  XX            XXX   ......",
".......   XXX           XX  XX           XXX   .......",
"........   XXX     XXXXXXXXXXXXXXXX     XXX   ........",
".........   XXXXXXXXXXXXXXXXXXXXXXXXXXXXXX   .........",
"..........   XXXXXXX              XXXXXXX   ..........",
"...........                                ...........",
"............                              ............",
"............        XXXXXXXXXXXXXX        ............",
"............    XXXXXXXXXXXXXXXXXXXXXX    ............",
"............   XXXXXX            XXXXXX   ............",
"............   X                      X   ............",
"............        XXXXXXXXXXXXXX        ............",
"............    XXXXXXXXXXXXXXXXXXXXXX    ............",
"............  XXXXXXX            XXXXXXX  ............",
"............   XX                    XX   ............",
"............                              ............",
"..............                          ..............",
".................                    .................",
".....................            .....................",
"......................................................",
"......................................................",
"......................................................",
"......................................................"
};
