/* XPM */
static char *kdl87[] = {
/* columns rows colors chars-per-pixel */
"87 87 3 1",
"  c black s dark_piece",
". c gray s light_square",
"X c white s light_piece",
/* pixels */
".......................................................................................",
".......................................................................................",
".......................................................................................",
".......................................................................................",
".......................................................................................",
".......................................................................................",
"........................................... ...........................................",
"..........................................   ..........................................",
"..........................................   ..........................................",
"..........................................   ..........................................",
"..........................................   ..........................................",
"......................................           ......................................",
".....................................             .....................................",
"......................................           ......................................",
"..........................................   ..........................................",
"..........................................   ..........................................",
"..........................................   ..........................................",
"..........................................   ..........................................",
"..........................................   ..........................................",
"..........................................   ..........................................",
".........................................     .........................................",
".......................................         .......................................",
"......................................           ......................................",
".....................................     XXX     .....................................",
".....................................   XXXXXXX   .....................................",
"....................................   XXXXXXXXX   ....................................",
"....................................   XXX   XXX   ....................................",
"...................................   XXX     XXX   ...................................",
"..................        .........   XXX     XXX   .........        ..................",
"...............              ......   XXX     XXX   ......              ...............",
".............                  ....   XXX     XXX   ....                  .............",
"...........       XXXXXXXXX      ..   XXX     XXX   ..      XXXXXXXXX       ...........",
"..........      XXXXXXXXXXXXX         XXX     XXX         XXXXXXXXXXXXX      ..........",
".........     XXXXXXXXXXXXXXXXX       XXX     XXX       XXXXXXXXXXXXXXXXX     .........",
"........     XXXXXX       XXXXXXX      XXX   XXX      XXXXXXX       XXXXXX     ........",
"........    XXXX             XXXXX     XXX   XXX     XXXXX             XXXX    ........",
".......    XXXX               XXXXX     XXX XXX     XXXXX               XXXX    .......",
".......    XXX                  XXXX    XXX XXX    XXXX                  XXX    .......",
".......   XXXX                   XXXX    XXXXX    XXXX                   XXXX   .......",
"......    XXX                     XXXX   XXXXX   XXXX                     XXX    ......",
"......    XXX                      XXX    XXX    XXX                      XXX    ......",
"......    XXX                      XXXX   XXX   XXXX                      XXX    ......",
"......    XXX                       XXX    X    XXX                       XXX    ......",
"......    XXX                       XXXX   X   XXXX                       XXX    ......",
"......    XXXX                       XXX       XXX                       XXXX    ......",
".......    XXX                       XXXX     XXXX                       XXX     ......",
".......    XXXX                       XXX     XXX                       XXXX    .......",
"........    XXX                       XXX     XXX                       XXX     .......",
"........    XXXX                      XXXX   XXXX                      XXXX    ........",
".........    XXXX                      XXX   XXX                      XXXX     ........",
".........     XXXX                     XXX   XXX                     XXXX     .........",
"..........     XXXX                    XXX   XXX                    XXXX      .........",
"...........     XXXX                   XXX   XXX                   XXXX      ..........",
"............     XXXX             XXXXXXXXXXXXXXXXXXX             XXXX      ...........",
".............     XXXX      XXXXXXXXXXXXXXXXXXXXXXXXXXXXXXX      XXXX      ............",
"..............     XXXX XXXXXXXXXXXXXXXXXXXXXXXXXXXXXXXXXXXXXXX XXXX      .............",
"...............     XXXXXXXXXXXXXXXX               XXXXXXXXXXXXXXXX      ..............",
"................     XXXXXXXXX                           XXXXXXXXX      ...............",
".................     XXX                                     XXX     .................",
"..................                                                   ..................",
"..................                                                   ..................",
"..................                                                   ..................",
"..................                XXXXXXXXXXXXXXXXXXX                ..................",
"..................          XXXXXXXXXXXXXXXXXXXXXXXXXXXXXXX          ..................",
"..................      XXXXXXXXXXXXXXXXXXXXXXXXXXXXXXXXXXXXXXX      ..................",
"..................     XXXXXXXXXXXXX               XXXXXXXXXXXXX     ..................",
"..................     XXXXXX                             XXXXXX     ..................",
"..................                                                   ..................",
"...................                XXXXXXXXXXXXXXXXX                 ..................",
"...................          XXXXXXXXXXXXXXXXXXXXXXXXXXXXX          ...................",
"...................       XXXXXXXXXXXXXXXXXXXXXXXXXXXXXXXXXXX       ...................",
"...................     XXXXXXXXXXXXX             XXXXXXXXXXXXX     ...................",
"...................    XXXXXXXX                         XXXXXXXX    ...................",
"...................     XXX                                 XXX     ...................",
"...................                                                 ...................",
"....................                                                ...................",
".......................                                          ......................",
"..........................                                    .........................",
"..............................                            .............................",
"....................................                ...................................",
".......................................................................................",
".......................................................................................",
".......................................................................................",
".......................................................................................",
".......................................................................................",
".......................................................................................",
"......................................................................................."
};
