/* XPM */
static char *kld116[] = {
/* columns rows colors chars-per-pixel */
"116 116 3 1",
"  c black s dark_piece",
". c green s dark_square",
"X c white s light_piece",
/* pixels */
"....................................................................................................................",
"....................................................................................................................",
"....................................................................................................................",
"....................................................................................................................",
"....................................................................................................................",
"....................................................................................................................",
"....................................................................................................................",
"....................................................................................................................",
"....................................................................................................................",
"....................................................................................................................",
"........................................................   .........................................................",
"........................................................   .........................................................",
"........................................................   .........................................................",
"........................................................   .........................................................",
"........................................................   .........................................................",
"........................................................   .........................................................",
"..................................................               ...................................................",
"..................................................               ...................................................",
"..................................................               ...................................................",
"........................................................   .........................................................",
"........................................................   .........................................................",
"........................................................   .........................................................",
"........................................................   .........................................................",
"........................................................   .........................................................",
"........................................................   .........................................................",
"........................................................   .........................................................",
"........................................................   .........................................................",
"........................................................   .........................................................",
".......................................................     ........................................................",
"....................................................           .....................................................",
"...................................................             ....................................................",
"..................................................     XXXXX     ...................................................",
".................................................    XXXXXXXXX    ..................................................",
".................................................   XXXXXXXXXXX   ..................................................",
"................................................   XXXXXXXXXXXXX   .................................................",
"................................................   XXXXXXXXXXXXX   .................................................",
"................................................   XXXXXXXXXXXXX   .................................................",
"...............................................   XXXXXXXXXXXXXXX   ................................................",
"...............................................   XXXXXXXXXXXXXXX   ................................................",
".........................         .............   XXXXXXXXXXXXXXX   .............         ..........................",
"......................                .........   XXXXXXXXXXXXXXX   .........                .......................",
"....................                    .......   XXXXXXXXXXXXXXX   .......                    .....................",
"..................       XXXXXXXXX        .....   XXXXXXXXXXXXXXX   .....        XXXXXXXXX       ...................",
"................      XXXXXXXXXXXXXXXX      ...   XXXXXXXXXXXXXXX   ...      XXXXXXXXXXXXXXXX      .................",
"...............     XXXXXXXXXXXXXXXXXXXX     ..   XXXXXXXXXXXXXXX   ..     XXXXXXXXXXXXXXXXXXXX     ................",
"..............    XXXXXXXXXXXXXXXXXXXXXXXX     X   XXXXXXXXXXXXX   X     XXXXXXXXXXXXXXXXXXXXXXXX    ...............",
".............    XXXXXXXXXXXXXXXXXXXXXXXXXX        XXXXXXXXXXXXX        XXXXXXXXXXXXXXXXXXXXXXXXXX    ..............",
"............    XXXXXXXXXXXXXXXXXXXXXXXXXXXXX      XXXXXXXXXXXXX      XXXXXXXXXXXXXXXXXXXXXXXXXXXXX    .............",
"............   XXXXXXXXXXXXXXXXXXXXXXXXXXXXXXX     XXXXXXXXXXXXX     XXXXXXXXXXXXXXXXXXXXXXXXXXXXXXX   .............",
"...........   XXXXXXXXXXXXXXXXXXXXXXXXXXXXXXXXX     XXXXXXXXXXX     XXXXXXXXXXXXXXXXXXXXXXXXXXXXXXXXX   ............",
"...........   XXXXXXXXXXXXXXXXXXXXXXXXXXXXXXXXXX    XXXXXXXXXXX    XXXXXXXXXXXXXXXXXXXXXXXXXXXXXXXXXX   ............",
"..........   XXXXXXXXXXXXXXXXXXXXXXXXXXXXXXXXXXXX    XXXXXXXXX    XXXXXXXXXXXXXXXXXXXXXXXXXXXXXXXXXXXX   ...........",
"..........   XXXXXXXXXXXXXXXXXXXXXXXXXXXXXXXXXXXXX   XXXXXXXXX   XXXXXXXXXXXXXXXXXXXXXXXXXXXXXXXXXXXXX   ...........",
"..........   XXXXXXXXXXXXXXXXXXXXXXXXXXXXXXXXXXXXX    XXXXXXX    XXXXXXXXXXXXXXXXXXXXXXXXXXXXXXXXXXXXX   ...........",
".........   XXXXXXXXXXXXXXXXXXXXXXXXXXXXXXXXXXXXXXX    XXXXX    XXXXXXXXXXXXXXXXXXXXXXXXXXXXXXXXXXXXXXX   ..........",
".........   XXXXXXXXXXXXXXXXXXXXXXXXXXXXXXXXXXXXXXXX   XXXXX   XXXXXXXXXXXXXXXXXXXXXXXXXXXXXXXXXXXXXXXX   ..........",
".........   XXXXXXXXXXXXXXXXXXXXXXXXXXXXXXXXXXXXXXXX    XXX    XXXXXXXXXXXXXXXXXXXXXXXXXXXXXXXXXXXXXXXX   ..........",
".........   XXXXXXXXXXXXXXXXXXXXXXXXXXXXXXXXXXXXXXXXX   XXX   XXXXXXXXXXXXXXXXXXXXXXXXXXXXXXXXXXXXXXXXX   ..........",
".........   XXXXXXXXXXXXXXXXXXXXXXXXXXXXXXXXXXXXXXXXX   XXX   XXXXXXXXXXXXXXXXXXXXXXXXXXXXXXXXXXXXXXXXX   ..........",
".........   XXXXXXXXXXXXXXXXXXXXXXXXXXXXXXXXXXXXXXXXXX   X   XXXXXXXXXXXXXXXXXXXXXXXXXXXXXXXXXXXXXXXXXX   ..........",
".........   XXXXXXXXXXXXXXXXXXXXXXXXXXXXXXXXXXXXXXXXXX   X   XXXXXXXXXXXXXXXXXXXXXXXXXXXXXXXXXXXXXXXXXX   ..........",
"..........   XXXXXXXXXXXXXXXXXXXXXXXXXXXXXXXXXXXXXXXXX   X   XXXXXXXXXXXXXXXXXXXXXXXXXXXXXXXXXXXXXXXXX   ...........",
"..........   XXXXXXXXXXXXXXXXXXXXXXXXXXXXXXXXXXXXXXXXXX     XXXXXXXXXXXXXXXXXXXXXXXXXXXXXXXXXXXXXXXXXX   ...........",
"...........   XXXXXXXXXXXXXXXXXXXXXXXXXXXXXXXXXXXXXXXXX     XXXXXXXXXXXXXXXXXXXXXXXXXXXXXXXXXXXXXXXXX   ............",
"...........   XXXXXXXXXXXXXXXXXXXXXXXXXXXXXXXXXXXXXXXXX     XXXXXXXXXXXXXXXXXXXXXXXXXXXXXXXXXXXXXXXXX   ............",
"............   XXXXXXXXXXXXXXXXXXXXXXXXXXXXXXXXXXXXXXXX     XXXXXXXXXXXXXXXXXXXXXXXXXXXXXXXXXXXXXXXX   .............",
"............    XXXXXXXXXXXXXXXXXXXXXXXXXXXXXXXXXXXXXXXX   XXXXXXXXXXXXXXXXXXXXXXXXXXXXXXXXXXXXXXXX    .............",
".............   XXXXXXXXXXXXXXXXXXXXXXXXXXXXXXXXXXXXXXXX   XXXXXXXXXXXXXXXXXXXXXXXXXXXXXXXXXXXXXXXX   ..............",
"..............   XXXXXXXXXXXXXXXXXXXXXXXXXXXXXXXXXXXXXXX   XXXXXXXXXXXXXXXXXXXXXXXXXXXXXXXXXXXXXXX   ...............",
"..............    XXXXXXXXXXXXXXXXXXXXXXXXXXXXXXXXXXXXXX   XXXXXXXXXXXXXXXXXXXXXXXXXXXXXXXXXXXXXX    ...............",
"...............    XXXXXXXXXXXXXXXXXXXXXXXXXXXXXXXXXXXXX   XXXXXXXXXXXXXXXXXXXXXXXXXXXXXXXXXXXXX    ................",
"................    XXXXXXXXXXXXXXXXXXXXXXXXXXXXXXXXXXXX   XXXXXXXXXXXXXXXXXXXXXXXXXXXXXXXXXXXX    .................",
".................    XXXXXXXXXXXXXXXXXXXXXXXXXX                     XXXXXXXXXXXXXXXXXXXXXXXXXX    ..................",
"..................    XXXXXXXXXXXXXXXXXX                                   XXXXXXXXXXXXXXXXXX    ...................",
"...................    XXXXXXXXXXXX                                             XXXXXXXXXXXX    ....................",
"....................    XXXXXXX                XXXXXXXXXXXXXXXXXXXXX                XXXXXXX    .....................",
".....................     XX            XXXXXXXXXXXXXXXXXXXXXXXXXXXXXXXXXXX            XX     ......................",
"......................             XXXXXXXXXXXXXXXXXXXXXXXXXXXXXXXXXXXXXXXXXXXXX             .......................",
"........................       XXXXXXXXXXXXXXXXXXXXXXXXXXXXXXXXXXXXXXXXXXXXXXXXXXXXX       .........................",
".........................   XXXXXXXXXXXXXXXXXXXXXXXXXXXXXXXXXXXXXXXXXXXXXXXXXXXXXXXXXXX   ..........................",
".........................   XXXXXXXXXXXXXXXXXXXXXXXXXXXXXXXXXXXXXXXXXXXXXXXXXXXXXXXXXXX   ..........................",
".........................   XXXXXXXXXXXXXXXXXXXXXXXXXXXXXXXXXXXXXXXXXXXXXXXXXXXXXXXXXXX   ..........................",
".........................   XXXXXXXXXXXXXXXXXXXXXXXXXXXXXXXXXXXXXXXXXXXXXXXXXXXXXXXXXXX   ..........................",
".........................   XXXXXXXXXXXXXXXXXXXX                   XXXXXXXXXXXXXXXXXXXX   ..........................",
".........................   XXXXXXXXXXXXXX                               XXXXXXXXXXXXXX   ..........................",
".........................   XXXXXXXXX                                         XXXXXXXXX   ..........................",
".........................   XXXXXX              XXXXXXXXXXXXXXXXXXX              XXXXXX   ..........................",
".........................   XXX           XXXXXXXXXXXXXXXXXXXXXXXXXXXXXXX           XXX   ..........................",
".........................            XXXXXXXXXXXXXXXXXXXXXXXXXXXXXXXXXXXXXXXXX            ..........................",
".........................         XXXXXXXXXXXXXXXXXXXXXXXXXXXXXXXXXXXXXXXXXXXXXXX         ..........................",
".........................     XXXXXXXXXXXXXXXXXXXXXXXXXXXXXXXXXXXXXXXXXXXXXXXXXXXXXXX     ..........................",
".........................   XXXXXXXXXXXXXXXXXXXXXXXXXXXXXXXXXXXXXXXXXXXXXXXXXXXXXXXXXXX   ..........................",
".........................   XXXXXXXXXXXXXXXXXXXX                   XXXXXXXXXXXXXXXXXXXX   ..........................",
".........................   XXXXXXXXXXXXXX                               XXXXXXXXXXXXXX   ..........................",
".........................   XXXXXXXXX                                         XXXXXXXXX   ..........................",
".........................   XXXXX               XXXXXXXXXXXXXXXXXXX               XXXXX   ..........................",
".........................   XX            XXXXXXXXXXXXXXXXXXXXXXXXXXXXXXX            XX   ..........................",
".........................            XXXXXXXXXXXXXXXXXXXXXXXXXXXXXXXXXXXXXXXXX            ..........................",
".........................        XXXXXXXXXXXXXXXXXXXXXXXXXXXXXXXXXXXXXXXXXXXXXXXXX        ..........................",
".........................      XXXXXXXXXXXXXXXXXXXXXXXXXXXXXXXXXXXXXXXXXXXXXXXXXXXXX      ..........................",
"..........................        XXXXXXXXXXXXXXXXXXXXXXXXXXXXXXXXXXXXXXXXXXXXXXX        ...........................",
"............................          XXXXXXXXXXXXXXXXXXXXXXXXXXXXXXXXXXXXXXX          .............................",
"...............................           XXXXXXXXXXXXXXXXXXXXXXXXXXXXXXX           ................................",
"..................................               XXXXXXXXXXXXXXXXX               ...................................",
"......................................                                       .......................................",
"..........................................                               ...........................................",
".................................................                 ..................................................",
"....................................................................................................................",
"....................................................................................................................",
"....................................................................................................................",
"....................................................................................................................",
"....................................................................................................................",
"....................................................................................................................",
"....................................................................................................................",
"....................................................................................................................",
"...................................................................................................................."
};
