/* XPM */
static char *kld108[] = {
/* columns rows colors chars-per-pixel */
"108 108 3 1",
"  c black s dark_piece",
". c green s dark_square",
"X c white s light_piece",
/* pixels */
"............................................................................................................",
"............................................................................................................",
"............................................................................................................",
"............................................................................................................",
"............................................................................................................",
"............................................................................................................",
"............................................................................................................",
"............................................................................................................",
"....................................................   .....................................................",
"....................................................   .....................................................",
"....................................................   .....................................................",
"....................................................   .....................................................",
"....................................................   .....................................................",
"...............................................             ................................................",
"..............................................               ...............................................",
"...............................................             ................................................",
"....................................................   .....................................................",
"....................................................   .....................................................",
"....................................................   .....................................................",
"....................................................   .....................................................",
"....................................................   .....................................................",
"....................................................   .....................................................",
"....................................................   .....................................................",
"....................................................   .....................................................",
"....................................................   .....................................................",
"...................................................     ....................................................",
".................................................         ..................................................",
"................................................           .................................................",
"...............................................    XXXXX    ................................................",
"..............................................    XXXXXXX    ...............................................",
"..............................................   XXXXXXXXX   ...............................................",
".............................................   XXXXXXXXXXX   ..............................................",
".............................................   XXXXXXXXXXX   ..............................................",
".............................................   XXXXXXXXXXX   ..............................................",
"............................................   XXXXXXXXXXXXX   .............................................",
"......................          ............   XXXXXXXXXXXXX   ............          .......................",
"..................                 .........   XXXXXXXXXXXXX   .........                 ...................",
"................                     .......   XXXXXXXXXXXXX   .......                     .................",
"...............       XXXXXXXXXX       .....   XXXXXXXXXXXXX   .....       XXXXXXXXXX       ................",
".............     XXXXXXXXXXXXXXXXX      ...   XXXXXXXXXXXXX   ...      XXXXXXXXXXXXXXXXX     ..............",
"............     XXXXXXXXXXXXXXXXXXXX      .   XXXXXXXXXXXXX   .      XXXXXXXXXXXXXXXXXXXX     .............",
"...........    XXXXXXXXXXXXXXXXXXXXXXXX        XXXXXXXXXXXXX        XXXXXXXXXXXXXXXXXXXXXXXX    ............",
"..........    XXXXXXXXXXXXXXXXXXXXXXXXXXX       XXXXXXXXXXX       XXXXXXXXXXXXXXXXXXXXXXXXXXX    ...........",
"..........   XXXXXXXXXXXXXXXXXXXXXXXXXXXXX      XXXXXXXXXXX      XXXXXXXXXXXXXXXXXXXXXXXXXXXXX   ...........",
".........   XXXXXXXXXXXXXXXXXXXXXXXXXXXXXXX     XXXXXXXXXXX     XXXXXXXXXXXXXXXXXXXXXXXXXXXXXXX   ..........",
".........   XXXXXXXXXXXXXXXXXXXXXXXXXXXXXXXX     XXXXXXXXX     XXXXXXXXXXXXXXXXXXXXXXXXXXXXXXXX   ..........",
"........   XXXXXXXXXXXXXXXXXXXXXXXXXXXXXXXXXX    XXXXXXXXX    XXXXXXXXXXXXXXXXXXXXXXXXXXXXXXXXXX   .........",
"........   XXXXXXXXXXXXXXXXXXXXXXXXXXXXXXXXXXX    XXXXXXX    XXXXXXXXXXXXXXXXXXXXXXXXXXXXXXXXXXX   .........",
"........   XXXXXXXXXXXXXXXXXXXXXXXXXXXXXXXXXXX    XXXXXXX    XXXXXXXXXXXXXXXXXXXXXXXXXXXXXXXXXXX   .........",
".......   XXXXXXXXXXXXXXXXXXXXXXXXXXXXXXXXXXXXX    XXXXX    XXXXXXXXXXXXXXXXXXXXXXXXXXXXXXXXXXXXX   ........",
".......   XXXXXXXXXXXXXXXXXXXXXXXXXXXXXXXXXXXXXX   XXXXX   XXXXXXXXXXXXXXXXXXXXXXXXXXXXXXXXXXXXXX   ........",
".......   XXXXXXXXXXXXXXXXXXXXXXXXXXXXXXXXXXXXXX    XXX    XXXXXXXXXXXXXXXXXXXXXXXXXXXXXXXXXXXXXX   ........",
".......   XXXXXXXXXXXXXXXXXXXXXXXXXXXXXXXXXXXXXXX   XXX   XXXXXXXXXXXXXXXXXXXXXXXXXXXXXXXXXXXXXXX   ........",
".......   XXXXXXXXXXXXXXXXXXXXXXXXXXXXXXXXXXXXXXX    X    XXXXXXXXXXXXXXXXXXXXXXXXXXXXXXXXXXXXXXX   ........",
".......   XXXXXXXXXXXXXXXXXXXXXXXXXXXXXXXXXXXXXXXX   X   XXXXXXXXXXXXXXXXXXXXXXXXXXXXXXXXXXXXXXXX   ........",
".......   XXXXXXXXXXXXXXXXXXXXXXXXXXXXXXXXXXXXXXXX   X   XXXXXXXXXXXXXXXXXXXXXXXXXXXXXXXXXXXXXXXX   ........",
"........   XXXXXXXXXXXXXXXXXXXXXXXXXXXXXXXXXXXXXXX       XXXXXXXXXXXXXXXXXXXXXXXXXXXXXXXXXXXXXXX   .........",
"........   XXXXXXXXXXXXXXXXXXXXXXXXXXXXXXXXXXXXXXXX     XXXXXXXXXXXXXXXXXXXXXXXXXXXXXXXXXXXXXXXX   .........",
"........   XXXXXXXXXXXXXXXXXXXXXXXXXXXXXXXXXXXXXXXX     XXXXXXXXXXXXXXXXXXXXXXXXXXXXXXXXXXXXXXXX   .........",
".........   XXXXXXXXXXXXXXXXXXXXXXXXXXXXXXXXXXXXXXX     XXXXXXXXXXXXXXXXXXXXXXXXXXXXXXXXXXXXXXX   ..........",
".........    XXXXXXXXXXXXXXXXXXXXXXXXXXXXXXXXXXXXXX     XXXXXXXXXXXXXXXXXXXXXXXXXXXXXXXXXXXXXX    ..........",
"..........   XXXXXXXXXXXXXXXXXXXXXXXXXXXXXXXXXXXXXXX   XXXXXXXXXXXXXXXXXXXXXXXXXXXXXXXXXXXXXXX   ...........",
"...........   XXXXXXXXXXXXXXXXXXXXXXXXXXXXXXXXXXXXXX   XXXXXXXXXXXXXXXXXXXXXXXXXXXXXXXXXXXXXX   ............",
"...........    XXXXXXXXXXXXXXXXXXXXXXXXXXXXXXXXXXXXX   XXXXXXXXXXXXXXXXXXXXXXXXXXXXXXXXXXXXX    ............",
"............    XXXXXXXXXXXXXXXXXXXXXXXXXXXXXXXXXXXX   XXXXXXXXXXXXXXXXXXXXXXXXXXXXXXXXXXXX    .............",
".............    XXXXXXXXXXXXXXXXXXXXXXXXXXXXXXXXXXX   XXXXXXXXXXXXXXXXXXXXXXXXXXXXXXXXXXX    ..............",
"..............    XXXXXXXXXXXXXXXXXXXXXXXXXXXXXXXXXX   XXXXXXXXXXXXXXXXXXXXXXXXXXXXXXXXXX    ...............",
"...............    XXXXXXXXXXXXXXXXXXXXXXXX                     XXXXXXXXXXXXXXXXXXXXXXXX    ................",
"................    XXXXXXXXXXXXXXXX                                   XXXXXXXXXXXXXXXX    .................",
".................    XXXXXXXXXX                                             XXXXXXXXXX    ..................",
"..................     XXXX                XXXXXXXXXXXXXXXXXXXXX                XXXX     ...................",
"...................                 XXXXXXXXXXXXXXXXXXXXXXXXXXXXXXXXXXX                 ....................",
".....................          XXXXXXXXXXXXXXXXXXXXXXXXXXXXXXXXXXXXXXXXXXXXX          ......................",
"......................     XXXXXXXXXXXXXXXXXXXXXXXXXXXXXXXXXXXXXXXXXXXXXXXXXXXXX     .......................",
"......................   XXXXXXXXXXXXXXXXXXXXXXXXXXXXXXXXXXXXXXXXXXXXXXXXXXXXXXXXX   .......................",
"......................   XXXXXXXXXXXXXXXXXXXXXXXXXXXXXXXXXXXXXXXXXXXXXXXXXXXXXXXXX   .......................",
"......................   XXXXXXXXXXXXXXXXXXXXXXXXXXXXXXXXXXXXXXXXXXXXXXXXXXXXXXXXX   .......................",
"......................   XXXXXXXXXXXXXXXXXXXX                 XXXXXXXXXXXXXXXXXXXX   .......................",
"......................   XXXXXXXXXXXXX                               XXXXXXXXXXXX   ........................",
"......................   XXXXXXXXX                                       XXXXXXXX   ........................",
"......................   XXXXX               XXXXXXXXXXXXXXXXX               XXXX   ........................",
"......................   XX           XXXXXXXXXXXXXXXXXXXXXXXXXXXXXXX           X   ........................",
"......................            XXXXXXXXXXXXXXXXXXXXXXXXXXXXXXXXXXXXXXX           ........................",
".......................       XXXXXXXXXXXXXXXXXXXXXXXXXXXXXXXXXXXXXXXXXXXXXXX       ........................",
".......................    XXXXXXXXXXXXXXXXXXXXXXXXXXXXXXXXXXXXXXXXXXXXXXXXXXXXX    ........................",
".......................   XXXXXXXXXXXXXXXXXXX                 XXXXXXXXXXXXXXXXXXX   ........................",
".......................   XXXXXXXXXXXXX                             XXXXXXXXXXXXX   ........................",
".......................   XXXXXXXXX                                     XXXXXXXXX   ........................",
".......................   XXXXX              XXXXXXXXXXXXXXXXX              XXXXX   ........................",
".......................   XX           XXXXXXXXXXXXXXXXXXXXXXXXXXXXX           XX   ........................",
".......................            XXXXXXXXXXXXXXXXXXXXXXXXXXXXXXXXXXXXX            ........................",
".......................        XXXXXXXXXXXXXXXXXXXXXXXXXXXXXXXXXXXXXXXXXXXXX        ........................",
".......................     XXXXXXXXXXXXXXXXXXXXXXXXXXXXXXXXXXXXXXXXXXXXXXXXXXX     ........................",
".......................       XXXXXXXXXXXXXXXXXXXXXXXXXXXXXXXXXXXXXXXXXXXXXX        ........................",
".........................         XXXXXXXXXXXXXXXXXXXXXXXXXXXXXXXXXXXXXXX         ..........................",
"...........................           XXXXXXXXXXXXXXXXXXXXXXXXXXXXXXX          .............................",
"..............................               XXXXXXXXXXXXXXXXX              ................................",
"..................................                                       ...................................",
"......................................                               .......................................",
".............................................                 ..............................................",
"............................................................................................................",
"............................................................................................................",
"............................................................................................................",
"............................................................................................................",
"............................................................................................................",
"............................................................................................................",
"............................................................................................................",
"............................................................................................................"
};
