/* XPM */
static char *kld37[] = {
/* columns rows colors chars-per-pixel */
"37 37 3 1",
"  c black s dark_piece",
". c green s dark_square",
"X c white s light_piece",
/* pixels */
".....................................",
".....................................",
".....................................",
".................. ..................",
".................. ..................",
"................     ................",
".................. ..................",
".................. ..................",
".................. ..................",
".................   .................",
"................ XXX ................",
"............... XXXXX ...............",
".......     ... XXXXX ...     .......",
".....  XXXXX  . XXXXX .  XXXXX  .....",
".... XXXXXXXXX  XXXXX  XXXXXXXXX ....",
"... XXXXXXXXXXX XXXXX XXXXXXXXXXX ...",
"... XXXXXXXXXXXX XXX XXXXXXXXXXXX ...",
"... XXXXXXXXXXXX XXX XXXXXXXXXXXX ...",
"... XXXXXXXXXXXXX X XXXXXXXXXXXXX ...",
"... XXXXXXXXXXXXX X XXXXXXXXXXXXX ...",
".... XXXXXXXXXXXXX XXXXXXXXXXXXX ....",
".... XXXXXXXXXXXXX XXXXXXXXXXXXX ....",
"..... XXXXXXXXXXXX XXXXXXXXXXXX .....",
"...... XXXXXX           XXXXXX ......",
".......      XXXXXXXXXXX      .......",
"........ XXXXXXXXXXXXXXXXXXX ........",
"........ XXXXXXXXXXXXXXXXXXX ........",
"........ XXX             XXX ........",
"........    XXXXXXXXXXXXX    ........",
"........ XXXXX         XXXXX ........",
"........ X    XXXXXXXXX    X ........",
"........  XXXXXXXXXXXXXXXXX  ........",
"..........   XXXXXXXXXX    ..........",
".............          ..............",
".....................................",
".....................................",
"....................................."
};
