/* XPM */
static char *kld49[] = {
/* columns rows colors chars-per-pixel */
"49 49 3 1",
"  c black s dark_piece",
". c green s dark_square",
"X c white s light_piece",
/* pixels */
".................................................",
".................................................",
".................................................",
"........................ ........................",
"........................ ........................",
"........................ ........................",
".....................       .....................",
"........................ ........................",
"........................ ........................",
"........................ ........................",
"........................ ........................",
"......................     ......................",
"..................... XXXXX .....................",
".................... XXXXXXX ....................",
".................... XXXXXXX ....................",
".................... XXXXXXX ....................",
".........       .... XXXXXXX ....       .........",
".......  XXXXXXX  .. XXXXXXX ..  XXXXXXX  .......",
"...... XXXXXXXXXXX   XXXXXXX   XXXXXXXXXXX ......",
"..... XXXXXXXXXXXXXX XXXXXXX XXXXXXXXXXXXXX .....",
".... XXXXXXXXXXXXXXXX XXXXX XXXXXXXXXXXXXXXX ....",
".... XXXXXXXXXXXXXXXX  XXX  XXXXXXXXXXXXXXXX ....",
"... XXXXXXXXXXXXXXXXXX XXX XXXXXXXXXXXXXXXXXX ...",
"... XXXXXXXXXXXXXXXXXX  X  XXXXXXXXXXXXXXXXXX ...",
"... XXXXXXXXXXXXXXXXXXX X XXXXXXXXXXXXXXXXXXX ...",
"... XXXXXXXXXXXXXXXXXXX X XXXXXXXXXXXXXXXXXXX ...",
"... XXXXXXXXXXXXXXXXXXXX XXXXXXXXXXXXXXXXXXXX ...",
".... XXXXXXXXXXXXXXXXXXX XXXXXXXXXXXXXXXXXXX ....",
".... XXXXXXXXXXXXXXXXXXX XXXXXXXXXXXXXXXXXXX ....",
"..... XXXXXXXXXXXXXXXXXX XXXXXXXXXXXXXXXXXX .....",
"...... XXXXXXXXXXX             XXXXXXXXXXX ......",
"....... XXXXXX    XXXXXXXXXXXXX    XXXXXX .......",
"........  X   XXXXXXXXXXXXXXXXXXXXX   XX ........",
".......... XXXXXXXXXXXXXXXXXXXXXXXXXXX  .........",
".......... XXXXXXXXXXXXXXXXXXXXXXXXXXX ..........",
".......... XXXXXXXXXXXXXXXXXXXXXXXXXXX ..........",
".......... XXXXXXX             XXXXXXX ..........",
".......... XX     XXXXXXXXXXXXX     XX ..........",
"..........   XXXXXXXXXXXXXXXXXXXXXXX   ..........",
".......... XXXXXXXX           XXXXXXXX ..........",
".......... XXXX    XXXXXXXXXXX    XXXX ..........",
".......... X   XXXXXXXXXXXXXXXXXXX   X ..........",
"..........  XXXXXXXXXXXXXXXXXXXXXXXXX  ..........",
"...........   XXXXXXXXXXXXXXXXXXXXX   ...........",
"..............     XXXXXXXXXXXX    ..............",
"...................            ..................",
".................................................",
".................................................",
"................................................."
};
