/* XPM */
static char *kld54[] = {
/* columns rows colors chars-per-pixel */
"54 54 3 1",
"  c black s dark_piece",
". c green s dark_square",
"X c white s light_piece",
/* pixels */
"......................................................",
"......................................................",
"......................................................",
"..........................  ..........................",
"..........................  ..........................",
"..........................  ..........................",
".......................        .......................",
".......................        .......................",
"..........................  ..........................",
"..........................  ..........................",
"..........................  ..........................",
"..........................  ..........................",
"..........................  ..........................",
"........................      ........................",
".......................   XX   .......................",
".......................  XXXX  .......................",
"......................   XXXX   ......................",
"...........      .....  XXXXXX  .....      ...........",
".........           ..  XXXXXX  ..           .........",
".......    XXXXXX       XXXXXX       XXXXXX    .......",
"......   XXXXXXXXXXX    XXXXXX    XXXXXXXXXXX   ......",
".....   XXXXXXXXXXXXX    XXXX    XXXXXXXXXXXXX   .....",
".....  XXXXXXXXXXXXXXX   XXXX   XXXXXXXXXXXXXXX  .....",
"....   XXXXXXXXXXXXXXXX   XX   XXXXXXXXXXXXXXXX   ....",
"....  XXXXXXXXXXXXXXXXXX  XX  XXXXXXXXXXXXXXXXXX  ....",
"....  XXXXXXXXXXXXXXXXXX      XXXXXXXXXXXXXXXXXX  ....",
"....  XXXXXXXXXXXXXXXXXXX    XXXXXXXXXXXXXXXXXXX  ....",
"....  XXXXXXXXXXXXXXXXXXX    XXXXXXXXXXXXXXXXXXX  ....",
"....   XXXXXXXXXXXXXXXXXX    XXXXXXXXXXXXXXXXXX   ....",
".....  XXXXXXXXXXXXXXXXXXX  XXXXXXXXXXXXXXXXXXX  .....",
".....   XXXXXXXXXXXXXXXXXX  XXXXXXXXXXXXXXXXXX   .....",
"......   XXXXXXXXXXXXXXXXX  XXXXXXXXXXXXXXXXX   ......",
".......   XXXXXXXXXXXXXXXX  XXXXXXXXXXXXXXXX   .......",
"........   XXXXXXXXX              XXXXXXXXX   ........",
".........   XX                          XX   .........",
"..........          XXXXXXXXXXXXXX          ..........",
"...........   XXXXXXXXXXXXXXXXXXXXXXXXXX   ...........",
"...........  XXXXXXXXXXXXXXXXXXXXXXXXXXXX  ...........",
"...........  XXXXXXXX            XXXXXXXX  ...........",
"...........  XXX                      XXX  ...........",
"...........          XXXXXXXXXXXX          ...........",
"............    XXXXXXXXXXXXXXXXXXXXXX    ............",
"............  XXXXXXX            XXXXXXX  ............",
"............  XX                      XX  ............",
"............         XXXXXXXXXXXX         ............",
"............    XXXXXXXXXXXXXXXXXXXXXX    ............",
"............    XXXXXXXXXXXXXXXXXXXXXX    ............",
"..............       XXXXXXXXXXXX       ..............",
"................                      ................",
".....................            .....................",
"......................................................",
"......................................................",
"......................................................",
"......................................................"
};
