/* XPM */
static char *kld95[] = {
/* columns rows colors chars-per-pixel */
"95 95 3 1",
"  c black s dark_piece",
". c green s dark_square",
"X c white s light_piece",
/* pixels */
"...............................................................................................",
"...............................................................................................",
"...............................................................................................",
"...............................................................................................",
"...............................................................................................",
"...............................................................................................",
"...............................................................................................",
"...............................................................................................",
"..............................................   ..............................................",
"..............................................   ..............................................",
"..............................................   ..............................................",
"..............................................   ..............................................",
"..............................................   ..............................................",
".........................................             .........................................",
".........................................             .........................................",
".........................................             .........................................",
"..............................................   ..............................................",
"..............................................   ..............................................",
"..............................................   ..............................................",
"..............................................   ..............................................",
"..............................................   ..............................................",
"..............................................   ..............................................",
"..............................................   ..............................................",
".............................................     .............................................",
"...........................................         ...........................................",
"..........................................           ..........................................",
".........................................    XXXXX    .........................................",
".........................................   XXXXXXX   .........................................",
"........................................   XXXXXXXXX   ........................................",
"........................................   XXXXXXXXX   ........................................",
".......................................   XXXXXXXXXXX   .......................................",
"....................         ..........   XXXXXXXXXXX   ..........         ....................",
".................               .......   XXXXXXXXXXX   .......               .................",
"...............                   .....   XXXXXXXXXXX   .....                   ...............",
".............       XXXXXXXXX       ...   XXXXXXXXXXX   ...       XXXXXXXXX       .............",
"............     XXXXXXXXXXXXXXX     ..   XXXXXXXXXXX   ..     XXXXXXXXXXXXXXX     ............",
"...........    XXXXXXXXXXXXXXXXXXX        XXXXXXXXXXX        XXXXXXXXXXXXXXXXXXX    ...........",
"..........    XXXXXXXXXXXXXXXXXXXXX       XXXXXXXXXXX       XXXXXXXXXXXXXXXXXXXXX    ..........",
"..........   XXXXXXXXXXXXXXXXXXXXXXXX      XXXXXXXXX      XXXXXXXXXXXXXXXXXXXXXXXX   ..........",
".........   XXXXXXXXXXXXXXXXXXXXXXXXXX     XXXXXXXXX     XXXXXXXXXXXXXXXXXXXXXXXXXX   .........",
".........   XXXXXXXXXXXXXXXXXXXXXXXXXXX    XXXXXXXXX    XXXXXXXXXXXXXXXXXXXXXXXXXXX   .........",
"........   XXXXXXXXXXXXXXXXXXXXXXXXXXXXX    XXXXXXX    XXXXXXXXXXXXXXXXXXXXXXXXXXXXX   ........",
"........   XXXXXXXXXXXXXXXXXXXXXXXXXXXXXX   XXXXXXX   XXXXXXXXXXXXXXXXXXXXXXXXXXXXXX   ........",
".......   XXXXXXXXXXXXXXXXXXXXXXXXXXXXXXX    XXXXX    XXXXXXXXXXXXXXXXXXXXXXXXXXXXXXX   .......",
".......   XXXXXXXXXXXXXXXXXXXXXXXXXXXXXXXX   XXXXX   XXXXXXXXXXXXXXXXXXXXXXXXXXXXXXXX   .......",
".......   XXXXXXXXXXXXXXXXXXXXXXXXXXXXXXXXX   XXX   XXXXXXXXXXXXXXXXXXXXXXXXXXXXXXXXX   .......",
".......   XXXXXXXXXXXXXXXXXXXXXXXXXXXXXXXXX   XXX   XXXXXXXXXXXXXXXXXXXXXXXXXXXXXXXXX   .......",
".......   XXXXXXXXXXXXXXXXXXXXXXXXXXXXXXXXXX   X   XXXXXXXXXXXXXXXXXXXXXXXXXXXXXXXXXX   .......",
".......   XXXXXXXXXXXXXXXXXXXXXXXXXXXXXXXXXX   X   XXXXXXXXXXXXXXXXXXXXXXXXXXXXXXXXXX   .......",
".......   XXXXXXXXXXXXXXXXXXXXXXXXXXXXXXXXXX   X   XXXXXXXXXXXXXXXXXXXXXXXXXXXXXXXXXX   .......",
"........   XXXXXXXXXXXXXXXXXXXXXXXXXXXXXXXXXX     XXXXXXXXXXXXXXXXXXXXXXXXXXXXXXXXXX   ........",
"........   XXXXXXXXXXXXXXXXXXXXXXXXXXXXXXXXXX     XXXXXXXXXXXXXXXXXXXXXXXXXXXXXXXXXX   ........",
".........   XXXXXXXXXXXXXXXXXXXXXXXXXXXXXXXXX     XXXXXXXXXXXXXXXXXXXXXXXXXXXXXXXXX   .........",
".........    XXXXXXXXXXXXXXXXXXXXXXXXXXXXXXXX     XXXXXXXXXXXXXXXXXXXXXXXXXXXXXXXX    .........",
"..........   XXXXXXXXXXXXXXXXXXXXXXXXXXXXXXXXX   XXXXXXXXXXXXXXXXXXXXXXXXXXXXXXXXX   ..........",
"...........   XXXXXXXXXXXXXXXXXXXXXXXXXXXXXXXX   XXXXXXXXXXXXXXXXXXXXXXXXXXXXXXXX   ...........",
"...........    XXXXXXXXXXXXXXXXXXXXXXXXXXXXXXX   XXXXXXXXXXXXXXXXXXXXXXXXXXXXXXX    ...........",
"............    XXXXXXXXXXXXXXXXXXXXXXXXXXXXXX   XXXXXXXXXXXXXXXXXXXXXXXXXXXXXX    ............",
".............    XXXXXXXXXXXXXXXXXXXXXXXXXXXXX   XXXXXXXXXXXXXXXXXXXXXXXXXXXXX    .............",
"..............    XXXXXXXXXXXXXXXXXXXX                   XXXXXXXXXXXXXXXXXXXX    ..............",
"...............    XXXXXXXXXXXXX                               XXXXXXXXXXXXX    ...............",
"................    XXXXXXX                                         XXXXXXX    ................",
".................    XX               XXXXXXXXXXXXXXXXXXX               X     .................",
"..................              XXXXXXXXXXXXXXXXXXXXXXXXXXXXXXX              ..................",
"...................        XXXXXXXXXXXXXXXXXXXXXXXXXXXXXXXXXXXXXXXXX       ....................",
"....................   XXXXXXXXXXXXXXXXXXXXXXXXXXXXXXXXXXXXXXXXXXXXXXXXX   ....................",
"....................   XXXXXXXXXXXXXXXXXXXXXXXXXXXXXXXXXXXXXXXXXXXXXXXXX   ....................",
"....................   XXXXXXXXXXXXXXXXXXXXXXXXXXXXXXXXXXXXXXXXXXXXXXXXX   ....................",
"....................   XXXXXXXXXXXXXXXX                 XXXXXXXXXXXXXXX   .....................",
"....................   XXXXXXXXXX                             XXXXXXXXX   .....................",
"....................   XXXXXX                                     XXXXX   .....................",
"....................   XXX             XXXXXXXXXXXXXXXXX             XX   .....................",
"....................             XXXXXXXXXXXXXXXXXXXXXXXXXXXXX            .....................",
"....................         XXXXXXXXXXXXXXXXXXXXXXXXXXXXXXXXXXXXX        .....................",
"....................      XXXXXXXXXXXXXXXXXXXXXXXXXXXXXXXXXXXXXXXXXXX     .....................",
"....................   XXXXXXXXXXXXXXXXX               XXXXXXXXXXXXXXXX   .....................",
".....................   XXXXXXXXXX                           XXXXXXXXXX   .....................",
".....................   XXXXXX                                   XXXXXX   .....................",
".....................   XXX             XXXXXXXXXXXXXXX             XXX   .....................",
".....................             XXXXXXXXXXXXXXXXXXXXXXXXXXX             .....................",
".....................         XXXXXXXXXXXXXXXXXXXXXXXXXXXXXXXXXXX         .....................",
".....................      XXXXXXXXXXXXXXXXXXXXXXXXXXXXXXXXXXXXXXXXX      .....................",
".....................        XXXXXXXXXXXXXXXXXXXXXXXXXXXXXXXXXXXX         .....................",
".......................          XXXXXXXXXXXXXXXXXXXXXXXXXXXX          ........................",
"..........................             XXXXXXXXXXXXXXXX             ...........................",
".............................                                    ..............................",
".................................                            ..................................",
".......................................                ........................................",
"...............................................................................................",
"...............................................................................................",
"...............................................................................................",
"...............................................................................................",
"...............................................................................................",
"...............................................................................................",
"..............................................................................................."
};
