/* XPM */
static char *kll45[] = {
/* columns rows colors chars-per-pixel */
"45 45 3 1",
"  c black s dark_piece",
". c gray s light_square",
"X c white s light_piece",
/* pixels */
".............................................",
".............................................",
".............................................",
"...................... ......................",
"...................... ......................",
"....................     ....................",
"...................... ......................",
"...................... ......................",
"...................... ......................",
"...................... ......................",
"....................     ....................",
"................... XXXXX ...................",
".................. XXXXXXX ..................",
".................. XXXXXXX ..................",
".................. XXXXXXX ..................",
"........      .... XXXXXXX ....      ........",
"......  XXXXXX  .. XXXXXXX ..  XXXXXX  ......",
"..... XXXXXXXXXX   XXXXXXX   XXXXXXXXXX .....",
".... XXXXXXXXXXXXX  XXXXX  XXXXXXXXXXXXX ....",
".... XXXXXXXXXXXXXX XXXXX XXXXXXXXXXXXXX ....",
"... XXXXXXXXXXXXXXXX XXX XXXXXXXXXXXXXXXX ...",
"... XXXXXXXXXXXXXXXX XXX XXXXXXXXXXXXXXXX ...",
"... XXXXXXXXXXXXXXXXX X XXXXXXXXXXXXXXXXX ...",
"... XXXXXXXXXXXXXXXXX X XXXXXXXXXXXXXXXXX ...",
".... XXXXXXXXXXXXXXXXX XXXXXXXXXXXXXXXXXX ...",
".... XXXXXXXXXXXXXXXXX XXXXXXXXXXXXXXXXX ....",
"..... XXXXXXXXXXXXXXXX XXXXXXXXXXXXXXXXX ....",
"...... XXXXXXXXXXXXXXX XXXXXXXXXXXXXXXX .....",
"....... XXXXXXXX             XXXXXXXXX ......",
"........ XXX    XXXXXXXXXXXXX    XXXX .......",
".........   XXXXXXXXXXXXXXXXXXXXX    ........",
"......... XXXXXXXXXXXXXXXXXXXXXXXXX .........",
"......... XXXXXXXXXXXXXXXXXXXXXXXXX .........",
"......... XXXXXX             XXXXXX .........",
".......... X    XXXXXXXXXXXXX    X ..........",
".........   XXXXXXXXXXXXXXXXXXXXX   .........",
".......... XXXXXX           XXXXXX ..........",
".......... XX    XXXXXXXXXXX    XX ..........",
"..........   XXXXXXXXXXXXXXXXXXX   ..........",
"..........   XXXXXXXXXXXXXXXXXXXX  ..........",
".............    XXXXXXXXXXXX    ............",
".................            ................",
".............................................",
".............................................",
"............................................."
};
