/* XPM */
static char * kll40[] = {
"40 40 3 1",
" 	c gray s light_square",
".	c black s dark_piece",
"X	c white s light_piece",
"                                        ",
"                    .                   ",
"                    .                   ",
"                  .....                 ",
"                    .                   ",
"                    .                   ",
"                    .                   ",
"                    .                   ",
"                   ...                  ",
"                  .XXX.                 ",
"                 .XXXXX.                ",
"                 .XXXXX.                ",
"        .....    .XXXXX.    .....       ",
"      ..XXXXX..  .XXXXX.  ..XXXXX..     ",
"     .XXXXXXXXX...XXXXX...XXXXXXXXX.    ",
"    .XXXXXXXXXXXX..XXX..XXXXXXXXXXXX.   ",
"    .XXXXXXXXXXXXX.XXX.XXXXXXXXXXXXX.   ",
"   .XXXXXXXXXXXXXX..X..XXXXXXXXXXXXXX.  ",
"   .XXXXXXXXXXXXXXX.X.XXXXXXXXXXXXXXX.  ",
"   .XXXXXXXXXXXXXXX.X.XXXXXXXXXXXXXXX.  ",
"    .XXXXXXXXXXXXXXX.XXXXXXXXXXXXXXX.   ",
"    .XXXXXXXXXXXXXXX.XXXXXXXXXXXXXXX.   ",
"     .XXXXXXXXXXXXXX.XXXXXXXXXXXXXX.    ",
"      .XXXXXXXX...........XXXXXXXX.     ",
"       .XXX....XXXXXXXXXXX....XXX.      ",
"        ...XXXXXXXXXXXXXXXXXXX...       ",
"         .XXXXXXXXXXXXXXXXXXXXX.        ",
"         .XXXXXXXXXXXXXXXXXXXXX.        ",
"         .XXXX.............XXXX.        ",
"         .....XXXXXXXXXXXXX.....        ",
"         .XXXXXX.........XXXXXX.        ",
"         .XX....XXXXXXXXX....XX.        ",
"         ...XXXXXXXXXXXXXXXXX...        ",
"         ..XXXXXXXXXXXXXXXXXXX..        ",
"           ....XXXXXXXXXXX....          ",
"               ...........              ",
"                                        ",
"                                        ",
"                                        ",
"                                        "};
