/* XPM */
static char *ndd25[] = {
/* columns rows colors chars-per-pixel */
"25 25 3 1",
"  c black s dark_piece",
". c green s dark_square",
"X c white s light_piece",
/* pixels */
".........................",
".........................",
"....... ... .............",
".......  .   ............",
".......         .........",
"......  XX   XXX  .......",
"...... XX       X  ......",
"..... X X        X  .....",
"..... XX         XX .....",
"....              X  ....",
"....         X    XX ....",
"...               XX  ...",
"...                X  ...",
".. XX      ..      XX ...",
".. X     ....      XX ...",
"..      ....       XX  ..",
"...    ....         X  ..",
".....  ....         XX ..",
"..........          XX ..",
".........           XX ..",
"........            XX ..",
"........               ..",
"........               ..",
".........................",
"........................."
};
