/* XPM */
static char * ndd49[] = {
"49 49 3 1",
" 	c green s dark_square",
".	c black s dark_piece",
"X	c white s light_piece",
"                                                 ",
"                                                 ",
"                                                 ",
"                                                 ",
"             .        .                          ",
"             ...     ...                         ",
"             ....    ....                        ",
"             .....  .....                        ",
"             ...............                     ",
"              ....XX.....XXX...                  ",
"             ...XX..........XXX..                ",
"            ..................XXX.               ",
"           .....................XX.              ",
"           .......................X.             ",
"          ......X..................X.            ",
"          ....XX....................X.           ",
"          ....X.....................XX.          ",
"          ...X.......................X.          ",
"         ............................XX.         ",
"         .............................X.         ",
"         .............................XX.        ",
"        ..................X............X.        ",
"        ..................X............XX.       ",
"       ................................XX.       ",
"      ..................................X.       ",
"      ................... ..............XX.      ",
"     ...................  ..............XX.      ",
"     .................    ...............X.      ",
"    ...XX...........      ...............X.      ",
"    ...X..........       ................XX.     ",
"    .............        ................XX.     ",
"    ............        .................XX.     ",
"    ......X....        ..................XX.     ",
"     .........         ...................X.     ",
"      .......         ....................X.     ",
"           ..        .....................XX.    ",
"                    ......................XX.    ",
"                   .......................XX.    ",
"                  ........................XX.    ",
"                 .........................XX.    ",
"                 .........................XX.    ",
"                ..........................XX.    ",
"                ..........................XX.    ",
"               ...........................XX.    ",
"               ..............................    ",
"               ..............................    ",
"                                                 ",
"                                                 ",
"                                                 "};
