/* XPM */
static char *ndd58[] = {
/* columns rows colors chars-per-pixel */
"58 58 3 1",
"  c black s dark_piece",
". c green s dark_square",
"X c white s light_piece",
/* pixels */
"..........................................................",
"..........................................................",
"..........................................................",
"..........................................................",
"..........................................................",
"................ .........  ..............................",
"...............   .......    .............................",
"...............     .....    .............................",
"................     ...      ............................",
"................      ..      ............................",
"................                  ........................",
"................                     .....................",
"................      XX     XXXX      ...................",
"...............    XXXXX      XXXXX      .................",
"..............     XXX          XXXXX     ................",
".............                     XXXX     ...............",
".............                       XXXX    ..............",
"............     XXXX                XXXX    .............",
"............    XXXX                  XXXX    ............",
"............    XXXX                   XXXX   ............",
"............    XXX                     XXX    ...........",
"...........     X                       XXXX   ...........",
"...........                              XXXX   ..........",
"...........                              XXXX   ..........",
"..........                     X          XXXX   .........",
"..........                     X          XXXX   .........",
".........                     XX           XXXX  .........",
"........                      X            XXXX   ........",
".......                                    XXXX   ........",
".......                                     XXXX  ........",
"......                       .              XXXX   .......",
"......                     ...              XXXX   .......",
".....    XX              .....               XXXX  .......",
".....   XXX             .....                XXXX  .......",
".....   XXX           .......                XXXX   ......",
".....   XX           .......                 XXXX   ......",
".....        XX     ........                 XXXXX  ......",
".....        X     ........                   XXXX  ......",
".....       XX    ........                    XXXX  ......",
"......           ........                     XXXX  ......",
"........         .......                      XXXX  ......",
".............   .......                       XXXX   .....",
"......................                        XXXX   .....",
".....................                         XXXX   .....",
".....................                         XXXX   .....",
"....................                          XXXX   .....",
"...................                           XXXXX  .....",
"...................                           XXXXX  .....",
"..................                             XXXX  .....",
"..................                             XXXX  .....",
"..................                              XXX  .....",
"..................                                   .....",
"..................                                   .....",
"..........................................................",
"..........................................................",
"..........................................................",
"..........................................................",
".........................................................."
};
