/* XPM */
static char *ndd64[] = {
/* columns rows colors chars-per-pixel */
"64 64 3 1",
"  c black s dark_piece",
". c green s dark_square",
"X c white s light_piece",
/* pixels */
"................................................................",
"................................................................",
"................................................................",
"................................................................",
"................................................................",
".................   ........   .................................",
".................    .......    ................................",
".................      ....     ................................",
".................       ..       ...............................",
".................        .       ...............................",
".................                    ...........................",
"..................                      ........................",
"..................      XX      XXXX      ......................",
".................     XXXXX      XXXXXX    .....................",
"................     XXX            XXXXX    ...................",
"...............      X                XXXX    ..................",
"...............                         XXXX   .................",
"..............       XX                  XXXX   ................",
"..............     XXX                    XXXX   ...............",
"..............    XXXX                     XXXX  ...............",
".............    XXXXX                      XXXX  ..............",
".............    XXXX                       XXXX   .............",
".............    X                           XXXX  .............",
"............                                  XXXX  ............",
"............                                  XXXX  ............",
"............                                   XXXX  ...........",
"...........                       X            XXXX  ...........",
"...........                       X             XXXX  ..........",
"..........                       XX             XXXX  ..........",
".........                        X              XXXX  ..........",
".........                                        XXXX  .........",
"........                                         XXXX  .........",
".......                         .                XXXX  .........",
".......                       ...                 XXXX  ........",
".......   XX                .....                 XXXX  ........",
"......   XXXX             ......                  XXXX  ........",
"......   XXXX           ........                  XXXX  ........",
"......   XXX           ........                   XXXX  ........",
"......   XXX          .........                    XXXX  .......",
"......         X     .........                     XXXX  .......",
"......        XX    .........                      XXXX  .......",
".......      XX    .........                       XXXX  .......",
"........           .........                       XXXX  .......",
"..........        .........                        XXXX  .......",
"..............   .........                         XXXXX .......",
".........................                           XXXX  ......",
"........................                            XXXX  ......",
".......................                             XXXX  ......",
"......................                              XXXX  ......",
"......................                              XXXX  ......",
".....................                               XXXX  ......",
".....................                               XXXX  ......",
"....................                                XXXX  ......",
"....................                                XXXX  ......",
"....................                                XXXX  ......",
"....................                                      ......",
"....................                                      ......",
"................................................................",
"................................................................",
"................................................................",
"................................................................",
"................................................................",
"................................................................",
"................................................................"
};
