/* XPM */
static char *ndl116[] = {
/* columns rows colors chars-per-pixel */
"116 116 3 1",
"  c black s dark_piece",
". c gray s light_square",
"X c white s light_piece",
/* pixels */
"....................................................................................................................",
"....................................................................................................................",
"....................................................................................................................",
"....................................................................................................................",
"....................................................................................................................",
"....................................................................................................................",
"....................................................................................................................",
"....................................................................................................................",
"....................................................................................................................",
"....................................................................................................................",
"....................................................................................................................",
"....................................................................................................................",
"..................................................... ..............................................................",
"................................  ..................   .............................................................",
"...............................    ................     ............................................................",
"...............................     ...............     ............................................................",
"...............................       ............       ...........................................................",
"...............................        ..........        ...........................................................",
"...............................          ........         ..........................................................",
"...............................           ......          ..........................................................",
"...............................            .....           .........................................................",
"...............................             ...            .........................................................",
"................................            ...            .........................................................",
"................................                                   .................................................",
"................................                                      ..............................................",
"................................                                        ............................................",
".................................          XXXXX           XXXXXXX        ..........................................",
"................................        XXXXXXXX           XXXXXXXXXX       ........................................",
"...............................       XXXXXXXXXX            XXXXXXXXXXX       ......................................",
"..............................       XXXXXX                      XXXXXXXX      .....................................",
".............................        XXX                            XXXXXXX      ...................................",
"............................                                          XXXXXX      ..................................",
"...........................                                             XXXXX      .................................",
"...........................                                               XXXXX     ................................",
"..........................                                                 XXXXX     ...............................",
"..........................            XXX                                   XXXXX     ..............................",
"..........................          XXXXX                                    XXXXX     .............................",
".........................          XXXX                                       XXXXX    .............................",
".........................         XXXXX                                        XXXXX    ............................",
".........................        XXXXXX                                         XXXXX    ...........................",
".........................       XXXXXX                                          XXXXX     ..........................",
"........................        XXXXXX                                           XXXXX    ..........................",
"........................       XX XX                                              XXXXX    .........................",
"........................       XX                                                  XXXX    .........................",
"........................       XX                                                  XXXXX    ........................",
".......................                                                             XXXXX   ........................",
".......................                                                             XXXXX    .......................",
".......................                                                              XXXXX   .......................",
"......................                                                               XXXXX    ......................",
"......................                                                                XXXXX   ......................",
".....................                                                                 XXXXX    .....................",
".....................                                        XX                        XXXXX   .....................",
"....................                                         XX                        XXXXX    ....................",
"...................                                          XX                         XXXX    ....................",
"...................                                          X                          XXXXX   ....................",
"..................                                          XX                          XXXXX    ...................",
".................                                           X                            XXXXX   ...................",
".................                                           X                            XXXXX   ...................",
"................                                                                         XXXXX    ..................",
"...............                                                                           XXXXX   ..................",
"...............                                            .                              XXXXX   ..................",
"..............                                            ..                              XXXXX    .................",
"..............                                          ....                              XXXXXX   .................",
".............                                          .....                               XXXXX   .................",
".............                                        .......                               XXXXX   .................",
".............                                      .........                               XXXXX    ................",
"............       XX                            ...........                               XXXXXX   ................",
"............      XXXX                         ............                                 XXXXX   ................",
"............     XXXXX                       ..............                                 XXXXX   ................",
"...........      XXXXX                      ...............                                 XXXXX    ...............",
"...........      XXXX                     ................                                  XXXXXX   ...............",
"...........      XXXX                    .................                                  XXXXXX   ...............",
"...........       XX                    .................                                    XXXXX   ...............",
"...........                            .................                                     XXXXX   ...............",
"...........                XX         ..................                                     XXXXX    ..............",
"...........               XX         ..................                                      XXXXX    ..............",
"............              XX        ..................                                       XXXXXX   ..............",
"............             XX        ..................                                        XXXXXX   ..............",
".............           XX         ..................                                         XXXXX   ..............",
"..............                    ..................                                          XXXXX   ..............",
"................                 ..................                                           XXXXX   ..............",
"..................     .        ..................                                            XXXXX    .............",
".........................       .................                                             XXXXX    .............",
".........................      .................                                              XXXXXX   .............",
"..........................    .................                                               XXXXXX   .............",
"..............................................                                                XXXXXX   .............",
".............................................                                                 XXXXXX   .............",
"............................................                                                  XXXXXX   .............",
"...........................................                                                   XXXXXX   .............",
"...........................................                                                    XXXXX   .............",
"..........................................                                                     XXXXX   .............",
".........................................                                                      XXXXX    ............",
"........................................                                                       XXXXX    ............",
"........................................                                                       XXXXX    ............",
".......................................                                                        XXXXX    ............",
".......................................                                                        XXXXX    ............",
"......................................                                                         XXXXX    ............",
"......................................                                                         XXXXX    ............",
".....................................                                                          XXXXX    ............",
".....................................                                                          XXXXX    ............",
".....................................                                                          XXXXX    ............",
"....................................                                                           XXXXXX   ............",
"....................................                                                            XXXXX   ............",
"....................................                                                              XX    ............",
"....................................                                                                    ............",
"....................................                                                                    ............",
".....................................                                                                   ............",
"....................................................................................................................",
"....................................................................................................................",
"....................................................................................................................",
"....................................................................................................................",
"....................................................................................................................",
"....................................................................................................................",
"....................................................................................................................",
"....................................................................................................................",
"...................................................................................................................."
};
