/* XPM */
static char *ndl108[] = {
/* columns rows colors chars-per-pixel */
"108 108 3 1",
"  c black s dark_piece",
". c gray s light_square",
"X c white s light_piece",
/* pixels */
"............................................................................................................",
"............................................................................................................",
"............................................................................................................",
"............................................................................................................",
"............................................................................................................",
"............................................................................................................",
"............................................................................................................",
"............................................................................................................",
"............................................................................................................",
"............................................................................................................",
".............................  ..................  .........................................................",
"............................    ................    ........................................................",
"............................     ..............     ........................................................",
"............................       ...........       .......................................................",
"............................        ..........       .......................................................",
".............................         .......         ......................................................",
".............................          ......         ......................................................",
".............................           ....           .....................................................",
".............................            ...           .....................................................",
".............................            ..                .................................................",
".............................                                   ............................................",
".............................                                      .........................................",
"..............................            X            XXX           .......................................",
".............................          XXXXX           XXXXXXX         .....................................",
"............................        XXXXXXXXX          XXXXXXXXXX        ...................................",
"...........................       XXXXXXXX                XXXXXXXXX       ..................................",
"..........................        XXXXX                      XXXXXXX        ................................",
"..........................         X                            XXXXXX       ...............................",
".........................                                         XXXXX       ..............................",
"........................                                            XXXXX      .............................",
"........................                                             XXXXX      ............................",
".......................            XXX                                XXXXX      ...........................",
".......................         XXXXXX                                 XXXXX      ..........................",
".......................        XXXXX                                    XXXXX     ..........................",
"......................        XXXXXX                                     XXXXX     .........................",
"......................       XXXXXXX                                      XXXXX     ........................",
"......................       XXXXXX                                        XXXX     ........................",
"......................      XXXXXXX                                        XXXXX     .......................",
"......................      XX XX                                           XXXXX     ......................",
"......................      XX                                               XXXXX    ......................",
".....................       XX                                               XXXXX     .....................",
".....................                                                         XXXXX    .....................",
".....................                                                          XXXX     ....................",
"....................                                                           XXXXX    ....................",
"....................                                                            XXXX     ...................",
"...................                                                             XXXXX    ...................",
"...................                                      XX                      XXXX     ..................",
"..................                                       XX                      XXXXX    ..................",
".................                                        XX                      XXXXX    ..................",
".................                                        X                        XXXXX    .................",
"................                                        XX                        XXXXX    .................",
"...............                                         X                          XXXX    .................",
"..............                                          X                          XXXXX    ................",
"..............                                                                     XXXXX    ................",
".............                                                                       XXXXX   ................",
".............                                                                       XXXXX    ...............",
"............                                           .                            XXXXX    ...............",
"............                                          ..                            XXXXXX   ...............",
"...........                                         ....                             XXXXX    ..............",
"...........                                       ......                             XXXXX    ..............",
"..........                                      ........                             XXXXX    ..............",
"..........       XX                           .........                              XXXXXX   ..............",
"..........      XXXX                        ...........                               XXXXX    .............",
".........      XXXXX                      .............                               XXXXX    .............",
".........      XXXXX                     .............                                XXXXX    .............",
".........      XXXX                    ...............                                XXXXXX   .............",
".........       XX                    ...............                                  XXXXX   .............",
".........                            ................                                  XXXXX    ............",
".........               XX          ................                                   XXXXX    ............",
".........               XX         ................                                    XXXXX    ............",
"..........             XX         .................                                    XXXXX    ............",
"..........             XX        .................                                     XXXXXX   ............",
"...........           XX        .................                                      XXXXXX   ............",
"............          X        .................                                        XXXXX   ............",
"..............                .................                                         XXXXX    ...........",
"................              ................                                          XXXXX    ...........",
"......................       ................                                           XXXXX    ...........",
"......................      ................                                            XXXXX    ...........",
".......................    ................                                             XXXXXX   ...........",
"...........................................                                             XXXXXX   ...........",
"..........................................                                              XXXXXX   ...........",
".........................................                                               XXXXXX   ...........",
"........................................                                                XXXXXX   ...........",
".......................................                                                 XXXXXX   ...........",
"......................................                                                   XXXXX    ..........",
"......................................                                                   XXXXX    ..........",
".....................................                                                    XXXXX    ..........",
"....................................                                                     XXXXX    ..........",
"....................................                                                     XXXXX    ..........",
"...................................                                                      XXXXX    ..........",
"...................................                                                      XXXXX    ..........",
"..................................                                                       XXXXX    ..........",
"..................................                                                       XXXXX    ..........",
"..................................                                                       XXXXX    ..........",
".................................                                                        XXXXX    ..........",
".................................                                                         XXXX    ..........",
".................................                                                          XXX    ..........",
".................................                                                                 ..........",
".................................                                                                 ..........",
"..................................                                                                ..........",
"............................................................................................................",
"............................................................................................................",
"............................................................................................................",
"............................................................................................................",
"............................................................................................................",
"............................................................................................................",
"............................................................................................................",
"............................................................................................................"
};
