/* XPM */
static char *ndl21[] = {
/* columns rows colors chars-per-pixel */
"21 21 3 1",
"  c black s dark_piece",
". c gray s light_square",
"X c white s light_piece",
/* pixels */
".....................",
".....  .. ...........",
".....      ..........",
".....        ........",
".....  XX  X   ......",
"..... XX    XX  .....",
".... X       XX  ....",
".... X        XX ....",
"...        X  XXX ...",
"...        X   XX ...",
"..             XX ...",
".. X      X    XX  ..",
".. X    ..      XX ..",
"..  X  ..       XX ..",
"..    ..        XX ..",
".......         XX ..",
"......          XX ..",
"......          XX ..",
"......             ..",
".....................",
"....................."
};
