/* XPM */
static char * ndl40[] = {
"40 40 3 1",
" 	c gray s light_square",
".	c black s dark_piece",
"X	c white s light_piece",
"                                        ",
"                                        ",
"           .      ..                    ",
"           ...    ..                    ",
"           ....  ....                   ",
"           ..... ....                   ",
"            ..............              ",
"           ...XXX.....XXX...            ",
"          ...............XX..           ",
"          .................X..          ",
"         ....XX.............X..         ",
"         ...XX...............X..        ",
"         ..XX................XX.        ",
"         ..X..................XX.       ",
"        ......................XX.       ",
"        .......................XX.      ",
"       ........................XX.      ",
"      ...............X..........X..     ",
"      ..........................XX.     ",
"     ............... ...........XX.     ",
"     ..............  ............X.     ",
"    ..XX.........    ............XX.    ",
"    ..XX.......     .............XX.    ",
"    ..X.......      .............XX.    ",
"    .....X...      ...............X.    ",
"     .......       ...............X.    ",
"      .....       ................XX.   ",
"         .       .................XX.   ",
"                ..................XX.   ",
"               ...................XX.   ",
"               ...................XX.   ",
"              ....................XX.   ",
"              ....................XX.   ",
"             .....................XX.   ",
"             ......................X.   ",
"             ........................   ",
"                                        ",
"                                        ",
"                                        ",
"                                        "};
