/* XPM */
static char * ndl45[] = {
"45 45 3 1",
" 	c gray s light_square",
".	c black s dark_piece",
"X	c white s light_piece",
"                                             ",
"                                             ",
"                                             ",
"                                             ",
"            ..      ..                       ",
"            ...    ...                       ",
"            ....  .....                      ",
"            ..... ......                     ",
"            ...............                  ",
"            ...XXX......XXX...               ",
"           ................XXX.              ",
"          ...................XX.             ",
"          ....XX...............X.            ",
"         ....X..................X.           ",
"         .....X..................X.          ",
"         ...XX...................XX.         ",
"         ...X.....................X.         ",
"        ..........................XX.        ",
"        ...........................X.        ",
"       .................X..........XX.       ",
"      ..............................X.       ",
"      .................X............X.       ",
"     ...............................XX.      ",
"    ................... .............X.      ",
"    .................   .............X.      ",
"   ...XX............    .............X.      ",
"   ...XX..........      .............XX.     ",
"   ...X.........       ...............X.     ",
"   ............       ................X.     ",
"   ...........        ................X.     ",
"    .....X...        .................X.     ",
"     .......        ..................XX.    ",
"          ..       ...................XX.    ",
"                  ....................XX.    ",
"                 .....................XX.    ",
"                ......................XX.    ",
"                ......................XX.    ",
"               .......................XX.    ",
"               ........................X.    ",
"              .........................X.    ",
"              .........................X.    ",
"              ...........................    ",
"                                             ",
"                                             ",
"                                             "};
