/* XPM */
static char *ndl87[] = {
/* columns rows colors chars-per-pixel */
"87 87 3 1",
"  c black s dark_piece",
". c gray s light_square",
"X c white s light_piece",
/* pixels */
".......................................................................................",
".......................................................................................",
".......................................................................................",
".......................................................................................",
".......................................................................................",
".......................................................................................",
".......................................................................................",
"........................ ..............   .............................................",
".......................    ............   .............................................",
".......................     ..........     ............................................",
".......................      ........      ............................................",
".......................        ......       ...........................................",
".......................         ....        ...........................................",
".......................          ...         ..........................................",
".......................           .          ..........................................",
"........................                           ....................................",
"........................                              .................................",
"........................                                ...............................",
"........................        XXXX        XXXXXX        .............................",
".......................       XXXXXXX        XXXXXXXX      ............................",
"......................      XXXXXXXX          XXXXXXXX       ..........................",
".....................       XXXX                  XXXXXX      .........................",
"....................         X                      XXXXX      ........................",
"....................                                  XXXXX     .......................",
"...................         XXX                        XXXXX     ......................",
"...................       XXXXX                         XXXXX     .....................",
"...................      XXXXX                           XXXXX    .....................",
"..................      XXXXXX                            XXXXX    ....................",
"..................      XXXXXX                             XXXXX    ...................",
"..................     XXXXXX                               XXXX     ..................",
"..................     XX XX                                XXXXX    ..................",
"..................     XX                                    XXXXX    .................",
".................                                             XXXX    .................",
".................                                             XXXXX    ................",
".................                                              XXXX    ................",
"................                                               XXXXX    ...............",
"................                              XX                XXXX    ...............",
"...............                               XX                XXXXX    ..............",
"..............                                XX                XXXXX    ..............",
"..............                               XX                  XXXXX   ..............",
".............                                XX                  XXXXX    .............",
"............                                 X                   XXXXX    .............",
"............                                                      XXXXX   .............",
"...........                                                       XXXXX    ............",
"...........                                 .                     XXXXX    ............",
"..........                                 ..                      XXXXX   ............",
"..........                               ....                      XXXXX   ............",
".........                              ......                      XXXXX    ...........",
".........     XX                     ........                       XXXXX   ...........",
".........    XXXX                  .........                        XXXXX   ...........",
"........    XXXXX                 ..........                        XXXXX   ...........",
"........    XXXXX               ...........                         XXXXX    ..........",
"........    XXXX               ............                         XXXXXX   ..........",
"........     XX               ............                           XXXXX   ..........",
"........            XX       .............                           XXXXX   ..........",
"........           XX       .............                            XXXXX   ..........",
".........          XX      .............                             XXXXX    .........",
".........         XX      .............                              XXXXX    .........",
"..........               .............                               XXXXXX   .........",
"...........             .............                                XXXXXX   .........",
".............    .     .............                                 XXXXXX   .........",
"...................   .............                                   XXXXX   .........",
"..................................                                    XXXXX   .........",
"..................................                                    XXXXX   .........",
".................................                                     XXXXX   .........",
"................................                                      XXXXX    ........",
"...............................                                       XXXXX    ........",
"..............................                                        XXXXX    ........",
"..............................                                        XXXXX    ........",
".............................                                         XXXXXX   ........",
".............................                                         XXXXXX   ........",
"............................                                          XXXXXX   ........",
"............................                                          XXXXXX   ........",
"............................                                          XXXXXX   ........",
"...........................                                            XXXXX   ........",
"...........................                                             XXXX   ........",
"...........................                                                    ........",
"...........................                                                    ........",
"............................                                                   ........",
".......................................................................................",
".......................................................................................",
".......................................................................................",
".......................................................................................",
".......................................................................................",
".......................................................................................",
".......................................................................................",
"......................................................................................."
};
