/* XPM */
static char *ndl80[] = {
/* columns rows colors chars-per-pixel */
"80 80 3 1",
"  c black s dark_piece",
". c gray s light_square",
"X c white s light_piece",
/* pixels */
"................................................................................",
"................................................................................",
"................................................................................",
"................................................................................",
"................................................................................",
"................................................................................",
"......................  ............  ..........................................",
"......................   ..........    .........................................",
"......................    .........     ........................................",
"......................      ......      ........................................",
"......................       ....        .......................................",
"......................        ...        .......................................",
"......................         .         .......................................",
"......................                         .................................",
"......................                            ..............................",
".......................       XXXX      XXXXXX      ............................",
"......................     XXXXXXX        XXXXXX      ..........................",
".....................     XXXX               XXXXX      ........................",
"....................                            XXXX     .......................",
"...................                               XXX     ......................",
"...................                                XXXX    .....................",
"..................                                  XXXX    ....................",
"..................        XXX                        XXXX    ...................",
"..................      XXX                           XXXX   ...................",
".................      XXXX                            XXXX   ..................",
".................      XXXX                             XXX    .................",
".................     XXXX                              XXXX   .................",
".................     X                                  XXXX   ................",
"................      X                                   XXXX  ................",
"................                                          XXXX   ...............",
"................                                           XXXX  ...............",
"...............                                            XXXX   ..............",
"...............                            X                XXXX  ..............",
"..............                             X                XXXX   .............",
"..............                            XX                 XXXX  .............",
".............                             X                  XXXX  .............",
"............                             XX                  XXXX   ............",
"............                                                  XXXX  ............",
"...........                                                   XXXX  ............",
"...........                              .                    XXXX   ...........",
"..........                              ..                     XXXX  ...........",
".........                             ....                     XXXX  ...........",
".........                           ......                     XXXX  ...........",
".........    XX                   .......                       XXXX  ..........",
"........    XXX                 .........                       XXXX  ..........",
"........    XXX                ..........                       XXXX  ..........",
"........    XXX              ...........                        XXXX  ..........",
"........    XX              ............                        XXXX  ..........",
"........           X       ............                          XXXX ..........",
"........          XX      ............                           XXXX  .........",
"........          X      ............                            XXXX  .........",
"........         XX     .............                            XXXX  .........",
".........        X     .............                             XXXX  .........",
"..........            .............                              XXXX  .........",
"............          ............                               XXXX  .........",
".................   .............                                 XXXX .........",
"................................                                  XXXX .........",
"...............................                                   XXXX  ........",
"..............................                                    XXXX  ........",
".............................                                     XXXX  ........",
"............................                                      XXXX  ........",
"............................                                      XXXX  ........",
"...........................                                       XXXX  ........",
"...........................                                       XXXX  ........",
"..........................                                        XXXX  ........",
"..........................                                        XXXX  ........",
".........................                                         XXXX  ........",
".........................                                         XXXX  ........",
".........................                                          XXX  ........",
".........................                                            X  ........",
".........................                                               ........",
"................................................................................",
"................................................................................",
"................................................................................",
"................................................................................",
"................................................................................",
"................................................................................",
"................................................................................",
"................................................................................",
"................................................................................"
};
