/* XPM */
static char *nld129[] = {
/* columns rows colors chars-per-pixel */
"129 129 3 1",
"  c black s dark_piece",
". c green s dark_square",
"X c white s light_piece",
/* pixels */
".................................................................................................................................",
".................................................................................................................................",
".................................................................................................................................",
".................................................................................................................................",
".................................................................................................................................",
".................................................................................................................................",
".................................................................................................................................",
".................................................................................................................................",
".................................................................................................................................",
".................................................................................................................................",
".................................................................................................................................",
".................................................................................................................................",
".................................. ......................   .....................................................................",
".................................    ...................     ....................................................................",
".................................     ..................     ....................................................................",
".................................      ................       ...................................................................",
".................................        .............        ...................................................................",
".................................         ............         ..................................................................",
".................................           .........     X     .................................................................",
".................................    X       .......     XXX    .................................................................",
".................................    XXX      ......    XXXX     ................................................................",
".................................    XXXX      ....     XXXXX    ................................................................",
".................................    XXXXXX     ...    XXXXXX    ................................................................",
".................................    XXXXXXX    .      XXXXXX    .. .............................................................",
".................................     XXXXXX           XXXXXX             .......................................................",
"..................................    XXXXXXX         XXXXXXXX                ...................................................",
"..................................    XXXXXXX         XXXXXXXX                  .................................................",
"..................................     XXXXX          XXXXXXXX    XX              ...............................................",
"..................................     XXXX     XXX   XXXXXXXX    XXXXXXX           .............................................",
".................................      XXX     XXXXX XXXXXXXXX    XXXXXXXXXX          ...........................................",
"................................      XXX     XXXXXXXXXXXXXXXX   XXXXXXXXXXXXXX        ..........................................",
"...............................     XXXX     XXXXXXXXXXXXXXXXXXXXXXXXXXXXXXXXXXXX        ........................................",
"...............................    XXXXX    XXXXXXXXXXXXXXXXXXXXXXXXXXXXXXXXXXXXXX        .......................................",
"..............................     XXXXXX  XXXXXXXXXXXXXXXXXXXXXXXXXXXXXXXXXXXXXXXXX       ......................................",
".............................     XXXXXXXXXXXXXXXXXXXXXXXXXXXXXXXXXXXXXXXXXXXXXXXXXXX        ....................................",
"............................     XXXXXXXXXXXXXXXXXXXXXXXXXXXXXXXXXXXXXXXXXXXXXXXXXXXXX        ...................................",
"............................    XXXXXXXXXXXXXXXXXXXXXXXXXXXXXXXXXXXXXXXXXXXXXXXXXXXXXXX        ..................................",
"...........................     XXXXXXXXXXXXXXXXXXXXXXXXXXXXXXXXXXXXXXXXXXXXXXXXXXXXXXXX        .................................",
"...........................    XXXXXXXXX     XXXXXXXXXXXXXXXXXXXXXXXXXXXXXXXXXXXXXXXXXXXX        ................................",
"..........................     XXXXXXX       XXXXXXXXXXXXXXXXXXXXXXXXXXXXXXXXXXXXXXXXXXXXX        ...............................",
"..........................    XXXXXXX     XXXXXXXXXXXXXXXXXXXXXXXXXXXXXXXXXXXXXXXXXXXXXXXXX       ...............................",
"..........................    XXXXXX      XXXXXXXXXXXXXXXXXXXXXXXXXXXXXXXXXXXXXXXXXXXXXXXXXX       ..............................",
"..........................    XXXXX       XXXXXXXXXXXXXXXXXXXXXXXXXXXXXXXXXXXXXXXXXXXXXXXXXX        .............................",
".........................     XXXX        XXXXXXXXXXXXXXXXXXXXXXXXXXXXXXXXXXXXXXXXXXXXXXXXXXX        ............................",
".........................    XXXXX       XXXXXXXXXXXXXXXXXXXXXXXXXXXXXXXXXXXXXXXXXXXXXXXXXXXXX       ............................",
".........................    XXXX       XXXXXXXXXXXXXXXXXXXXXXXXXXXXXXXXXXXXXXXXXXXXXXXXXXXXXX        ...........................",
".........................    XXXX      XXXXXXXXXXXXXXXXXXXXXXXXXXXXXXXXXXXXXXXXXXXXXXXXXXXXXXXX        ..........................",
".........................    XXXX  XXXXXXXXXXXXXXXXXXXXXXXXXXXXXXXXXXXXXXXXXXXXXXXXXXXXXXXXXXXXX       ..........................",
".........................    XXXX  XXXXXXXXXXXXXXXXXXXXXXXXXXXXXXXXX  XXXXXXXXXXXXXXXXXXXXXXXXXX        .........................",
"........................     XXXX  XXXXXXXXXXXXXXXXXXXXXXXXXXXXXXXX    XXXXXXXXXXXXXXXXXXXXXXXXXX        ........................",
"........................    XXXXXXXXXXXXXXXXXXXXXXXXXXXXXXXXXXXXXXX    XXXXXXXXXXXXXXXXXXXXXXXXXX        ........................",
"........................    XXXXXXXXXXXXXXXXXXXXXXXXXXXXXXXXXXXXXXX    XXXXXXXXXXXXXXXXXXXXXXXXXXX        .......................",
".......................     XXXXXXXXXXXXXXXXXXXXXXXXXXXXXXXXXXXXXXX    XXXXXXXXXXXXXXXXXXXXXXXXXXX        .......................",
".......................    XXXXXXXXXXXXXXXXXXXXXXXXXXXXXXXXXXXXXXXX    XXXXXXXXXXXXXXXXXXXXXXXXXXXX        ......................",
"......................     XXXXXXXXXXXXXXXXXXXXXXXXXXXXXXXXXXXXXXXX    XXXXXXXXXXXXXXXXXXXXXXXXXXXX        ......................",
"......................    XXXXXXXXXXXXXXXXXXXXXXXXXXXXXXXXXXXXXXXXX    XXXXXXXXXXXXXXXXXXXXXXXXXXXXX       ......................",
".....................     XXXXXXXXXXXXXXXXXXXXXXXXXXXXXXXXXXXXXXXX     XXXXXXXXXXXXXXXXXXXXXXXXXXXXX        .....................",
"....................     XXXXXXXXXXXXXXXXXXXXXXXXXXXXXXXXXXXXXXXXX    XXXXXXXXXXXXXXXXXXXXXXXXXXXXXX        .....................",
"....................    XXXXXXXXXXXXXXXXXXXXXXXXXXXXXXXXXXXXXXXXXX    XXXXXXXXXXXXXXXXXXXXXXXXXXXXXXX        ....................",
"...................     XXXXXXXXXXXXXXXXXXXXXXXXXXXXXXXXXXXXXXXXXX    XXXXXXXXXXXXXXXXXXXXXXXXXXXXXXX        ....................",
"..................     XXXXXXXXXXXXXXXXXXXXXXXXXXXXXXXXXXXXXXXXXX     XXXXXXXXXXXXXXXXXXXXXXXXXXXXXXXX        ...................",
"..................    XXXXXXXXXXXXXXXXXXXXXXXXXXXXXXXXXXXXXXXXXXX    XXXXXXXXXXXXXXXXXXXXXXXXXXXXXXXXX        ...................",
".................     XXXXXXXXXXXXXXXXXXXXXXXXXXXXXXXXXXXXXXXXXX     XXXXXXXXXXXXXXXXXXXXXXXXXXXXXXXXX        ...................",
"................     XXXXXXXXXXXXXXXXXXXXXXXXXXXXXXXXXXXXXXXXXXX     XXXXXXXXXXXXXXXXXXXXXXXXXXXXXXXXXX        ..................",
"................    XXXXXXXXXXXXXXXXXXXXXXXXXXXXXXXXXXXXXXXXXXX      XXXXXXXXXXXXXXXXXXXXXXXXXXXXXXXXXX        ..................",
"...............     XXXXXXXXXXXXXXXXXXXXXXXXXXXXXXXXXXXXXXXXXX       XXXXXXXXXXXXXXXXXXXXXXXXXXXXXXXXXX        ..................",
"..............     XXXXXXXXXXXXXXXXXXXXXXXXXXXXXXXXXXXXXXXXX         XXXXXXXXXXXXXXXXXXXXXXXXXXXXXXXXXXX        .................",
"..............    XXXXXXXXXXXXXXXXXXXXXXXXXXXXXXXXXXXXXXXX           XXXXXXXXXXXXXXXXXXXXXXXXXXXXXXXXXXX        .................",
".............     XXXXXXXXXXXXXXXXXXXXXXXXXXXXXXXXXXXXXX        .    XXXXXXXXXXXXXXXXXXXXXXXXXXXXXXXXXXX        .................",
".............    XXXXXXXXXXXXXXXXXXXXXXXXXXXXXXXXXXXXX         ..    XXXXXXXXXXXXXXXXXXXXXXXXXXXXXXXXXXX        .................",
"............     XXXXXXXXXXXXXXXXXXXXXXXXXXXXXXXXXXX         ....    XXXXXXXXXXXXXXXXXXXXXXXXXXXXXXXXXXXX        ................",
"............    XXXXXXXXXXXXXXXXXXXXXXXXXXXXXXXXXX         ......    XXXXXXXXXXXXXXXXXXXXXXXXXXXXXXXXXXXX        ................",
"...........     XXXXXXXXXXXXXXXXXXXXXXXXXXXXXXXX         ........    XXXXXXXXXXXXXXXXXXXXXXXXXXXXXXXXXXXX        ................",
"...........    XXXX  XXXXXXXXXXXXXXXXXXXXXXXXX         .........     XXXXXXXXXXXXXXXXXXXXXXXXXXXXXXXXXXXX        ................",
"...........    XXX    XXXXXXXXXXXXXXXXXXXXXXX        ...........    XXXXXXXXXXXXXXXXXXXXXXXXXXXXXXXXXXXXXX        ...............",
"...........    XX      XXXXXXXXXXXXXXXXXXXX        .............    XXXXXXXXXXXXXXXXXXXXXXXXXXXXXXXXXXXXXX        ...............",
"..........     XX      XXXXXXXXXXXXXXXXXXX       ..............     XXXXXXXXXXXXXXXXXXXXXXXXXXXXXXXXXXXXXX        ...............",
"..........    XXX      XXXXXXXXXXXXXXXXXX      ................    XXXXXXXXXXXXXXXXXXXXXXXXXXXXXXXXXXXXXXX        ...............",
"..........    XXX     XXXXXXXXXXXXXXXXXX      .................    XXXXXXXXXXXXXXXXXXXXXXXXXXXXXXXXXXXXXXXX       ...............",
"..........    XXX     XXXXXXXXXXXXXXXXX     ..................     XXXXXXXXXXXXXXXXXXXXXXXXXXXXXXXXXXXXXXXX        ..............",
"..........    XXXX   XXXXXXXX XXXXXXXX     ...................    XXXXXXXXXXXXXXXXXXXXXXXXXXXXXXXXXXXXXXXXX        ..............",
"..........    XXXXXXXXXXXXXX   XXXXXX     ...................     XXXXXXXXXXXXXXXXXXXXXXXXXXXXXXXXXXXXXXXXX        ..............",
"..........    XXXXXXXXXXXXX    XXXXX     ...................     XXXXXXXXXXXXXXXXXXXXXXXXXXXXXXXXXXXXXXXXXX        ..............",
"..........    XXXXXXXXXXXXX    XXXX     ....................    XXXXXXXXXXXXXXXXXXXXXXXXXXXXXXXXXXXXXXXXXXX        ..............",
"..........     XXXXXXXXXXX     XXX     ....................     XXXXXXXXXXXXXXXXXXXXXXXXXXXXXXXXXXXXXXXXXXXX        .............",
"...........    XXXXXXXXXXX    XXXX    ....................     XXXXXXXXXXXXXXXXXXXXXXXXXXXXXXXXXXXXXXXXXXXXX        .............",
"...........      XXXXXXXX     XXX     ...................     XXXXXXXXXXXXXXXXXXXXXXXXXXXXXXXXXXXXXXXXXXXXXX        .............",
"............       XXXX      XXX     ....................    XXXXXXXXXXXXXXXXXXXXXXXXXXXXXXXXXXXXXXXXXXXXXXX        .............",
".............                XX     ....................     XXXXXXXXXXXXXXXXXXXXXXXXXXXXXXXXXXXXXXXXXXXXXXX        .............",
"..............              XXX    ....................     XXXXXXXXXXXXXXXXXXXXXXXXXXXXXXXXXXXXXXXXXXXXXXXX        .............",
"................            XX     ...................     XXXXXXXXXXXXXXXXXXXXXXXXXXXXXXXXXXXXXXXXXXXXXXXXX        .............",
"..................                ...................     XXXXXXXXXXXXXXXXXXXXXXXXXXXXXXXXXXXXXXXXXXXXXXXXXXX        ............",
".........................        ...................     XXXXXXXXXXXXXXXXXXXXXXXXXXXXXXXXXXXXXXXXXXXXXXXXXXXX        ............",
"..........................      ...................     XXXXXXXXXXXXXXXXXXXXXXXXXXXXXXXXXXXXXXXXXXXXXXXXXXXXX        ............",
"...........................    ...................     XXXXXXXXXXXXXXXXXXXXXXXXXXXXXXXXXXXXXXXXXXXXXXXXXXXXXX        ............",
"..................................................    XXXXXXXXXXXXXXXXXXXXXXXXXXXXXXXXXXXXXXXXXXXXXXXXXXXXXXX        ............",
".................................................     XXXXXXXXXXXXXXXXXXXXXXXXXXXXXXXXXXXXXXXXXXXXXXXXXXXXXXX        ............",
"................................................     XXXXXXXXXXXXXXXXXXXXXXXXXXXXXXXXXXXXXXXXXXXXXXXXXXXXXXXX        ............",
"...............................................     XXXXXXXXXXXXXXXXXXXXXXXXXXXXXXXXXXXXXXXXXXXXXXXXXXXXXXXXX        ............",
"..............................................     XXXXXXXXXXXXXXXXXXXXXXXXXXXXXXXXXXXXXXXXXXXXXXXXXXXXXXXXXX        ............",
".............................................     XXXXXXXXXXXXXXXXXXXXXXXXXXXXXXXXXXXXXXXXXXXXXXXXXXXXXXXXXXX        ............",
".............................................    XXXXXXXXXXXXXXXXXXXXXXXXXXXXXXXXXXXXXXXXXXXXXXXXXXXXXXXXXXXX        ............",
"............................................     XXXXXXXXXXXXXXXXXXXXXXXXXXXXXXXXXXXXXXXXXXXXXXXXXXXXXXXXXXXXX        ...........",
"...........................................     XXXXXXXXXXXXXXXXXXXXXXXXXXXXXXXXXXXXXXXXXXXXXXXXXXXXXXXXXXXXXX        ...........",
"...........................................    XXXXXXXXXXXXXXXXXXXXXXXXXXXXXXXXXXXXXXXXXXXXXXXXXXXXXXXXXXXXXXX        ...........",
"..........................................     XXXXXXXXXXXXXXXXXXXXXXXXXXXXXXXXXXXXXXXXXXXXXXXXXXXXXXXXXXXXXXX        ...........",
"..........................................    XXXXXXXXXXXXXXXXXXXXXXXXXXXXXXXXXXXXXXXXXXXXXXXXXXXXXXXXXXXXXXXX        ...........",
".........................................     XXXXXXXXXXXXXXXXXXXXXXXXXXXXXXXXXXXXXXXXXXXXXXXXXXXXXXXXXXXXXXXX        ...........",
".........................................    XXXXXXXXXXXXXXXXXXXXXXXXXXXXXXXXXXXXXXXXXXXXXXXXXXXXXXXXXXXXXXXXX        ...........",
"........................................     XXXXXXXXXXXXXXXXXXXXXXXXXXXXXXXXXXXXXXXXXXXXXXXXXXXXXXXXXXXXXXXXX        ...........",
"........................................    XXXXXXXXXXXXXXXXXXXXXXXXXXXXXXXXXXXXXXXXXXXXXXXXXXXXXXXXXXXXXXXXXX        ...........",
"........................................    XXXXXXXXXXXXXXXXXXXXXXXXXXXXXXXXXXXXXXXXXXXXXXXXXXXXXXXXXXXXXXXXXX        ...........",
".......................................     XXXXXXXXXXXXXXXXXXXXXXXXXXXXXXXXXXXXXXXXXXXXXXXXXXXXXXXXXXXXXXXXXX        ...........",
".......................................    XXXXXXXXXXXXXXXXXXXXXXXXXXXXXXXXXXXXXXXXXXXXXXXXXXXXXXXXXXXXXXXXXXX        ...........",
".......................................    XXXXXXXXXXXXXXXXXXXXXXXXXXXXXXXXXXXXXXXXXXXXXXXXXXXXXXXXXXXXXXXXXXX        ...........",
".......................................    XXXXXXXXXXXXXXXXXXXXXXXXXXXXXXXXXXXXXXXXXXXXXXXXXXXXXXXXXXXXXXXXXXX        ...........",
".......................................                                                                               ...........",
".......................................                                                                               ...........",
".......................................                                                                               ...........",
"........................................                                                                           ..............",
".................................................................................................................................",
".................................................................................................................................",
".................................................................................................................................",
".................................................................................................................................",
".................................................................................................................................",
".................................................................................................................................",
".................................................................................................................................",
".................................................................................................................................",
"................................................................................................................................."
};
