/* XPM */
static char *nld87[] = {
/* columns rows colors chars-per-pixel */
"87 87 3 1",
"  c black s dark_piece",
". c green s dark_square",
"X c white s light_piece",
/* pixels */
".......................................................................................",
".......................................................................................",
".......................................................................................",
".......................................................................................",
".......................................................................................",
".......................................................................................",
".......................................................................................",
"....................... ..............   ..............................................",
"......................    ............   ..............................................",
"......................     ..........     .............................................",
"......................      ........      .............................................",
"......................        ......   X   ............................................",
"......................   X     ....   XX   ............................................",
"......................   XXX    ...   XXX   ...........................................",
"......................   XXXX    .   XXXX   ...........................................",
".......................   XXXX       XXXX         .....................................",
".......................   XXXXX      XXXXX           ..................................",
".......................   XXXX       XXXXX             ................................",
".......................    X     X  XXXXXX   XXXXX       ..............................",
"......................    X     XXXXXXXXXX  XXXXXXXXX      ............................",
".....................    XX   XXXXXXXXXXXXXXXXXXXXXXXX      ...........................",
"....................    XXXX XXXXXXXXXXXXXXXXXXXXXXXXXXX      .........................",
"...................    XXXXXXXXXXXXXXXXXXXXXXXXXXXXXXXXXX      ........................",
"...................   XXXXXXXXXXXXXXXXXXXXXXXXXXXXXXXXXXXX      .......................",
"..................   XXXXXX   XXXXXXXXXXXXXXXXXXXXXXXXXXXXX      ......................",
"..................   XXXX     XXXXXXXXXXXXXXXXXXXXXXXXXXXXXX     ......................",
"..................   XXX     XXXXXXXXXXXXXXXXXXXXXXXXXXXXXXXX     .....................",
".................   XXX      XXXXXXXXXXXXXXXXXXXXXXXXXXXXXXXXX     ....................",
".................   XXX      XXXXXXXXXXXXXXXXXXXXXXXXXXXXXXXXX      ...................",
".................   XX      XXXXXXXXXXXXXXXXXXXXXXXXXXXXXXXXXXX     ...................",
".................   XX  X  XXXXXXXXXXXXXXXXXXXXXXXXXXXXXXXXXXXXX     ..................",
".................   XX  XXXXXXXXXXXXXXXXXXXXX   XXXXXXXXXXXXXXXX      .................",
"................   XXXXXXXXXXXXXXXXXXXXXXXXXX   XXXXXXXXXXXXXXXXX     .................",
"................   XXXXXXXXXXXXXXXXXXXXXXXXXX   XXXXXXXXXXXXXXXXX      ................",
"................   XXXXXXXXXXXXXXXXXXXXXXXXXX   XXXXXXXXXXXXXXXXXX     ................",
"...............   XXXXXXXXXXXXXXXXXXXXXXXXXXX   XXXXXXXXXXXXXXXXXX      ...............",
"...............   XXXXXXXXXXXXXXXXXXXXXXXXXXX   XXXXXXXXXXXXXXXXXXX     ...............",
"..............   XXXXXXXXXXXXXXXXXXXXXXXXXXX   XXXXXXXXXXXXXXXXXXXX     ...............",
".............    XXXXXXXXXXXXXXXXXXXXXXXXXXX   XXXXXXXXXXXXXXXXXXXX      ..............",
".............   XXXXXXXXXXXXXXXXXXXXXXXXXXXX   XXXXXXXXXXXXXXXXXXXXX     ..............",
"............   XXXXXXXXXXXXXXXXXXXXXXXXXXXX   XXXXXXXXXXXXXXXXXXXXXX      .............",
"...........    XXXXXXXXXXXXXXXXXXXXXXXXXXX    XXXXXXXXXXXXXXXXXXXXXX      .............",
"...........   XXXXXXXXXXXXXXXXXXXXXXXXXXX      XXXXXXXXXXXXXXXXXXXXXX     .............",
"..........   XXXXXXXXXXXXXXXXXXXXXXXXXX        XXXXXXXXXXXXXXXXXXXXXX      ............",
"..........   XXXXXXXXXXXXXXXXXXXXXXXX      .   XXXXXXXXXXXXXXXXXXXXXX      ............",
".........   XXXXXXXXXXXXXXXXXXXXXXX      ...   XXXXXXXXXXXXXXXXXXXXXX      ............",
".........   XXXXXXXXXXXXXXXXXXXXX      .....   XXXXXXXXXXXXXXXXXXXXXXX     ............",
"........   XXXXXXXXXXXXXXXXXXXX      .......   XXXXXXXXXXXXXXXXXXXXXXX      ...........",
"........   XX  XXXXXXXXXXXXXXX     .........   XXXXXXXXXXXXXXXXXXXXXXX      ...........",
"........   X    XXXXXXXXXXXX     ..........   XXXXXXXXXXXXXXXXXXXXXXXX      ...........",
".......   X     XXXXXXXXXXX     ...........   XXXXXXXXXXXXXXXXXXXXXXXXX     ...........",
".......   X     XXXXXXXXXX    ............   XXXXXXXXXXXXXXXXXXXXXXXXXX      ..........",
".......   X    XXXXXXXXXX    .............   XXXXXXXXXXXXXXXXXXXXXXXXXX      ..........",
".......   XX  XXXXX  XXX    .............   XXXXXXXXXXXXXXXXXXXXXXXXXXX      ..........",
".......   XXXXXXXX   XX    ..............   XXXXXXXXXXXXXXXXXXXXXXXXXXX      ..........",
".......   XXXXXXXX   X    ..............   XXXXXXXXXXXXXXXXXXXXXXXXXXXXX     ..........",
"........   XXXXXX   XX   ..............    XXXXXXXXXXXXXXXXXXXXXXXXXXXXX     ..........",
"........    XXXX    X   ..............    XXXXXXXXXXXXXXXXXXXXXXXXXXXXXX      .........",
".........          X    .............    XXXXXXXXXXXXXXXXXXXXXXXXXXXXXXX      .........",
"..........             .............    XXXXXXXXXXXXXXXXXXXXXXXXXXXXXXXX      .........",
"............    .     .............    XXXXXXXXXXXXXXXXXXXXXXXXXXXXXXXXX      .........",
"..................   .............    XXXXXXXXXXXXXXXXXXXXXXXXXXXXXXXXXX      .........",
".................................    XXXXXXXXXXXXXXXXXXXXXXXXXXXXXXXXXXX      .........",
".................................   XXXXXXXXXXXXXXXXXXXXXXXXXXXXXXXXXXXX      .........",
"................................   XXXXXXXXXXXXXXXXXXXXXXXXXXXXXXXXXXXXXX     .........",
"...............................    XXXXXXXXXXXXXXXXXXXXXXXXXXXXXXXXXXXXXX     .........",
"..............................    XXXXXXXXXXXXXXXXXXXXXXXXXXXXXXXXXXXXXXX      ........",
".............................    XXXXXXXXXXXXXXXXXXXXXXXXXXXXXXXXXXXXXXXX      ........",
".............................   XXXXXXXXXXXXXXXXXXXXXXXXXXXXXXXXXXXXXXXXX      ........",
"............................   XXXXXXXXXXXXXXXXXXXXXXXXXXXXXXXXXXXXXXXXXX      ........",
"............................   XXXXXXXXXXXXXXXXXXXXXXXXXXXXXXXXXXXXXXXXXX      ........",
"...........................   XXXXXXXXXXXXXXXXXXXXXXXXXXXXXXXXXXXXXXXXXXX      ........",
"...........................   XXXXXXXXXXXXXXXXXXXXXXXXXXXXXXXXXXXXXXXXXXX      ........",
"...........................   XXXXXXXXXXXXXXXXXXXXXXXXXXXXXXXXXXXXXXXXXXX      ........",
"..........................   XXXXXXXXXXXXXXXXXXXXXXXXXXXXXXXXXXXXXXXXXXXX      ........",
"..........................   XXXXXXXXXXXXXXXXXXXXXXXXXXXXXXXXXXXXXXXXXXXX      ........",
"..........................                                                     ........",
"..........................                                                     ........",
"..........................                                                    .........",
".......................................................................................",
".......................................................................................",
".......................................................................................",
".......................................................................................",
".......................................................................................",
".......................................................................................",
".......................................................................................",
"......................................................................................."
};
