/* XPM */
static char *nll108[] = {
/* columns rows colors chars-per-pixel */
"108 108 3 1",
"  c black s dark_piece",
". c gray s light_square",
"X c white s light_piece",
/* pixels */
"............................................................................................................",
"............................................................................................................",
"............................................................................................................",
"............................................................................................................",
"............................................................................................................",
"............................................................................................................",
"............................................................................................................",
"............................................................................................................",
"............................................................................................................",
"............................................................................................................",
".............................  .................   .........................................................",
"............................    ................    ........................................................",
"............................     ..............     ........................................................",
"............................       ...........       .......................................................",
"............................        ..........   X   .......................................................",
".............................   X     .......   XXX   ......................................................",
".............................   XX     ......   XXX   ......................................................",
".............................   XXXX    ....   XXXXX   .....................................................",
".............................   XXXXX    ...   XXXXX   .....................................................",
".............................   XXXXXX   .    XXXXXX       .................................................",
".............................   XXXXXXX       XXXXXXX           ............................................",
".............................   XXXXXXX       XXXXXXX              .........................................",
"..............................   XXXXX    X   XXXXXXX   XXX          .......................................",
".............................    XXXX    XX  XXXXXXXX   XXXXXXXX       .....................................",
"............................     XX     XXXXXXXXXXXXX   XXXXXXXXXXX      ...................................",
"...........................    XXXX    XXXXXXXXXXXXXXX XXXXXXXXXXXXXX      .................................",
"..........................    XXXX   XXXXXXXXXXXXXXXXXXXXXXXXXXXXXXXXX      ................................",
"..........................   XXXXXXXXXXXXXXXXXXXXXXXXXXXXXXXXXXXXXXXXXXX      ..............................",
".........................   XXXXXXXXXXXXXXXXXXXXXXXXXXXXXXXXXXXXXXXXXXXXX      .............................",
"........................    XXXXXXXXXXXXXXXXXXXXXXXXXXXXXXXXXXXXXXXXXXXXXX      ............................",
"........................   XXXXXXXXXXXXXXXXXXXXXXXXXXXXXXXXXXXXXXXXXXXXXXXX      ...........................",
".......................   XXXXXXXXX   XXXXXXXXXXXXXXXXXXXXXXXXXXXXXXXXXXXXXX      ..........................",
".......................   XXXXXX      XXXXXXXXXXXXXXXXXXXXXXXXXXXXXXXXXXXXXXX     ..........................",
".......................   XXXXX     XXXXXXXXXXXXXXXXXXXXXXXXXXXXXXXXXXXXXXXXXX     .........................",
"......................   XXXXX      XXXXXXXXXXXXXXXXXXXXXXXXXXXXXXXXXXXXXXXXXXX     ........................",
"......................   XXXX       XXXXXXXXXXXXXXXXXXXXXXXXXXXXXXXXXXXXXXXXXXX      .......................",
"......................   XXXX      XXXXXXXXXXXXXXXXXXXXXXXXXXXXXXXXXXXXXXXXXXXXX     .......................",
"......................   XXX       XXXXXXXXXXXXXXXXXXXXXXXXXXXXXXXXXXXXXXXXXXXXXX     ......................",
"......................   XXX  X  XXXXXXXXXXXXXXXXXXXXXXXXXXXXXXXXXXXXXXXXXXXXXXXX      .....................",
"......................   XXX  XXXXXXXXXXXXXXXXXXXXXXXXXXXXXXXXXXXXXXXXXXXXXXXXXXXX     .....................",
".....................   XXXX  XXXXXXXXXXXXXXXXXXXXXXXXXXX   XXXXXXXXXXXXXXXXXXXXXX      ....................",
".....................   XXXXXXXXXXXXXXXXXXXXXXXXXXXXXXXXX   XXXXXXXXXXXXXXXXXXXXXXX     ....................",
".....................   XXXXXXXXXXXXXXXXXXXXXXXXXXXXXXXXX   XXXXXXXXXXXXXXXXXXXXXXX      ...................",
"....................   XXXXXXXXXXXXXXXXXXXXXXXXXXXXXXXXXX   XXXXXXXXXXXXXXXXXXXXXXXX     ...................",
"....................   XXXXXXXXXXXXXXXXXXXXXXXXXXXXXXXXXX   XXXXXXXXXXXXXXXXXXXXXXXX      ..................",
"...................   XXXXXXXXXXXXXXXXXXXXXXXXXXXXXXXXXXX   XXXXXXXXXXXXXXXXXXXXXXXXX     ..................",
"...................   XXXXXXXXXXXXXXXXXXXXXXXXXXXXXXXXXXX   XXXXXXXXXXXXXXXXXXXXXXXXX      .................",
"..................   XXXXXXXXXXXXXXXXXXXXXXXXXXXXXXXXXXX   XXXXXXXXXXXXXXXXXXXXXXXXXXX     .................",
".................    XXXXXXXXXXXXXXXXXXXXXXXXXXXXXXXXXXX   XXXXXXXXXXXXXXXXXXXXXXXXXXX     .................",
".................   XXXXXXXXXXXXXXXXXXXXXXXXXXXXXXXXXXXX   XXXXXXXXXXXXXXXXXXXXXXXXXXX      ................",
"................   XXXXXXXXXXXXXXXXXXXXXXXXXXXXXXXXXXXX   XXXXXXXXXXXXXXXXXXXXXXXXXXXXX     ................",
"...............    XXXXXXXXXXXXXXXXXXXXXXXXXXXXXXXXXXXX   XXXXXXXXXXXXXXXXXXXXXXXXXXXXX     ................",
"..............    XXXXXXXXXXXXXXXXXXXXXXXXXXXXXXXXXXXX    XXXXXXXXXXXXXXXXXXXXXXXXXXXXX      ...............",
"..............   XXXXXXXXXXXXXXXXXXXXXXXXXXXXXXXXXXXX     XXXXXXXXXXXXXXXXXXXXXXXXXXXXXX     ...............",
".............   XXXXXXXXXXXXXXXXXXXXXXXXXXXXXXXXXXXX       XXXXXXXXXXXXXXXXXXXXXXXXXXXXX     ...............",
".............   XXXXXXXXXXXXXXXXXXXXXXXXXXXXXXXXXXX    .   XXXXXXXXXXXXXXXXXXXXXXXXXXXXX      ..............",
"............   XXXXXXXXXXXXXXXXXXXXXXXXXXXXXXXXXX     ..   XXXXXXXXXXXXXXXXXXXXXXXXXXXXX      ..............",
"............   XXXXXXXXXXXXXXXXXXXXXXXXXXXXXXXX      ...   XXXXXXXXXXXXXXXXXXXXXXXXXXXXXX     ..............",
"...........   XXXXXXXXXXXXXXXXXXXXXXXXXXXXXXX      .....   XXXXXXXXXXXXXXXXXXXXXXXXXXXXXX      .............",
"...........   XXXXXXXXXXXXXXXXXXXXXXXXXXXXXX     .......   XXXXXXXXXXXXXXXXXXXXXXXXXXXXXX      .............",
"..........   XXXXXXXXXXXXXXXXXXXXXXXXXXXXX     .........   XXXXXXXXXXXXXXXXXXXXXXXXXXXXXX      .............",
"..........   XXXX  XXXXXXXXXXXXXXXXXXXXX      .........   XXXXXXXXXXXXXXXXXXXXXXXXXXXXXXXX     .............",
"..........   XXX    XXXXXXXXXXXXXXXXXXX     ...........   XXXXXXXXXXXXXXXXXXXXXXXXXXXXXXXX      ............",
".........   XXX     XXXXXXXXXXXXXXXXX     .............   XXXXXXXXXXXXXXXXXXXXXXXXXXXXXXXX      ............",
".........   XXX     XXXXXXXXXXXXXXXX     .............   XXXXXXXXXXXXXXXXXXXXXXXXXXXXXXXXX      ............",
".........   XXX    XXXXXXXXXXXXXXXX    ...............   XXXXXXXXXXXXXXXXXXXXXXXXXXXXXXXXX      ............",
".........   XXXX  XXXXXXXXXXXXXXXX    ...............   XXXXXXXXXXXXXXXXXXXXXXXXXXXXXXXXXXX     ............",
".........   XXXXXXXXXXXX  XXXXXXX    ................   XXXXXXXXXXXXXXXXXXXXXXXXXXXXXXXXXXX     ............",
".........   XXXXXXXXXXXX   XXXXX    ................   XXXXXXXXXXXXXXXXXXXXXXXXXXXXXXXXXXXX      ...........",
".........   XXXXXXXXXXX   XXXXX    ................    XXXXXXXXXXXXXXXXXXXXXXXXXXXXXXXXXXXX      ...........",
"..........   XXXXXXXXXX   XXXX    .................   XXXXXXXXXXXXXXXXXXXXXXXXXXXXXXXXXXXXX      ...........",
"..........    XXXXXXXX   XXXX    .................   XXXXXXXXXXXXXXXXXXXXXXXXXXXXXXXXXXXXXX      ...........",
"...........     XXXXX    XXX    .................    XXXXXXXXXXXXXXXXXXXXXXXXXXXXXXXXXXXXXX      ...........",
"............             XXX   .................    XXXXXXXXXXXXXXXXXXXXXXXXXXXXXXXXXXXXXXXX     ...........",
"..............          XXX   .................    XXXXXXXXXXXXXXXXXXXXXXXXXXXXXXXXXXXXXXXXX      ..........",
"................        XX    ................    XXXXXXXXXXXXXXXXXXXXXXXXXXXXXXXXXXXXXXXXXX      ..........",
"......................       ................    XXXXXXXXXXXXXXXXXXXXXXXXXXXXXXXXXXXXXXXXXXX      ..........",
"......................      ................    XXXXXXXXXXXXXXXXXXXXXXXXXXXXXXXXXXXXXXXXXXXX      ..........",
".......................    ................    XXXXXXXXXXXXXXXXXXXXXXXXXXXXXXXXXXXXXXXXXXXXX      ..........",
"..........................................    XXXXXXXXXXXXXXXXXXXXXXXXXXXXXXXXXXXXXXXXXXXXXX      ..........",
".........................................    XXXXXXXXXXXXXXXXXXXXXXXXXXXXXXXXXXXXXXXXXXXXXXX      ..........",
".........................................   XXXXXXXXXXXXXXXXXXXXXXXXXXXXXXXXXXXXXXXXXXXXXXXX      ..........",
"........................................   XXXXXXXXXXXXXXXXXXXXXXXXXXXXXXXXXXXXXXXXXXXXXXXXXX     ..........",
".......................................    XXXXXXXXXXXXXXXXXXXXXXXXXXXXXXXXXXXXXXXXXXXXXXXXXX     ..........",
"......................................    XXXXXXXXXXXXXXXXXXXXXXXXXXXXXXXXXXXXXXXXXXXXXXXXXXX     ..........",
".....................................    XXXXXXXXXXXXXXXXXXXXXXXXXXXXXXXXXXXXXXXXXXXXXXXXXXXX      .........",
".....................................   XXXXXXXXXXXXXXXXXXXXXXXXXXXXXXXXXXXXXXXXXXXXXXXXXXXXX      .........",
"....................................   XXXXXXXXXXXXXXXXXXXXXXXXXXXXXXXXXXXXXXXXXXXXXXXXXXXXXX      .........",
"....................................   XXXXXXXXXXXXXXXXXXXXXXXXXXXXXXXXXXXXXXXXXXXXXXXXXXXXXX      .........",
"...................................   XXXXXXXXXXXXXXXXXXXXXXXXXXXXXXXXXXXXXXXXXXXXXXXXXXXXXXX      .........",
"...................................   XXXXXXXXXXXXXXXXXXXXXXXXXXXXXXXXXXXXXXXXXXXXXXXXXXXXXXX      .........",
"..................................   XXXXXXXXXXXXXXXXXXXXXXXXXXXXXXXXXXXXXXXXXXXXXXXXXXXXXXXX      .........",
"..................................   XXXXXXXXXXXXXXXXXXXXXXXXXXXXXXXXXXXXXXXXXXXXXXXXXXXXXXXX      .........",
"..................................   XXXXXXXXXXXXXXXXXXXXXXXXXXXXXXXXXXXXXXXXXXXXXXXXXXXXXXXX      .........",
".................................   XXXXXXXXXXXXXXXXXXXXXXXXXXXXXXXXXXXXXXXXXXXXXXXXXXXXXXXXX      .........",
".................................   XXXXXXXXXXXXXXXXXXXXXXXXXXXXXXXXXXXXXXXXXXXXXXXXXXXXXXXXX      .........",
".................................   XXXXXXXXXXXXXXXXXXXXXXXXXXXXXXXXXXXXXXXXXXXXXXXXXXXXXXXXX      .........",
".................................                                                                  .........",
".................................                                                                  .........",
"..................................                                                               ...........",
"............................................................................................................",
"............................................................................................................",
"............................................................................................................",
"............................................................................................................",
"............................................................................................................",
"............................................................................................................",
"............................................................................................................",
"............................................................................................................"
};
