/* XPM */
static char *nll37[] = {
/* columns rows colors chars-per-pixel */
"37 37 3 1",
"  c black s dark_piece",
". c gray s light_square",
"X c white s light_piece",
/* pixels */
".....................................",
".....................................",
".....................................",
".....................................",
"......... ...... ....................",
".........   ... X ...................",
"......... XX . XX ...................",
"......... XXX  XX    ................",
"......... XX X XX XXX  ..............",
"........ XX XXXXXXXXXXX  ............",
"........ XXXXXXXXXXXXXXX  ...........",
"....... XXX XXXXXXXXXXXXX  ..........",
"....... XX  XXXXXXXXXXXXXX  .........",
"....... X  XXXXXXXXXXXXXXXX .........",
"...... XXXXXXXXXXXX XXXXXXX  ........",
"...... XXXXXXXXXXXX XXXXXXXX ........",
"...... XXXXXXXXXXXX XXXXXXXX  .......",
"..... XXXXXXXXXXXXX XXXXXXXXX .......",
"..... XXXXXXXXXXXX XXXXXXXXXX  ......",
".... XXXXXXXXXXXX  XXXXXXXXXX  ......",
"... XXXXXXXXXXX  . XXXXXXXXXXX ......",
"...   XXXXXXX  ... XXXXXXXXXXX  .....",
"...  XXXXXXX .... XXXXXXXXXXXX  .....",
"... XXXXXXX ..... XXXXXXXXXXXX  .....",
"... XXX XX ..... XXXXXXXXXXXXX  .....",
"....    X ..... XXXXXXXXXXXXXXX .....",
"........ ...... XXXXXXXXXXXXXXX  ....",
".............. XXXXXXXXXXXXXXXX  ....",
"............. XXXXXXXXXXXXXXXXX  ....",
"............ XXXXXXXXXXXXXXXXXX  ....",
"............ XXXXXXXXXXXXXXXXXX  ....",
"........... XXXXXXXXXXXXXXXXXXX  ....",
"........... XXXXXXXXXXXXXXXXXXX  ....",
"...........                      ....",
".....................................",
".....................................",
"....................................."
};
