/* XPM */
static char * nll45[] = {
"45 45 3 1",
" 	c gray s light_square",
".	c black s dark_piece",
"X	c white s light_piece",
"                                             ",
"                                             ",
"                                             ",
"                                             ",
"            .       ..                       ",
"            ...    .X.                       ",
"            .XX.   .XX.                      ",
"            .XXX...XXX.                      ",
"            .XXX.X.XXX......                 ",
"            .XX.XXXXXX.XXXXX..               ",
"           .XXXXXXXXXXXXXXXXXX.              ",
"          .XXXXXXXXXXXXXXXXXXXX..            ",
"          .XXX..XXXXXXXXXXXXXXXX..           ",
"         .XXX.XXXXXXXXXXXXXXXXXXX..          ",
"         .XXXX.XXXXXXXXXXXXXXXXXXX..         ",
"         .XX..XXXXXXXXXXXXXXXXXXXX..         ",
"         .XX.XXXXXXXXXXX.XXXXXXXXXX..        ",
"        .XXXXXXXXXXXXXXX.XXXXXXXXXX..        ",
"        .XXXXXXXXXXXXXXX.XXXXXXXXXXX..       ",
"       .XXXXXXXXXXXXXXXX.XXXXXXXXXXX..       ",
"      .XXXXXXXXXXXXXXXX.XXXXXXXXXXXXX..      ",
"      .XXXXXXXXXXXXXXXX.XXXXXXXXXXXXX..      ",
"     .XXXXXXXXXXXXXXXX..XXXXXXXXXXXXXX.      ",
"    .XXXXXXXXXXXXXXXX.  .XXXXXXXXXXXXX..     ",
"    .XXXXXXXXXXXXXX..   .XXXXXXXXXXXXX..     ",
"   .XX..XXXXXXXXX..    .XXXXXXXXXXXXXX..     ",
"   .XX..XXXXXXXX.      .XXXXXXXXXXXXXXX.     ",
"   .XX.XXXXXXXX.      .XXXXXXXXXXXXXXXX..    ",
"   .XXXXXX.XXX.       .XXXXXXXXXXXXXXXX..    ",
"   .XXXXX.XXX.       .XXXXXXXXXXXXXXXXX..    ",
"    .XXXX.XX.        .XXXXXXXXXXXXXXXXX..    ",
"     .....X.        .XXXXXXXXXXXXXXXXXX..    ",
"          ..       .XXXXXXXXXXXXXXXXXXXX.    ",
"                  .XXXXXXXXXXXXXXXXXXXXX..   ",
"                 .XXXXXXXXXXXXXXXXXXXXXX..   ",
"                .XXXXXXXXXXXXXXXXXXXXXXX..   ",
"                .XXXXXXXXXXXXXXXXXXXXXXX..   ",
"               .XXXXXXXXXXXXXXXXXXXXXXXX..   ",
"               .XXXXXXXXXXXXXXXXXXXXXXXX..   ",
"              .XXXXXXXXXXXXXXXXXXXXXXXXX..   ",
"              .XXXXXXXXXXXXXXXXXXXXXXXXX..   ",
"              ............................   ",
"                                             ",
"                                             ",
"                                             "};
