/* XPM */
static char *pdd116[] = {
/* columns rows colors chars-per-pixel */
"116 116 2 1",
"  c black s dark_piece",
". c green s dark_square",
/* pixels */
"....................................................................................................................",
"....................................................................................................................",
"....................................................................................................................",
"....................................................................................................................",
"....................................................................................................................",
"....................................................................................................................",
"....................................................................................................................",
"....................................................................................................................",
"....................................................................................................................",
"....................................................................................................................",
"....................................................................................................................",
"....................................................................................................................",
"....................................................................................................................",
"....................................................................................................................",
"....................................................................................................................",
"....................................................................................................................",
".....................................................         ......................................................",
"...................................................             ....................................................",
".................................................                 ..................................................",
"................................................                   .................................................",
"...............................................                     ................................................",
"...............................................                     ................................................",
"..............................................                       ...............................................",
"..............................................                       ...............................................",
".............................................                         ..............................................",
".............................................                         ..............................................",
".............................................                         ..............................................",
".............................................                         ..............................................",
".............................................                         ..............................................",
".............................................                         ..............................................",
".............................................                         ..............................................",
"..............................................                       ...............................................",
"..............................................                       ...............................................",
"...............................................                     ................................................",
"...............................................                     ................................................",
"................................................                   .................................................",
"...............................................                     ................................................",
".............................................                         ..............................................",
"...........................................                             ............................................",
"..........................................                               ...........................................",
".........................................                                 ..........................................",
"........................................                                   .........................................",
"........................................                                   .........................................",
".......................................                                     ........................................",
".......................................                                     ........................................",
"......................................                                       .......................................",
"......................................                                       .......................................",
"......................................                                       .......................................",
".....................................                                         ......................................",
".....................................                                         ......................................",
".....................................                                         ......................................",
".....................................                                         ......................................",
".....................................                                         ......................................",
".....................................                                         ......................................",
".....................................                                         ......................................",
".....................................                                         ......................................",
".....................................                                         ......................................",
"......................................                                       .......................................",
"......................................                                       .......................................",
"......................................                                       .......................................",
".......................................                                     ........................................",
".......................................                                     ........................................",
"........................................                                   .........................................",
"........................................                                   .........................................",
".........................................                                 ..........................................",
"..........................................                               ...........................................",
"...........................................                             ............................................",
"............................................                           .............................................",
"..........................................                               ...........................................",
"........................................                                   .........................................",
".......................................                                     ........................................",
".....................................                                         ......................................",
"....................................                                           .....................................",
"...................................                                             ....................................",
"..................................                                               ...................................",
".................................                                                 ..................................",
"................................                                                   .................................",
"...............................                                                     ................................",
"...............................                                                     ................................",
"..............................                                                       ...............................",
".............................                                                         ..............................",
".............................                                                         ..............................",
"............................                                                           .............................",
"............................                                                           .............................",
"...........................                                                             ............................",
"...........................                                                             ............................",
"..........................                                                               ...........................",
"..........................                                                               ...........................",
"..........................                                                               ...........................",
".........................                                                                 ..........................",
".........................                                                                 ..........................",
".........................                                                                 ..........................",
"........................                                                                   .........................",
"........................                                                                   .........................",
"........................                                                                   .........................",
"........................                                                                   .........................",
"........................                                                                   .........................",
"........................                                                                   .........................",
".......................                                                                     ........................",
".......................                                                                     ........................",
".......................                                                                     ........................",
".......................                                                                     ........................",
".......................                                                                     ........................",
".......................                                                                     ........................",
".......................                                                                     ........................",
".......................                                                                     ........................",
"........................                                                                    ........................",
"....................................................................................................................",
"....................................................................................................................",
"....................................................................................................................",
"....................................................................................................................",
"....................................................................................................................",
"....................................................................................................................",
"....................................................................................................................",
"....................................................................................................................",
"...................................................................................................................."
};
