/* XPM */
static char *pdd108[] = {
/* columns rows colors chars-per-pixel */
"108 108 2 1",
"  c black s dark_piece",
". c green s dark_square",
/* pixels */
"............................................................................................................",
"............................................................................................................",
"............................................................................................................",
"............................................................................................................",
"............................................................................................................",
"............................................................................................................",
"............................................................................................................",
"............................................................................................................",
"............................................................................................................",
"............................................................................................................",
"............................................................................................................",
"............................................................................................................",
"............................................................................................................",
"............................................................................................................",
"............................................................................................................",
"..................................................       ...................................................",
"................................................           .................................................",
"..............................................               ...............................................",
".............................................                 ..............................................",
"............................................                   .............................................",
"............................................                   .............................................",
"...........................................                     ............................................",
"...........................................                     ............................................",
"..........................................                       ...........................................",
"..........................................                       ...........................................",
"..........................................                       ...........................................",
"..........................................                       ...........................................",
"..........................................                       ...........................................",
"..........................................                       ...........................................",
"...........................................                     ............................................",
"...........................................                     ............................................",
"............................................                   .............................................",
"............................................                   .............................................",
".............................................                 ..............................................",
"...........................................                     ............................................",
".........................................                         ..........................................",
".......................................                             ........................................",
"......................................                               .......................................",
".....................................                                 ......................................",
"....................................                                   .....................................",
"....................................                                   .....................................",
"...................................                                     ....................................",
"...................................                                     ....................................",
"...................................                                     ....................................",
"..................................                                       ...................................",
"..................................                                       ...................................",
"..................................                                       ...................................",
"..................................                                       ...................................",
"..................................                                       ...................................",
"..................................                                       ...................................",
"..................................                                       ...................................",
"..................................                                       ...................................",
"..................................                                       ...................................",
"..................................                                       ...................................",
"...................................                                     ....................................",
"...................................                                     ....................................",
"...................................                                     ....................................",
"....................................                                   .....................................",
"....................................                                   .....................................",
".....................................                                 ......................................",
"......................................                               .......................................",
".......................................                             ........................................",
"........................................                           .........................................",
"......................................                               .......................................",
"....................................                                   .....................................",
"...................................                                     ....................................",
".................................                                         ..................................",
"................................                                           .................................",
"...............................                                             ................................",
"..............................                                               ...............................",
".............................                                                 ..............................",
"............................                                                   .............................",
"............................                                                   .............................",
"...........................                                                     ............................",
"...........................                                                     ............................",
"..........................                                                       ...........................",
"..........................                                                       ...........................",
".........................                                                         ..........................",
".........................                                                         ..........................",
"........................                                                           .........................",
"........................                                                           .........................",
".......................                                                             ........................",
".......................                                                             ........................",
".......................                                                             ........................",
"......................                                                               .......................",
"......................                                                               .......................",
"......................                                                               .......................",
"......................                                                               .......................",
"......................                                                               .......................",
"......................                                                               .......................",
".....................                                                                 ......................",
".....................                                                                 ......................",
".....................                                                                 ......................",
".....................                                                                 ......................",
".....................                                                                 ......................",
".....................                                                                 ......................",
".....................                                                                 ......................",
".....................                                                                 ......................",
"......................                                                                ......................",
"............................................................................................................",
"............................................................................................................",
"............................................................................................................",
"............................................................................................................",
"............................................................................................................",
"............................................................................................................",
"............................................................................................................",
"............................................................................................................",
"............................................................................................................"
};
