/* XPM */
static char *pdd40[] = {
/* columns rows colors chars-per-pixel */
"40 40 2 1",
"  c black s dark_piece",
". c green s dark_square",
/* pixels */
"........................................",
"........................................",
"........................................",
"........................................",
"..................     .................",
".................       ................",
"................         ...............",
"................         ...............",
"................         ...............",
"................        ................",
".................       ................",
"...............           ..............",
"..............             .............",
".............               ............",
".............               ............",
".............               ............",
".............               ............",
".............               ............",
".............               ............",
"..............             .............",
"...............           ..............",
"................         ...............",
"..............             .............",
".............               ............",
"............                 ...........",
"...........                   ..........",
"...........                   ..........",
"..........                     .........",
"..........                     .........",
"..........                     .........",
".........                       ........",
".........                       ........",
".........                       ........",
".........                       ........",
".........                       ........",
"........................................",
"........................................",
"........................................",
"........................................",
"........................................"
};
