/* XPM */
static char *pdd72[] = {
/* columns rows colors chars-per-pixel */
"72 72 2 1",
"  c black s dark_piece",
". c green s dark_square",
/* pixels */
"........................................................................",
"........................................................................",
"........................................................................",
"........................................................................",
"........................................................................",
"........................................................................",
"........................................................................",
"........................................................................",
".................................      .................................",
"...............................          ...............................",
"..............................            ..............................",
".............................              .............................",
".............................              .............................",
"............................                ............................",
"............................                ............................",
"............................                ............................",
"............................                ............................",
"............................                ............................",
".............................              .............................",
".............................              .............................",
"..............................            ..............................",
"............................                ............................",
"..........................                    ..........................",
".........................                      .........................",
"........................                        ........................",
"........................                        ........................",
".......................                          .......................",
".......................                          .......................",
".......................                          .......................",
".......................                          .......................",
".......................                          .......................",
".......................                          .......................",
".......................                          .......................",
".......................                          .......................",
".......................                          .......................",
"........................                        ........................",
"........................                        ........................",
".........................                      .........................",
"..........................                    ..........................",
"...........................                  ...........................",
"...........................                  ...........................",
".........................                      .........................",
".......................                          .......................",
"......................                            ......................",
".....................                              .....................",
"....................                                ....................",
"...................                                  ...................",
"...................                                  ...................",
"..................                                    ..................",
".................                                      .................",
".................                                      .................",
"................                                        ................",
"................                                        ................",
"................                                        ................",
"...............                                          ...............",
"...............                                          ...............",
"...............                                          ...............",
"...............                                          ...............",
"..............                                            ..............",
"..............                                            ..............",
"..............                                            ..............",
"..............                                            ..............",
"..............                                            ..............",
"..............                                            ..............",
"..............                                            ..............",
"..............                                            ..............",
"........................................................................",
"........................................................................",
"........................................................................",
"........................................................................",
"........................................................................",
"........................................................................"
};
