/* XPM */
static char *pdd80[] = {
/* columns rows colors chars-per-pixel */
"80 80 2 1",
"  c black s dark_piece",
". c green s dark_square",
/* pixels */
"................................................................................",
"................................................................................",
"................................................................................",
"................................................................................",
"................................................................................",
"................................................................................",
"................................................................................",
"................................................................................",
".....................................      .....................................",
"...................................          ...................................",
"..................................            ..................................",
".................................              .................................",
".................................              .................................",
"................................                ................................",
"................................                ................................",
"................................                ................................",
"................................                ................................",
"................................                ................................",
"................................                ................................",
".................................              .................................",
".................................              .................................",
"..................................            ..................................",
"................................                ................................",
"..............................                    ..............................",
".............................                      .............................",
"............................                        ............................",
"...........................                          ...........................",
"...........................                          ...........................",
"...........................                          ...........................",
"..........................                            ..........................",
"..........................                            ..........................",
"..........................                            ..........................",
"..........................                            ..........................",
"..........................                            ..........................",
"..........................                            ..........................",
"..........................                            ..........................",
"..........................                            ..........................",
"...........................                          ...........................",
"...........................                          ...........................",
"...........................                          ...........................",
"............................                        ............................",
".............................                      .............................",
"..............................                    ..............................",
"..............................                    ..............................",
"............................                        ............................",
"...........................                          ...........................",
".........................                              .........................",
"........................                                ........................",
".......................                                  .......................",
"......................                                    ......................",
".....................                                      .....................",
".....................                                      .....................",
"....................                                        ....................",
"...................                                          ...................",
"...................                                          ...................",
"..................                                            ..................",
"..................                                            ..................",
"..................                                            ..................",
".................                                              .................",
".................                                              .................",
".................                                              .................",
".................                                              .................",
"................                                                ................",
"................                                                ................",
"................                                                ................",
"................                                                ................",
"................                                                ................",
"................                                                ................",
"................                                                ................",
"................                                                ................",
"................................................................................",
"................................................................................",
"................................................................................",
"................................................................................",
"................................................................................",
"................................................................................",
"................................................................................",
"................................................................................",
"................................................................................",
"................................................................................"
};
