/* XPM */
static char *pdd87[] = {
/* columns rows colors chars-per-pixel */
"87 87 2 1",
"  c black s dark_piece",
". c green s dark_square",
/* pixels */
".......................................................................................",
".......................................................................................",
".......................................................................................",
".......................................................................................",
".......................................................................................",
".......................................................................................",
".......................................................................................",
".......................................................................................",
".......................................................................................",
".......................................................................................",
".......................................................................................",
".......................................................................................",
".........................................     .........................................",
"......................................           ......................................",
".....................................             .....................................",
"....................................               ....................................",
"...................................                 ...................................",
"...................................                 ...................................",
"..................................                   ..................................",
"..................................                   ..................................",
"..................................                   ..................................",
"..................................                   ..................................",
"..................................                   ..................................",
"..................................                   ..................................",
"...................................                 ...................................",
"...................................                 ...................................",
"....................................               ....................................",
"...................................                  ..................................",
".................................                      ................................",
"................................                        ...............................",
"...............................                          ..............................",
"..............................                           ..............................",
"..............................                            .............................",
".............................                             .............................",
".............................                             .............................",
"............................                               ............................",
"............................                               ............................",
"............................                               ............................",
"............................                               ............................",
"............................                               ............................",
"............................                               ............................",
"............................                               ............................",
"............................                               ............................",
".............................                             .............................",
".............................                             .............................",
".............................                            ..............................",
"..............................                           ..............................",
"..............................                          ...............................",
"...............................                        ................................",
"................................                       ................................",
"..............................                           ..............................",
"............................                               ............................",
"...........................                                 ...........................",
"..........................                                   ..........................",
".........................                                     .........................",
"........................                                       ........................",
".......................                                         .......................",
".......................                                         .......................",
"......................                                           ......................",
".....................                                             .....................",
".....................                                             .....................",
"....................                                               ....................",
"....................                                               ....................",
"...................                                                 ...................",
"...................                                                 ...................",
"...................                                                 ...................",
"..................                                                   ..................",
"..................                                                   ..................",
"..................                                                   ..................",
"..................                                                   ..................",
"..................                                                   ..................",
".................                                                     .................",
".................                                                     .................",
".................                                                     .................",
".................                                                     .................",
".................                                                     .................",
".................                                                     .................",
".................                                                     .................",
"..................                                                    .................",
".......................................................................................",
".......................................................................................",
".......................................................................................",
".......................................................................................",
".......................................................................................",
".......................................................................................",
".......................................................................................",
"......................................................................................."
};
