/* XPM */
static char *pdd95[] = {
/* columns rows colors chars-per-pixel */
"95 95 2 1",
"  c black s dark_piece",
". c green s dark_square",
/* pixels */
"...............................................................................................",
"...............................................................................................",
"...............................................................................................",
"...............................................................................................",
"...............................................................................................",
"...............................................................................................",
"...............................................................................................",
"...............................................................................................",
"...............................................................................................",
"...............................................................................................",
"...............................................................................................",
"...............................................................................................",
"...............................................................................................",
"............................................       ............................................",
"..........................................           ..........................................",
"........................................               ........................................",
".......................................                 .......................................",
"......................................                   ......................................",
"......................................                   ......................................",
".....................................                     .....................................",
".....................................                     .....................................",
".....................................                     .....................................",
".....................................                     .....................................",
".....................................                     .....................................",
".....................................                     .....................................",
".....................................                     .....................................",
"......................................                   ......................................",
"......................................                   ......................................",
".......................................                 .......................................",
".......................................                 .......................................",
".....................................                     .....................................",
"...................................                         ...................................",
"..................................                           ..................................",
".................................                             .................................",
"................................                               ................................",
"................................                               ................................",
"...............................                                 ...............................",
"...............................                                 ...............................",
"...............................                                 ...............................",
"..............................                                   ..............................",
"..............................                                   ..............................",
"..............................                                   ..............................",
"..............................                                   ..............................",
"..............................                                   ..............................",
"..............................                                   ..............................",
"..............................                                   ..............................",
"...............................                                 ...............................",
"...............................                                 ...............................",
"...............................                                 ...............................",
"................................                               ................................",
"................................                               ................................",
".................................                             .................................",
"..................................                           ..................................",
"...................................                         ...................................",
"...................................                         ...................................",
".................................                             .................................",
"................................                               ................................",
"..............................                                   ..............................",
".............................                                     .............................",
"............................                                       ............................",
"...........................                                         ...........................",
"..........................                                           ..........................",
".........................                                             .........................",
".........................                                             .........................",
"........................                                               ........................",
"........................                                               ........................",
".......................                                                 .......................",
".......................                                                 .......................",
"......................                                                   ......................",
"......................                                                   ......................",
".....................                                                     .....................",
".....................                                                     .....................",
".....................                                                     .....................",
"....................                                                       ....................",
"....................                                                       ....................",
"....................                                                       ....................",
"....................                                                       ....................",
"....................                                                       ....................",
"...................                                                         ...................",
"...................                                                         ...................",
"...................                                                         ...................",
"...................                                                         ...................",
"...................                                                         ...................",
"...................                                                         ...................",
"...................                                                         ...................",
"...................                                                         ...................",
"....................                                                        ...................",
"...............................................................................................",
"...............................................................................................",
"...............................................................................................",
"...............................................................................................",
"...............................................................................................",
"...............................................................................................",
"...............................................................................................",
"..............................................................................................."
};
