/* XPM */
static char *pdl21[] = {
/* columns rows colors chars-per-pixel */
"21 21 2 1",
"  c black s dark_piece",
". c gray s light_square",
/* pixels */
".....................",
".....................",
".....................",
"........     ........",
".......       .......",
".......       .......",
".......       .......",
"........     ........",
".......       .......",
".......       .......",
"........     ........",
"........     ........",
".......       .......",
"......         ......",
".....           .....",
".....           .....",
"....             ....",
"....             ....",
"....             ....",
".....................",
"....................."
};
