/* XPM */
static char *pdl29[] = {
/* columns rows colors chars-per-pixel */
"29 29 2 1",
"  c black s dark_piece",
". c gray s light_square",
/* pixels */
".............................",
".............................",
".............................",
".............   .............",
"............     ............",
"...........       ...........",
"...........       ...........",
"...........       ...........",
"...........       ...........",
"..........         ..........",
".........           .........",
".........           .........",
".........           .........",
".........           .........",
"..........         ..........",
"..........         ..........",
".........           .........",
"........             ........",
".......               .......",
".......               .......",
".......               .......",
"......                 ......",
"......                 ......",
"......                 ......",
"......                 ......",
"......                 ......",
".............................",
".............................",
"............................."
};
