/* XPM */
static char *pdl25[] = {
/* columns rows colors chars-per-pixel */
"25 25 2 1",
"  c black s dark_piece",
". c gray s light_square",
/* pixels */
".........................",
".........................",
".........................",
".........................",
"...........   ...........",
"..........     ..........",
"..........     ..........",
"..........     ..........",
".........       .........",
"........         ........",
"........         ........",
"........         ........",
".........       .........",
".........       .........",
"........         ........",
".......           .......",
"......             ......",
"......             ......",
".....               .....",
".....               .....",
".....               .....",
".....               .....",
".........................",
".........................",
"........................."
};
