/* XPM */
static char *pdl37[] = {
/* columns rows colors chars-per-pixel */
"37 37 2 1",
"  c black s dark_piece",
". c gray s light_square",
/* pixels */
".....................................",
".....................................",
".....................................",
".....................................",
".................   .................",
"................     ................",
"...............       ...............",
"...............       ...............",
"...............       ...............",
"...............       ...............",
"...............       ...............",
"..............         ..............",
".............           .............",
"............             ............",
"............             ............",
"............             ............",
"............             ............",
"............             ............",
"............             ............",
".............           .............",
"..............         ..............",
"............             ............",
"...........               ...........",
"..........                 ..........",
".........                   .........",
".........                   .........",
"........                     ........",
"........                     ........",
"........                     ........",
".......                       .......",
".......                       .......",
".......                       .......",
".......                       .......",
".......                       .......",
".....................................",
".....................................",
"....................................."
};
