/* XPM */
static char *pdl49[] = {
/* columns rows colors chars-per-pixel */
"49 49 2 1",
"  c black s dark_piece",
". c gray s light_square",
/* pixels */
".................................................",
".................................................",
".................................................",
".................................................",
".................................................",
"......................     ......................",
".....................       .....................",
"....................         ....................",
"...................           ...................",
"...................           ...................",
"...................           ...................",
"...................           ...................",
"...................           ...................",
"....................         ....................",
".....................       .....................",
"...................           ...................",
"..................             ..................",
".................               .................",
".................               .................",
"................                 ................",
"................                 ................",
"................                 ................",
"................                 ................",
"................                 ................",
".................               .................",
".................               .................",
"..................             ..................",
"...................           ...................",
".................               .................",
"................                 ................",
"...............                   ...............",
"..............                     ..............",
".............                       .............",
".............                       .............",
"............                         ............",
"............                         ............",
"...........                           ...........",
"...........                           ...........",
"...........                           ...........",
"..........                             ..........",
"..........                             ..........",
"..........                             ..........",
"..........                             ..........",
"..........                             ..........",
"..........                             ..........",
".................................................",
".................................................",
".................................................",
"................................................."
};
