/* XPM */
static char *pdl58[] = {
/* columns rows colors chars-per-pixel */
"58 58 2 1",
"  c black s dark_piece",
". c gray s light_square",
/* pixels */
"..........................................................",
"..........................................................",
"..........................................................",
"..........................................................",
"..........................................................",
"..........................................................",
"..........................................................",
"..........................................................",
"...........................    ...........................",
".........................        .........................",
"........................          ........................",
".......................            .......................",
".......................            .......................",
".......................            .......................",
".......................            .......................",
".......................            .......................",
".......................            .......................",
"........................          ........................",
"......................              ......................",
".....................                .....................",
"....................                  ....................",
"....................                  ....................",
"...................                    ...................",
"...................                    ...................",
"...................                    ...................",
"...................                    ...................",
"...................                    ...................",
"...................                    ...................",
"...................                    ...................",
"...................                    ...................",
"....................                  ....................",
"....................                  ....................",
".....................                .....................",
".....................                .....................",
"...................                    ...................",
"..................                      ..................",
".................                        .................",
"................                          ................",
"...............                            ...............",
"...............                            ...............",
"..............                              ..............",
"..............                              ..............",
".............                                .............",
".............                                .............",
".............                                .............",
"............                                  ............",
"............                                  ............",
"............                                  ............",
"............                                  ............",
"............                                  ............",
"............                                  ............",
"............                                  ............",
"..........................................................",
"..........................................................",
"..........................................................",
"..........................................................",
"..........................................................",
".........................................................."
};
