/* XPM */
static char *pld37[] = {
/* columns rows colors chars-per-pixel */
"37 37 3 1",
"  c black s dark_piece",
". c green s dark_square",
"X c white s light_piece",
/* pixels */
".....................................",
".....................................",
".....................................",
".....................................",
".................   .................",
"................ XXX ................",
"............... XXXXX ...............",
"............... XXXXX ...............",
"............... XXXXX ...............",
"............... XXXXX ...............",
"...............  XXX  ...............",
".............. XXXXXXX ..............",
"............. XXXXXXXXX .............",
"............ XXXXXXXXXXX ............",
"............ XXXXXXXXXXX ............",
"............ XXXXXXXXXXX ............",
"............ XXXXXXXXXXX ............",
"............ XXXXXXXXXXX ............",
"............ XXXXXXXXXXX ............",
"............. XXXXXXXXX .............",
"..............  XXXXX  ..............",
"............  XXXXXXXXX  ............",
"........... XXXXXXXXXXXXX ...........",
".......... XXXXXXXXXXXXXXX ..........",
"......... XXXXXXXXXXXXXXXXX .........",
"......... XXXXXXXXXXXXXXXXX .........",
"........ XXXXXXXXXXXXXXXXXXX ........",
"........ XXXXXXXXXXXXXXXXXXX ........",
"........ XXXXXXXXXXXXXXXXXXX ........",
"....... XXXXXXXXXXXXXXXXXXXXX .......",
"....... XXXXXXXXXXXXXXXXXXXXX .......",
"....... XXXXXXXXXXXXXXXXXXXXX .......",
"....... XXXXXXXXXXXXXXXXXXXXX .......",
".......                       .......",
".....................................",
".....................................",
"....................................."
};
