/* XPM */
static char *pld49[] = {
/* columns rows colors chars-per-pixel */
"49 49 3 1",
"  c black s dark_piece",
". c green s dark_square",
"X c white s light_piece",
/* pixels */
".................................................",
".................................................",
".................................................",
".................................................",
".................................................",
"......................     ......................",
"..................... XXXXX .....................",
".................... XXXXXXX ....................",
"................... XXXXXXXXX ...................",
"................... XXXXXXXXX ...................",
"................... XXXXXXXXX ...................",
"................... XXXXXXXXX ...................",
"................... XXXXXXXXX ...................",
".................... XXXXXXX ....................",
".....................  XXX  .....................",
"...................  XXXXXXX  ...................",
".................. XXXXXXXXXXX ..................",
"................. XXXXXXXXXXXXX .................",
"................. XXXXXXXXXXXXX .................",
"................ XXXXXXXXXXXXXXX ................",
"................ XXXXXXXXXXXXXXX ................",
"................ XXXXXXXXXXXXXXX ................",
"................ XXXXXXXXXXXXXXX ................",
"................ XXXXXXXXXXXXXXX ................",
"................. XXXXXXXXXXXXX .................",
"................. XXXXXXXXXXXXX .................",
".................. XXXXXXXXXXX ..................",
"...................  XXXXXXX  ...................",
".................  XXXXXXXXXXX  .................",
"................ XXXXXXXXXXXXXXX ................",
"............... XXXXXXXXXXXXXXXXX ...............",
".............. XXXXXXXXXXXXXXXXXXX ..............",
"............. XXXXXXXXXXXXXXXXXXXXX .............",
"............. XXXXXXXXXXXXXXXXXXXXX .............",
"............ XXXXXXXXXXXXXXXXXXXXXXX ............",
"............ XXXXXXXXXXXXXXXXXXXXXXX ............",
"........... XXXXXXXXXXXXXXXXXXXXXXXXX ...........",
"........... XXXXXXXXXXXXXXXXXXXXXXXXX ...........",
"........... XXXXXXXXXXXXXXXXXXXXXXXXX ...........",
".......... XXXXXXXXXXXXXXXXXXXXXXXXXXX ..........",
".......... XXXXXXXXXXXXXXXXXXXXXXXXXXX ..........",
".......... XXXXXXXXXXXXXXXXXXXXXXXXXXX ..........",
".......... XXXXXXXXXXXXXXXXXXXXXXXXXXX ..........",
".......... XXXXXXXXXXXXXXXXXXXXXXXXXXX ..........",
"..........                             ..........",
".................................................",
".................................................",
".................................................",
"................................................."
};
