/* XPM */
static char *pld54[] = {
/* columns rows colors chars-per-pixel */
"54 54 3 1",
"  c black s dark_piece",
". c green s dark_square",
"X c white s light_piece",
/* pixels */
"......................................................",
"......................................................",
"......................................................",
"......................................................",
"......................................................",
"......................................................",
"......................................................",
"........................      ........................",
"......................          ......................",
".....................   XXXXXX   .....................",
".....................  XXXXXXXX  .....................",
".....................  XXXXXXXX  .....................",
".....................  XXXXXXXX  .....................",
".....................  XXXXXXXX  .....................",
".....................   XXXXXX   .....................",
"......................   XXXX   ......................",
"....................     XXXX     ....................",
"...................   XXXXXXXXXX   ...................",
"..................   XXXXXXXXXXXX   ..................",
"..................  XXXXXXXXXXXXXX  ..................",
".................   XXXXXXXXXXXXXX   .................",
".................  XXXXXXXXXXXXXXXX  .................",
".................  XXXXXXXXXXXXXXXX  .................",
".................  XXXXXXXXXXXXXXXX  .................",
".................  XXXXXXXXXXXXXXXX  .................",
".................  XXXXXXXXXXXXXXXX  .................",
".................   XXXXXXXXXXXXXX   .................",
"..................  XXXXXXXXXXXXXX  ..................",
"..................   XXXXXXXXXXXX   ..................",
"...................    XXXXXXXX    ...................",
"...................    XXXXXXXX    ...................",
".................    XXXXXXXXXXXX    .................",
"................   XXXXXXXXXXXXXXXX   ................",
"...............   XXXXXXXXXXXXXXXXXX   ...............",
"..............   XXXXXXXXXXXXXXXXXXXX   ..............",
"..............  XXXXXXXXXXXXXXXXXXXXXX  ..............",
".............   XXXXXXXXXXXXXXXXXXXXXX   .............",
".............  XXXXXXXXXXXXXXXXXXXXXXXX  .............",
"............   XXXXXXXXXXXXXXXXXXXXXXXX   ............",
"............  XXXXXXXXXXXXXXXXXXXXXXXXXX  ............",
"............  XXXXXXXXXXXXXXXXXXXXXXXXXX  ............",
"...........   XXXXXXXXXXXXXXXXXXXXXXXXXX   ...........",
"...........  XXXXXXXXXXXXXXXXXXXXXXXXXXXX  ...........",
"...........  XXXXXXXXXXXXXXXXXXXXXXXXXXXX  ...........",
"...........  XXXXXXXXXXXXXXXXXXXXXXXXXXXX  ...........",
"...........  XXXXXXXXXXXXXXXXXXXXXXXXXXXX  ...........",
"...........                                ...........",
"...........                                ...........",
"......................................................",
"......................................................",
"......................................................",
"......................................................",
"......................................................",
"......................................................"
};
