/* XPM */
static char *pld87[] = {
/* columns rows colors chars-per-pixel */
"87 87 3 1",
"  c black s dark_piece",
". c green s dark_square",
"X c white s light_piece",
/* pixels */
".......................................................................................",
".......................................................................................",
".......................................................................................",
".......................................................................................",
".......................................................................................",
".......................................................................................",
".......................................................................................",
".......................................................................................",
".......................................................................................",
".......................................................................................",
".......................................................................................",
".......................................................................................",
".........................................     .........................................",
"......................................           ......................................",
".....................................             .....................................",
"....................................     XXXXX     ....................................",
"...................................    XXXXXXXXX    ...................................",
"...................................   XXXXXXXXXXX   ...................................",
"..................................   XXXXXXXXXXXXX   ..................................",
"..................................   XXXXXXXXXXXXX   ..................................",
"..................................   XXXXXXXXXXXXX   ..................................",
"..................................   XXXXXXXXXXXXX   ..................................",
"..................................   XXXXXXXXXXXXX   ..................................",
"..................................   XXXXXXXXXXXXX   ..................................",
"...................................   XXXXXXXXXXX   ...................................",
"...................................    XXXXXXXXX    ...................................",
"....................................     XXXXX     ....................................",
"...................................      XXXXX       ..................................",
".................................        XXXXXX        ................................",
"................................     XXXXXXXXXXXXXX     ...............................",
"...............................    XXXXXXXXXXXXXXXXXX    ..............................",
"..............................    XXXXXXXXXXXXXXXXXXXX   ..............................",
"..............................   XXXXXXXXXXXXXXXXXXXXXX   .............................",
".............................   XXXXXXXXXXXXXXXXXXXXXXX   .............................",
".............................   XXXXXXXXXXXXXXXXXXXXXXX   .............................",
"............................   XXXXXXXXXXXXXXXXXXXXXXXXX   ............................",
"............................   XXXXXXXXXXXXXXXXXXXXXXXXX   ............................",
"............................   XXXXXXXXXXXXXXXXXXXXXXXXX   ............................",
"............................   XXXXXXXXXXXXXXXXXXXXXXXXX   ............................",
"............................   XXXXXXXXXXXXXXXXXXXXXXXXX   ............................",
"............................   XXXXXXXXXXXXXXXXXXXXXXXXX   ............................",
"............................   XXXXXXXXXXXXXXXXXXXXXXXXX   ............................",
"............................   XXXXXXXXXXXXXXXXXXXXXXXXX   ............................",
".............................   XXXXXXXXXXXXXXXXXXXXXXX   .............................",
".............................   XXXXXXXXXXXXXXXXXXXXXXX   .............................",
".............................   XXXXXXXXXXXXXXXXXXXXXX   ..............................",
"..............................   XXXXXXXXXXXXXXXXXXXX    ..............................",
"..............................    XXXXXXXXXXXXXXXXXX    ...............................",
"...............................      XXXXXXXXXXXXXX    ................................",
"................................     XXXXXXXXXXXXX     ................................",
"..............................       XXXXXXXXXXXXXX      ..............................",
"............................      XXXXXXXXXXXXXXXXXXX      ............................",
"...........................     XXXXXXXXXXXXXXXXXXXXXXX     ...........................",
"..........................    XXXXXXXXXXXXXXXXXXXXXXXXXXX    ..........................",
".........................    XXXXXXXXXXXXXXXXXXXXXXXXXXXXX    .........................",
"........................    XXXXXXXXXXXXXXXXXXXXXXXXXXXXXXX    ........................",
".......................    XXXXXXXXXXXXXXXXXXXXXXXXXXXXXXXXX    .......................",
".......................   XXXXXXXXXXXXXXXXXXXXXXXXXXXXXXXXXXX   .......................",
"......................   XXXXXXXXXXXXXXXXXXXXXXXXXXXXXXXXXXXXX   ......................",
".....................    XXXXXXXXXXXXXXXXXXXXXXXXXXXXXXXXXXXXX    .....................",
".....................   XXXXXXXXXXXXXXXXXXXXXXXXXXXXXXXXXXXXXXX   .....................",
"....................   XXXXXXXXXXXXXXXXXXXXXXXXXXXXXXXXXXXXXXXXX   ....................",
"....................   XXXXXXXXXXXXXXXXXXXXXXXXXXXXXXXXXXXXXXXXX   ....................",
"...................   XXXXXXXXXXXXXXXXXXXXXXXXXXXXXXXXXXXXXXXXXXX   ...................",
"...................   XXXXXXXXXXXXXXXXXXXXXXXXXXXXXXXXXXXXXXXXXXX   ...................",
"...................   XXXXXXXXXXXXXXXXXXXXXXXXXXXXXXXXXXXXXXXXXXX   ...................",
"..................   XXXXXXXXXXXXXXXXXXXXXXXXXXXXXXXXXXXXXXXXXXXXX   ..................",
"..................   XXXXXXXXXXXXXXXXXXXXXXXXXXXXXXXXXXXXXXXXXXXXX   ..................",
"..................   XXXXXXXXXXXXXXXXXXXXXXXXXXXXXXXXXXXXXXXXXXXXX   ..................",
"..................   XXXXXXXXXXXXXXXXXXXXXXXXXXXXXXXXXXXXXXXXXXXXX   ..................",
"..................   XXXXXXXXXXXXXXXXXXXXXXXXXXXXXXXXXXXXXXXXXXXXX   ..................",
".................   XXXXXXXXXXXXXXXXXXXXXXXXXXXXXXXXXXXXXXXXXXXXXXX   .................",
".................   XXXXXXXXXXXXXXXXXXXXXXXXXXXXXXXXXXXXXXXXXXXXXXX   .................",
".................   XXXXXXXXXXXXXXXXXXXXXXXXXXXXXXXXXXXXXXXXXXXXXXX   .................",
".................   XXXXXXXXXXXXXXXXXXXXXXXXXXXXXXXXXXXXXXXXXXXXXXX   .................",
".................   XXXXXXXXXXXXXXXXXXXXXXXXXXXXXXXXXXXXXXXXXXXXXXX   .................",
".................                                                     .................",
".................                                                     .................",
"..................                                                    .................",
".......................................................................................",
".......................................................................................",
".......................................................................................",
".......................................................................................",
".......................................................................................",
".......................................................................................",
".......................................................................................",
"......................................................................................."
};
