/* XPM */
static char *pll129[] = {
/* columns rows colors chars-per-pixel */
"129 129 3 1",
"  c black s dark_piece",
". c gray s light_square",
"X c white s light_piece",
/* pixels */
".................................................................................................................................",
".................................................................................................................................",
".................................................................................................................................",
".................................................................................................................................",
".................................................................................................................................",
".................................................................................................................................",
".................................................................................................................................",
".................................................................................................................................",
".................................................................................................................................",
".................................................................................................................................",
".................................................................................................................................",
".................................................................................................................................",
".................................................................................................................................",
".................................................................................................................................",
".................................................................................................................................",
".................................................................................................................................",
".................................................................................................................................",
".................................................................................................................................",
".................................................................................................................................",
".................................................................................................................................",
"...........................................................          ............................................................",
".........................................................              ..........................................................",
".......................................................                  ........................................................",
"......................................................                    .......................................................",
".....................................................       XXXXXXXX       ......................................................",
"....................................................      XXXXXXXXXXXX      .....................................................",
"...................................................     XXXXXXXXXXXXXXXX     ....................................................",
"...................................................     XXXXXXXXXXXXXXXXX    ....................................................",
"...................................................    XXXXXXXXXXXXXXXXXX    ....................................................",
"..................................................     XXXXXXXXXXXXXXXXXX     ...................................................",
"..................................................    XXXXXXXXXXXXXXXXXXXX    ...................................................",
"..................................................    XXXXXXXXXXXXXXXXXXXX    ...................................................",
"..................................................    XXXXXXXXXXXXXXXXXXXX    ...................................................",
"..................................................    XXXXXXXXXXXXXXXXXXXX    ...................................................",
"..................................................    XXXXXXXXXXXXXXXXXXXX    ...................................................",
"..................................................     XXXXXXXXXXXXXXXXXX     ...................................................",
"...................................................    XXXXXXXXXXXXXXXXXX    ....................................................",
"...................................................    XXXXXXXXXXXXXXXXX     ....................................................",
"...................................................     XXXXXXXXXXXXXXXX     ....................................................",
"....................................................      XXXXXXXXXXXX      .....................................................",
".....................................................      XXXXXXXXXX      ......................................................",
"....................................................        XXXXXXXX        .....................................................",
"..................................................          XXXXXXXX          ...................................................",
"................................................           XXXXXXXXXX           .................................................",
"...............................................         XXXXXXXXXXXXXXXX         ................................................",
"..............................................       XXXXXXXXXXXXXXXXXXXXXX       ...............................................",
".............................................      XXXXXXXXXXXXXXXXXXXXXXXXXX      ..............................................",
"............................................     XXXXXXXXXXXXXXXXXXXXXXXXXXXXXX     .............................................",
"............................................    XXXXXXXXXXXXXXXXXXXXXXXXXXXXXXXX    .............................................",
"...........................................     XXXXXXXXXXXXXXXXXXXXXXXXXXXXXXXX     ............................................",
"..........................................     XXXXXXXXXXXXXXXXXXXXXXXXXXXXXXXXXX     ...........................................",
"..........................................    XXXXXXXXXXXXXXXXXXXXXXXXXXXXXXXXXXXX    ...........................................",
"..........................................    XXXXXXXXXXXXXXXXXXXXXXXXXXXXXXXXXXXX    ...........................................",
"..........................................    XXXXXXXXXXXXXXXXXXXXXXXXXXXXXXXXXXXX    ...........................................",
".........................................     XXXXXXXXXXXXXXXXXXXXXXXXXXXXXXXXXXXX     ..........................................",
".........................................    XXXXXXXXXXXXXXXXXXXXXXXXXXXXXXXXXXXXXX    ..........................................",
".........................................    XXXXXXXXXXXXXXXXXXXXXXXXXXXXXXXXXXXXXX    ..........................................",
".........................................    XXXXXXXXXXXXXXXXXXXXXXXXXXXXXXXXXXXXXX    ..........................................",
".........................................    XXXXXXXXXXXXXXXXXXXXXXXXXXXXXXXXXXXXXX    ..........................................",
".........................................    XXXXXXXXXXXXXXXXXXXXXXXXXXXXXXXXXXXXXX    ..........................................",
".........................................    XXXXXXXXXXXXXXXXXXXXXXXXXXXXXXXXXXXXXX    ..........................................",
".........................................    XXXXXXXXXXXXXXXXXXXXXXXXXXXXXXXXXXXXXX    ..........................................",
".........................................    XXXXXXXXXXXXXXXXXXXXXXXXXXXXXXXXXXXXXX    ..........................................",
".........................................     XXXXXXXXXXXXXXXXXXXXXXXXXXXXXXXXXXXX     ..........................................",
"..........................................    XXXXXXXXXXXXXXXXXXXXXXXXXXXXXXXXXXXX    ...........................................",
"..........................................    XXXXXXXXXXXXXXXXXXXXXXXXXXXXXXXXXXXX    ...........................................",
"..........................................     XXXXXXXXXXXXXXXXXXXXXXXXXXXXXXXXXX     ...........................................",
"...........................................    XXXXXXXXXXXXXXXXXXXXXXXXXXXXXXXXXX     ...........................................",
"...........................................     XXXXXXXXXXXXXXXXXXXXXXXXXXXXXXXX     ............................................",
"............................................    XXXXXXXXXXXXXXXXXXXXXXXXXXXXXXXX    .............................................",
"............................................     XXXXXXXXXXXXXXXXXXXXXXXXXXXXXX     .............................................",
".............................................      XXXXXXXXXXXXXXXXXXXXXXXXXX      ..............................................",
"..............................................      XXXXXXXXXXXXXXXXXXXXXXXX      ...............................................",
"...............................................       XXXXXXXXXXXXXXXXXXXX       ................................................",
"................................................       XXXXXXXXXXXXXXXXXX       .................................................",
"..............................................         XXXXXXXXXXXXXXXXXX         ...............................................",
"............................................          XXXXXXXXXXXXXXXXXXXX          .............................................",
"...........................................         XXXXXXXXXXXXXXXXXXXXXXXX         ............................................",
".........................................        XXXXXXXXXXXXXXXXXXXXXXXXXXXXXX        ..........................................",
"........................................       XXXXXXXXXXXXXXXXXXXXXXXXXXXXXXXXXX       .........................................",
".......................................      XXXXXXXXXXXXXXXXXXXXXXXXXXXXXXXXXXXXXX      ........................................",
"......................................      XXXXXXXXXXXXXXXXXXXXXXXXXXXXXXXXXXXXXXXX      .......................................",
".....................................     XXXXXXXXXXXXXXXXXXXXXXXXXXXXXXXXXXXXXXXXXXXX     ......................................",
"....................................     XXXXXXXXXXXXXXXXXXXXXXXXXXXXXXXXXXXXXXXXXXXXXX     .....................................",
"...................................     XXXXXXXXXXXXXXXXXXXXXXXXXXXXXXXXXXXXXXXXXXXXXXXX     ....................................",
"..................................     XXXXXXXXXXXXXXXXXXXXXXXXXXXXXXXXXXXXXXXXXXXXXXXXXX     ...................................",
"..................................    XXXXXXXXXXXXXXXXXXXXXXXXXXXXXXXXXXXXXXXXXXXXXXXXXXXX    ...................................",
".................................     XXXXXXXXXXXXXXXXXXXXXXXXXXXXXXXXXXXXXXXXXXXXXXXXXXXX     ..................................",
"................................     XXXXXXXXXXXXXXXXXXXXXXXXXXXXXXXXXXXXXXXXXXXXXXXXXXXXXX     .................................",
"................................    XXXXXXXXXXXXXXXXXXXXXXXXXXXXXXXXXXXXXXXXXXXXXXXXXXXXXXXX    .................................",
"...............................     XXXXXXXXXXXXXXXXXXXXXXXXXXXXXXXXXXXXXXXXXXXXXXXXXXXXXXXX     ................................",
"..............................     XXXXXXXXXXXXXXXXXXXXXXXXXXXXXXXXXXXXXXXXXXXXXXXXXXXXXXXXXX     ...............................",
"..............................    XXXXXXXXXXXXXXXXXXXXXXXXXXXXXXXXXXXXXXXXXXXXXXXXXXXXXXXXXXXX    ...............................",
".............................     XXXXXXXXXXXXXXXXXXXXXXXXXXXXXXXXXXXXXXXXXXXXXXXXXXXXXXXXXXXX     ..............................",
".............................    XXXXXXXXXXXXXXXXXXXXXXXXXXXXXXXXXXXXXXXXXXXXXXXXXXXXXXXXXXXXXX    ..............................",
".............................    XXXXXXXXXXXXXXXXXXXXXXXXXXXXXXXXXXXXXXXXXXXXXXXXXXXXXXXXXXXXXX    ..............................",
"............................     XXXXXXXXXXXXXXXXXXXXXXXXXXXXXXXXXXXXXXXXXXXXXXXXXXXXXXXXXXXXXX     .............................",
"............................    XXXXXXXXXXXXXXXXXXXXXXXXXXXXXXXXXXXXXXXXXXXXXXXXXXXXXXXXXXXXXXXX    .............................",
"............................    XXXXXXXXXXXXXXXXXXXXXXXXXXXXXXXXXXXXXXXXXXXXXXXXXXXXXXXXXXXXXXXX    .............................",
"...........................     XXXXXXXXXXXXXXXXXXXXXXXXXXXXXXXXXXXXXXXXXXXXXXXXXXXXXXXXXXXXXXXX     ............................",
"...........................    XXXXXXXXXXXXXXXXXXXXXXXXXXXXXXXXXXXXXXXXXXXXXXXXXXXXXXXXXXXXXXXXXX    ............................",
"...........................    XXXXXXXXXXXXXXXXXXXXXXXXXXXXXXXXXXXXXXXXXXXXXXXXXXXXXXXXXXXXXXXXXX    ............................",
"..........................     XXXXXXXXXXXXXXXXXXXXXXXXXXXXXXXXXXXXXXXXXXXXXXXXXXXXXXXXXXXXXXXXXX     ...........................",
"..........................    XXXXXXXXXXXXXXXXXXXXXXXXXXXXXXXXXXXXXXXXXXXXXXXXXXXXXXXXXXXXXXXXXXXX    ...........................",
"..........................    XXXXXXXXXXXXXXXXXXXXXXXXXXXXXXXXXXXXXXXXXXXXXXXXXXXXXXXXXXXXXXXXXXXX    ...........................",
"..........................    XXXXXXXXXXXXXXXXXXXXXXXXXXXXXXXXXXXXXXXXXXXXXXXXXXXXXXXXXXXXXXXXXXXX    ...........................",
"..........................    XXXXXXXXXXXXXXXXXXXXXXXXXXXXXXXXXXXXXXXXXXXXXXXXXXXXXXXXXXXXXXXXXXXX    ...........................",
"..........................    XXXXXXXXXXXXXXXXXXXXXXXXXXXXXXXXXXXXXXXXXXXXXXXXXXXXXXXXXXXXXXXXXXXX    ...........................",
".........................     XXXXXXXXXXXXXXXXXXXXXXXXXXXXXXXXXXXXXXXXXXXXXXXXXXXXXXXXXXXXXXXXXXXX     ..........................",
".........................    XXXXXXXXXXXXXXXXXXXXXXXXXXXXXXXXXXXXXXXXXXXXXXXXXXXXXXXXXXXXXXXXXXXXXX    ..........................",
".........................    XXXXXXXXXXXXXXXXXXXXXXXXXXXXXXXXXXXXXXXXXXXXXXXXXXXXXXXXXXXXXXXXXXXXXX    ..........................",
".........................    XXXXXXXXXXXXXXXXXXXXXXXXXXXXXXXXXXXXXXXXXXXXXXXXXXXXXXXXXXXXXXXXXXXXXX    ..........................",
".........................    XXXXXXXXXXXXXXXXXXXXXXXXXXXXXXXXXXXXXXXXXXXXXXXXXXXXXXXXXXXXXXXXXXXXXX    ..........................",
".........................    XXXXXXXXXXXXXXXXXXXXXXXXXXXXXXXXXXXXXXXXXXXXXXXXXXXXXXXXXXXXXXXXXXXXXX    ..........................",
".........................    XXXXXXXXXXXXXXXXXXXXXXXXXXXXXXXXXXXXXXXXXXXXXXXXXXXXXXXXXXXXXXXXXXXXXX    ..........................",
".........................                                                                              ..........................",
".........................                                                                              ..........................",
".........................                                                                              ..........................",
"..........................                                                                            ...........................",
".................................................................................................................................",
".................................................................................................................................",
".................................................................................................................................",
".................................................................................................................................",
".................................................................................................................................",
".................................................................................................................................",
".................................................................................................................................",
".................................................................................................................................",
".................................................................................................................................",
"................................................................................................................................."
};
