/* XPM */
static char *pll108[] = {
/* columns rows colors chars-per-pixel */
"108 108 3 1",
"  c black s dark_piece",
". c gray s light_square",
"X c white s light_piece",
/* pixels */
"............................................................................................................",
"............................................................................................................",
"............................................................................................................",
"............................................................................................................",
"............................................................................................................",
"............................................................................................................",
"............................................................................................................",
"............................................................................................................",
"............................................................................................................",
"............................................................................................................",
"............................................................................................................",
"............................................................................................................",
"............................................................................................................",
"............................................................................................................",
"............................................................................................................",
"..................................................       ...................................................",
"................................................           .................................................",
"..............................................               ...............................................",
".............................................     XXXXXXX     ..............................................",
"............................................    XXXXXXXXXXX    .............................................",
"............................................   XXXXXXXXXXXXX   .............................................",
"...........................................   XXXXXXXXXXXXXXX   ............................................",
"...........................................   XXXXXXXXXXXXXXX   ............................................",
"..........................................   XXXXXXXXXXXXXXXXX   ...........................................",
"..........................................   XXXXXXXXXXXXXXXXX   ...........................................",
"..........................................   XXXXXXXXXXXXXXXXX   ...........................................",
"..........................................   XXXXXXXXXXXXXXXXX   ...........................................",
"..........................................   XXXXXXXXXXXXXXXXX   ...........................................",
"..........................................   XXXXXXXXXXXXXXXXX   ...........................................",
"...........................................   XXXXXXXXXXXXXXX   ............................................",
"...........................................   XXXXXXXXXXXXXXX   ............................................",
"............................................   XXXXXXXXXXXXX   .............................................",
"............................................    XXXXXXXXXXX    .............................................",
".............................................     XXXXXXXX    ..............................................",
"...........................................       XXXXXXX       ............................................",
".........................................         XXXXXXXX        ..........................................",
".......................................       XXXXXXXXXXXXXXX       ........................................",
"......................................     XXXXXXXXXXXXXXXXXXXXX     .......................................",
".....................................    XXXXXXXXXXXXXXXXXXXXXXXXX    ......................................",
"....................................    XXXXXXXXXXXXXXXXXXXXXXXXXXX    .....................................",
"....................................   XXXXXXXXXXXXXXXXXXXXXXXXXXXXX   .....................................",
"...................................   XXXXXXXXXXXXXXXXXXXXXXXXXXXXXXX   ....................................",
"...................................   XXXXXXXXXXXXXXXXXXXXXXXXXXXXXXX   ....................................",
"...................................   XXXXXXXXXXXXXXXXXXXXXXXXXXXXXXX   ....................................",
"..................................   XXXXXXXXXXXXXXXXXXXXXXXXXXXXXXXXX   ...................................",
"..................................   XXXXXXXXXXXXXXXXXXXXXXXXXXXXXXXXX   ...................................",
"..................................   XXXXXXXXXXXXXXXXXXXXXXXXXXXXXXXXX   ...................................",
"..................................   XXXXXXXXXXXXXXXXXXXXXXXXXXXXXXXXX   ...................................",
"..................................   XXXXXXXXXXXXXXXXXXXXXXXXXXXXXXXXX   ...................................",
"..................................   XXXXXXXXXXXXXXXXXXXXXXXXXXXXXXXXX   ...................................",
"..................................   XXXXXXXXXXXXXXXXXXXXXXXXXXXXXXXXX   ...................................",
"..................................   XXXXXXXXXXXXXXXXXXXXXXXXXXXXXXXXX   ...................................",
"..................................   XXXXXXXXXXXXXXXXXXXXXXXXXXXXXXXXX   ...................................",
"..................................   XXXXXXXXXXXXXXXXXXXXXXXXXXXXXXXXX   ...................................",
"...................................   XXXXXXXXXXXXXXXXXXXXXXXXXXXXXXX   ....................................",
"...................................   XXXXXXXXXXXXXXXXXXXXXXXXXXXXXXX   ....................................",
"...................................   XXXXXXXXXXXXXXXXXXXXXXXXXXXXXXX   ....................................",
"....................................   XXXXXXXXXXXXXXXXXXXXXXXXXXXXX   .....................................",
"....................................    XXXXXXXXXXXXXXXXXXXXXXXXXXX    .....................................",
".....................................    XXXXXXXXXXXXXXXXXXXXXXXXX    ......................................",
"......................................     XXXXXXXXXXXXXXXXXXXXX     .......................................",
".......................................       XXXXXXXXXXXXXXXX      ........................................",
"........................................      XXXXXXXXXXXXXXX      .........................................",
"......................................        XXXXXXXXXXXXXXXX       .......................................",
"....................................       XXXXXXXXXXXXXXXXXXXXX       .....................................",
"...................................     XXXXXXXXXXXXXXXXXXXXXXXXXXX     ....................................",
".................................     XXXXXXXXXXXXXXXXXXXXXXXXXXXXXXX     ..................................",
"................................     XXXXXXXXXXXXXXXXXXXXXXXXXXXXXXXXX     .................................",
"...............................    XXXXXXXXXXXXXXXXXXXXXXXXXXXXXXXXXXXXX    ................................",
"..............................    XXXXXXXXXXXXXXXXXXXXXXXXXXXXXXXXXXXXXXX    ...............................",
".............................    XXXXXXXXXXXXXXXXXXXXXXXXXXXXXXXXXXXXXXXXX    ..............................",
"............................    XXXXXXXXXXXXXXXXXXXXXXXXXXXXXXXXXXXXXXXXXXX    .............................",
"............................   XXXXXXXXXXXXXXXXXXXXXXXXXXXXXXXXXXXXXXXXXXXXX   .............................",
"...........................   XXXXXXXXXXXXXXXXXXXXXXXXXXXXXXXXXXXXXXXXXXXXXXX   ............................",
"...........................   XXXXXXXXXXXXXXXXXXXXXXXXXXXXXXXXXXXXXXXXXXXXXXX   ............................",
"..........................   XXXXXXXXXXXXXXXXXXXXXXXXXXXXXXXXXXXXXXXXXXXXXXXXX   ...........................",
"..........................   XXXXXXXXXXXXXXXXXXXXXXXXXXXXXXXXXXXXXXXXXXXXXXXXX   ...........................",
".........................   XXXXXXXXXXXXXXXXXXXXXXXXXXXXXXXXXXXXXXXXXXXXXXXXXXX   ..........................",
".........................   XXXXXXXXXXXXXXXXXXXXXXXXXXXXXXXXXXXXXXXXXXXXXXXXXXX   ..........................",
"........................   XXXXXXXXXXXXXXXXXXXXXXXXXXXXXXXXXXXXXXXXXXXXXXXXXXXXX   .........................",
"........................   XXXXXXXXXXXXXXXXXXXXXXXXXXXXXXXXXXXXXXXXXXXXXXXXXXXXX   .........................",
".......................   XXXXXXXXXXXXXXXXXXXXXXXXXXXXXXXXXXXXXXXXXXXXXXXXXXXXXXX   ........................",
".......................   XXXXXXXXXXXXXXXXXXXXXXXXXXXXXXXXXXXXXXXXXXXXXXXXXXXXXXX   ........................",
".......................   XXXXXXXXXXXXXXXXXXXXXXXXXXXXXXXXXXXXXXXXXXXXXXXXXXXXXXX   ........................",
"......................   XXXXXXXXXXXXXXXXXXXXXXXXXXXXXXXXXXXXXXXXXXXXXXXXXXXXXXXXX   .......................",
"......................   XXXXXXXXXXXXXXXXXXXXXXXXXXXXXXXXXXXXXXXXXXXXXXXXXXXXXXXXX   .......................",
"......................   XXXXXXXXXXXXXXXXXXXXXXXXXXXXXXXXXXXXXXXXXXXXXXXXXXXXXXXXX   .......................",
"......................   XXXXXXXXXXXXXXXXXXXXXXXXXXXXXXXXXXXXXXXXXXXXXXXXXXXXXXXXX   .......................",
"......................   XXXXXXXXXXXXXXXXXXXXXXXXXXXXXXXXXXXXXXXXXXXXXXXXXXXXXXXXX   .......................",
"......................   XXXXXXXXXXXXXXXXXXXXXXXXXXXXXXXXXXXXXXXXXXXXXXXXXXXXXXXXX   .......................",
".....................   XXXXXXXXXXXXXXXXXXXXXXXXXXXXXXXXXXXXXXXXXXXXXXXXXXXXXXXXXXX   ......................",
".....................   XXXXXXXXXXXXXXXXXXXXXXXXXXXXXXXXXXXXXXXXXXXXXXXXXXXXXXXXXXX   ......................",
".....................   XXXXXXXXXXXXXXXXXXXXXXXXXXXXXXXXXXXXXXXXXXXXXXXXXXXXXXXXXXX   ......................",
".....................   XXXXXXXXXXXXXXXXXXXXXXXXXXXXXXXXXXXXXXXXXXXXXXXXXXXXXXXXXXX   ......................",
".....................   XXXXXXXXXXXXXXXXXXXXXXXXXXXXXXXXXXXXXXXXXXXXXXXXXXXXXXXXXXX   ......................",
".....................   XXXXXXXXXXXXXXXXXXXXXXXXXXXXXXXXXXXXXXXXXXXXXXXXXXXXXXXXXXX   ......................",
".....................                                                                 ......................",
".....................                                                                 ......................",
"......................                                                                ......................",
"............................................................................................................",
"............................................................................................................",
"............................................................................................................",
"............................................................................................................",
"............................................................................................................",
"............................................................................................................",
"............................................................................................................",
"............................................................................................................",
"............................................................................................................"
};
