/* XPM */
static char *pll25[] = {
/* columns rows colors chars-per-pixel */
"25 25 3 1",
"  c black s dark_piece",
". c gray s light_square",
"X c white s light_piece",
/* pixels */
".........................",
".........................",
".........................",
".........................",
"...........   ...........",
".......... XXX ..........",
".......... XXX ..........",
"..........  X  ..........",
".........  XXX  .........",
"........ XXXXXXX ........",
"........ XXXXXXX ........",
"........ XXXXXXX ........",
"......... XXXXX .........",
".........  XXX  .........",
"........ XXXXXXX ........",
"....... XXXXXXXXX .......",
"...... XXXXXXXXXXX ......",
"...... XXXXXXXXXXX ......",
"..... XXXXXXXXXXXXX .....",
"..... XXXXXXXXXXXXX .....",
"..... XXXXXXXXXXXXX .....",
".....               .....",
".........................",
".........................",
"........................."
};
