/* XPM */
static char *pll29[] = {
/* columns rows colors chars-per-pixel */
"29 29 3 1",
"  c black s dark_piece",
". c gray s light_square",
"X c white s light_piece",
/* pixels */
".............................",
".............................",
".............................",
".............   .............",
"............ XXX ............",
"........... XXXXX ...........",
"........... XXXXX ...........",
"........... XXXXX ...........",
"...........   X   ...........",
".......... XXXXXXX ..........",
"......... XXXXXXXXX .........",
"......... XXXXXXXXX .........",
"......... XXXXXXXXX .........",
"......... XXXXXXXXX .........",
".......... XXXXXXX ..........",
"..........  XXXXX  ..........",
"......... XXXXXXXXX .........",
"........ XXXXXXXXXXX ........",
"....... XXXXXXXXXXXXX .......",
"....... XXXXXXXXXXXXX .......",
"....... XXXXXXXXXXXXX .......",
"...... XXXXXXXXXXXXXXX ......",
"...... XXXXXXXXXXXXXXX ......",
"...... XXXXXXXXXXXXXXX ......",
"...... XXXXXXXXXXXXXXX ......",
"......                 ......",
".............................",
".............................",
"............................."
};
