/* XPM */
static char *pll21[] = {
/* columns rows colors chars-per-pixel */
"21 21 3 1",
"  c black s dark_piece",
". c gray s light_square",
"X c white s light_piece",
/* pixels */
".....................",
".....................",
".....................",
"........     ........",
"....... XXXXX .......",
"....... XXXXX .......",
".......  XXX  .......",
"........ XXX ........",
"....... XXXXX .......",
"....... XXXXX .......",
"........ XXX ........",
"........ XXX ........",
"......  XXXXX  ......",
".....  XXXXXXX  .....",
"..... XXXXXXXXX .....",
"....  XXXXXXXXX  ....",
".... XXXXXXXXXXX ....",
".... XXXXXXXXXXX ....",
"....             ....",
".....................",
"....................."
};
