/* XPM */
static char *pll33[] = {
/* columns rows colors chars-per-pixel */
"33 33 3 1",
"  c black s dark_piece",
". c gray s light_square",
"X c white s light_piece",
/* pixels */
".................................",
".................................",
".................................",
".................................",
"...............   ...............",
".............. XXX ..............",
"............. XXXXX .............",
"............. XXXXX .............",
"............. XXXXX .............",
".............. XXX ..............",
"............. XXXXX .............",
"............ XXXXXXX ............",
"........... XXXXXXXXX ...........",
"........... XXXXXXXXX ...........",
"........... XXXXXXXXX ...........",
"........... XXXXXXXXX ...........",
"........... XXXXXXXXX ...........",
"............ XXXXXXX ............",
"............  XXXXX  ............",
"........... XXXXXXXXX ...........",
".......... XXXXXXXXXXX ..........",
"......... XXXXXXXXXXXXX .........",
"......... XXXXXXXXXXXXX .........",
"........ XXXXXXXXXXXXXXX ........",
"........ XXXXXXXXXXXXXXX ........",
"....... XXXXXXXXXXXXXXXXX .......",
"....... XXXXXXXXXXXXXXXXX .......",
"....... XXXXXXXXXXXXXXXXX .......",
"....... XXXXXXXXXXXXXXXXX .......",
".......                   .......",
".................................",
".................................",
"................................."
};
