/* XPM */
static char *pll45[] = {
/* columns rows colors chars-per-pixel */
"45 45 3 1",
"  c black s dark_piece",
". c gray s light_square",
"X c white s light_piece",
/* pixels */
".............................................",
".............................................",
".............................................",
".............................................",
"....................     ....................",
"................... XXXXX ...................",
".................. XXXXXXX ..................",
".................. XXXXXXX ..................",
".................. XXXXXXX ..................",
".................. XXXXXXX ..................",
".................. XXXXXXX ..................",
"................... XXXXX ...................",
"..................   XXX   ..................",
"................  XXXXXXXXX  ................",
"............... XXXXXXXXXXXXX ...............",
"............... XXXXXXXXXXXXX ...............",
".............. XXXXXXXXXXXXXXX ..............",
".............. XXXXXXXXXXXXXXX ..............",
".............. XXXXXXXXXXXXXXX ..............",
".............. XXXXXXXXXXXXXXX ..............",
".............. XXXXXXXXXXXXXXX ..............",
".............. XXXXXXXXXXXXXXX ..............",
"............... XXXXXXXXXXXXX ...............",
"................  XXXXXXXXX  ................",
"..................  XXXXX  ..................",
"................  XXXXXXXXX  ................",
"............... XXXXXXXXXXXXX ...............",
".............. XXXXXXXXXXXXXXX ..............",
"............. XXXXXXXXXXXXXXXXX .............",
"............ XXXXXXXXXXXXXXXXXXX ............",
"............ XXXXXXXXXXXXXXXXXXX ............",
"........... XXXXXXXXXXXXXXXXXXXXX ...........",
"........... XXXXXXXXXXXXXXXXXXXXX ...........",
".......... XXXXXXXXXXXXXXXXXXXXXXX ..........",
".......... XXXXXXXXXXXXXXXXXXXXXXX ..........",
".......... XXXXXXXXXXXXXXXXXXXXXXX ..........",
"......... XXXXXXXXXXXXXXXXXXXXXXXXX .........",
"......... XXXXXXXXXXXXXXXXXXXXXXXXX .........",
"......... XXXXXXXXXXXXXXXXXXXXXXXXX .........",
"......... XXXXXXXXXXXXXXXXXXXXXXXXX .........",
".........                           .........",
".............................................",
".............................................",
".............................................",
"............................................."
};
