/* XPM */
static char *pll58[] = {
/* columns rows colors chars-per-pixel */
"58 58 3 1",
"  c black s dark_piece",
". c gray s light_square",
"X c white s light_piece",
/* pixels */
"..........................................................",
"..........................................................",
"..........................................................",
"..........................................................",
"..........................................................",
"..........................................................",
"..........................................................",
"..........................................................",
"...........................    ...........................",
".........................        .........................",
"........................   XXXX   ........................",
".......................   XXXXXX   .......................",
".......................  XXXXXXXX  .......................",
".......................  XXXXXXXX  .......................",
".......................  XXXXXXXX  .......................",
".......................  XXXXXXXX  .......................",
".......................   XXXXXX   .......................",
"........................   XXXX   ........................",
"......................     XXXX     ......................",
".....................   XXXXXXXXXX   .....................",
"....................   XXXXXXXXXXXX   ....................",
"....................  XXXXXXXXXXXXXX  ....................",
"...................   XXXXXXXXXXXXXX   ...................",
"...................  XXXXXXXXXXXXXXXX  ...................",
"...................  XXXXXXXXXXXXXXXX  ...................",
"...................  XXXXXXXXXXXXXXXX  ...................",
"...................  XXXXXXXXXXXXXXXX  ...................",
"...................  XXXXXXXXXXXXXXXX  ...................",
"...................  XXXXXXXXXXXXXXXX  ...................",
"...................   XXXXXXXXXXXXXX   ...................",
"....................  XXXXXXXXXXXXXX  ....................",
"....................   XXXXXXXXXXXX   ....................",
".....................    XXXXXXXX    .....................",
".....................    XXXXXXXX    .....................",
"...................    XXXXXXXXXXXX    ...................",
"..................   XXXXXXXXXXXXXXXX   ..................",
".................   XXXXXXXXXXXXXXXXXX   .................",
"................   XXXXXXXXXXXXXXXXXXXX   ................",
"...............   XXXXXXXXXXXXXXXXXXXXXX   ...............",
"...............  XXXXXXXXXXXXXXXXXXXXXXXX  ...............",
"..............   XXXXXXXXXXXXXXXXXXXXXXXX   ..............",
"..............  XXXXXXXXXXXXXXXXXXXXXXXXXX  ..............",
".............   XXXXXXXXXXXXXXXXXXXXXXXXXX   .............",
".............  XXXXXXXXXXXXXXXXXXXXXXXXXXXX  .............",
".............  XXXXXXXXXXXXXXXXXXXXXXXXXXXX  .............",
"............   XXXXXXXXXXXXXXXXXXXXXXXXXXXX   ............",
"............  XXXXXXXXXXXXXXXXXXXXXXXXXXXXXX  ............",
"............  XXXXXXXXXXXXXXXXXXXXXXXXXXXXXX  ............",
"............  XXXXXXXXXXXXXXXXXXXXXXXXXXXXXX  ............",
"............  XXXXXXXXXXXXXXXXXXXXXXXXXXXXXX  ............",
"............                                  ............",
"............                                  ............",
"..........................................................",
"..........................................................",
"..........................................................",
"..........................................................",
"..........................................................",
".........................................................."
};
