/* XPM */
static char *pll64[] = {
/* columns rows colors chars-per-pixel */
"64 64 3 1",
"  c black s dark_piece",
". c gray s light_square",
"X c white s light_piece",
/* pixels */
"................................................................",
"................................................................",
"................................................................",
"................................................................",
"................................................................",
"................................................................",
"................................................................",
".............................      .............................",
"...........................          ...........................",
"..........................   XXXXXX   ..........................",
".........................   XXXXXXXX   .........................",
".........................  XXXXXXXXXX  .........................",
".........................  XXXXXXXXXX  .........................",
".........................  XXXXXXXXXX  .........................",
".........................  XXXXXXXXXX  .........................",
".........................  XXXXXXXXXX  .........................",
".........................   XXXXXXXX   .........................",
"..........................    XXXXX   ..........................",
"........................      XXXX    ..........................",
".......................    XXXXXXXXX    ........................",
"......................   XXXXXXXXXXXXX   .......................",
"......................  XXXXXXXXXXXXXXX   ......................",
".....................   XXXXXXXXXXXXXXXX  ......................",
".....................  XXXXXXXXXXXXXXXXX   .....................",
".....................  XXXXXXXXXXXXXXXXXX  .....................",
".....................  XXXXXXXXXXXXXXXXXX  .....................",
".....................  XXXXXXXXXXXXXXXXXX  .....................",
".....................  XXXXXXXXXXXXXXXXXX  .....................",
".....................  XXXXXXXXXXXXXXXXXX  .....................",
".....................  XXXXXXXXXXXXXXXXXX  .....................",
".....................   XXXXXXXXXXXXXXXX   .....................",
"......................  XXXXXXXXXXXXXXXX  ......................",
"......................   XXXXXXXXXXXXXX   ......................",
".......................   XXXXXXXXXXXX   .......................",
"........................    XXXXXXXX    ........................",
"........................    XXXXXXXX    ........................",
"......................    XXXXXXXXXXXX    ......................",
"....................    XXXXXXXXXXXXXXXX    ....................",
"...................   XXXXXXXXXXXXXXXXXXXX   ...................",
"..................   XXXXXXXXXXXXXXXXXXXXXX   ..................",
".................   XXXXXXXXXXXXXXXXXXXXXXXX   .................",
"................   XXXXXXXXXXXXXXXXXXXXXXXXXX   ................",
"................  XXXXXXXXXXXXXXXXXXXXXXXXXXXX  ................",
"...............   XXXXXXXXXXXXXXXXXXXXXXXXXXXX   ...............",
"...............  XXXXXXXXXXXXXXXXXXXXXXXXXXXXXX  ...............",
"..............   XXXXXXXXXXXXXXXXXXXXXXXXXXXXXX   ..............",
"..............  XXXXXXXXXXXXXXXXXXXXXXXXXXXXXXXX  ..............",
"..............  XXXXXXXXXXXXXXXXXXXXXXXXXXXXXXXX  ..............",
"..............  XXXXXXXXXXXXXXXXXXXXXXXXXXXXXXXX  ..............",
".............   XXXXXXXXXXXXXXXXXXXXXXXXXXXXXXXX   .............",
".............  XXXXXXXXXXXXXXXXXXXXXXXXXXXXXXXXXX  .............",
".............  XXXXXXXXXXXXXXXXXXXXXXXXXXXXXXXXXX  .............",
".............  XXXXXXXXXXXXXXXXXXXXXXXXXXXXXXXXXX  .............",
".............  XXXXXXXXXXXXXXXXXXXXXXXXXXXXXXXXXX  .............",
".............                                      .............",
".............                                      .............",
"................................................................",
"................................................................",
"................................................................",
"................................................................",
"................................................................",
"................................................................",
"................................................................",
"................................................................"
};
