/* XPM */
static char *qdd108[] = {
/* columns rows colors chars-per-pixel */
"108 108 3 1",
"  c black s dark_piece",
". c green s dark_square",
"X c white s light_piece",
/* pixels */
"............................................................................................................",
"............................................................................................................",
"............................................................................................................",
"............................................................................................................",
"............................................................................................................",
"............................................................................................................",
"............................................................................................................",
"...................................................     ....................................................",
".................................................         ..................................................",
"................................................           .................................................",
"................................................           .................................................",
"...........................     ...............             ...............     ............................",
".........................         .............             .............         ..........................",
"........................           ............             ............           .........................",
"........................           ............             ............           .........................",
".......................             ...........             ...........             ........................",
".......................             ............           ............             ........................",
".......................             ............           ............             ........................",
".......................             .............         .............             ........................",
"........................            ...............     ...............            .........................",
"......     .............           ................     ................           .............     .......",
"....         ............          ................     ................          ............         .....",
"...           ............        .................     .................        ............           ....",
"...           ..............     ..................     ..................     ..............           ....",
"..             ..............    ..................     ..................    ..............             ...",
"..             ..............    .................       .................    ..............             ...",
"..             ..............     ................       ................     ..............             ...",
"..             ..............     ................       ................     ..............             ...",
"..             ..............     ................       ................     ..............             ...",
"...           ..............       ...............       ...............       ..............           ....",
"...           ..............       ..............         ..............       ..............           ....",
"....         ...............       ..............         ..............       ...............         .....",
"......       ...............        .............         .............        ...............       .......",
".........     ..............        .............         .............        ..............     ..........",
".........     ..............         ...........           ...........         ..............     ..........",
".........      .............         ...........           ...........         .............      ..........",
"..........     .............         ...........           ...........         .............     ...........",
"..........      ............          ..........           ..........          ............      ...........",
"..........      ............          ..........           ..........          ............      ...........",
"..........       ...........          .........             .........          ...........       ...........",
"..........        ..........           ........             ........           ..........        ...........",
"...........       ..........           ........             ........           ..........       ............",
"...........        .........           ........             ........           .........        ............",
"...........        .........            .......             .......            .........        ............",
"...........         ........            ......               ......            ........         ............",
"...........         ........             .....               .....             ........         ............",
"...........          .......             .....               .....             .......          ............",
"............         .......             .....               .....             .......         .............",
"............          ......              ...                 ...              ......          .............",
"............           .....              ...                 ...              .....           .............",
"............           ....               ...                 ...               ....           .............",
"............            ...                ..                 ..                ...            .............",
".............           ...                ..                 ..                ...           ..............",
".............            ..                .                   .                ..            ..............",
".............            ..                                                     ..            ..............",
".............             .                                                     .             ..............",
".............                                                                                 ..............",
".............                                                                                 ..............",
"..............                                                                               ...............",
"..............                                                                               ...............",
"..............                                                                               ...............",
"..............                                                                               ...............",
"..............                                                                               ...............",
"...............                                                                             ................",
"...............                                                                             ................",
"...............                                                                             ................",
"................                                                                           .................",
".................                                                                         ..................",
".................                                                                         ..................",
"..................                                                                       ...................",
"...................                    XXXXXXXXXXXXXXXXXXXXXXXXXXXXX                    ....................",
"....................           XXXXXXXXXXXXXXXXXXXXXXXXXXXXXXXXXXXXXXXXXXXXX           .....................",
".....................     XXXXXXXXXXXXXXXXXXXXXXXXXXXXXXXXXXXXXXXXXXXXXXXXXXXXXXX     ......................",
"......................    XXXXXXXXXXXXXXXXX                     XXXXXXXXXXXXXXXXX    .......................",
"......................    XXXXXXX                                         XXXXXXX    .......................",
".......................                                                             ........................",
".......................                                                             ........................",
".......................                                                             ........................",
".......................                                                             ........................",
"........................                                                           .........................",
"........................                XXXXXXXXXXXXXXXXXXXXXXXXXXX                .........................",
"........................       XXXXXXXXXXXXXXXXXXXXXXXXXXXXXXXXXXXXXXXXXXXXX       .........................",
"........................    XXXXXXXXXXXXXXXXXXXXXXXXXXXXXXXXXXXXXXXXXXXXXXXXXXX    .........................",
"........................   XXXXXXXXXXXXXXXX                     XXXXXXXXXXXXXXXX   .........................",
"........................    XXXXX                                         XXXXX    .........................",
".......................                                                             ........................",
".......................                                                             ........................",
"......................                                                               .......................",
"......................                                                               .......................",
".....................  X                                                              ......................",
"..................... XXX                                                             ......................",
"....................  XXX                                                              .....................",
"...................                                                                     ....................",
"...................                                                                     ....................",
"...................                                                                     ....................",
"...................                                                                     ....................",
"....................                                                                   .....................",
"......................                                                               .......................",
"..........................                                                       ...........................",
".................................                                         ..................................",
"..........................................                       ...........................................",
"............................................................................................................",
"............................................................................................................",
"............................................................................................................",
"............................................................................................................",
"............................................................................................................",
"............................................................................................................",
"............................................................................................................"
};
