/* XPM */
static char * qdd25[] = {
"25 25 3 1",
" 	c green s dark_square",
".	c black s dark_piece",
"X	c white s light_piece",
"                         ",
"            .            ",
"       .   ...   .       ",
"      ...  ...  ...      ",
" ..   ...   .   ...   .. ",
"....   .    .    .   ....",
"....   ..  ...  ..   ....",
" ...   ..  ...  ..   ... ",
"  ..   ..  ...  ..   ..  ",
"  ...  ... ... ...  ...  ",
"   ... ... ... ... ...   ",
"   ... ........... ...   ",
"   ...................   ",
"    .................    ",
"    .................    ",
"    .................    ",
"     ..XXXXXXXXXXX..     ",
"     ...............     ",
"      .XXXXXXXXXXX.      ",
"     ..X.........X..     ",
"     ..X............     ",
"     ...............     ",
"      .............      ",
"                         ",
"                         "};
