/* XPM */
static char *qdd95[] = {
/* columns rows colors chars-per-pixel */
"95 95 3 1",
"  c black s dark_piece",
". c green s dark_square",
"X c white s light_piece",
/* pixels */
"...............................................................................................",
"...............................................................................................",
"...............................................................................................",
"...............................................................................................",
"...............................................................................................",
"...............................................................................................",
"...............................................................................................",
"..............................................   ..............................................",
"............................................       ............................................",
"...........................................         ...........................................",
".........................    ..............         ..............    .........................",
".......................        ...........           ...........        .......................",
"......................          ..........           ..........          ......................",
"......................          ..........           ..........          ......................",
".....................            .........           .........            .....................",
".....................            ..........         ..........            .....................",
".....................            ..........         ..........            .....................",
".....................            ...........       ...........            .....................",
".......    ...........          ..............   ..............          ...........    .......",
".....        .........          .............     .............          .........        .....",
"....          .........        ..............     ..............        .........          ....",
"....          ...........     ...............     ...............     ...........          ....",
"...            ...........    ...............     ...............    ...........            ...",
"...            ...........    ..............       ..............    ...........            ...",
"...            ...........     .............       .............     ...........            ...",
"...            ...........     .............       .............     ...........            ...",
"....          ............     .............       .............     ............          ....",
"....          ............      ............       ............      ............          ....",
".....        .............      ...........         ...........      .............        .....",
".......      .............      ...........         ...........      .............      .......",
".........     ............       ..........         ..........       ............     .........",
".........     ............       ..........         ..........       ............     .........",
"..........     ..........         .........         .........         ..........     ..........",
"..........      .........         ........           ........         .........      ..........",
"..........      .........         ........           ........         .........      ..........",
"..........       ........          .......           .......          ........       ..........",
"..........       ........          .......           .......          ........       ..........",
"..........        .......          ......             ......          .......        ..........",
"...........       .......           .....             .....           .......       ...........",
"...........        ......           .....             .....           ......        ...........",
"...........         .....           .....             .....           .....         ...........",
"...........         .....            ....             ....            .....         ...........",
"...........          ....            ...               ...            ....          ...........",
"............         ....            ...               ...            ....         ............",
"............          ...             ..               ..             ...          ............",
"............           ..             ..               ..             ..           ............",
"............           ..             .                 .             ..           ............",
"............            .                                             .            ............",
"............            .                                             .            ............",
".............                                                                     .............",
".............                                                                     .............",
".............                                                                     .............",
".............                                                                     .............",
".............                                                                     .............",
".............                                                                     .............",
"..............                                                                   ..............",
"..............                                                                   ..............",
"..............                                                                   ..............",
"...............                                                                 ...............",
"................                                                               ................",
"................                                                               ................",
".................                                                             .................",
"..................               XXXXXXXXXXXXXXXXXXXXXXXXXXXXX               ..................",
"...................      XXXXXXXXXXXXXXXXXXXXXXXXXXXXXXXXXXXXXXXXXXXXX      ...................",
"...................    XXXXXXXXXXXXXXXXXXXXXXXXXXXXXXXXXXXXXXXXXXXXXXXXX    ...................",
"....................   XXXXXXXXXXXXXX                     XXXXXXXXXXXXXX   ....................",
"....................    XX                                           XX    ....................",
"....................                                                       ....................",
".....................                                                     .....................",
".....................                                                     .....................",
".....................               XXXXXXXXXXXXXXXXXXXXXXX               .....................",
"......................       XXXXXXXXXXXXXXXXXXXXXXXXXXXXXXXXXXXXX       ......................",
"......................   XXXXXXXXXXXXXXXXXXXXXXXXXXXXXXXXXXXXXXXXXXXXX   ......................",
"......................   XXXXXXXXXXXXXX                 XXXXXXXXXXXXXX   ......................",
"......................   XXXXX                                   XXXXX   ......................",
".....................                                                     .....................",
".....................                                                     .....................",
"....................                                                       ....................",
"....................  XX                                                   ....................",
"...................   XXX                                                   ...................",
"...................   XX                                                    ...................",
"..................                                                           ..................",
"..................                                                           ..................",
"..................                                                           ..................",
"...................                                                         ...................",
"....................                                                       ....................",
"......................                                                   ......................",
"..............................                                   ..............................",
".....................................                     .....................................",
"...............................................................................................",
"...............................................................................................",
"...............................................................................................",
"...............................................................................................",
"...............................................................................................",
"..............................................................................................."
};
