/* XPM */
static char *qdl29[] = {
/* columns rows colors chars-per-pixel */
"29 29 3 1",
"  c black s dark_piece",
". c gray s light_square",
"X c white s light_piece",
/* pixels */
".............................",
".............................",
".............. ..............",
".......  ....   ....  .......",
"......    ..     ..    ......",
"..  ..    ...   ...    ..  ..",
".    ..  ..... .....  ..    .",
".    ...  ...   ...  ...    .",
"..  ....  ...   ...  ....  ..",
"...  ...  ...   ...  ...  ...",
"...  ..    ..   ..   ...  ...",
"...   .    ..   ..    .   ...",
"...   .     .   .     .   ...",
"...                       ...",
"....                     ....",
"....                     ....",
"....                     ....",
"....                     ....",
".....     XXXXXXXXX     .....",
".....  XXX         XXX  .....",
"......                 ......",
"......   XXXXXXXXXXX   ......",
"....... X           X .......",
"...... X               ......",
"......                 ......",
"......                 ......",
"........             ........",
".............................",
"............................."
};
