/* XPM */
static char *qdl37[] = {
/* columns rows colors chars-per-pixel */
"37 37 3 1",
"  c black s dark_piece",
". c gray s light_square",
"X c white s light_piece",
/* pixels */
".....................................",
".....................................",
".................   .................",
"..........   ...     ...   ..........",
".........     ..     ..     .........",
".........     ...   ...     .........",
"...  .....   ..... .....   .....  ...",
"..    ..... ...... ...... .....    ..",
"..    .....  ....   ....  .....    ..",
"..    .....  ....   ....  .....    ..",
"...  .....   ....   ....   .....  ...",
"....  ....   ....   ....   ....  ....",
"....  ....    ...   ...    ....  ....",
"....   ...    ..     ..    ...   ....",
"....   ...    ..     ..    ...   ....",
"....    ..    ..     ..    ..    ....",
".....   ..     .     .     ..   .....",
".....   .      .     .      .   .....",
".....                           .....",
".....                           .....",
".....                           .....",
"......                         ......",
"......                         ......",
".......                       .......",
".......  XXXXXXXXXXXXXXXXXXX  .......",
"........                     ........",
"........                     ........",
".........  XXXXXXXXXXXXXXX  .........",
"........  XX             XX  ........",
"........                     ........",
"....... X                     .......",
".......                       .......",
"........                     ........",
".............           .............",
".....................................",
".....................................",
"....................................."
};
