/* XPM */
static char *qdl40[] = {
/* columns rows colors chars-per-pixel */
"40 40 3 1",
"  c black s dark_piece",
". c gray s light_square",
"X c white s light_piece",
/* pixels */
"........................................",
"........................................",
"...................   ..................",
"...........   ....     ....   ..........",
"..........     ...     ...     .........",
"..........     ...     ...     .........",
"..   .....     ....   ....     .....   .",
".     .....   ...... ......   .....     ",
".     ...... ....... ....... ......     ",
".     ......  .....   .....  ......     ",
"..   .......  .....   .....  .......   .",
"....  ......   ....   ....   ......  ...",
"....  ......   ....   ....   ......  ...",
"....   .....   ....   ....   .....   ...",
"....    ...     ..     ..     ...    ...",
".....   ...     ..     ..     ...   ....",
".....    ..     ..     ..     ..    ....",
".....    ..      .     .      ..    ....",
".....     .      .     .      .     ....",
".....                               ....",
".....                               ....",
".....                              .....",
"......                             .....",
"......                             .....",
".......                           ......",
"........      XXXXXXXXXXXXX      .......",
"........  XXXXX           XXXXX  .......",
".........                       ........",
".........                       ........",
".........     XXXXXXXXXXXXX     ........",
".......... XXX             XXX .........",
".........                       ........",
"........                         .......",
".........                        .......",
".......                           ......",
"........                         .......",
"..............             .............",
"........................................",
"........................................",
"........................................"
};
