/* XPM */
static char *qdl49[] = {
/* columns rows colors chars-per-pixel */
"49 49 3 1",
"  c black s dark_piece",
". c gray s light_square",
"X c white s light_piece",
/* pixels */
".................................................",
".................................................",
".................................................",
".......................   .......................",
"...........    .......     .......    ...........",
"..........      ......     ......      ..........",
"..........      ......     ......      ..........",
"..........      .......   .......      ..........",
"..    .....    ......... .........    .....    ..",
".      .....  .......... ..........  .....      .",
".      ......  ........   ........  ......      .",
".      ......  ........   ........  ......      .",
"..    .......  ........   ........  .......    ..",
"...  ........   .......   .......   ........  ...",
"....  .......   .......   .......   .......  ....",
".....  ......    .....     .....    ......  .....",
".....  ......    .....     .....    ......  .....",
".....   .....    .....     .....    .....   .....",
".....   .....     ....     ....     .....   .....",
".....    ....     ....     ....     ....    .....",
".....     ...      ..       ..      ...     .....",
"......    ...      ..       ..      ...    ......",
"......     ..      ..       ..      ..     ......",
"......     ..       .       .       ..     ......",
"......      .                       .      ......",
"......                                     ......",
".......                                   .......",
".......                                   .......",
".......                                   .......",
".......                                   .......",
"........                                 ........",
".........                               .........",
".........       XXXXXXXXXXXXXXXXX       .........",
".......... XXXXXX               XXXXXX ..........",
"..........                             ..........",
"...........                           ...........",
"...........                           ...........",
"...........   XXXXXXXXXXXXXXXXXXXXX   ...........",
"........... XXX                   XXX ...........",
"..........                             ..........",
"..........                             ..........",
".........                               .........",
"........                                 ........",
"........                                 ........",
"..........                             ..........",
"................                 ................",
".................................................",
".................................................",
"................................................."
};
