/* XPM */
static char *qdl54[] = {
/* columns rows colors chars-per-pixel */
"54 54 3 1",
"  c black s dark_piece",
". c gray s light_square",
"X c white s light_piece",
/* pixels */
"......................................................",
"......................................................",
"......................................................",
"..........................  ..........................",
"........................      ........................",
".............     .....        .....     .............",
"............       ....        ....       ............",
"............       ....        ....       ............",
"............       .....      .....       ............",
"...     ....       ......    ......       ....     ...",
"..       ...       .......  .......       ...       ..",
"..       ....     .......    .......     ....       ..",
"..       ......   .......    .......   ......       ..",
"..       ......   .......    .......   ......       ..",
"..      .......    ......    ......    .......      ..",
"...     .......    ......    ......    .......     ...",
".....   .......    .....      .....    .......   .....",
".....    ......     ....      ....     ......    .....",
"......   .....      ....      ....      .....   ......",
"......    ....      ....      ....      ....    ......",
"......     ...       ...      ...       ...     ......",
"......     ...       ..        ..       ...     ......",
"......      ..        .        .        ..      ......",
".......     ..        .        .        ..     .......",
".......      .        .        .        .      .......",
".......      .                          .      .......",
".......                                        .......",
".......                                        .......",
".......                                        .......",
"........                                      ........",
"........                                      ........",
"........                                      ........",
"........                                      ........",
".........                                    .........",
"..........         XXXXXXXXXXXXXXXX         ..........",
"..........    XXXXXXXXXXXXXXXXXXXXXXXXXX    ..........",
"...........  XXXXXXX              XXXXXXX  ...........",
"...........                                ...........",
"............                              ............",
"............       XXXXXXXXXXXXXXXX       ............",
"............   XXXXXXXXXXXXXXXXXXXXXXXX   ............",
"............  XXXXXX              XXXXXX  ............",
"...........                                ...........",
"...........                                ...........",
"..........                                  ..........",
"..........                                  ..........",
"..........                                  ..........",
"..........                                  ..........",
"...........                                ...........",
"..................                  ..................",
"......................................................",
"......................................................",
"......................................................",
"......................................................"
};
