/* XPM */
static char *qdl64[] = {
/* columns rows colors chars-per-pixel */
"64 64 3 1",
"  c black s dark_piece",
". c gray s light_square",
"X c white s light_piece",
/* pixels */
"................................................................",
"................................................................",
"................................................................",
"................................................................",
"...............................  ...............................",
".............................      .............................",
"..................  ........        ........  ..................",
"................      ......        ......      ................",
"...............        .....        .....        ...............",
"...............        .....        .....        ...............",
"...............        ......      ......        ...............",
".....  ........        ........  ........        ........  .....",
"...      .......      ........    ........      .......      ...",
"..        .......    .........    .........    .......        ..",
"..        ........   .........    .........   ........        ..",
"..        ........   .........    .........   ........        ..",
"..        ........    ........    ........    ........        ..",
"...      ........     .......      .......     ........      ...",
"....     ........     .......      .......     ........     ....",
"......   ........      ......      ......      ........   ......",
"......    .......      ......      ......      .......    ......",
"......    .......      ......      ......      .......    ......",
"......     ......       ....        ....       ......     ......",
".......    ......       ....        ....       ......    .......",
".......     .....       ....        ....       .....     .......",
".......     .....        ...        ...        .....     .......",
".......      ....        ...        ...        ....      .......",
".......      ....        ..          ..        ....      .......",
".......       ...         .          .         ...       .......",
".......       ..          .          .          ..       .......",
"........       .          .          .          .       ........",
"........                                                ........",
"........                                                ........",
"........                                                ........",
"........                                                ........",
"........                                                ........",
".........                                              .........",
".........                                              .........",
".........                                              .........",
"..........                                            ..........",
"..........                                            ..........",
"...........          XXXXXXXXXXXXXXXXXXXXXX          ...........",
"............    XXXXXXXXXXXXXXXXXXXXXXXXXXXXXXXX    ............",
".............   XXXXXXX                  XXXXXXX   .............",
".............                                      .............",
"..............                                    ..............",
"..............                                    ..............",
"..............       XXXXXXXXXXXXXXXXXXXXXX       ..............",
"..............   XXXXXXXXXXXXXXXXXXXXXXXXXXXXXX   ..............",
"...............  XXXXXX                  XXXXXX  ...............",
"..............                                    ..............",
"..............                                    ..............",
"............. XXX                                  .............",
"............. XXX                                  .............",
"............                                        ............",
"............                                        ............",
"............                                        ............",
".............                                      .............",
".................                               ................",
"........................                ........................",
"................................................................",
"................................................................",
"................................................................",
"................................................................"
};
