/* XPM */
static char * qdl72[] = {
"72 72 3 1",
" 	c gray s light_square",
".	c black s dark_piece",
"X	c white s light_piece",
"                                                                        ",
"                                                                        ",
"                                                                        ",
"                                  ....                                  ",
"                                ........                                ",
"                  ...          ..........          ...                  ",
"                .......        ..........        .......                ",
"               .........       ..........       .........               ",
"               .........       ..........       .........               ",
"               .........       ..........       .........               ",
"               .........        ........        .........               ",
"   ...         .........          ....          .........         ...   ",
" .......        .......           ....           .......        ....... ",
".........        .....            ....            .....        .........",
".........          ...            ....            ...          .........",
".........          ...            ....            ...          .........",
".........          ....           ....           ....          .........",
".........          ....          ......          ....          .........",
" .......           ....          ......          ....           ....... ",
"  ......           .....         ......         .....           ......  ",
"     ...           .....         ......         .....           ...     ",
"     ....          .....         ......         .....          ....     ",
"     ....          ......       ........       ......          ....     ",
"     .....         ......       ........       ......         .....     ",
"      .....       ........      ........      ........       .....      ",
"      .....       ........      ........      ........       .....      ",
"      ......      ........      ........      ........      ......      ",
"      ......      .........    ..........    .........      ......      ",
"      .......     .........    ..........    .........     .......      ",
"      .......     .........    ..........    .........     .......      ",
"       .......    ..........   ..........   ..........    .......       ",
"       ........   ..........   ..........   ..........   ........       ",
"       ........   ........... ............ ...........   ........       ",
"       .........  ........... ............ ...........  .........       ",
"       .........  ........... ............ ...........  .........       ",
"       .......... .................................... ..........       ",
"        ......... .................................... .........        ",
"        ........................................................        ",
"        ........................................................        ",
"        ........................................................        ",
"        ........................................................        ",
"        ........................................................        ",
"         ......................................................         ",
"         ......................................................         ",
"         ......................................................         ",
"          ....................................................          ",
"           ..................................................           ",
"            ............XXXXXXXXXXXXXXXXXXXXXXXX............            ",
"             ....XXXXXXXXXXXXXXXXXXXXXXXXXXXXXXXXXXXXXX....             ",
"              ..XXXXXXXXXX....................XXXXXXXXXX..              ",
"              ...X....................................X...              ",
"               ..........................................               ",
"               ..........................................               ",
"               ..........................................               ",
"               .........XXXXXXXXXXXXXXXXXXXXXXXX.........               ",
"               ...XXXXXXXXXXXXXXXXXXXXXXXXXXXXXXXXXXXX...               ",
"                ..XXXXXXXX....................XXXXXXXX..                ",
"               ..........................................               ",
"               ..........................................               ",
"              ............................................              ",
"             ..............................................             ",
"             .XX...........................................             ",
"            ................................................            ",
"            ................................................            ",
"            ................................................            ",
"            ................................................            ",
"              ............................................              ",
"                   ..................................                   ",
"                          ....................                          ",
"                                                                        ",
"                                                                        ",
"                                                                        "};
