/* XPM */
static char *qdl87[] = {
/* columns rows colors chars-per-pixel */
"87 87 3 1",
"  c black s dark_piece",
". c gray s light_square",
"X c white s light_piece",
/* pixels */
".......................................................................................",
".......................................................................................",
".......................................................................................",
".......................................................................................",
".......................................................................................",
"..........................................   ..........................................",
"........................................       ........................................",
".......................................         .......................................",
".......................   .............         .............   .......................",
".....................       ..........           ..........       .....................",
"....................         .........           .........         ....................",
"....................         .........           .........         ....................",
"...................           .........         .........           ...................",
"...................           .........         .........           ...................",
"...................           ..........       ..........           ...................",
".......   ..........         .............   .............         ..........   .......",
".....       ........         ............     ............         ........       .....",
"....         ........       .............     .............       ........         ....",
"....         ..........     .............     .............     ..........         ....",
"...           ..........    .............     .............    ..........           ...",
"...           ..........    .............     .............    ..........           ...",
"...           ..........     ...........       ...........     ..........           ...",
"....         ...........     ...........       ...........     ...........         ....",
"....         ...........     ...........       ...........     ...........         ....",
".....       ............      ..........       ..........      ............       .....",
".......     ............      ..........       ..........      ............     .......",
".........    ...........      .........         .........      ...........    .........",
".........    ...........       ........         ........       ...........    .........",
".........     ..........       ........         ........       ..........     .........",
".........     .........        ........         ........        .........     .........",
".........      ........         .......         .......         ........      .........",
".........      ........         ......           ......         ........      .........",
"..........      .......         ......           ......         .......      ..........",
"..........       ......          .....           .....          ......       ..........",
"..........       ......          .....           .....          ......       ..........",
"..........        .....          .....           .....          .....        ..........",
"..........        .....           ...             ...           .....        ..........",
"...........        ....           ...             ...           ....        ...........",
"...........         ...            ..             ..            ...         ...........",
"...........         ...            ..             ..            ...         ...........",
"...........          ..            ..             ..            ..          ...........",
"...........          ..                                         ..          ...........",
"...........           .                                         .           ...........",
"............          .                                         .          ............",
"............                                                               ............",
"............                                                               ............",
"............                                                               ............",
"............                                                               ............",
"............                                                               ............",
".............                                                             .............",
".............                                                             .............",
".............                                                             .............",
".............                                                             .............",
"..............                                                           ..............",
"...............                                                         ...............",
"...............                 XXXXXXXXXXXXXXXXXXXXXXX                 ...............",
"................         XXXXXXXXXXXXXXXXXXXXXXXXXXXXXXXXXXXXX         ................",
".................     XXXXXXXXXXXXXXXXXXXXXXXXXXXXXXXXXXXXXXXXXXX     .................",
"..................   XXXXXXXXXXXXXX                 XXXXXXXXXXXXXX   ..................",
"..................    XXXXX                                 XXXXX    ..................",
"...................                                                 ...................",
"...................                                                 ...................",
"...................                                                 ...................",
"...................             XXXXXXXXXXXXXXXXXXXXXXX             ...................",
"....................      XXXXXXXXXXXXXXXXXXXXXXXXXXXXXXXXXXX      ....................",
"....................   XXXXXXXXXXXXXXXXXXXXXXXXXXXXXXXXXXXXXXXXX   ....................",
"....................   XXXXXXXXXXXX                 XXXXXXXXXXXX   ....................",
"....................   XXXXX                               XXXXX   ....................",
"...................                                                 ...................",
"...................                                                 ...................",
"...................   X                                             ...................",
"..................   XXX                                             ..................",
"..................   XXX                                             ..................",
".................                                                     .................",
".................                                                     .................",
".................                                                     .................",
".................                                                     .................",
"..................                                                   ..................",
"....................                                               ....................",
".........................                                     .........................",
".................................                     .................................",
".......................................................................................",
".......................................................................................",
".......................................................................................",
".......................................................................................",
".......................................................................................",
"......................................................................................."
};
