/* XPM */
static char *qld108[] = {
/* columns rows colors chars-per-pixel */
"108 108 3 1",
"  c black s dark_piece",
". c green s dark_square",
"X c white s light_piece",
/* pixels */
"............................................................................................................",
"............................................................................................................",
"............................................................................................................",
"............................................................................................................",
"............................................................................................................",
"............................................................................................................",
"............................................................................................................",
"...................................................     ....................................................",
".................................................         ..................................................",
"................................................           .................................................",
"................................................   XXXXX   .................................................",
"...........................     ...............   XXXXXXX   ...............     ............................",
".........................         .............   XXXXXXX   .............         ..........................",
"........................           ............   XXXXXXX   ............           .........................",
"........................   XXXXX   ............   XXXXXXX   ............   XXXXX   .........................",
".......................   XXXXXXX   ............   XXXXX   ............   XXXXXXX   ........................",
".......................   XXXXXXX   ............    XXX    ............   XXXXXXX   ........................",
".......................   XXXXXXX   .............         .............   XXXXXXX   ........................",
".......................   XXXXXXX   ..............       ..............   XXXXXXX   ........................",
"........................   XXXXX   .................   .................   XXXXX   .........................",
"......     .............     XX    .................   .................    XX     .............     .......",
"....         ............         .................     .................         ............         .....",
"...           ............       ..................     ..................       ............           ....",
"...   XXXXX   ...............   ...................     ...................   ...............   XXXXX   ....",
"..   XXXXXXX   ..............    ..................     ..................    ..............   XXXXXXX   ...",
"..   XXXXXXX   ..............    .................   X   .................    ..............   XXXXXXX   ...",
"..   XXXXXXX   ..............     ................   X   ................     ..............   XXXXXXX   ...",
"..   XXXXXXX   ..............     ................   X   ................     ..............   XXXXXXX   ...",
"..   XXXXXXX   ..............     ................   X   ................     ..............   XXXXXXX   ...",
"...   XXXXX   ...............      ...............   X   ...............      ...............   XXXXX   ....",
"...           ...............      ..............   XXX   ..............      ...............           ....",
"....         ................      ..............   XXX   ..............      ................         .....",
"......       ...............   XX   .............   XXX   .............   XX   ...............       .......",
".........    ...............   XX   .............   XXX   .............   XX   ...............    ..........",
".........     ..............   XX   .............   XXX   .............   XX   ..............     ..........",
"..........     .............   XXX   ...........   XXXXX   ...........   XXX   .............     ...........",
"..........     .............   XXX   ...........   XXXXX   ...........   XXX   .............     ...........",
"..........      ............   XXXX   ..........   XXXXX   ..........   XXXX   ............      ...........",
"..........      ............   XXXX   ..........   XXXXX   ..........   XXXX   ............      ...........",
"..........   X   ...........   XXXX   ..........   XXXXX   ..........   XXXX   ...........   X   ...........",
"..........   X   ...........   XXXXX   ........   XXXXXXX   ........   XXXXX   ...........   X   ...........",
"...........   X   ..........   XXXXX   ........   XXXXXXX   ........   XXXXX   ..........   X   ............",
"...........   X    .........   XXXXX   ........   XXXXXXX   ........   XXXXX   .........    X   ............",
"...........   XX   .........   XXXXXX   .......   XXXXXXX   .......   XXXXXX   .........   XX   ............",
"...........   XXX   ........   XXXXXX   ......   XXXXXXXXX   ......   XXXXXX   ........   XXX   ............",
"...........   XXX   ........   XXXXXX   ......   XXXXXXXXX   ......   XXXXXX   ........   XXX   ............",
"............   XXX   .......   XXXXXXX   .....   XXXXXXXXX   .....   XXXXXXX   .......   XXX   .............",
"............   XXX   .......   XXXXXXX   .....   XXXXXXXXX   .....   XXXXXXX   .......   XXX   .............",
"............   XXXX   ......   XXXXXXX   .....   XXXXXXXXX   .....   XXXXXXX   ......   XXXX   .............",
"............   XXXX   ......   XXXXXXXX   ...   XXXXXXXXXXX   ...   XXXXXXXX   ......   XXXX   .............",
"............   XXXXX   .....   XXXXXXXX   ...   XXXXXXXXXXX   ...   XXXXXXXX   .....   XXXXX   .............",
"............   XXXXX    ....   XXXXXXXXX   ..   XXXXXXXXXXX   ..   XXXXXXXXX   ....    XXXXX   .............",
".............   XXXXX   ....   XXXXXXXXX   ..   XXXXXXXXXXX   ..   XXXXXXXXX   ....   XXXXX   ..............",
".............   XXXXXX   ..   XXXXXXXXXX   ..   XXXXXXXXXXX   ..   XXXXXXXXXX   ..   XXXXXX   ..............",
".............   XXXXXX   ..   XXXXXXXXXXX      XXXXXXXXXXXXX      XXXXXXXXXXX   ..   XXXXXX   ..............",
".............   XXXXXXX   .   XXXXXXXXXXX      XXXXXXXXXXXXX      XXXXXXXXXXX   .   XXXXXXX   ..............",
".............   XXXXXXX   .   XXXXXXXXXXX      XXXXXXXXXXXXX      XXXXXXXXXXX   .   XXXXXXX   ..............",
".............   XXXXXXXX      XXXXXXXXXXXX     XXXXX   XXXXX     XXXXXXXXXXXX      XXXXXXXX   ..............",
"..............   XXXXXXX      XXXXX  XXXXX     XXXX     XXXX     XXXXX  XXXXX      XXXXXXX   ...............",
"..............   XXXXXXXX     XXXX     XXX    XX           XX    XXX     XXXX     XXXXXXXX   ...............",
"..............   XXXXXXXXX    XXX                    X                    XXX    XXXXXXXXX   ...............",
"..............   XXXX   XX          X              XXXXX              X          XX   XXXX   ...............",
"..............   XXX               XXXX         XXXXXXXXXXX         XXXX               XXX   ...............",
"...............                  XXXXXXXXXXXXXXXXXXXXXXXXXXXXXXXXXXXXXXXXX                  ................",
"...............       XX      XXXXXXXXXXXXXXXXXXXXXXXXXXXXXXXXXXXXXXXXXXXXXXX      XX       ................",
"...............     XXXXXXXXXXXXXXXXXXXXXXXXXXXXXXXXXXXXXXXXXXXXXXXXXXXXXXXXXXXXXXXXXXX     ................",
"................    XXXXXXXXXXXXXXXXXXXXXXXXXXXXXXXXXXXXXXXXXXXXXXXXXXXXXXXXXXXXXXXXXXX    .................",
".................   XXXXXXXXXXXXXXXXXXXXXXXXXXXXXXXXXXXXXXXXXXXXXXXXXXXXXXXXXXXXXXXXXXX   ..................",
"..................   XXXXXXXXXXXXXXXXXXXXXXXXXXXXXXXXXXXXXXXXXXXXXXXXXXXXXXXXXXXXXXXXX   ...................",
"..................    XXXXXXXXXXXXXXXXXXXXXXXXXXXXXXXXXXXXXXXXXXXXXXXXXXXXXXXXXXXXXXX    ...................",
"...................    XXXXXXXXXXXXXXXXXX                         XXXXXXXXXXXXXXXXXX    ....................",
"....................    XXXXXXXX                                           XXXXXXXX    .....................",
".....................    X                                                       X    ......................",
"......................                   XXXXXXXXXXXXXXXXXXXXXXXXX                   .......................",
"......................          XXXXXXXXXXXXXXXXXXXXXXXXXXXXXXXXXXXXXXXXXXX          .......................",
".......................   XXXXXXXXXXXXXXXXXXXXXXXXXXXXXXXXXXXXXXXXXXXXXXXXXXXXXXX   ........................",
".......................   XXXXXXXXXXXXXXXXXXXXXXXXXXXXXXXXXXXXXXXXXXXXXXXXXXXXXXX   ........................",
".......................   XXXXXXXXXXXXXXXXXXXXXXXXXXXXXXXXXXXXXXXXXXXXXXXXXXXXXXX   ........................",
".......................   XXXXXXXXXXXXXXXXXXXXXXXXXXXXXXXXXXXXXXXXXXXXXXXXXXXXXXX   ........................",
"........................   XXXXXXXXXXXXXXXXXXXXXXXXXXXXXXXXXXXXXXXXXXXXXXXXXXXXX   .........................",
"........................   XXXXXXXXXXXXXX                         XXXXXXXXXXXXXX   .........................",
"........................   XXXXX                                           XXXXX   .........................",
"........................                                                           .........................",
".........................                XXXXXXXXXXXXXXXXXXXXXXXXX                ..........................",
"........................        XXXXXXXXXXXXXXXXXXXXXXXXXXXXXXXXXXXXXXXXXXX        .........................",
"........................   XXXXXXXXXXXXXXXXXXXXXXXXXXXXXXXXXXXXXXXXXXXXXXXXXXXXX   .........................",
".......................   XXXXXXXXXXXXXXXXX                     XXXXXXXXXXXXXXXXX   ........................",
"......................    XXXXXXXXX                                     XXXXXXXXX    .......................",
"......................   XXXX                                                 XXXX   .......................",
".....................                      XXXXXXXXXXXXXXXXXXXXX                      ......................",
".....................              XXXXXXXXXXXXXXXXXXXXXXXXXXXXXXXXXXXXX              ......................",
"....................         XXXXXXXXXXXXXXXXXXXXXXXXXXXXXXXXXXXXXXXXXXXXXXXXX         .....................",
"...................    XXXXXXXXXXXXXXXXXXXXXXXXXXXXXXXXXXXXXXXXXXXXXXXXXXXXXXXXXXXXX    ....................",
"...................   XXXXXXXXXXXXXXXXXXXXXXXXXXXXXXXXXXXXXXXXXXXXXXXXXXXXXXXXXXXXXXX   ....................",
"...................   XXXXXXXXXXXXXXXXXXXXXXXXXXXXXXXXXXXXXXXXXXXXXXXXXXXXXXXXXXXXXXX   ....................",
"...................        XXXXXXXXXXXXXXXXXXXXXXXXXXXXXXXXXXXXXXXXXXXXXXXXXXXXX        ....................",
"....................             XXXXXXXXXXXXXXXXXXXXXXXXXXXXXXXXXXXXXXXXX             .....................",
"......................                    XXXXXXXXXXXXXXXXXXXXXXX                    .......................",
"...........................                                                     ............................",
".................................                                         ..................................",
"..........................................                       ...........................................",
"............................................................................................................",
"............................................................................................................",
"............................................................................................................",
"............................................................................................................",
"............................................................................................................",
"............................................................................................................",
"............................................................................................................"
};
