/* XPM */
static char * qld25[] = {
"25 25 3 1",
" 	c green s dark_square",
".	c black s dark_piece",
"X	c white s light_piece",
"                         ",
"                         ",
"       .    .    .       ",
"      .X.  .X.  .X.      ",
" ..   ...  ...  ...   .. ",
".XX.   .    .    .   .XX.",
".X..   ..   .   ..   ..X.",
" ...   ..  .X.  ..   ... ",
"  ..   ..  .X.  ..   ..  ",
"  .X.  .X. .X. .X.  .X.  ",
"   .X. .X. .X. .X. .X.   ",
"   .X. .X. .X. .X. .X.   ",
"   .XX..XX.XXX.XX..XX.   ",
"    .XX...........XX.    ",
"    ....XX.XXXXXXX...    ",
"    .XXXXXXXXXXXXXXX.    ",
"     ...............     ",
"     .XXXXXXXXXXXXX.     ",
"      .............      ",
"      .XXXXXXXXXXX.      ",
"     ...............     ",
"     .XXXXXXXXXXXXX.     ",
"      .............      ",
"                         ",
"                         "};
