/* XPM */
static char *qld49[] = {
/* columns rows colors chars-per-pixel */
"49 49 3 1",
"  c black s dark_piece",
". c green s dark_square",
"X c white s light_piece",
/* pixels */
".................................................",
".................................................",
".................................................",
".......................   .......................",
"...........    ....... XXX .......    ...........",
".......... XXXX ...... XXX ...... XXXX ..........",
".......... XXXX ...... XXX ...... XXXX ..........",
".......... XXXX ....... X ....... XXXX ..........",
"..   ......  X ......... ......... X  ......   ..",
". XXX ....... .......... .......... ....... XXX .",
". XXX .......  ........ X ........  ....... XXX .",
". XXX .......  ........ X ........  ....... XXX .",
".. X ........  ........ X ........  ........ X ..",
"...  ........ X ....... X ....... X ........  ...",
"....  ....... X ....... X ....... X .......  ....",
".....  ...... XX ..... XXX ..... XX ......  .....",
".....  ...... XX ..... XXX ..... XX ......  .....",
"..... X ..... XX ..... XXX ..... XX ..... X .....",
"..... X ..... XXX .... XXX .... XXX ..... X .....",
"..... XX .... XXX .... XXX .... XXX .... XX .....",
"..... XXX ... XXX ... XXXXX ... XXX ... XXX .....",
"...... XX ... XXXX .. XXXXX .. XXXX ... XX ......",
"...... XXX .. XXXX .. XXXXX .. XXXX .. XXX ......",
"...... XXX .. XXXXX . XXXXX . XXXXX .. XXX ......",
"...... XXXX . XXXXX . XXXXX . XXXXX . XXXX ......",
"...... XXXXX  XXXXX  XXX XXX  XXXXX  XXXXX ......",
"....... XXXX  XX  XX XX X XX XX  XX  XXXX .......",
"....... XX XX X XX     XXX     XX X XX XX .......",
".......   X    XXXXXXXXXXXXXXXXXXX    X   .......",
"....... XXXXXXXXXXXXXXXXXXXXXXXXXXXXXXXXX .......",
"........ XXXXXXXXXXXXXXXXXXXXXXXXXXXXXXX ........",
"......... XXXXXXXXXXXXXXXXXXXXXXXXXXXXX .........",
"......... XXXXXX                 XXXXXX .........",
"..........      XXXXXXXXXXXXXXXXX      ..........",
".......... XXXXXXXXXXXXXXXXXXXXXXXXXXX ..........",
"........... XXXXXXXXXXXXXXXXXXXXXXXXX ...........",
"........... XXXXXXXXXXXXXXXXXXXXXXXXX ...........",
"........... XXX                   XXX ...........",
"...........    XXXXXXXXXXXXXXXXXXX    ...........",
".......... XXXXXXXXXXXXXXXXXXXXXXXXXXX ..........",
".......... XXXXX                 XXXXX ..........",
".........       XXXXXXXXXXXXXXXXX       .........",
"........  XXXXXXXXXXXXXXXXXXXXXXXXXXXXX  ........",
"........  XXXXXXXXXXXXXXXXXXXXXXXXXXXXX  ........",
"..........      XXXXXXXXXXXXXXXXX      ..........",
"................                 ................",
".................................................",
".................................................",
"................................................."
};
