/* XPM */
static char *qld45[] = {
/* columns rows colors chars-per-pixel */
"45 45 3 1",
"  c black s dark_piece",
". c green s dark_square",
"X c white s light_piece",
/* pixels */
".............................................",
".............................................",
".....................   .....................",
"...........   ...... XXX ......   ...........",
".......... XXX ..... XXX ..... XXX ..........",
".......... XXX ..... XXX ..... XXX ..........",
".......... XXX ......   ...... XXX ..........",
"..   ......   ........ ........   ......   ..",
". XXX ...... ......... ......... ...... XXX .",
". XXX ......  ....... X .......  ...... XXX .",
". XXX ......  ....... X .......  ...... XXX .",
".. X .......  ....... X .......  ....... X ..",
"...  ....... X ...... X ...... X .......  ...",
"....  ...... X ...... X ...... X ......  ....",
"....  ...... X ..... XXX ..... X ......  ....",
".... X ..... XX .... XXX .... XX ..... X ....",
".... X ..... XX .... XXX .... XX ..... X ....",
"..... X ... XXX .... XXX .... XXX ... X .....",
"..... X ... XXXX .. XXXXX .. XXXX ... X .....",
"..... XX .. XXXX .. XXXXX .. XXXX .. XX .....",
"..... XX .. XXXX .. XXXXX .. XXXX .. XX .....",
"..... XXX . XXXXX . XXXXX . XXXXX . XXX .....",
"..... XXX . XXXXX . XXXXX . XXXXX . XXX .....",
"..... XXXX  XXXXX  XXX XXX  XXXXX  XXXX .....",
"...... XXX  XX  XX XX X XX XX  XX  XXX ......",
"...... XX X   XX     XXX     XX   X XX ......",
"......   X  XXXXXXXXXXXXXXXXXXXXXX X   ......",
"...... XXXXXXXXXXXXXXXXXXXXXXXXXXXXXXX ......",
"....... XXXXXXXXXXXXXXXXXXXXXXXXXXXXX .......",
"........ XXXXXXX             XXXXXXX ........",
".........       XXXXXXXXXXXXX       .........",
"......... XXXXXXXXXXXXXXXXXXXXXXXXX .........",
".......... XXXXXXXXXXXXXXXXXXXXXXX ..........",
".......... XXXXXXXXXXXXXXXXXXXXXXX ..........",
".......... XX                   XX ..........",
"..........   XXXXXXXXXXXXXXXXXXX   ..........",
".......... XXXXXXXXXXXXXXXXXXXXXXX ..........",
"......... XXXX                 XXXX .........",
"........      XXXXXXXXXXXXXXXXX      ........",
"....... XXXXXXXXXXXXXXXXXXXXXXXXXXXXX .......",
"....... XXXXXXXXXXXXXXXXXXXXXXXXXXXXX .......",
"........       XXXXXXXXXXXXXXX       ........",
"...............               ...............",
".............................................",
"............................................."
};
