/* XPM */
static char *qld54[] = {
/* columns rows colors chars-per-pixel */
"54 54 3 1",
"  c black s dark_piece",
". c green s dark_square",
"X c white s light_piece",
/* pixels */
"......................................................",
"......................................................",
"......................................................",
".........................    .........................",
"........................      ........................",
".............     ......  XX  ......     .............",
"............       .....  XX  .....       ............",
"............  XXX  .....  XX  .....  XXX  ............",
"............  XXX  .....      .....  XXX  ............",
"...     ....  XX   ......    ......   XX  ....     ...",
"..       ...      ........  ........      ...       ..",
"..  XXX  ....    ........    ........    ....  XXX  ..",
"..  XXX  ......   .......    .......   ......  XXX  ..",
"..  XX   ......   .......    .......   ......   XX  ..",
"..      .......    ......    ......    .......      ..",
"...     .......    ......    ......    .......     ...",
".....   .......    .....      .....    .......   .....",
"......   ......     ....  XX  ....     ......   ......",
"......   ......  X  ....  XX  ....  X  ......   ......",
"......    .....  X  ....  XX  ....  X  .....    ......",
"......    ....   X   ...  XX  ...   X  .....    ......",
"......     ...  XXX  ...  XX  ...  XX   ...     ......",
"......      ..  XXX  ..   XX   ..  XXX  ..      ......",
".......  X  ..  XXX   .  XXXX  .   XXX  ..  X  .......",
".......  X   .  XXXX  .  XXXX  .  XXXX  .   X  .......",
".......  XX  .  XXXX     XXXX     XXXX  .  XX  .......",
".......  XX     XXXXX    XXXX    XXXXX     XX  .......",
".......  XXX    XXXXX    XXXX    XXXXX    XXX  .......",
".......   XX    XX XX   XX  XX   XX XX    XX   .......",
"........  XXX   X                    X   XXX  ........",
"........                  XX                  ........",
"........         XXXXXXXXXXXXXXXXXXXX         ........",
"........   XXXXXXXXXXXXXXXXXXXXXXXXXXXXXXXX   ........",
".........   XXXXXXXXXXXXXXXXXXXXXXXXXXXXXX   .........",
"..........  XXXXXXX                XXXXXXX  ..........",
"..........   X                          X   ..........",
"...........        XXXXXXXXXXXXXXXX        ...........",
"............  XXXXXXXXXXXXXXXXXXXXXXXXXX  ............",
"............  XXXXXXXXXXXXXXXXXXXXXXXXXX  ............",
"............  XXXXX                XXXXX  ............",
"............                              ............",
"............       XXXXXXXXXXXXXXXX       ............",
"............  XXXXXXXXXXXXXXXXXXXXXXXXXX  ............",
"............  XXXXX                XXXXX  ............",
"...........                                ...........",
"...........        XXXXXXXXXXXXXXXX        ...........",
"...........  XXXXXXXXXXXXXXXXXXXXXXXXXXXX  ...........",
"...........        XXXXXXXXXXXXXXXX        ...........",
"............                              ............",
"...................                ...................",
"......................................................",
"......................................................",
"......................................................",
"......................................................"
};
