/* XPM */
static char *qld64[] = {
/* columns rows colors chars-per-pixel */
"64 64 3 1",
"  c black s dark_piece",
". c green s dark_square",
"X c white s light_piece",
/* pixels */
"................................................................",
"................................................................",
"................................................................",
"................................................................",
"...............................  ...............................",
".............................      .............................",
"..................  ........   XX   ........  ..................",
"................      ......  XXXX  ......      ................",
"...............   XX   .....  XXXX  .....   XX   ...............",
"...............  XXXX  .....   XX   .....  XXXX  ...............",
"...............  XXXX  ......      ......  XXXX  ...............",
".....  ........   XX   ........  ........   XX   ........  .....",
"...      .......      .........  .........      .......      ...",
"..   XX   .......   ..........    ..........   .......   XX   ..",
"..  XXXX  ........   .........    .........   ........  XXXX  ..",
"..  XXXX  ........   .........    .........   ........  XXXX  ..",
"..   XX   ........   .........    .........   ........   XX   ..",
"...      .........    ........    ........    .........      ...",
"....     ........     .......      .......    .........     ....",
"......   ........  X  .......  XX  .......     ........   ......",
"......    .......  X   ......  XX  ......   X  .......    ......",
"......    .......  XX  ......  XX  ......  XX  .......    ......",
"......     ......  XX   .....  XX  .....   XX  ......     ......",
".......    ......  XXX  ....   XX   ....  XXX  ......    .......",
".......     .....  XXX  ....  XXXX  ....  XXX  .....     .......",
".......  X  .....  XXX   ...  XXXX  ...   XXX  .....  X  .......",
".......  X   ....  XXXX  ...  XXXX  ...  XXXX  ....   X  .......",
".......  XX  ....  XXXX  ...  XXXX  ...  XXXX  ....  XX  .......",
".......   X   ...  XXXX   .   XXXX   .   XXXX  ...   X   .......",
"........  XX  ...  XXXXX  .  XXXXXX  .  XXXXX  ...  XX  ........",
"........  XX   .   XXXXX  .  XXXXXX  .  XXXXX  ..   XX  ........",
"........  XXX  .  XXXXXX     XXXXXX     XXXXX   .  XXX  ........",
"........  XXX     XXXXXXX    XXXXXX    XXXXXXX     XXX  ........",
"........  XXXX    XXXXXXX    XXXXXX    XXXXXXX    XXXX  ........",
"........  XXXX    XXX  XX   XX    XX   XX  XXX    XXXX  ........",
"........   XXXX   X                          X   XXXX   ........",
".........  X         XX       XXXX       XX         X  .........",
".........          XXXXXXXXXXXXXXXXXXXXXXXXXX          .........",
".........   XXXXXXXXXXXXXXXXXXXXXXXXXXXXXXXXXXXXXXXX   .........",
"..........  XXXXXXXXXXXXXXXXXXXXXXXXXXXXXXXXXXXXXXXX  ..........",
"..........   XXXXXXXXXXXXXXXXXXXXXXXXXXXXXXXXXXXXXX   ..........",
"...........   XXXXXXXX                    XXXXXXXX   ...........",
"............                                        ............",
".............         XXXXXXXXXXXXXXXXXXXX         .............",
".............   XXXXXXXXXXXXXXXXXXXXXXXXXXXXXXXX   .............",
"..............  XXXXXXXXXXXXXXXXXXXXXXXXXXXXXXXX  ..............",
"..............  XXXXXXXXXXXXXXXXXXXXXXXXXXXXXXXX  ..............",
"..............   XXXXX                    XXXXX   ..............",
"...............                                  ...............",
"...............       XXXXXXXXXXXXXXXXXXXX       ...............",
"..............   XXXXXXXXXXXXXXXXXXXXXXXXXXXXXX   ..............",
"..............  XXXXXX                    XXXXXX  ..............",
".............                                      .............",
"............          XXXXXXXXXXXXXXXXXXXX          ............",
"............   XXXXXXXXXXXXXXXXXXXXXXXXXXXXXXXXXX   ............",
"............  XXXXXXXXXXXXXXXXXXXXXXXXXXXXXXXXXXXX  ............",
"............    XXXXXXXXXXXXXXXXXXXXXXXXXXXXXXX     ............",
".............           XXXXXXXXXXXXXXXX           .............",
".................                               ................",
"........................                ........................",
"................................................................",
"................................................................",
"................................................................",
"................................................................"
};
