/* XPM */
static char * qld72[] = {
"72 72 3 1",
" 	c green s dark_square",
".	c black s dark_piece",
"X	c white s light_piece",
"                                                                        ",
"                                                                        ",
"                                                                        ",
"                                  ....                                  ",
"                                 ......                                 ",
"                  ...           ...XX...           ...                  ",
"                .......         ..XXXX..         .......                ",
"               ...XXX...        ..XXXX..        ...XXX...               ",
"               ..XXXXX..        ..XXXX..        ..XXXXX..               ",
"               ..XXXXX..        ...XX...        ..XXXXX..               ",
"               ..XXXXX..         ......         ..XXXXX..               ",
"   ...         ...XXX...           ..           ...XXX...         ...   ",
" .......        .......            ..            .......        ....... ",
"...XXX...         ...             ....             ...         ...XXX...",
"..XXXXX..          ...            ....            ...          ..XXXXX..",
"..XXXXX..          ...            ....            ...          ..XXXXX..",
"..XXXXX..          ....           ....           ....          ..XXXXX..",
"...XXX...          ....           ....           ....          ...XXX...",
" .......           ....          ......          ....           ....... ",
"   .....           .....         ..XX..         .....           .....   ",
"     ...           ..X..         ..XX..         ..X..           ...     ",
"     ....          ..X..         ..XX..         ..X..          ....     ",
"     ....          ..X...       ...XX...       ...X..          ....     ",
"     .....         ..XX..       ..XXXX..       ..XX..         .....     ",
"      .....        ..XX..       ..XXXX..       ..XX..        .....      ",
"      ..X..        ..XX...      ..XXXX..      ...XX..        ..X..      ",
"      ..X...       ..XXX..      ..XXXX..      ..XXX..       ...X..      ",
"      ..XX..      ...XXX...    ...XXXX...    ...XXX...      ..XX..      ",
"      ..XX...     ..XXXXX..    ..XXXXXX..    ..XXXXX..     ...XX..      ",
"      ...XX..     ..XXXXX..    ..XXXXXX..    ..XXXXX..     ..XX...      ",
"       ..XX...    ..XXXXX...   ..XXXXXX..   ...XXXXX..    ...XX..       ",
"       ..XXX..    ..XXXXXX..   ..XXXXXX..   ..XXXXXX..    ..XXX..       ",
"       ..XXX...   ..XXXXXX..  ...XXXXXX...  ..XXXXXX..   ...XXX..       ",
"       ..XXXX...  ..XXXXXX... ..XXXXXXXX.. ...XXXXXX..  ...XXXX..       ",
"       ..XXXXX..  ..XXXXXXX.. ..XXXXXXXX.. ..XXXXXXX..  ..XXXXX..       ",
"       ...XXXX... ..XXXXXXX.....XXXXXXXX.....XXXXXXX.. ...XXXX...       ",
"        ..XXXXX.. ..XXXXXXXX....XXXXXXXX....XXXXXXXX.. ..XXXXX..        ",
"        ..XXXXX.....XXXXXXXX....XXX..XXX....XXXXXXXX.....XXXXX..        ",
"        ..XXXXXX....XXXX.XXX...XX......XX...XXX.XXXX....XXXXXX..        ",
"        ..XXXXXX....XX............................XX....XXXXXX..        ",
"        ..XXXX.XX...X...X........XXXXXX........X...X...XX.XXXX..        ",
"        ...X...........XXXXXXXXXXXXXXXXXXXXXXXXXX...........X...        ",
"         .....X......XXXXXXXXXXXXXXXXXXXXXXXXXXXXXX......X.....         ",
"         ...XXXXXXXXXXXXXXXXXXXXXXXXXXXXXXXXXXXXXXXXXXXXXXXX...         ",
"         ...XXXXXXXXXXXXXXXXXXXXXXXXXXXXXXXXXXXXXXXXXXXXXXXX...         ",
"          ...XXXXXXXXXXXXXXXXXXXXXXXXXXXXXXXXXXXXXXXXXXXXXX...          ",
"           ...XXXXXXXXXXXXXXXXXXXXXXXXXXXXXXXXXXXXXXXXXXXX...           ",
"            ...XXXXXXXXXX......................XXXXXXXXXX...            ",
"             ...XX....................................XX...             ",
"              ...........XXXXXXXXXXXXXXXXXXXXXX...........              ",
"              ....XXXXXXXXXXXXXXXXXXXXXXXXXXXXXXXXXXXX....              ",
"               ..XXXXXXXXXXXXXXXXXXXXXXXXXXXXXXXXXXXXXX..               ",
"               ..XXXXXXXXXXXXXXXXXXXXXXXXXXXXXXXXXXXXXX..               ",
"               ..XXXXXXXXXXXXXXXXXXXXXXXXXXXXXXXXXXXXXX..               ",
"               ..XXXXXXXXX....................XXXXXXXXX..               ",
"               ..........................................               ",
"                ..........XXXXXXXXXXXXXXXXXXXX..........                ",
"               ...XXXXXXXXXXXXXXXXXXXXXXXXXXXXXXXXXXXX...               ",
"               ..XXXXXXXXXX..................XXXXXXXXXX..               ",
"              ...XXXX..............................XXXX...              ",
"              .............XXXXXXXXXXXXXXXXXX.............              ",
"             ........XXXXXXXXXXXXXXXXXXXXXXXXXXXXXX........             ",
"            ...XXXXXXXXXXXXXXXXXXXXXXXXXXXXXXXXXXXXXXXXXX...            ",
"            ..XXXXXXXXXXXXXXXXXXXXXXXXXXXXXXXXXXXXXXXXXXXX..            ",
"            ..XXXXXXXXXXXXXXXXXXXXXXXXXXXXXXXXXXXXXXXXXXXX..            ",
"            .......XXXXXXXXXXXXXXXXXXXXXXXXXXXXXXXXXX.......            ",
"             .............XXXXXXXXXXXXXXXXXXXX.............             ",
"                   ..................................                   ",
"                          ....................                          ",
"                                                                        ",
"                                                                        ",
"                                                                        "};
