/* XPM */
static char *qld87[] = {
/* columns rows colors chars-per-pixel */
"87 87 3 1",
"  c black s dark_piece",
". c green s dark_square",
"X c white s light_piece",
/* pixels */
".......................................................................................",
".......................................................................................",
".......................................................................................",
".......................................................................................",
".......................................................................................",
"..........................................   ..........................................",
"........................................       ........................................",
".......................................         .......................................",
".......................   .............   XXX   .............   .......................",
".....................       ..........   XXXXX   ..........       .....................",
"....................         .........   XXXXX   .........         ....................",
"....................   XXX   .........   XXXXX   .........   XXX   ....................",
"...................   XXXXX   .........   XXX   .........   XXXXX   ...................",
"...................   XXXXX   .........         .........   XXXXX   ...................",
"...................   XXXXX   ..........       ..........   XXXXX   ...................",
".......   ..........    XX   .............   .............   XX    ..........   .......",
".....       ........         .............   .............         ........       .....",
"....         ........       .............     .............       ........         ....",
"....   XXX   ...........   ..............     ..............   ...........   XXX   ....",
"...   XXXXX   ..........    .............     .............    ..........   XXXXX   ...",
"...   XXXXX   ..........    .............     .............    ..........   XXXXX   ...",
"...   XXXXX   ..........    .............     .............    ..........   XXXXX   ...",
"....   XXX   ...........     ...........   X   ...........     ...........   XXX   ....",
"....         ...........     ...........   X   ...........     ...........         ....",
".....       ............      ..........   X   ..........      ............       .....",
".......     ............      ..........   X   ..........      ............     .......",
".........   ............      ..........   X   ..........      ............   .........",
".........    ...........   X   ........   XXX   ........   X   ...........    .........",
".........     ..........   X   ........   XXX   ........   X   ..........     .........",
".........     ..........   X   ........   XXX   ........   X   ..........     .........",
".........      .........   XX   .......   XXX   .......   XX   .........      .........",
"..........     .........   XX   .......   XXX   .......   XX   .........     ..........",
"..........      ........   XX   ......   XXXXX   ......   XX   ........      ..........",
"..........       ......   XXXX   .....   XXXXX   .....   XXX   .......       ..........",
"..........   X   ......   XXXX   .....   XXXXX   .....   XXXX   ......   X   ..........",
"..........   XX   .....   XXXX   .....   XXXXX   .....   XXXX   .....   XX   ..........",
"..........   XX   .....   XXXXX   ....   XXXXX   ....   XXXXX   .....   XX   ..........",
"...........   XX   ....   XXXXX   ...   XXXXXXX   ...   XXXXX   ....   XX   ...........",
"...........   XX   ....   XXXXX   ...   XXXXXXX   ...   XXXXX   ....   XX   ...........",
"...........   XXX   ...   XXXXXX   ..   XXXXXXX   ..   XXXXXX   ...   XXX   ...........",
"...........   XXX    ..   XXXXXX   ..   XXXXXXX   ..   XXXXXX   ..    XXX   ...........",
"...........   XXXX   ..   XXXXXX   ..   XXXXXXX   ..   XXXXXX   ..   XXXX   ...........",
"...........   XXXXX   .   XXXXXXX      XXXXXXXXX      XXXXXXX   .   XXXXX   ...........",
"............   XXXX   .   XXXXXXX      XXXXXXXXX      XXXXXXX   .   XXXX   ............",
"............   XXXXX      XXXXXXX      XXXXXXXXX      XXXXXXX      XXXXX   ............",
"............   XXXXX      XXXXXXXX     XXXX XXXX     XXXXXXXX      XXXXX   ............",
"............   XXXXXX     XXXX XXX     XXX   XXX     XXX XXXX     XXXXXX   ............",
"............   XXXXXX     XX     X    X         X    X     XX     XXXXXX   ............",
"............   XXX  XX                                           XX  XXX   ............",
".............   X             X           XXX           X             X   .............",
".............               XXXXX      XXXXXXXXX      XXXXX               .............",
".............      X      XXXXXXXXXXXXXXXXXXXXXXXXXXXXXXXXXXX      X      .............",
".............    XXXXXXXXXXXXXXXXXXXXXXXXXXXXXXXXXXXXXXXXXXXXXXXXXXXXX    .............",
"..............    XXXXXXXXXXXXXXXXXXXXXXXXXXXXXXXXXXXXXXXXXXXXXXXXXXX    ..............",
"...............   XXXXXXXXXXXXXXXXXXXXXXXXXXXXXXXXXXXXXXXXXXXXXXXXXXX   ...............",
"................   XXXXXXXXXXXXXX                     XXXXXXXXXXXXXX   ................",
"................    XXXXXX                                   XXXXXX    ................",
".................                                                     .................",
"..................               XXXXXXXXXXXXXXXXXXXXX               ..................",
"..................        XXXXXXXXXXXXXXXXXXXXXXXXXXXXXXXXXXX        ..................",
"...................   XXXXXXXXXXXXXXXXXXXXXXXXXXXXXXXXXXXXXXXXXXX   ...................",
"...................   XXXXXXXXXXXXXXXXXXXXXXXXXXXXXXXXXXXXXXXXXXX   ...................",
"...................   XXXXXXXXXXXXXXXXXXXXXXXXXXXXXXXXXXXXXXXXXXX   ...................",
"...................   XXXXXXXXXXXX                   XXXXXXXXXXXX   ...................",
"....................   XXX                                   XXX   ....................",
"....................                                               ....................",
"....................              XXXXXXXXXXXXXXXXXXX              ....................",
"....................      XXXXXXXXXXXXXXXXXXXXXXXXXXXXXXXXXXX      ....................",
"....................   XXXXXXXXXXXXXXXXXXXXXXXXXXXXXXXXXXXXXXXXX   ....................",
"...................   XXXXXXXXXXX                     XXXXXXXXXXX   ...................",
"...................   XX                                       XX   ...................",
"..................                                                   ..................",
"..................               XXXXXXXXXXXXXXXXXXXXX               ..................",
".................       XXXXXXXXXXXXXXXXXXXXXXXXXXXXXXXXXXXXXXX       .................",
".................   XXXXXXXXXXXXXXXXXXXXXXXXXXXXXXXXXXXXXXXXXXXXXXX   .................",
".................   XXXXXXXXXXXXXXXXXXXXXXXXXXXXXXXXXXXXXXXXXXXXXXX   .................",
".................        XXXXXXXXXXXXXXXXXXXXXXXXXXXXXXXXXXXXX        .................",
"..................               XXXXXXXXXXXXXXXXXXXXX               ..................",
"....................                                               ....................",
".........................                                     .........................",
".................................                     .................................",
".......................................................................................",
".......................................................................................",
".......................................................................................",
".......................................................................................",
".......................................................................................",
"......................................................................................."
};
