/* XPM */
static char *qld80[] = {
/* columns rows colors chars-per-pixel */
"80 80 3 1",
"  c black s dark_piece",
". c green s dark_square",
"X c white s light_piece",
/* pixels */
"................................................................................",
"................................................................................",
"................................................................................",
"................................................................................",
"................................................................................",
"......................................    ......................................",
"....................................        ....................................",
"...................................   XXXX   ...................................",
".....................   ...........  XXXXXX  ...........   .....................",
"...................       .........  XXXXXX  .........       ...................",
"..................   XXX   ........  XXXXXX  ........   XXX   ..................",
"..................  XXXXX  ........   XXXX   ........  XXXXX  ..................",
"..................  XXXXX  .........        .........  XXXXX  ..................",
"..................  XXXXX  ..........      ..........  XXXXX  ..................",
"......   .........   XXX   ............  ............   XXX   .........   ......",
"....       ........       ............    ............       ........       ....",
"...   XXX   .........    .............    .............    .........   XXX   ...",
"...  XXXXX  ..........   .............    .............   ..........  XXXXX  ...",
"...  XXXXX  ..........   .............    .............   ..........  XXXXX  ...",
"...  XXXXX  ..........   .............    .............   ..........  XXXXX  ...",
"...   XXX   ..........    ...........      ...........    ..........   XXX   ...",
"....       ...........    ...........  XX  ...........    ...........       ....",
"......     ...........    ...........  XX  ...........    ...........     ......",
"........   ...........     ..........  XX  ..........     ...........   ........",
"........    ..........  X  .........   XX   .........  X  ..........    ........",
"........    ..........  X  .........  XXXX  .........  X  ..........    ........",
"........     .........  X   ........  XXXX  ........   X  .........     ........",
".........    .........  XX  ........  XXXX  ........  XX  .........    .........",
".........     ........  XX  ........  XXXX  ........  XX  ........     .........",
".........  X  ........  XX   ......   XXXX   ......   XX  ........  X  .........",
".........  X   ......   XXX  ......  XXXXXX  ......  XXX  .......   X  .........",
".........  XX  ......  XXXX  ......  XXXXXX  ......  XXX   ......  XX  .........",
".........   X   .....  XXXX   .....  XXXXXX  .....   XXXX  .....   X   .........",
"..........  XX  .....  XXXXX  ....   XXXXXX   ....  XXXXX  .....  XX  ..........",
"..........  XX   ....  XXXXX   ...  XXXXXXXX  ...   XXXXX  ....   XX  ..........",
"..........  XXX   ...  XXXXXX  ...  XXXXXXXX  ...  XXXXXX  ...   XXX  ..........",
"..........  XXXX  ...  XXXXXX  ...  XXXXXXXX  ...  XXXXXX  ...  XXXX  ..........",
"..........  XXXX   ..  XXXXXX   ..  XXXXXXXX  ..   XXXXXX  ..   XXXX  ..........",
"..........   XXXX  ..  XXXXXXX  .   XXXXXXXX   .  XXXXXXX  ..  XXXX   ..........",
"...........  XXXX   .  XXXXXXX  .  XXXXXXXXXX  .  XXXXXXX  .   XXXX  ...........",
"...........  XXXXX  .  XXXXXXX     XXXXXXXXXX     XXXXXXX  .  XXXXX  ...........",
"...........  XXXXX     XXXXXXXX    XXXXXXXXXX    XXXXXXXX     XXXXX  ...........",
"...........  XXXXXX    XXXXXXXX    XXXX  XXXX    XXXXXXXX    XXXXXX  ...........",
"...........  XXXXXX    XXX   XX   XX        XX   XX   XXX    XXXXXX  ...........",
"...........   XXX XX   X               XX               X   XX XXX   ...........",
"............  X           XXX       XXXXXXXX       XXX           X  ............",
"............     X      XXXXXXXXXXXXXXXXXXXXXXXXXXXXXXXX      X     ............",
"............   XXXXXXXXXXXXXXXXXXXXXXXXXXXXXXXXXXXXXXXXXXXXXXXXXX   ............",
".............  XXXXXXXXXXXXXXXXXXXXXXXXXXXXXXXXXXXXXXXXXXXXXXXXXX  .............",
".............   XXXXXXXXXXXXXXXXXXXXXXXXXXXXXXXXXXXXXXXXXXXXXXXX   .............",
"..............   XXXXXXXXXXXXXXXXXXXXXXXXXXXXXXXXXXXXXXXXXXXXXX   ..............",
"...............   XXXXXXXXXXXX                    XXXXXXXXXXXX   ...............",
"................  XXXXX                                  XXXXX  ................",
"................              XXXXXXXXXXXXXXXXXXXX              ................",
".................      XXXXXXXXXXXXXXXXXXXXXXXXXXXXXXXXXX      .................",
".................   XXXXXXXXXXXXXXXXXXXXXXXXXXXXXXXXXXXXXXXX   .................",
"..................  XXXXXXXXXXXXXXXXXXXXXXXXXXXXXXXXXXXXXXXX  ..................",
"..................  XXXXXXXXXXXXXXXXXXXXXXXXXXXXXXXXXXXXXXXX  ..................",
"..................  XXXXXXXXXXXXXXXXXXXXXXXXXXXXXXXXXXXXXXXX  ..................",
"..................   XXXXXXXX                      XXXXXXXX   ..................",
"...................                                          ...................",
"...................          XXXXXXXXXXXXXXXXXXXXXX          ...................",
"..................   XXXXXXXXXXXXXXXXXXXXXXXXXXXXXXXXXXXXXX   ..................",
".................   XXXXXXXXXXXXXXXXXXXXXXXXXXXXXXXXXXXXXXXX   .................",
".................  XXXXXXXXXX                      XXXXXXXXXX  .................",
"................   XX                                      XX   ................",
"...............              XXXXXXXXXXXXXXXXXXXXXX              ...............",
"..............       XXXXXXXXXXXXXXXXXXXXXXXXXXXXXXXXXXXXXX       ..............",
"..............  XXXXXXXXXXXXXXXXXXXXXXXXXXXXXXXXXXXXXXXXXXXXXXXX  ..............",
"..............   XXXXXXXXXXXXXXXXXXXXXXXXXXXXXXXXXXXXXXXXXXXXX    ..............",
"...............         XXXXXXXXXXXXXXXXXXXXXXXXXXXXXXXX         ...............",
"..................             XXXXXXXXXXXXXXXXXX              .................",
"........................                                ........................",
"...............................                  ...............................",
"................................................................................",
"................................................................................",
"................................................................................",
"................................................................................",
"................................................................................",
"................................................................................"
};
