/* XPM */
static char *qld95[] = {
/* columns rows colors chars-per-pixel */
"95 95 3 1",
"  c black s dark_piece",
". c green s dark_square",
"X c white s light_piece",
/* pixels */
"...............................................................................................",
"...............................................................................................",
"...............................................................................................",
"...............................................................................................",
"...............................................................................................",
"...............................................................................................",
"...............................................................................................",
"..............................................   ..............................................",
"............................................       ............................................",
"...........................................         ...........................................",
".........................    ..............   XXX   ..............    .........................",
".......................        ...........   XXXXX   ...........        .......................",
"......................          ..........   XXXXX   ..........          ......................",
"......................   XXXX   ..........   XXXXX   ..........   XXXX   ......................",
".....................   XXXXXX   .........   XXXXX   .........   XXXXXX   .....................",
".....................   XXXXXX   ..........    X    ..........   XXXXXX   .....................",
".....................   XXXXXX   ..........         ..........   XXXXXX   .....................",
".....................   XXXXX   ............       ............   XXXXX   .....................",
".......    ...........    X     ..............   ..............     X    ...........    .......",
".....        .........         ..............     ..............         .........        .....",
"....          .........       ...............     ...............       .........          ....",
"....   XXXX   ............    ...............     ...............    ............   XXXX   ....",
"...   XXXXXX   ...........    ...............     ...............    ...........   XXXXXX   ...",
"...   XXXXXX   ...........    ...............     ...............    ...........   XXXXXX   ...",
"...   XXXXXX   ...........     .............   X   .............     ...........   XXXXXX   ...",
"...   XXXXX   ............     .............   X   .............     ............   XXXXX   ...",
"....   XXX    ............     .............   X   .............     ............    XXX   ....",
"....         .............      ............   X   ............      .............         ....",
".....       ..............      ............   X   ............      ..............       .....",
".......      .............      ...........   XXX   ...........      .............      .......",
".........     ............   X   ..........   XXX   ..........   X   ............     .........",
".........     ............   X   ..........   XXX   ..........   X   ............     .........",
"..........     ...........   X   ..........   XXX   ..........   X   ...........     ..........",
"..........     ...........   XX   ........   XXXXX   ........   XX   ...........     ..........",
"..........      ..........   XX   ........   XXXXX   ........   XX   ..........      ..........",
"..........       .........   XX   ........   XXXXX   ........   XX   .........       ..........",
"..........   X   .........   XXX   .......   XXXXX   .......   XXX   .........   X   ..........",
"...........   X   .......   XXXX   .......   XXXXX   .......   XXX   ........   X   ...........",
"...........   X   .......   XXXXX   .....   XXXXXXX   .....   XXXXX   .......   X   ...........",
"...........   XX   ......   XXXXX   .....   XXXXXXX   .....   XXXXX   ......   XX   ...........",
"...........   XX    .....   XXXXX   .....   XXXXXXX   .....   XXXXX   .....    XX   ...........",
"...........   XXX   .....   XXXXXX   ....   XXXXXXX   ....   XXXXXX   .....   XXX   ...........",
"...........   XXXX   ....   XXXXXX   ...   XXXXXXXXX   ...   XXXXXX   ....   XXXX   ...........",
"............   XXX   ....   XXXXXX   ...   XXXXXXXXX   ...   XXXXXX   ....   XXX   ............",
"............   XXXX   ...   XXXXXXX   ..   XXXXXXXXX   ..   XXXXXXX   ...   XXXX   ............",
"............   XXXX   ...   XXXXXXX   ..   XXXXXXXXX   ..   XXXXXXX   ...   XXXX   ............",
"............   XXXXX   ..   XXXXXXX   ..   XXXXXXXXX   ..   XXXXXXX   ..   XXXXX   ............",
"............   XXXXX    .   XXXXXXXX      XXXXXXXXXXX      XXXXXXXX   .    XXXXX   ............",
"............   XXXXXX   .   XXXXXXXX      XXXXXXXXXXX      XXXXXXXX   .   XXXXXX   ............",
".............   XXXXXX      XXXXXXXX      XXXXXXXXXXX      XXXXXXXX      XXXXXX   .............",
".............   XXXXXX      XXXXXXXXX     XXXXX XXXXX     XXXXXXXXX      XXXXXX   .............",
".............   XXXXXXX     XXXX  XXX     XXX     XXX     XXX  XXXX     XXXXXXX   .............",
".............   XXXXXXX     XXX     X    XX         XX    X     XXX     XXXXXXX   .............",
".............   XXXX  XX                       X                       XX  XXXX   .............",
".............    X                           XXXXX                           X    .............",
"..............                 XXXXX       XXXXXXXXX       XXXXX                 ..............",
"..............      XX      XXXXXXXXXXXXXXXXXXXXXXXXXXXXXXXXXXXXXXX      XX      ..............",
"..............    XXXXXXXXXXXXXXXXXXXXXXXXXXXXXXXXXXXXXXXXXXXXXXXXXXXXXXXXXXX    ..............",
"...............   XXXXXXXXXXXXXXXXXXXXXXXXXXXXXXXXXXXXXXXXXXXXXXXXXXXXXXXXXXX   ...............",
"................   XXXXXXXXXXXXXXXXXXXXXXXXXXXXXXXXXXXXXXXXXXXXXXXXXXXXXXXXX   ................",
"................    XXXXXXXXXXXXXXXXXXXXXXXXXXXXXXXXXXXXXXXXXXXXXXXXXXXXXXX    ................",
".................    XXXXXXXXXXXXXXXXXXXXXXXXXXXXXXXXXXXXXXXXXXXXXXXXXXXXX    .................",
"..................   XXXXXXXXXXXXXX                         XXXXXXXXXXXXXX   ..................",
"...................   XXXX                                           XXXX   ...................",
"...................                                                         ...................",
"....................               XXXXXXXXXXXXXXXXXXXXXXXXX               ....................",
"....................      XXXXXXXXXXXXXXXXXXXXXXXXXXXXXXXXXXXXXXXXXXX      ....................",
".....................   XXXXXXXXXXXXXXXXXXXXXXXXXXXXXXXXXXXXXXXXXXXXXXX   .....................",
".....................   XXXXXXXXXXXXXXXXXXXXXXXXXXXXXXXXXXXXXXXXXXXXXXX   .....................",
".....................   XXXXXXXXXXXXXXXXXXXXXXXXXXXXXXXXXXXXXXXXXXXXXXX   .....................",
".....................   XXXXXXXXXXXXX                     XXXXXXXXXXXXX   .....................",
"......................   XXXX                                     XXXX   ......................",
"......................                                                   ......................",
"......................               XXXXXXXXXXXXXXXXXXXXX               ......................",
"......................       XXXXXXXXXXXXXXXXXXXXXXXXXXXXXXXXXXXXX       ......................",
".....................   XXXXXXXXXXXXXXXXXXXXXXXXXXXXXXXXXXXXXXXXXXXXXXX   .....................",
".....................   XXXXXXXXXXXX                       XXXXXXXXXXXX   .....................",
"....................   XXXXX                                       XXXXX   ....................",
"....................                                                       ....................",
"...................                 XXXXXXXXXXXXXXXXXXXXXXX                 ...................",
"..................          XXXXXXXXXXXXXXXXXXXXXXXXXXXXXXXXXXXXXXX          ..................",
"..................   XXXXXXXXXXXXXXXXXXXXXXXXXXXXXXXXXXXXXXXXXXXXXXXXXXXXX   ..................",
"..................   XXXXXXXXXXXXXXXXXXXXXXXXXXXXXXXXXXXXXXXXXXXXXXXXXXXXX   ..................",
"..................   XXXXXXXXXXXXXXXXXXXXXXXXXXXXXXXXXXXXXXXXXXXXXXXXXXXXX   ..................",
"..................          XXXXXXXXXXXXXXXXXXXXXXXXXXXXXXXXXXXXXXX          ..................",
"...................                 XXXXXXXXXXXXXXXXXXXXXXX                 ...................",
".....................                                                     .....................",
"............................                                       ............................",
"....................................                       ....................................",
"...............................................................................................",
"...............................................................................................",
"...............................................................................................",
"...............................................................................................",
"...............................................................................................",
"..............................................................................................."
};
