/* XPM */
static char *qll29[] = {
/* columns rows colors chars-per-pixel */
"29 29 3 1",
"  c black s dark_piece",
". c gray s light_square",
"X c white s light_piece",
/* pixels */
".............................",
".............................",
".............. ..............",
"........ .... X .... ........",
"....... X ... X ... X .......",
"..  ... X .... .... X ...  ..",
". XX ... ..... ..... ... XX .",
". XX ...  .... ....  ... XX .",
"..  ....  ... X ...  ....  ..",
"...  ...  ... X ...  ...  ...",
"...  ... X .. X .. X ...  ...",
"... X . XX .. X .. XX . X ...",
"... X . XXX . X . XXX . X ...",
"... XX  XXX  XXX  XXX  XX ...",
".... X  XXX  XXX  XXX  X ....",
".... XX    X X X X    XX ....",
"....    XXX   X   XXXX   ....",
".... XXXXXXXXXXXXXXXXXXX ....",
"..... XXXX         XXXX .....",
"......    XXXXXXXXX    ......",
"...... XXXXXXXXXXXXXXX ......",
"....... X           X .......",
".......  XXXXXXXXXXX  .......",
"...... X             X ......",
"......  XXXXXXXXXXXXX  ......",
"......  XXXXXXXXXXXXX  ......",
"........             ........",
".............................",
"............................."
};
