/* XPM */
static char *qll33[] = {
/* columns rows colors chars-per-pixel */
"33 33 3 1",
"  c black s dark_piece",
". c gray s light_square",
"X c white s light_piece",
/* pixels */
".................................",
".................................",
"................ ................",
"............... X ...............",
"........  ..... X .....  ........",
"....... XX ..... ..... XX .......",
"..  ...  X ..... ..... X  ...  ..",
". XX .... ...... ...... .... XX .",
". XX .... ..... X ..... .... XX .",
"..  .....  .... X ....  .....  ..",
"...  ....  .... X ....  ....  ...",
"...  .... X ... X ... X ....  ...",
"....  ... X .. XXX .. X ...  ....",
".... X .. X .. XXX .. X .. X ....",
".... X .. XX . XXX . XX .. X ....",
".... XX . XX . XXX . XX . XX ....",
".... XX . XX  XXXXX  XX . XX ....",
"..... XX  X X       X X  XX .....",
"..... X X  X  XXXXXX X  X X .....",
".....  X  XXXXXXXXXXXXXX X  .....",
"..... XXXXXXXXXXXXXXXXXXXXX .....",
"...... XXX             XXX ......",
"......    XXXXXXXXXXXXX    ......",
"....... XXXXXXXXXXXXXXXXX .......",
"....... XX             XX .......",
"........  XXXXXXXXXXXXX  ........",
"....... XX             XX .......",
"......    XXXXXXXXXXXXX    ......",
"...... XXXXXXXXXXXXXXXXXXX ......",
"......    XXXXXXXXXXXXX    ......",
"..........             ..........",
".................................",
"................................."
};
