/* XPM */
static char *qll37[] = {
/* columns rows colors chars-per-pixel */
"37 37 3 1",
"  c black s dark_piece",
". c gray s light_square",
"X c white s light_piece",
/* pixels */
".....................................",
".....................................",
".................   .................",
"..........   ... XXX ...   ..........",
"......... XXX .. XXX .. XXX .........",
"......... XXX ...   ... XXX .........",
"...  .....   ..... .....   .....  ...",
".. XX ..... ...... ...... ..... XX ..",
".. XX ..... ..... X ..... ..... XX ..",
".. X  .....  .... X ....  .....  X ..",
"...  ..... X .... X ....  ......  ...",
"....  .... X .... X .... X ....  ....",
"....  .... XX ... X ... XX ....  ....",
".... X ... XX .. XXX .. XX ... X ....",
".... X ... XX .. XXX .. XX ... X ....",
"..... X .. XX .. XXX .. XX .. X .....",
"..... X .. XXX . XXX . XXX .. X .....",
"..... X . XXXX . XXX . XXX .. X .....",
"..... XX  XXXX  XXXXX  XXXX  XX .....",
"..... XX  XXXXX XXXXX XXXXX  XX .....",
"..... X X     X X   X X     X X .....",
"...... X  XXXX   XXX   XXXXX X  .....",
"...... XXXXXXXXXXXXXXXXXXXXXXX ......",
"....... XXXXXXXXXXXXXXXXXXXXX .......",
"....... XX                 XX .......",
"........  XXXXXXXXXXXXXXXXX  ........",
"........ XXXXXXXXXXXXXXXXXXX ........",
"......... XX             XX .........",
".........   XXXXXXXXXXXXX   .........",
"........ XXXX           XXXX ........",
"........     XXXXXXXXXXX     ........",
"....... XXXXXXXXXXXXXXXXXXXXX .......",
"........    XXXXXXXXXXXXX    ........",
"............             ............",
".....................................",
".....................................",
"....................................."
};
