/* XPM */
static char *qll40[] = {
/* columns rows colors chars-per-pixel */
"40 40 3 1",
"  c black s dark_piece",
". c gray s light_square",
"X c white s light_piece",
/* pixels */
"........................................",
"........................................",
"...................   ..................",
"...........   .... XXX ....   ..........",
".......... XXX ... XXX ... XXX .........",
".......... XXX ... XXX ... XXX .........",
"...  ...... X .....   ..... X ......  ..",
".. XX ...... ....... ....... ...... XX .",
".. XX ...... ....... ....... ...... XX .",
".. XX ......  ..... X .....  ...... XX .",
"...  .......  ..... X .....  .......  ..",
"..... ......  ..... X .....  ...... ....",
"..... ...... X .... X .... X ...... ....",
".....  ..... X .... X .... X .....  ....",
"..... X ... XX ... XXX ... X .... X ....",
"..... X ... XXX .. XXX .. XXX ... X ....",
"..... XX .. XXX .. XXX .. XXX .. XX ....",
"..... XX .. XXX .. XXX .. XXX .. XX ....",
"...... XX . XXXX . XXX . XXXX . XX .....",
"...... XXX  XXXX  XXXXX  XXXX  XXX .....",
"...... XXX  XXXX  XXXXX  XXXX  XXX .....",
"...... XX X     X X   X X     X XX .....",
"......   X  XXXX   XXX   XXXXX X   .....",
"....... XXXXXXXXXXXXXXXXXXXXXXXXX ......",
"....... XXXXXXXXXXXXXXXXXXXXXXXXX ......",
"........ XXXXX             XXXXX .......",
"........ X    XXXXXXXXXXXXX    X .......",
"......... XXXXXXXXXXXXXXXXXXXXX ........",
"......... XXXXXXXXXXXXXXXXXXXXX ........",
"......... XXXX             XXXX ........",
"..........    XXXXXXXXXXXXX    .........",
"......... XXXXXXXXXXXXXXXXXXXXX ........",
"........ XXXX               XXXX .......",
"........     XXXXXXXXXXXXXXX     .......",
"....... XXXXXXXXXXXXXXXXXXXXXXXXX ......",
"........      XXXXXXXXXXXXX      .......",
"..............             .............",
"........................................",
"........................................",
"........................................"
};
