/* XPM */
static char *rdd108[] = {
/* columns rows colors chars-per-pixel */
"108 108 3 1",
"  c black s dark_piece",
". c green s dark_square",
"X c white s light_piece",
/* pixels */
"............................................................................................................",
"............................................................................................................",
"............................................................................................................",
"............................................................................................................",
"............................................................................................................",
"............................................................................................................",
"............................................................................................................",
"............................................................................................................",
"............................................................................................................",
"............................................................................................................",
"............................................................................................................",
"............................................................................................................",
"............................................................................................................",
"............................................................................................................",
"............................................................................................................",
"............................................................................................................",
".....................               ..........               ...........               .....................",
"....................                ..........               ..........                .....................",
"....................                ..........               ..........                .....................",
"....................                ..........               ..........                .....................",
"....................                ..........               ..........                .....................",
"....................                ..........               ..........                .....................",
"....................                ..........               ..........                .....................",
"....................                                                                   .....................",
"....................                                                                   .....................",
"....................                                                                   .....................",
"....................                                                                   .....................",
"....................                                                                   .....................",
"....................                                                                   .....................",
"....................                                                                   .....................",
"....................     XXXXXXXXXXXXXXXXXXXXXXXXXXXXXXXXXXXXXXXXXXXXXXXXXXXXXXXXX     .....................",
"....................     XXXXXXXXXXXXXXXXXXXXXXXXXXXXXXXXXXXXXXXXXXXXXXXXXXXXXXXXX     .....................",
".....................    XXXXXXXXXXXXXXXXXXXXXXXXXXXXXXXXXXXXXXXXXXXXXXXXXXXXXXXXX    ......................",
"......................                                                               .......................",
".......................                                                             ........................",
"........................                                                           .........................",
".........................                                                         ..........................",
"..........................                                                       ...........................",
"............................    XXXXXXXXXXXXXXXXXXXXXXXXXXXXXXXXXXXXXXXXXXX    .............................",
".............................   XXXXXXXXXXXXXXXXXXXXXXXXXXXXXXXXXXXXXXXXXXX   ..............................",
".............................   XXXXXXXXXXXXXXXXXXXXXXXXXXXXXXXXXXXXXXXXXXX   ..............................",
".............................                                                 ..............................",
".............................                                                 ..............................",
".............................                                                 ..............................",
".............................                                                 ..............................",
".............................                                                 ..............................",
".............................                                                 ..............................",
".............................                                                 ..............................",
".............................                                                 ..............................",
".............................                                                 ..............................",
".............................                                                 ..............................",
".............................                                                 ..............................",
".............................                                                 ..............................",
".............................                                                 ..............................",
".............................                                                 ..............................",
".............................                                                 ..............................",
".............................                                                 ..............................",
".............................                                                 ..............................",
".............................                                                 ..............................",
".............................                                                 ..............................",
".............................                                                 ..............................",
".............................                                                 ..............................",
".............................                                                 ..............................",
".............................                                                 ..............................",
".............................                                                 ..............................",
".............................                                                 ..............................",
".............................                                                 ..............................",
".............................                                                 ..............................",
".............................                                                 ..............................",
".............................                                                 ..............................",
".............................                                                 ..............................",
".............................                                                 ..............................",
".............................   XXXXXXXXXXXXXXXXXXXXXXXXXXXXXXXXXXXXXXXXXXX   ..............................",
".............................   XXXXXXXXXXXXXXXXXXXXXXXXXXXXXXXXXXXXXXXXXXX   ..............................",
"............................    XXXXXXXXXXXXXXXXXXXXXXXXXXXXXXXXXXXXXXXXXXX    .............................",
"...........................                                                     ............................",
"..........................                                                       ...........................",
".........................                                                         ..........................",
"........................                                                           .........................",
".......................    XXXXXXXXXXXXXXXXXXXXXXXXXXXXXXXXXXXXXXXXXXXXXXXXXXXXX    ........................",
".......................    XXXXXXXXXXXXXXXXXXXXXXXXXXXXXXXXXXXXXXXXXXXXXXXXXXXXX     .......................",
"......................     XXXXXXXXXXXXXXXXXXXXXXXXXXXXXXXXXXXXXXXXXXXXXXXXXXXXX     .......................",
"......................                                                               .......................",
"......................                                                               .......................",
"......................                                                               .......................",
"......................                                                               .......................",
"......................                                                               .......................",
"......................                                                               .......................",
"......................                                                               .......................",
"......................                                                               .......................",
"...............           XXXXXXXXXXXXXXXXXXXXXXXXXXXXXXXXXXXXXXXXXXXXXXXXXXXXXXX           ................",
"...............          XXXXXXXXXXXXXXXXXXXXXXXXXXXXXXXXXXXXXXXXXXXXXXXXXXXXXXXXX          ................",
"...............           XXXXXXXXXXXXXXXXXXXXXXXXXXXXXXXXXXXXXXXXXXXXXXXXXXXXXXX           ................",
"...............                                                                             ................",
"...............                                                                             ................",
"...............                                                                             ................",
"...............                                                                             ................",
"...............                                                                             ................",
"...............                                                                             ................",
"................                                                                            ................",
"............................................................................................................",
"............................................................................................................",
"............................................................................................................",
"............................................................................................................",
"............................................................................................................",
"............................................................................................................",
"............................................................................................................",
"............................................................................................................"
};
