/* XPM */
static char *rdd37[] = {
/* columns rows colors chars-per-pixel */
"37 37 3 1",
"  c black s dark_piece",
". c green s dark_square",
"X c white s light_piece",
/* pixels */
".....................................",
".....................................",
".....................................",
".....................................",
".....................................",
".......     ....     ....     .......",
".......     ....     ....     .......",
".......     ....     ....     .......",
".......                       .......",
".......                       .......",
"....... XXXXXXXXXXXXXXXXXXXXX .......",
"........                     ........",
".........                   .........",
".......... XXXXXXXXXXXXXXX ..........",
"..........                 ..........",
"..........                 ..........",
"..........                 ..........",
"..........                 ..........",
"..........                 ..........",
"..........                 ..........",
"..........                 ..........",
"..........                 ..........",
"..........                 ..........",
"..........                 ..........",
".......... XXXXXXXXXXXXXXX ..........",
".........                   .........",
"........ XXXXXXXXXXXXXXXXXXX ........",
"........                     ........",
"........                     ........",
"........                     ........",
".....    XXXXXXXXXXXXXXXXXXX    .....",
".....                           .....",
".....                           .....",
".....                           .....",
".....................................",
".....................................",
"....................................."
};
