/* XPM */
static char * rdd40[] = {
"40 40 3 1",
" 	c green s dark_square",
".	c black s dark_piece",
"X	c white s light_piece",
"                                        ",
"                                        ",
"                                        ",
"         .....    .....    .....        ",
"         .....    .....    .....        ",
"         .....    .....    .....        ",
"         .......................        ",
"         .......................        ",
"         .......................        ",
"          .XXXXXXXXXXXXXXXXXXX.         ",
"           ...................          ",
"            ................            ",
"             .XXXXXXXXXXXXX.            ",
"             ...............            ",
"             ...............            ",
"             ...............            ",
"             ...............            ",
"             ...............            ",
"             ...............            ",
"             ...............            ",
"             ...............            ",
"             ...............            ",
"             ...............            ",
"             ...............            ",
"             ...............            ",
"            ..XXXXXXXXXXXXX..           ",
"           ....................         ",
"          ......................        ",
"          .XXXXXXXXXXXXXXXXXXX..        ",
"          ......................        ",
"          ......................        ",
"       ...XXXXXXXXXXXXXXXXXXXXX...      ",
"       ...........................      ",
"       ...........................      ",
"       ...........................      ",
"                                        ",
"                                        ",
"                                        ",
"                                        ",
"                                        "};
