/* XPM */
static char *rdd58[] = {
/* columns rows colors chars-per-pixel */
"58 58 3 1",
"  c black s dark_piece",
". c green s dark_square",
"X c white s light_piece",
/* pixels */
"..........................................................",
"..........................................................",
"..........................................................",
"..........................................................",
"..........................................................",
"..........................................................",
"..........................................................",
"...........         .....        .....         ...........",
"...........         .....        .....         ...........",
"...........         .....        .....         ...........",
"...........         .....        .....         ...........",
"...........                                    ...........",
"...........                                    ...........",
"...........                                    ...........",
"...........   XXXXXXXXXXXXXXXXXXXXXXXXXXXXXX   ...........",
"...........   XXXXXXXXXXXXXXXXXXXXXXXXXXXXXX   ...........",
"............                                  ............",
".............                                .............",
"...............   XXXXXXXXXXXXXXXXXXXXXX   ...............",
"................  XXXXXXXXXXXXXXXXXXXXXX  ................",
"................                          ................",
"................                          ................",
"................                          ................",
"................                          ................",
"................                          ................",
"................                          ................",
"................                          ................",
"................                          ................",
"................                          ................",
"................                          ................",
"................                          ................",
"................                          ................",
"................                          ................",
"................                          ................",
"................                          ................",
"................                          ................",
"................                          ................",
"................                          ................",
"................  XXXXXXXXXXXXXXXXXXXXXX  ................",
"...............   XXXXXXXXXXXXXXXXXXXXXX   ...............",
"..............                              ..............",
".............  XXXXXXXXXXXXXXXXXXXXXXXXXXXX  .............",
"............   XXXXXXXXXXXXXXXXXXXXXXXXXXXX   ............",
"............                                  ............",
"............                                  ............",
"............                                  ............",
"............                                  ............",
"........      XXXXXXXXXXXXXXXXXXXXXXXXXXXXXX      ........",
"........      XXXXXXXXXXXXXXXXXXXXXXXXXXXXXX      ........",
"........                                          ........",
"........                                          ........",
"........                                          ........",
"..........................................................",
"..........................................................",
"..........................................................",
"..........................................................",
"..........................................................",
".........................................................."
};
