/* XPM */
static char *rdd87[] = {
/* columns rows colors chars-per-pixel */
"87 87 3 1",
"  c black s dark_piece",
". c green s dark_square",
"X c white s light_piece",
/* pixels */
".......................................................................................",
".......................................................................................",
".......................................................................................",
".......................................................................................",
".......................................................................................",
".......................................................................................",
".......................................................................................",
".......................................................................................",
".......................................................................................",
".......................................................................................",
".......................................................................................",
".......................................................................................",
"..................            ........            ........            .................",
".................             .......             .......             .................",
".................             .......             .......             .................",
".................             .......             .......             .................",
".................             .......             .......             .................",
".................                                                     .................",
".................                                                     .................",
".................                                                     .................",
".................                                                     .................",
".................                                                     .................",
".................    XXXXXXXXXXXXXXXXXXXXXXXXXXXXXXXXXXXXXXXXXXXXX    .................",
".................    XXXXXXXXXXXXXXXXXXXXXXXXXXXXXXXXXXXXXXXXXXXXX    .................",
".................    XXXXXXXXXXXXXXXXXXXXXXXXXXXXXXXXXXXXXXXXXXXXX    .................",
"..................                                                   ..................",
"...................                                                 ...................",
"....................                                              .....................",
"......................     XXXXXXXXXXXXXXXXXXXXXXXXXXXXXXXXX     ......................",
".......................    XXXXXXXXXXXXXXXXXXXXXXXXXXXXXXXXX    .......................",
"........................   XXXXXXXXXXXXXXXXXXXXXXXXXXXXXXXXX   ........................",
"........................                                       ........................",
"........................                                       ........................",
"........................                                       ........................",
"........................                                       ........................",
"........................                                       ........................",
"........................                                       ........................",
"........................                                       ........................",
"........................                                       ........................",
"........................                                       ........................",
"........................                                       ........................",
"........................                                       ........................",
"........................                                       ........................",
"........................                                       ........................",
"........................                                       ........................",
"........................                                       ........................",
"........................                                       ........................",
"........................                                       ........................",
"........................                                       ........................",
"........................                                       ........................",
"........................                                       ........................",
"........................                                       ........................",
"........................                                       ........................",
"........................                                       ........................",
"........................                                       ........................",
"........................                                       ........................",
"........................                                       ........................",
"........................   XXXXXXXXXXXXXXXXXXXXXXXXXXXXXXXXX   ........................",
"........................   XXXXXXXXXXXXXXXXXXXXXXXXXXXXXXXXX    .......................",
".......................    XXXXXXXXXXXXXXXXXXXXXXXXXXXXXXXXX     ......................",
"......................                                            .....................",
".....................                                              ....................",
"....................                                                ...................",
"...................    XXXXXXXXXXXXXXXXXXXXXXXXXXXXXXXXXXXXXXXXX     ..................",
"..................     XXXXXXXXXXXXXXXXXXXXXXXXXXXXXXXXXXXXXXXXX     ..................",
"..................     XXXXXXXXXXXXXXXXXXXXXXXXXXXXXXXXXXXXXXXXX     ..................",
"..................                                                   ..................",
"..................                                                   ..................",
"..................                                                   ..................",
"..................                                                   ..................",
"..................    XXXXXXXXXXXXXXXXXXXXXXXXXXXXXXXXXXXXXXXXXXX          ............",
"............         XXXXXXXXXXXXXXXXXXXXXXXXXXXXXXXXXXXXXXXXXXXXX         ............",
"............          XXXXXXXXXXXXXXXXXXXXXXXXXXXXXXXXXXXXXXXXXXX          ............",
"............                                                               ............",
"............                                                               ............",
"............                                                               ............",
"............                                                               ............",
"............                                                               ............",
".............                                                              ............",
".......................................................................................",
".......................................................................................",
".......................................................................................",
".......................................................................................",
".......................................................................................",
".......................................................................................",
".......................................................................................",
"......................................................................................."
};
