/* XPM */
static char *rdd95[] = {
/* columns rows colors chars-per-pixel */
"95 95 3 1",
"  c black s dark_piece",
". c green s dark_square",
"X c white s light_piece",
/* pixels */
"...............................................................................................",
"...............................................................................................",
"...............................................................................................",
"...............................................................................................",
"...............................................................................................",
"...............................................................................................",
"...............................................................................................",
"...............................................................................................",
"...............................................................................................",
"...............................................................................................",
"...............................................................................................",
"...............................................................................................",
"...............................................................................................",
"...............................................................................................",
"...................             .........              .........             ..................",
"..................              .........              ........              ..................",
"..................              .........              ........              ..................",
"..................              .........              ........              ..................",
"..................              .........              ........              ..................",
"..................                                                           ..................",
"..................                                                           ..................",
"..................                                                           ..................",
"..................                                                           ..................",
"..................                                                           ..................",
"..................                                                           ..................",
"..................     XXXXXXXXXXXXXXXXXXXXXXXXXXXXXXXXXXXXXXXXXXXXXXXXX     ..................",
"..................    XXXXXXXXXXXXXXXXXXXXXXXXXXXXXXXXXXXXXXXXXXXXXXXXXXX    ..................",
"..................     XXXXXXXXXXXXXXXXXXXXXXXXXXXXXXXXXXXXXXXXXXXXXXXXX     ..................",
"...................                                                         ...................",
"....................                                                       ....................",
".....................                                                     .....................",
"......................                                                   ......................",
".......................      XXXXXXXXXXXXXXXXXXXXXXXXXXXXXXXXXXXXX      .......................",
".........................    XXXXXXXXXXXXXXXXXXXXXXXXXXXXXXXXXXXXX    .........................",
"..........................   XXXXXXXXXXXXXXXXXXXXXXXXXXXXXXXXXXXXX   ..........................",
"..........................                                           ..........................",
"..........................                                           ..........................",
"..........................                                           ..........................",
"..........................                                           ..........................",
"..........................                                           ..........................",
"..........................                                           ..........................",
"..........................                                           ..........................",
"..........................                                           ..........................",
"..........................                                           ..........................",
"..........................                                           ..........................",
"..........................                                           ..........................",
"..........................                                           ..........................",
"..........................                                           ..........................",
"..........................                                           ..........................",
"..........................                                           ..........................",
"..........................                                           ..........................",
"..........................                                           ..........................",
"..........................                                           ..........................",
"..........................                                           ..........................",
"..........................                                           ..........................",
"..........................                                           ..........................",
"..........................                                           ..........................",
"..........................                                           ..........................",
"..........................                                           ..........................",
"..........................                                           ..........................",
"..........................                                           ..........................",
"..........................                                           ..........................",
"..........................                                           ..........................",
"..........................   XXXXXXXXXXXXXXXXXXXXXXXXXXXXXXXXXXXXX   ..........................",
"..........................   XXXXXXXXXXXXXXXXXXXXXXXXXXXXXXXXXXXXX   ..........................",
".........................    XXXXXXXXXXXXXXXXXXXXXXXXXXXXXXXXXXXXX    .........................",
"........................                                               ........................",
".......................                                                 .......................",
"......................                                                   ......................",
".....................    XXXXXXXXXXXXXXXXXXXXXXXXXXXXXXXXXXXXXXXXXXXXX    .....................",
"....................    XXXXXXXXXXXXXXXXXXXXXXXXXXXXXXXXXXXXXXXXXXXXXXX    ....................",
"....................     XXXXXXXXXXXXXXXXXXXXXXXXXXXXXXXXXXXXXXXXXXXXX     ....................",
"....................                                                       ....................",
"....................                                                       ....................",
"....................                                                       ....................",
"....................                                                       ....................",
"....................                                                       ....................",
"....................                                                       ....................",
"..............         XXXXXXXXXXXXXXXXXXXXXXXXXXXXXXXXXXXXXXXXXXXXXXXXX          .............",
".............          XXXXXXXXXXXXXXXXXXXXXXXXXXXXXXXXXXXXXXXXXXXXXXXXX          .............",
".............          XXXXXXXXXXXXXXXXXXXXXXXXXXXXXXXXXXXXXXXXXXXXXXXXX          .............",
".............                                                                     .............",
".............                                                                     .............",
".............                                                                     .............",
".............                                                                     .............",
".............                                                                     .............",
"..............                                                                    .............",
"...............................................................................................",
"...............................................................................................",
"...............................................................................................",
"...............................................................................................",
"...............................................................................................",
"...............................................................................................",
"...............................................................................................",
"..............................................................................................."
};
