/* XPM */
static char *rdl129[] = {
/* columns rows colors chars-per-pixel */
"129 129 3 1",
"  c black s dark_piece",
". c gray s light_square",
"X c white s light_piece",
/* pixels */
".................................................................................................................................",
".................................................................................................................................",
".................................................................................................................................",
".................................................................................................................................",
".................................................................................................................................",
".................................................................................................................................",
".................................................................................................................................",
".................................................................................................................................",
".................................................................................................................................",
".................................................................................................................................",
".................................................................................................................................",
".................................................................................................................................",
".................................................................................................................................",
".................................................................................................................................",
".................................................................................................................................",
".................................................................................................................................",
".................................................................................................................................",
".................................................................................................................................",
".........................                 ..............                 .............                 ..........................",
"........................                   ............                   ...........                   .........................",
"........................                   ............                   ...........                   .........................",
"........................                   ............                   ...........                   .........................",
"........................                   ............                   ...........                   .........................",
"........................                   ............                   ...........                   .........................",
"........................                   ............                   ...........                   .........................",
"........................                   ............                   ...........                   .........................",
"........................                                                                                .........................",
"........................                                                                                .........................",
"........................                                                                                .........................",
"........................                                                                                .........................",
"........................                                                                                .........................",
"........................                                                                                .........................",
"........................                                                                                .........................",
"........................                                                                                .........................",
"........................       XXXXXXXXXXXXXXXXXXXXXXXXXXXXXXXXXXXXXXXXXXXXXXXXXXXXXXXXXXXXXXXXXX       .........................",
"........................      XXXXXXXXXXXXXXXXXXXXXXXXXXXXXXXXXXXXXXXXXXXXXXXXXXXXXXXXXXXXXXXXXXXX      .........................",
"........................      XXXXXXXXXXXXXXXXXXXXXXXXXXXXXXXXXXXXXXXXXXXXXXXXXXXXXXXXXXXXXXXXXXXX      .........................",
".........................      XXXXXXXXXXXXXXXXXXXXXXXXXXXXXXXXXXXXXXXXXXXXXXXXXXXXXXXXXXXXXXXXXX      ..........................",
"..........................                                                                            ...........................",
"...........................                                                                          ............................",
"............................                                                                        .............................",
"..............................                                                                     ..............................",
"...............................                                                                  ................................",
"................................        XXXXXXXXXXXXXXXXXXXXXXXXXXXXXXXXXXXXXXXXXXXXXXXX        .................................",
".................................      XXXXXXXXXXXXXXXXXXXXXXXXXXXXXXXXXXXXXXXXXXXXXXXXXX      ..................................",
"..................................     XXXXXXXXXXXXXXXXXXXXXXXXXXXXXXXXXXXXXXXXXXXXXXXXXX     ...................................",
"...................................     XXXXXXXXXXXXXXXXXXXXXXXXXXXXXXXXXXXXXXXXXXXXXXXX     ....................................",
"...................................                                                          ....................................",
"...................................                                                          ....................................",
"...................................                                                          ....................................",
"...................................                                                          ....................................",
"...................................                                                          ....................................",
"...................................                                                          ....................................",
"...................................                                                          ....................................",
"...................................                                                          ....................................",
"...................................                                                          ....................................",
"...................................                                                          ....................................",
"...................................                                                          ....................................",
"...................................                                                          ....................................",
"...................................                                                          ....................................",
"...................................                                                          ....................................",
"...................................                                                          ....................................",
"...................................                                                          ....................................",
"...................................                                                          ....................................",
"...................................                                                          ....................................",
"...................................                                                          ....................................",
"...................................                                                          ....................................",
"...................................                                                          ....................................",
"...................................                                                          ....................................",
"...................................                                                          ....................................",
"...................................                                                          ....................................",
"...................................                                                          ....................................",
"...................................                                                          ....................................",
"...................................                                                          ....................................",
"...................................                                                          ....................................",
"...................................                                                          ....................................",
"...................................                                                          ....................................",
"...................................                                                          ....................................",
"...................................                                                          ....................................",
"...................................                                                          ....................................",
"...................................                                                          ....................................",
"...................................                                                          ....................................",
"...................................                                                          ....................................",
"...................................                                                          ....................................",
"...................................                                                          ....................................",
"...................................                                                          ....................................",
"...................................     XXXXXXXXXXXXXXXXXXXXXXXXXXXXXXXXXXXXXXXXXXXXXXXX     ....................................",
"...................................    XXXXXXXXXXXXXXXXXXXXXXXXXXXXXXXXXXXXXXXXXXXXXXXXXX    ....................................",
"...................................    XXXXXXXXXXXXXXXXXXXXXXXXXXXXXXXXXXXXXXXXXXXXXXXXXX    ....................................",
"..................................      XXXXXXXXXXXXXXXXXXXXXXXXXXXXXXXXXXXXXXXXXXXXXXXX      ...................................",
".................................                                                              ..................................",
"................................                                                                .................................",
"...............................                                                                  ................................",
"..............................                                                                    ...............................",
".............................     XXXXXXXXXXXXXXXXXXXXXXXXXXXXXXXXXXXXXXXXXXXXXXXXXXXXXXXXXXXX     ..............................",
"............................     XXXXXXXXXXXXXXXXXXXXXXXXXXXXXXXXXXXXXXXXXXXXXXXXXXXXXXXXXXXXXX     .............................",
"...........................      XXXXXXXXXXXXXXXXXXXXXXXXXXXXXXXXXXXXXXXXXXXXXXXXXXXXXXXXXXXXXX      ............................",
"...........................       XXXXXXXXXXXXXXXXXXXXXXXXXXXXXXXXXXXXXXXXXXXXXXXXXXXXXXXXXXXX       ............................",
"...........................                                                                          ............................",
"...........................                                                                          ............................",
"...........................                                                                          ............................",
"...........................                                                                          ............................",
"...........................                                                                          ............................",
"...........................                                                                          ............................",
"...........................                                                                          ............................",
"...........................                                                                          ............................",
"...........................                                                                          ............................",
"...................             XXXXXXXXXXXXXXXXXXXXXXXXXXXXXXXXXXXXXXXXXXXXXXXXXXXXXXXXXXXXXXXX             ....................",
"..................             XXXXXXXXXXXXXXXXXXXXXXXXXXXXXXXXXXXXXXXXXXXXXXXXXXXXXXXXXXXXXXXXXX             ...................",
"..................             XXXXXXXXXXXXXXXXXXXXXXXXXXXXXXXXXXXXXXXXXXXXXXXXXXXXXXXXXXXXXXXXXX             ...................",
"..................              XXXXXXXXXXXXXXXXXXXXXXXXXXXXXXXXXXXXXXXXXXXXXXXXXXXXXXXXXXXXXXXX              ...................",
"..................                                                                                            ...................",
"..................                                                                                            ...................",
"..................                                                                                            ...................",
"..................                                                                                            ...................",
"..................                                                                                            ...................",
"..................                                                                                            ...................",
"..................                                                                                            ...................",
"...................                                                                                          ....................",
".................................................................................................................................",
".................................................................................................................................",
".................................................................................................................................",
".................................................................................................................................",
".................................................................................................................................",
".................................................................................................................................",
".................................................................................................................................",
".................................................................................................................................",
".................................................................................................................................",
"................................................................................................................................."
};
