/* XPM */
static char *rdl29[] = {
/* columns rows colors chars-per-pixel */
"29 29 3 1",
"  c black s dark_piece",
". c gray s light_square",
"X c white s light_piece",
/* pixels */
".............................",
".............................",
".............................",
"......    ...    ..    ......",
"......    ...    ..    ......",
"......                 ......",
"......                 ......",
"...... XXXXXXXXXXXXXXX ......",
".......               .......",
"........ XXXXXXXXXXX ........",
"........             ........",
"........             ........",
"........             ........",
"........             ........",
"........             ........",
"........             ........",
"........             ........",
"........             ........",
"........ XXXXXXXXXXX ........",
"........              .......",
"....... XXXXXXXXXXXXX  ......",
"......                 ......",
"......                 ......",
"....   XXXXXXXXXXXXXXX   ....",
"....                     ....",
"....                     ....",
".............................",
".............................",
"............................."
};
