/* XPM */
static char *rdl64[] = {
/* columns rows colors chars-per-pixel */
"64 64 3 1",
"  c black s dark_piece",
". c gray s light_square",
"X c white s light_piece",
/* pixels */
"................................................................",
"................................................................",
"................................................................",
"................................................................",
"................................................................",
"................................................................",
"................................................................",
"..............         .....        .....         ..............",
"..............         .....        .....         ..............",
"..............         .....        .....         ..............",
"..............         .....        .....         ..............",
"..............                                    ..............",
"..............                                    ..............",
"..............                                    ..............",
"..............                                    ..............",
"..............  XXXXXXXXXXXXXXXXXXXXXXXXXXXXXXXX  ..............",
"..............  XXXXXXXXXXXXXXXXXXXXXXXXXXXXXXXX  ..............",
"...............                                  ...............",
"................                                ................",
"..................   XXXXXXXXXXXXXXXXXXXXXX   ..................",
"...................  XXXXXXXXXXXXXXXXXXXXXX  ...................",
"...................                          ...................",
"...................                          ...................",
"...................                          ...................",
"...................                          ...................",
"...................                          ...................",
"...................                          ...................",
"...................                          ...................",
"...................                          ...................",
"...................                          ...................",
"...................                          ...................",
"...................                          ...................",
"...................                          ...................",
"...................                          ...................",
"...................                          ...................",
"...................                          ...................",
"...................                          ...................",
"...................                          ...................",
"...................                          ...................",
"...................                          ...................",
"...................  XXXXXXXXXXXXXXXXXXXXXX  ...................",
"..................   XXXXXXXXXXXXXXXXXXXXXX   ..................",
".................                              .................",
"................                                 ...............",
"..............   XXXXXXXXXXXXXXXXXXXXXXXXXXXXXX   ..............",
"..............   XXXXXXXXXXXXXXXXXXXXXXXXXXXXXX   ..............",
"..............                                    ..............",
"..............                                    ..............",
"..............                                    ..............",
"..............                                    ..............",
"..........      XXXXXXXXXXXXXXXXXXXXXXXXXXXXXXXX      ..........",
"..........      XXXXXXXXXXXXXXXXXXXXXXXXXXXXXXXX      ..........",
"..........                                            ..........",
"..........                                            ..........",
"..........                                            ..........",
"..........                                            ..........",
"................................................................",
"................................................................",
"................................................................",
"................................................................",
"................................................................",
"................................................................",
"................................................................",
"................................................................"
};
