/* XPM */
static char *rdl80[] = {
/* columns rows colors chars-per-pixel */
"80 80 3 1",
"  c black s dark_piece",
". c gray s light_square",
"X c white s light_piece",
/* pixels */
"................................................................................",
"................................................................................",
"................................................................................",
"................................................................................",
"................................................................................",
"................................................................................",
"................................................................................",
"................................................................................",
"................................................................................",
".................           .......          .......           .................",
".................           .......          .......           .................",
".................           .......          .......           .................",
".................           .......          .......           .................",
".................           .......          .......           .................",
".................                                              .................",
".................                                              .................",
".................                                              .................",
".................                                              .................",
".................                                              .................",
".................   XXXXXXXXXXXXXXXXXXXXXXXXXXXXXXXXXXXXXXXX   .................",
".................   XXXXXXXXXXXXXXXXXXXXXXXXXXXXXXXXXXXXXXXX   .................",
"..................                                            ..................",
"...................                                          ...................",
"....................                                        ....................",
".....................                                      .....................",
"......................    XXXXXXXXXXXXXXXXXXXXXXXXXXXX    ......................",
"........................  XXXXXXXXXXXXXXXXXXXXXXXXXXXX   .......................",
"........................                                ........................",
"........................                                ........................",
"........................                                ........................",
"........................                                ........................",
"........................                                ........................",
"........................                                ........................",
"........................                                ........................",
"........................                                ........................",
"........................                                ........................",
"........................                                ........................",
"........................                                ........................",
"........................                                ........................",
"........................                                ........................",
"........................                                ........................",
"........................                                ........................",
"........................                                ........................",
"........................                                ........................",
"........................                                ........................",
"........................                                ........................",
"........................                                ........................",
"........................                                ........................",
"........................                                ........................",
"........................                                ........................",
".......................   XXXXXXXXXXXXXXXXXXXXXXXXXXXX  ........................",
"......................    XXXXXXXXXXXXXXXXXXXXXXXXXXXX   .......................",
".....................                                      .....................",
"....................                                        ....................",
"..................                                           ...................",
"..................   XXXXXXXXXXXXXXXXXXXXXXXXXXXXXXXXXXXXXX   ..................",
"..................   XXXXXXXXXXXXXXXXXXXXXXXXXXXXXXXXXXXXXX   ..................",
"..................                                            ..................",
"..................                                            ..................",
"..................                                            ..................",
"..................                                            ..................",
"..................                                            ..................",
"..................                                            ..................",
"............        XXXXXXXXXXXXXXXXXXXXXXXXXXXXXXXXXXXXXXXX        ............",
"............        XXXXXXXXXXXXXXXXXXXXXXXXXXXXXXXXXXXXXXXX        ............",
"............                                                        ............",
"............                                                        ............",
"............                                                        ............",
"............                                                        ............",
"............                                                        ............",
"................................................................................",
"................................................................................",
"................................................................................",
"................................................................................",
"................................................................................",
"................................................................................",
"................................................................................",
"................................................................................",
"................................................................................",
"................................................................................"
};
