/* XPM */
static char *rld29[] = {
/* columns rows colors chars-per-pixel */
"29 29 3 1",
"  c black s dark_piece",
". c green s dark_square",
"X c white s light_piece",
/* pixels */
".............................",
".............................",
".............................",
"......    ...    ..    ......",
"...... XX ... XX .. XX ......",
"...... XX     XX    XX ......",
"...... XXXXXXXXXXXXXXX ......",
"......                 ......",
"....... XXXXXXXXXXXXX .......",
"........             ........",
"........ XXXXXXXXXXX ........",
"........ XXXXXXXXXXX ........",
"........ XXXXXXXXXXX ........",
"........ XXXXXXXXXXX ........",
"........ XXXXXXXXXXX ........",
"........ XXXXXXXXXXX ........",
"........ XXXXXXXXXXX ........",
"........ XXXXXXXXXXX ........",
"........             ........",
"........ XXXXXXXXXXX  .......",
"......                 ......",
"...... XXXXXXXXXXXXXXX ......",
"...... XXXXXXXXXXXXXXX ......",
"....                     ....",
".... XXXXXXXXXXXXXXXXXXX ....",
"....                     ....",
".............................",
".............................",
"............................."
};
