/* XPM */
static char *rld58[] = {
/* columns rows colors chars-per-pixel */
"58 58 3 1",
"  c black s dark_piece",
". c green s dark_square",
"X c white s light_piece",
/* pixels */
"..........................................................",
"..........................................................",
"..........................................................",
"..........................................................",
"..........................................................",
"..........................................................",
"..........................................................",
"...........         .....        .....         ...........",
"...........         .....        .....         ...........",
"...........  XXXXX  .....  XXXX  .....  XXXXX  ...........",
"...........  XXXXX  .....  XXXX  .....  XXXXX  ...........",
"...........  XXXXX         XXXX         XXXXX  ...........",
"...........  XXXXX         XXXX         XXXXX  ...........",
"...........  XXXXXXXXXXXXXXXXXXXXXXXXXXXXXXXX  ...........",
"...........                                    ...........",
"...........                                    ...........",
"............   XXXXXXXXXXXXXXXXXXXXXXXXXXXX   ............",
".............    XXXXXXXXXXXXXXXXXXXXXXXX    .............",
"...............                            ...............",
"................                          ................",
"................  XXXXXXXXXXXXXXXXXXXXXX  ................",
"................  XXXXXXXXXXXXXXXXXXXXXX  ................",
"................  XXXXXXXXXXXXXXXXXXXXXX  ................",
"................  XXXXXXXXXXXXXXXXXXXXXX  ................",
"................  XXXXXXXXXXXXXXXXXXXXXX  ................",
"................  XXXXXXXXXXXXXXXXXXXXXX  ................",
"................  XXXXXXXXXXXXXXXXXXXXXX  ................",
"................  XXXXXXXXXXXXXXXXXXXXXX  ................",
"................  XXXXXXXXXXXXXXXXXXXXXX  ................",
"................  XXXXXXXXXXXXXXXXXXXXXX  ................",
"................  XXXXXXXXXXXXXXXXXXXXXX  ................",
"................  XXXXXXXXXXXXXXXXXXXXXX  ................",
"................  XXXXXXXXXXXXXXXXXXXXXX  ................",
"................  XXXXXXXXXXXXXXXXXXXXXX  ................",
"................  XXXXXXXXXXXXXXXXXXXXXX  ................",
"................  XXXXXXXXXXXXXXXXXXXXXX  ................",
"................  XXXXXXXXXXXXXXXXXXXXXX  ................",
"................  XXXXXXXXXXXXXXXXXXXXXX  ................",
"................                          ................",
"...............                            ...............",
"..............   XXXXXXXXXXXXXXXXXXXXXXXX   ..............",
"............                                  ............",
"............                                  ............",
"............  XXXXXXXXXXXXXXXXXXXXXXXXXXXXXX  ............",
"............  XXXXXXXXXXXXXXXXXXXXXXXXXXXXXX  ............",
"............  XXXXXXXXXXXXXXXXXXXXXXXXXXXXXX  ............",
"............  XXXXXXXXXXXXXXXXXXXXXXXXXXXXXX  ............",
"........                                          ........",
"........                                          ........",
"........  XXXXXXXXXXXXXXXXXXXXXXXXXXXXXXXXXXXXXX  ........",
"........                                          ........",
"........                                          ........",
"..........................................................",
"..........................................................",
"..........................................................",
"..........................................................",
"..........................................................",
".........................................................."
};
