/* XPM */
static char *rld54[] = {
/* columns rows colors chars-per-pixel */
"54 54 3 1",
"  c black s dark_piece",
". c green s dark_square",
"X c white s light_piece",
/* pixels */
"......................................................",
"......................................................",
"......................................................",
"......................................................",
"......................................................",
"......................................................",
"..........        .....        ....         ..........",
"..........        .....        ....         ..........",
"..........  XXXX  .....  XXXX  ....  XXXXX  ..........",
"..........  XXXX         XXXX        XXXXX  ..........",
"..........  XXXX         XXXX        XXXXX  ..........",
"..........  XXXXXXXXXXXXXXXXXXXXXXXXXXXXXX  ..........",
"..........                                  ..........",
"..........                                  ..........",
"...........   XXXXXXXXXXXXXXXXXXXXXXXXXX   ...........",
"............    XXXXXXXXXXXXXXXXXXXXXX    ............",
"..............                          ..............",
"...............                        ...............",
"...............  XXXXXXXXXXXXXXXXXXXX  ...............",
"...............  XXXXXXXXXXXXXXXXXXXX  ...............",
"...............  XXXXXXXXXXXXXXXXXXXX  ...............",
"...............  XXXXXXXXXXXXXXXXXXXX  ...............",
"...............  XXXXXXXXXXXXXXXXXXXX  ...............",
"...............  XXXXXXXXXXXXXXXXXXXX  ...............",
"...............  XXXXXXXXXXXXXXXXXXXX  ...............",
"...............  XXXXXXXXXXXXXXXXXXXX  ...............",
"...............  XXXXXXXXXXXXXXXXXXXX  ...............",
"...............  XXXXXXXXXXXXXXXXXXXX  ...............",
"...............  XXXXXXXXXXXXXXXXXXXX  ...............",
"...............  XXXXXXXXXXXXXXXXXXXX  ...............",
"...............  XXXXXXXXXXXXXXXXXXXX  ...............",
"...............  XXXXXXXXXXXXXXXXXXXX  ...............",
"...............  XXXXXXXXXXXXXXXXXXXX  ...............",
"...............  XXXXXXXXXXXXXXXXXXXX  ...............",
"...............  XXXXXXXXXXXXXXXXXXXX  ...............",
"..............                          ..............",
".............                            .............",
"............   XXXXXXXXXXXXXXXXXXXXXXXX   ............",
"...........                                ...........",
"...........                                ...........",
"...........  XXXXXXXXXXXXXXXXXXXXXXXXXXXX  ...........",
"...........  XXXXXXXXXXXXXXXXXXXXXXXXXXXX  ...........",
"........                                      ........",
"........                                      ........",
"........  XXXXXXXXXXXXXXXXXXXXXXXXXXXXXXXXXX  ........",
"........  XXXXXXXXXXXXXXXXXXXXXXXXXXXXXXXXXX  ........",
"........                                      ........",
"........                                      ........",
"......................................................",
"......................................................",
"......................................................",
"......................................................",
"......................................................",
"......................................................"
};
