/* XPM */
static char *rld64[] = {
/* columns rows colors chars-per-pixel */
"64 64 3 1",
"  c black s dark_piece",
". c green s dark_square",
"X c white s light_piece",
/* pixels */
"................................................................",
"................................................................",
"................................................................",
"................................................................",
"................................................................",
"................................................................",
"................................................................",
"..............         .....        .....         ..............",
"..............         .....        .....         ..............",
"..............  XXXXX  .....  XXXX  .....  XXXXX  ..............",
"..............  XXXXX  .....  XXXX  .....  XXXXX  ..............",
"..............  XXXXX         XXXX         XXXXX  ..............",
"..............  XXXXX         XXXX         XXXXX  ..............",
"..............  XXXXXXXXXXXXXXXXXXXXXXXXXXXXXXXX  ..............",
"..............  XXXXXXXXXXXXXXXXXXXXXXXXXXXXXXXX  ..............",
"..............                                    ..............",
"..............                                    ..............",
"...............   XXXXXXXXXXXXXXXXXXXXXXXXXXXX   ...............",
"................    XXXXXXXXXXXXXXXXXXXXXXXX    ................",
"..................                            ..................",
"...................                          ...................",
"...................  XXXXXXXXXXXXXXXXXXXXXX  ...................",
"...................  XXXXXXXXXXXXXXXXXXXXXX  ...................",
"...................  XXXXXXXXXXXXXXXXXXXXXX  ...................",
"...................  XXXXXXXXXXXXXXXXXXXXXX  ...................",
"...................  XXXXXXXXXXXXXXXXXXXXXX  ...................",
"...................  XXXXXXXXXXXXXXXXXXXXXX  ...................",
"...................  XXXXXXXXXXXXXXXXXXXXXX  ...................",
"...................  XXXXXXXXXXXXXXXXXXXXXX  ...................",
"...................  XXXXXXXXXXXXXXXXXXXXXX  ...................",
"...................  XXXXXXXXXXXXXXXXXXXXXX  ...................",
"...................  XXXXXXXXXXXXXXXXXXXXXX  ...................",
"...................  XXXXXXXXXXXXXXXXXXXXXX  ...................",
"...................  XXXXXXXXXXXXXXXXXXXXXX  ...................",
"...................  XXXXXXXXXXXXXXXXXXXXXX  ...................",
"...................  XXXXXXXXXXXXXXXXXXXXXX  ...................",
"...................  XXXXXXXXXXXXXXXXXXXXXX  ...................",
"...................  XXXXXXXXXXXXXXXXXXXXXX  ...................",
"...................  XXXXXXXXXXXXXXXXXXXXXX  ...................",
"...................  XXXXXXXXXXXXXXXXXXXXXX  ...................",
"...................                          ...................",
"..................                            ..................",
".................   XXXXXXXXXXXXXXXXXXXXXXXX   .................",
"................   XXXXXXXXXXXXXXXXXXXXXXXXXX    ...............",
"..............                                    ..............",
"..............                                    ..............",
"..............  XXXXXXXXXXXXXXXXXXXXXXXXXXXXXXXX  ..............",
"..............  XXXXXXXXXXXXXXXXXXXXXXXXXXXXXXXX  ..............",
"..............  XXXXXXXXXXXXXXXXXXXXXXXXXXXXXXXX  ..............",
"..............  XXXXXXXXXXXXXXXXXXXXXXXXXXXXXXXX  ..............",
"..........                                            ..........",
"..........                                            ..........",
"..........  XXXXXXXXXXXXXXXXXXXXXXXXXXXXXXXXXXXXXXXX  ..........",
"..........  XXXXXXXXXXXXXXXXXXXXXXXXXXXXXXXXXXXXXXXX  ..........",
"..........                                            ..........",
"..........                                            ..........",
"................................................................",
"................................................................",
"................................................................",
"................................................................",
"................................................................",
"................................................................",
"................................................................",
"................................................................"
};
