/* XPM */
static char *rld80[] = {
/* columns rows colors chars-per-pixel */
"80 80 3 1",
"  c black s dark_piece",
". c green s dark_square",
"X c white s light_piece",
/* pixels */
"................................................................................",
"................................................................................",
"................................................................................",
"................................................................................",
"................................................................................",
"................................................................................",
"................................................................................",
"................................................................................",
"................................................................................",
".................           .......          .......           .................",
".................           .......          .......           .................",
".................  XXXXXXX  .......  XXXXXX  .......  XXXXXXX  .................",
".................  XXXXXXX  .......  XXXXXX  .......  XXXXXXX  .................",
".................  XXXXXXX  .......  XXXXXX  .......  XXXXXXX  .................",
".................  XXXXXXX           XXXXXX           XXXXXXX  .................",
".................  XXXXXXX           XXXXXX           XXXXXXX  .................",
".................  XXXXXXXXXXXXXXXXXXXXXXXXXXXXXXXXXXXXXXXXXX  .................",
".................  XXXXXXXXXXXXXXXXXXXXXXXXXXXXXXXXXXXXXXXXXX  .................",
".................  XXXXXXXXXXXXXXXXXXXXXXXXXXXXXXXXXXXXXXXXXX  .................",
".................                                              .................",
".................                                              .................",
"..................   XXXXXXXXXXXXXXXXXXXXXXXXXXXXXXXXXXXXXX   ..................",
"...................   XXXXXXXXXXXXXXXXXXXXXXXXXXXXXXXXXXXX   ...................",
"....................   XXXXXXXXXXXXXXXXXXXXXXXXXXXXXXXXXX   ....................",
".....................   XXXXXXXXXXXXXXXXXXXXXXXXXXXXXXXX   .....................",
"......................                                    ......................",
"........................                                 .......................",
"........................  XXXXXXXXXXXXXXXXXXXXXXXXXXXX  ........................",
"........................  XXXXXXXXXXXXXXXXXXXXXXXXXXXX  ........................",
"........................  XXXXXXXXXXXXXXXXXXXXXXXXXXXX  ........................",
"........................  XXXXXXXXXXXXXXXXXXXXXXXXXXXX  ........................",
"........................  XXXXXXXXXXXXXXXXXXXXXXXXXXXX  ........................",
"........................  XXXXXXXXXXXXXXXXXXXXXXXXXXXX  ........................",
"........................  XXXXXXXXXXXXXXXXXXXXXXXXXXXX  ........................",
"........................  XXXXXXXXXXXXXXXXXXXXXXXXXXXX  ........................",
"........................  XXXXXXXXXXXXXXXXXXXXXXXXXXXX  ........................",
"........................  XXXXXXXXXXXXXXXXXXXXXXXXXXXX  ........................",
"........................  XXXXXXXXXXXXXXXXXXXXXXXXXXXX  ........................",
"........................  XXXXXXXXXXXXXXXXXXXXXXXXXXXX  ........................",
"........................  XXXXXXXXXXXXXXXXXXXXXXXXXXXX  ........................",
"........................  XXXXXXXXXXXXXXXXXXXXXXXXXXXX  ........................",
"........................  XXXXXXXXXXXXXXXXXXXXXXXXXXXX  ........................",
"........................  XXXXXXXXXXXXXXXXXXXXXXXXXXXX  ........................",
"........................  XXXXXXXXXXXXXXXXXXXXXXXXXXXX  ........................",
"........................  XXXXXXXXXXXXXXXXXXXXXXXXXXXX  ........................",
"........................  XXXXXXXXXXXXXXXXXXXXXXXXXXXX  ........................",
"........................  XXXXXXXXXXXXXXXXXXXXXXXXXXXX  ........................",
"........................  XXXXXXXXXXXXXXXXXXXXXXXXXXXX  ........................",
"........................  XXXXXXXXXXXXXXXXXXXXXXXXXXXX  ........................",
"........................  XXXXXXXXXXXXXXXXXXXXXXXXXXXX  ........................",
".......................                                 ........................",
"......................                                   .......................",
".....................   XXXXXXXXXXXXXXXXXXXXXXXXXXXXXXX    .....................",
"....................   XXXXXXXXXXXXXXXXXXXXXXXXXXXXXXXXXX   ....................",
"..................    XXXXXXXXXXXXXXXXXXXXXXXXXXXXXXXXXXXX   ...................",
"..................                                            ..................",
"..................                                            ..................",
"..................  XXXXXXXXXXXXXXXXXXXXXXXXXXXXXXXXXXXXXXXX  ..................",
"..................  XXXXXXXXXXXXXXXXXXXXXXXXXXXXXXXXXXXXXXXX  ..................",
"..................  XXXXXXXXXXXXXXXXXXXXXXXXXXXXXXXXXXXXXXXX  ..................",
"..................  XXXXXXXXXXXXXXXXXXXXXXXXXXXXXXXXXXXXXXXX  ..................",
"..................  XXXXXXXXXXXXXXXXXXXXXXXXXXXXXXXXXXXXXXXX  ..................",
"..................  XXXXXXXXXXXXXXXXXXXXXXXXXXXXXXXXXXXXXXXX  ..................",
"............                                                        ............",
"............                                                        ............",
"............  XXXXXXXXXXXXXXXXXXXXXXXXXXXXXXXXXXXXXXXXXXXXXXXXXXXX  ............",
"............  XXXXXXXXXXXXXXXXXXXXXXXXXXXXXXXXXXXXXXXXXXXXXXXXXXXX  ............",
"............  XXXXXXXXXXXXXXXXXXXXXXXXXXXXXXXXXXXXXXXXXXXXXXXXXXXX  ............",
"............                                                        ............",
"............                                                        ............",
"................................................................................",
"................................................................................",
"................................................................................",
"................................................................................",
"................................................................................",
"................................................................................",
"................................................................................",
"................................................................................",
"................................................................................",
"................................................................................"
};
