/* XPM */
static char *rld95[] = {
/* columns rows colors chars-per-pixel */
"95 95 3 1",
"  c black s dark_piece",
". c green s dark_square",
"X c white s light_piece",
/* pixels */
"...............................................................................................",
"...............................................................................................",
"...............................................................................................",
"...............................................................................................",
"...............................................................................................",
"...............................................................................................",
"...............................................................................................",
"...............................................................................................",
"...............................................................................................",
"...............................................................................................",
"...............................................................................................",
"...............................................................................................",
"...............................................................................................",
"...............................................................................................",
"....................             .........              .........             .................",
"...................              .........              ........              .................",
"...................              .........              ........              .................",
"...................   XXXXXXXX   .........   XXXXXXXX   ........   XXXXXXXX   .................",
"...................   XXXXXXXX   .........   XXXXXXXX   ........   XXXXXXXX   .................",
"...................   XXXXXXXX               XXXXXXXX              XXXXXXXX   .................",
"...................   XXXXXXXX               XXXXXXXX              XXXXXXXX   .................",
"...................   XXXXXXXXX             XXXXXXXXXX             XXXXXXXX   .................",
"...................   XXXXXXXXXXXXXXXXXXXXXXXXXXXXXXXXXXXXXXXXXXXXXXXXXXXXX   .................",
"...................   XXXXXXXXXXXXXXXXXXXXXXXXXXXXXXXXXXXXXXXXXXXXXXXXXXXXX   .................",
"...................   XXXXXXXXXXXXXXXXXXXXXXXXXXXXXXXXXXXXXXXXXXXXXXXXXXXXX   .................",
"...................                                                           .................",
"...................                                                           .................",
"...................                                                           .................",
"....................    XXXXXXXXXXXXXXXXXXXXXXXXXXXXXXXXXXXXXXXXXXXXXXXXX    ..................",
".....................    XXXXXXXXXXXXXXXXXXXXXXXXXXXXXXXXXXXXXXXXXXXXXXX    ...................",
"......................    XXXXXXXXXXXXXXXXXXXXXXXXXXXXXXXXXXXXXXXXXXXXX    ....................",
".......................     XXXXXXXXXXXXXXXXXXXXXXXXXXXXXXXXXXXXXXXXX     .....................",
"........................                                                 ......................",
"..........................                                             ........................",
"...........................                                           .........................",
"...........................   XXXXXXXXXXXXXXXXXXXXXXXXXXXXXXXXXXXXX   .........................",
"...........................   XXXXXXXXXXXXXXXXXXXXXXXXXXXXXXXXXXXXX   .........................",
"...........................   XXXXXXXXXXXXXXXXXXXXXXXXXXXXXXXXXXXXX   .........................",
"...........................   XXXXXXXXXXXXXXXXXXXXXXXXXXXXXXXXXXXXX   .........................",
"...........................   XXXXXXXXXXXXXXXXXXXXXXXXXXXXXXXXXXXXX   .........................",
"...........................   XXXXXXXXXXXXXXXXXXXXXXXXXXXXXXXXXXXXX   .........................",
"...........................   XXXXXXXXXXXXXXXXXXXXXXXXXXXXXXXXXXXXX   .........................",
"...........................   XXXXXXXXXXXXXXXXXXXXXXXXXXXXXXXXXXXXX   .........................",
"...........................   XXXXXXXXXXXXXXXXXXXXXXXXXXXXXXXXXXXXX   .........................",
"...........................   XXXXXXXXXXXXXXXXXXXXXXXXXXXXXXXXXXXXX   .........................",
"...........................   XXXXXXXXXXXXXXXXXXXXXXXXXXXXXXXXXXXXX   .........................",
"...........................   XXXXXXXXXXXXXXXXXXXXXXXXXXXXXXXXXXXXX   .........................",
"...........................   XXXXXXXXXXXXXXXXXXXXXXXXXXXXXXXXXXXXX   .........................",
"...........................   XXXXXXXXXXXXXXXXXXXXXXXXXXXXXXXXXXXXX   .........................",
"...........................   XXXXXXXXXXXXXXXXXXXXXXXXXXXXXXXXXXXXX   .........................",
"...........................   XXXXXXXXXXXXXXXXXXXXXXXXXXXXXXXXXXXXX   .........................",
"...........................   XXXXXXXXXXXXXXXXXXXXXXXXXXXXXXXXXXXXX   .........................",
"...........................   XXXXXXXXXXXXXXXXXXXXXXXXXXXXXXXXXXXXX   .........................",
"...........................   XXXXXXXXXXXXXXXXXXXXXXXXXXXXXXXXXXXXX   .........................",
"...........................   XXXXXXXXXXXXXXXXXXXXXXXXXXXXXXXXXXXXX   .........................",
"...........................   XXXXXXXXXXXXXXXXXXXXXXXXXXXXXXXXXXXXX   .........................",
"...........................   XXXXXXXXXXXXXXXXXXXXXXXXXXXXXXXXXXXXX   .........................",
"...........................   XXXXXXXXXXXXXXXXXXXXXXXXXXXXXXXXXXXXX   .........................",
"...........................   XXXXXXXXXXXXXXXXXXXXXXXXXXXXXXXXXXXXX   .........................",
"...........................   XXXXXXXXXXXXXXXXXXXXXXXXXXXXXXXXXXXXX   .........................",
"...........................   XXXXXXXXXXXXXXXXXXXXXXXXXXXXXXXXXXXXX   .........................",
"...........................   XXXXXXXXXXXXXXXXXXXXXXXXXXXXXXXXXXXXX   .........................",
"...........................   XXXXXXXXXXXXXXXXXXXXXXXXXXXXXXXXXXXXX   .........................",
"...........................                                           .........................",
"...........................                                           .........................",
"..........................                                             ........................",
".........................    XXXXXXXXXXXXXXXXXXXXXXXXXXXXXXXXXXXXXXX    .......................",
"........................    XXXXXXXXXXXXXXXXXXXXXXXXXXXXXXXXXXXXXXXXX    ......................",
".......................    XXXXXXXXXXXXXXXXXXXXXXXXXXXXXXXXXXXXXXXXXXX    .....................",
".....................                                                       ...................",
".....................                                                       ...................",
".....................                                                       ...................",
".....................   XXXXXXXXXXXXXXXXXXXXXXXXXXXXXXXXXXXXXXXXXXXXXXXXX   ...................",
".....................   XXXXXXXXXXXXXXXXXXXXXXXXXXXXXXXXXXXXXXXXXXXXXXXXX   ...................",
".....................   XXXXXXXXXXXXXXXXXXXXXXXXXXXXXXXXXXXXXXXXXXXXXXXXX   ...................",
".....................   XXXXXXXXXXXXXXXXXXXXXXXXXXXXXXXXXXXXXXXXXXXXXXXXX   ...................",
".....................   XXXXXXXXXXXXXXXXXXXXXXXXXXXXXXXXXXXXXXXXXXXXXXXXX   ...................",
".....................   XXXXXXXXXXXXXXXXXXXXXXXXXXXXXXXXXXXXXXXXXXXXXXXXX   ...................",
"...............                                                                    ............",
"..............                                                                     ............",
"..............                                                                     ............",
"..............   XXXXXXXXXXXXXXXXXXXXXXXXXXXXXXXXXXXXXXXXXXXXXXXXXXXXXXXXXXXXXXX   ............",
"..............   XXXXXXXXXXXXXXXXXXXXXXXXXXXXXXXXXXXXXXXXXXXXXXXXXXXXXXXXXXXXXXX   ............",
"..............   XXXXXXXXXXXXXXXXXXXXXXXXXXXXXXXXXXXXXXXXXXXXXXXXXXXXXXXXXXXXXXX   ............",
"..............                                                                     ............",
"..............                                                                     ............",
"...............                                                                    ............",
"...............................................................................................",
"...............................................................................................",
"...............................................................................................",
"...............................................................................................",
"...............................................................................................",
"...............................................................................................",
"...............................................................................................",
"..............................................................................................."
};
