/* XPM */
static char *rll108[] = {
/* columns rows colors chars-per-pixel */
"108 108 3 1",
"  c black s dark_piece",
". c gray s light_square",
"X c white s light_piece",
/* pixels */
"............................................................................................................",
"............................................................................................................",
"............................................................................................................",
"............................................................................................................",
"............................................................................................................",
"............................................................................................................",
"............................................................................................................",
"............................................................................................................",
"............................................................................................................",
"............................................................................................................",
"............................................................................................................",
"............................................................................................................",
"............................................................................................................",
"............................................................................................................",
"............................................................................................................",
"............................................................................................................",
".....................               ..........               ...........               .....................",
"....................                ..........               ..........                .....................",
"....................                ..........               ..........                .....................",
"....................   XXXXXXXXXX   ..........   XXXXXXXXX   ..........   XXXXXXXXXX   .....................",
"....................   XXXXXXXXXX   ..........   XXXXXXXXX   ..........   XXXXXXXXXX   .....................",
"....................   XXXXXXXXXX   ..........   XXXXXXXXX   ..........   XXXXXXXXXX   .....................",
"....................   XXXXXXXXXX   ..........   XXXXXXXXX   ..........   XXXXXXXXXX   .....................",
"....................   XXXXXXXXXX                XXXXXXXXX                XXXXXXXXXX   .....................",
"....................   XXXXXXXXXX                XXXXXXXXX                XXXXXXXXXX   .....................",
"....................   XXXXXXXXXXX              XXXXXXXXXXX               XXXXXXXXXX   .....................",
"....................   XXXXXXXXXXXXXXXXXXXXXXXXXXXXXXXXXXXXXXXXXXXXXXXXXXXXXXXXXXXXX   .....................",
"....................   XXXXXXXXXXXXXXXXXXXXXXXXXXXXXXXXXXXXXXXXXXXXXXXXXXXXXXXXXXXXX   .....................",
"....................   XXXXXXXXXXXXXXXXXXXXXXXXXXXXXXXXXXXXXXXXXXXXXXXXXXXXXXXXXXXXX   .....................",
"....................   XXXXXXXXXXXXXXXXXXXXXXXXXXXXXXXXXXXXXXXXXXXXXXXXXXXXXXXXXXXXX   .....................",
"....................                                                                   .....................",
"....................                                                                   .....................",
".....................                                                                 ......................",
"......................    XXXXXXXXXXXXXXXXXXXXXXXXXXXXXXXXXXXXXXXXXXXXXXXXXXXXXXX    .......................",
".......................    XXXXXXXXXXXXXXXXXXXXXXXXXXXXXXXXXXXXXXXXXXXXXXXXXXXXX    ........................",
"........................    XXXXXXXXXXXXXXXXXXXXXXXXXXXXXXXXXXXXXXXXXXXXXXXXXXX    .........................",
".........................     XXXXXXXXXXXXXXXXXXXXXXXXXXXXXXXXXXXXXXXXXXXXXXX     ..........................",
"..........................     XXXXXXXXXXXXXXXXXXXXXXXXXXXXXXXXXXXXXXXXXXXXX     ...........................",
"............................                                                   .............................",
".............................                                                 ..............................",
".............................                                                 ..............................",
".............................   XXXXXXXXXXXXXXXXXXXXXXXXXXXXXXXXXXXXXXXXXXX   ..............................",
".............................   XXXXXXXXXXXXXXXXXXXXXXXXXXXXXXXXXXXXXXXXXXX   ..............................",
".............................   XXXXXXXXXXXXXXXXXXXXXXXXXXXXXXXXXXXXXXXXXXX   ..............................",
".............................   XXXXXXXXXXXXXXXXXXXXXXXXXXXXXXXXXXXXXXXXXXX   ..............................",
".............................   XXXXXXXXXXXXXXXXXXXXXXXXXXXXXXXXXXXXXXXXXXX   ..............................",
".............................   XXXXXXXXXXXXXXXXXXXXXXXXXXXXXXXXXXXXXXXXXXX   ..............................",
".............................   XXXXXXXXXXXXXXXXXXXXXXXXXXXXXXXXXXXXXXXXXXX   ..............................",
".............................   XXXXXXXXXXXXXXXXXXXXXXXXXXXXXXXXXXXXXXXXXXX   ..............................",
".............................   XXXXXXXXXXXXXXXXXXXXXXXXXXXXXXXXXXXXXXXXXXX   ..............................",
".............................   XXXXXXXXXXXXXXXXXXXXXXXXXXXXXXXXXXXXXXXXXXX   ..............................",
".............................   XXXXXXXXXXXXXXXXXXXXXXXXXXXXXXXXXXXXXXXXXXX   ..............................",
".............................   XXXXXXXXXXXXXXXXXXXXXXXXXXXXXXXXXXXXXXXXXXX   ..............................",
".............................   XXXXXXXXXXXXXXXXXXXXXXXXXXXXXXXXXXXXXXXXXXX   ..............................",
".............................   XXXXXXXXXXXXXXXXXXXXXXXXXXXXXXXXXXXXXXXXXXX   ..............................",
".............................   XXXXXXXXXXXXXXXXXXXXXXXXXXXXXXXXXXXXXXXXXXX   ..............................",
".............................   XXXXXXXXXXXXXXXXXXXXXXXXXXXXXXXXXXXXXXXXXXX   ..............................",
".............................   XXXXXXXXXXXXXXXXXXXXXXXXXXXXXXXXXXXXXXXXXXX   ..............................",
".............................   XXXXXXXXXXXXXXXXXXXXXXXXXXXXXXXXXXXXXXXXXXX   ..............................",
".............................   XXXXXXXXXXXXXXXXXXXXXXXXXXXXXXXXXXXXXXXXXXX   ..............................",
".............................   XXXXXXXXXXXXXXXXXXXXXXXXXXXXXXXXXXXXXXXXXXX   ..............................",
".............................   XXXXXXXXXXXXXXXXXXXXXXXXXXXXXXXXXXXXXXXXXXX   ..............................",
".............................   XXXXXXXXXXXXXXXXXXXXXXXXXXXXXXXXXXXXXXXXXXX   ..............................",
".............................   XXXXXXXXXXXXXXXXXXXXXXXXXXXXXXXXXXXXXXXXXXX   ..............................",
".............................   XXXXXXXXXXXXXXXXXXXXXXXXXXXXXXXXXXXXXXXXXXX   ..............................",
".............................   XXXXXXXXXXXXXXXXXXXXXXXXXXXXXXXXXXXXXXXXXXX   ..............................",
".............................   XXXXXXXXXXXXXXXXXXXXXXXXXXXXXXXXXXXXXXXXXXX   ..............................",
".............................   XXXXXXXXXXXXXXXXXXXXXXXXXXXXXXXXXXXXXXXXXXX   ..............................",
".............................   XXXXXXXXXXXXXXXXXXXXXXXXXXXXXXXXXXXXXXXXXXX   ..............................",
".............................   XXXXXXXXXXXXXXXXXXXXXXXXXXXXXXXXXXXXXXXXXXX   ..............................",
".............................   XXXXXXXXXXXXXXXXXXXXXXXXXXXXXXXXXXXXXXXXXXX   ..............................",
".............................   XXXXXXXXXXXXXXXXXXXXXXXXXXXXXXXXXXXXXXXXXXX   ..............................",
".............................                                                 ..............................",
".............................                                                 ..............................",
"............................                                                   .............................",
"...........................    XXXXXXXXXXXXXXXXXXXXXXXXXXXXXXXXXXXXXXXXXXXXX    ............................",
"..........................    XXXXXXXXXXXXXXXXXXXXXXXXXXXXXXXXXXXXXXXXXXXXXXX    ...........................",
".........................    XXXXXXXXXXXXXXXXXXXXXXXXXXXXXXXXXXXXXXXXXXXXXXXXX    ..........................",
"........................    XXXXXXXXXXXXXXXXXXXXXXXXXXXXXXXXXXXXXXXXXXXXXXXXXXX    .........................",
".......................                                                             ........................",
"......................                                                               .......................",
"......................                                                               .......................",
"......................   XXXXXXXXXXXXXXXXXXXXXXXXXXXXXXXXXXXXXXXXXXXXXXXXXXXXXXXXX   .......................",
"......................   XXXXXXXXXXXXXXXXXXXXXXXXXXXXXXXXXXXXXXXXXXXXXXXXXXXXXXXXX   .......................",
"......................   XXXXXXXXXXXXXXXXXXXXXXXXXXXXXXXXXXXXXXXXXXXXXXXXXXXXXXXXX   .......................",
"......................   XXXXXXXXXXXXXXXXXXXXXXXXXXXXXXXXXXXXXXXXXXXXXXXXXXXXXXXXX   .......................",
"......................   XXXXXXXXXXXXXXXXXXXXXXXXXXXXXXXXXXXXXXXXXXXXXXXXXXXXXXXXX   .......................",
"......................   XXXXXXXXXXXXXXXXXXXXXXXXXXXXXXXXXXXXXXXXXXXXXXXXXXXXXXXXX   .......................",
"......................   XXXXXXXXXXXXXXXXXXXXXXXXXXXXXXXXXXXXXXXXXXXXXXXXXXXXXXXXX   .......................",
"......................   XXXXXXXXXXXXXXXXXXXXXXXXXXXXXXXXXXXXXXXXXXXXXXXXXXXXXXXXX   .......................",
"...............                                                                             ................",
"...............                                                                             ................",
"...............                                                                             ................",
"...............   XXXXXXXXXXXXXXXXXXXXXXXXXXXXXXXXXXXXXXXXXXXXXXXXXXXXXXXXXXXXXXXXXXXXXXX   ................",
"...............   XXXXXXXXXXXXXXXXXXXXXXXXXXXXXXXXXXXXXXXXXXXXXXXXXXXXXXXXXXXXXXXXXXXXXXX   ................",
"...............   XXXXXXXXXXXXXXXXXXXXXXXXXXXXXXXXXXXXXXXXXXXXXXXXXXXXXXXXXXXXXXXXXXXXXXX   ................",
"...............   XXXXXXXXXXXXXXXXXXXXXXXXXXXXXXXXXXXXXXXXXXXXXXXXXXXXXXXXXXXXXXXXXXXXXXX   ................",
"...............                                                                             ................",
"...............                                                                             ................",
"................                                                                            ................",
"............................................................................................................",
"............................................................................................................",
"............................................................................................................",
"............................................................................................................",
"............................................................................................................",
"............................................................................................................",
"............................................................................................................",
"............................................................................................................"
};
