/* XPM */
static char *rll25[] = {
/* columns rows colors chars-per-pixel */
"25 25 3 1",
"  c black s dark_piece",
". c gray s light_square",
"X c white s light_piece",
/* pixels */
".........................",
".........................",
".........................",
".....    ..   ..    .....",
"..... XX    X    XX .....",
"..... XXXXXXXXXXXXX .....",
".....               .....",
"......             ......",
"....... XXXXXXXXX .......",
"....... XXXXXXXXX .......",
"....... XXXXXXXXX .......",
"....... XXXXXXXXX .......",
"....... XXXXXXXXX .......",
"....... XXXXXXXXX .......",
"....... XXXXXXXXX .......",
"....... XXXXXXXXX .......",
".......           .......",
"......  XXXXXXXXX  ......",
".....               .....",
"..... XXXXXXXXXXXXX .....",
"....                 ....",
"....                 ....",
".........................",
".........................",
"........................."
};
