/* XPM */
static char *rll33[] = {
/* columns rows colors chars-per-pixel */
"33 33 3 1",
"  c black s dark_piece",
". c gray s light_square",
"X c white s light_piece",
/* pixels */
".................................",
".................................",
".................................",
".................................",
"......     ...     ...     ......",
"...... XXX ... XXX ... XXX ......",
"...... XXX     XXX     XXX ......",
"...... XXXXXXXXXXXXXXXXXXX ......",
"......                     ......",
"....... XXXXXXXXXXXXXXXXX .......",
"........                 ........",
"......... XXXXXXXXXXXXX .........",
"......... XXXXXXXXXXXXX .........",
"......... XXXXXXXXXXXXX .........",
"......... XXXXXXXXXXXXX .........",
"......... XXXXXXXXXXXXX .........",
"......... XXXXXXXXXXXXX .........",
"......... XXXXXXXXXXXXX .........",
"......... XXXXXXXXXXXXX .........",
"......... XXXXXXXXXXXXX .........",
"......... XXXXXXXXXXXXX .........",
".........               .........",
"........ XXXXXXXXXXXXXXX ........",
".......                   .......",
"....... XXXXXXXXXXXXXXXXX .......",
"....... XXXXXXXXXXXXXXXXX .......",
".....                       .....",
"..... XXXXXXXXXXXXXXXXXXXXX .....",
".....                       .....",
".................................",
".................................",
".................................",
"................................."
};
