/* XPM */
static char *rll40[] = {
/* columns rows colors chars-per-pixel */
"40 40 3 1",
"  c black s dark_piece",
". c gray s light_square",
"X c white s light_piece",
/* pixels */
"........................................",
"........................................",
"........................................",
".........     ....     ....     ........",
"......... XXX .... XXX .... XXX ........",
"......... XXX .... XXX .... XXX ........",
"......... XXX      XXX      XXX ........",
"......... XXXXXXXXXXXXXXXXXXXXX ........",
"......... XXXXXXXXXXXXXXXXXXXXX ........",
".........                       ........",
"........... XXXXXXXXXXXXXXXX  ..........",
"............  XXXXXXXXXXXXX ............",
".............               ............",
"............. XXXXXXXXXXXXX ............",
"............. XXXXXXXXXXXXX ............",
"............. XXXXXXXXXXXXX ............",
"............. XXXXXXXXXXXXX ............",
"............. XXXXXXXXXXXXX ............",
"............. XXXXXXXXXXXXX ............",
"............. XXXXXXXXXXXXX ............",
"............. XXXXXXXXXXXXX ............",
"............. XXXXXXXXXXXXX ............",
"............. XXXXXXXXXXXXX ............",
"............. XXXXXXXXXXXXX ............",
"............. XXXXXXXXXXXXX ............",
"............                 ...........",
"........... XXXXXXXXXXXXXXXXX  .........",
".......... XXXXXXXXXXXXXXXXXXXX ........",
".........                       ........",
".......... XXXXXXXXXXXXXXXXXXXX ........",
".......... XXXXXXXXXXXXXXXXXXXX ........",
".......                           ......",
"....... XXXXXXXXXXXXXXXXXXXXXXXXX ......",
"....... XXXXXXXXXXXXXXXXXXXXXXXXX ......",
".......                           ......",
"........................................",
"........................................",
"........................................",
"........................................",
"........................................"
};
