/* XPM */
static char *rll45[] = {
/* columns rows colors chars-per-pixel */
"45 45 3 1",
"  c black s dark_piece",
". c gray s light_square",
"X c white s light_piece",
/* pixels */
".............................................",
".............................................",
".............................................",
".............................................",
"........       .....      .....      ........",
"........ XXXXX ..... XXXX ..... XXXX ........",
"........ XXXXX ..... XXXX ..... XXXX ........",
"........ XXXXX       XXXX       XXXX ........",
"........ XXXXXXXXXXXXXXXXXXXXXXXXXXX ........",
"........ XXXXXXXXXXXXXXXXXXXXXXXXXXX ........",
"........                             ........",
"......... XXXXXXXXXXXXXXXXXXXXXXXXX .........",
".......... XXXXXXXXXXXXXXXXXXXXXXX ..........",
"........... XXXXXXXXXXXXXXXXXXXXX ...........",
"............                     ............",
"............ XXXXXXXXXXXXXXXXXXX ............",
"............ XXXXXXXXXXXXXXXXXXX ............",
"............ XXXXXXXXXXXXXXXXXXX ............",
"............ XXXXXXXXXXXXXXXXXXX ............",
"............ XXXXXXXXXXXXXXXXXXX ............",
"............ XXXXXXXXXXXXXXXXXXX ............",
"............ XXXXXXXXXXXXXXXXXXX ............",
"............ XXXXXXXXXXXXXXXXXXX ............",
"............ XXXXXXXXXXXXXXXXXXX ............",
"............ XXXXXXXXXXXXXXXXXXX ............",
"............ XXXXXXXXXXXXXXXXXXX ............",
"............ XXXXXXXXXXXXXXXXXXX ............",
"............ XXXXXXXXXXXXXXXXXXX ............",
"............                     ............",
"............ XXXXXXXXXXXXXXXXXXXX ...........",
"........... XXXXXXXXXXXXXXXXXXXXXX ..........",
".......... XXXXXXXXXXXXXXXXXXXXXXXX .........",
".........                           .........",
"......... XXXXXXXXXXXXXXXXXXXXXXXXX .........",
"......... XXXXXXXXXXXXXXXXXXXXXXXXX .........",
"......... XXXXXXXXXXXXXXXXXXXXXXXXX .........",
".........                              ......",
"......    XXXXXXXXXXXXXXXXXXXXXXXXXXXX ......",
"...... XXXXXXXXXXXXXXXXXXXXXXXXXXXXXXX ......",
"...... XXXXXXXXXXXXXXXXXXXXXXXXXXXXXXX ......",
"......                                 ......",
".............................................",
".............................................",
".............................................",
"............................................."
};
