/* XPM */
static char *rll87[] = {
/* columns rows colors chars-per-pixel */
"87 87 3 1",
"  c black s dark_piece",
". c gray s light_square",
"X c white s light_piece",
/* pixels */
".......................................................................................",
".......................................................................................",
".......................................................................................",
".......................................................................................",
".......................................................................................",
".......................................................................................",
".......................................................................................",
".......................................................................................",
".......................................................................................",
".......................................................................................",
".......................................................................................",
".......................................................................................",
"..................            ........            ........            .................",
".................             .......             .......             .................",
".................             .......             .......             .................",
".................   XXXXXXX   .......   XXXXXXX   .......   XXXXXXX   .................",
".................   XXXXXXX   .......   XXXXXXX   .......   XXXXXXX   .................",
".................   XXXXXXX             XXXXXXX             XXXXXXX   .................",
".................   XXXXXXX             XXXXXXX             XXXXXXX   .................",
".................   XXXXXXXX            XXXXXXXX            XXXXXXX   .................",
".................   XXXXXXXXXXXXXXXXXXXXXXXXXXXXXXXXXXXXXXXXXXXXXXX   .................",
".................   XXXXXXXXXXXXXXXXXXXXXXXXXXXXXXXXXXXXXXXXXXXXXXX   .................",
".................                                                     .................",
".................                                                     .................",
".................                                                     .................",
"..................    XXXXXXXXXXXXXXXXXXXXXXXXXXXXXXXXXXXXXXXXXX     ..................",
"...................     XXXXXXXXXXXXXXXXXXXXXXXXXXXXXXXXXXXXXXX     ...................",
"....................     XXXXXXXXXXXXXXXXXXXXXXXXXXXXXXXXXXXXX    .....................",
"......................                                           ......................",
".......................                                         .......................",
"........................                                       ........................",
"........................   XXXXXXXXXXXXXXXXXXXXXXXXXXXXXXXXX   ........................",
"........................   XXXXXXXXXXXXXXXXXXXXXXXXXXXXXXXXX   ........................",
"........................   XXXXXXXXXXXXXXXXXXXXXXXXXXXXXXXXX   ........................",
"........................   XXXXXXXXXXXXXXXXXXXXXXXXXXXXXXXXX   ........................",
"........................   XXXXXXXXXXXXXXXXXXXXXXXXXXXXXXXXX   ........................",
"........................   XXXXXXXXXXXXXXXXXXXXXXXXXXXXXXXXX   ........................",
"........................   XXXXXXXXXXXXXXXXXXXXXXXXXXXXXXXXX   ........................",
"........................   XXXXXXXXXXXXXXXXXXXXXXXXXXXXXXXXX   ........................",
"........................   XXXXXXXXXXXXXXXXXXXXXXXXXXXXXXXXX   ........................",
"........................   XXXXXXXXXXXXXXXXXXXXXXXXXXXXXXXXX   ........................",
"........................   XXXXXXXXXXXXXXXXXXXXXXXXXXXXXXXXX   ........................",
"........................   XXXXXXXXXXXXXXXXXXXXXXXXXXXXXXXXX   ........................",
"........................   XXXXXXXXXXXXXXXXXXXXXXXXXXXXXXXXX   ........................",
"........................   XXXXXXXXXXXXXXXXXXXXXXXXXXXXXXXXX   ........................",
"........................   XXXXXXXXXXXXXXXXXXXXXXXXXXXXXXXXX   ........................",
"........................   XXXXXXXXXXXXXXXXXXXXXXXXXXXXXXXXX   ........................",
"........................   XXXXXXXXXXXXXXXXXXXXXXXXXXXXXXXXX   ........................",
"........................   XXXXXXXXXXXXXXXXXXXXXXXXXXXXXXXXX   ........................",
"........................   XXXXXXXXXXXXXXXXXXXXXXXXXXXXXXXXX   ........................",
"........................   XXXXXXXXXXXXXXXXXXXXXXXXXXXXXXXXX   ........................",
"........................   XXXXXXXXXXXXXXXXXXXXXXXXXXXXXXXXX   ........................",
"........................   XXXXXXXXXXXXXXXXXXXXXXXXXXXXXXXXX   ........................",
"........................   XXXXXXXXXXXXXXXXXXXXXXXXXXXXXXXXX   ........................",
"........................   XXXXXXXXXXXXXXXXXXXXXXXXXXXXXXXXX   ........................",
"........................   XXXXXXXXXXXXXXXXXXXXXXXXXXXXXXXXX   ........................",
"........................   XXXXXXXXXXXXXXXXXXXXXXXXXXXXXXXXX   ........................",
"........................                                       ........................",
"........................                                        .......................",
".......................                                          ......................",
"......................    XXXXXXXXXXXXXXXXXXXXXXXXXXXXXXXXXXXX    .....................",
".....................    XXXXXXXXXXXXXXXXXXXXXXXXXXXXXXXXXXXXXX    ....................",
"....................    XXXXXXXXXXXXXXXXXXXXXXXXXXXXXXXXXXXXXXXX    ...................",
"...................                                                  ..................",
"..................                                                   ..................",
"..................                                                   ..................",
"..................   XXXXXXXXXXXXXXXXXXXXXXXXXXXXXXXXXXXXXXXXXXXXX   ..................",
"..................   XXXXXXXXXXXXXXXXXXXXXXXXXXXXXXXXXXXXXXXXXXXXX   ..................",
"..................   XXXXXXXXXXXXXXXXXXXXXXXXXXXXXXXXXXXXXXXXXXXXX   ..................",
"..................   XXXXXXXXXXXXXXXXXXXXXXXXXXXXXXXXXXXXXXXXXXXXX   ..................",
"..................                                                         ............",
"............                                                               ............",
"............                                                               ............",
"............         XXXXXXXXXXXXXXXXXXXXXXXXXXXXXXXXXXXXXXXXXXXXXXXXXXX   ............",
"............   XXXXXXXXXXXXXXXXXXXXXXXXXXXXXXXXXXXXXXXXXXXXXXXXXXXXXXXXX   ............",
"............   XXXXXXXXXXXXXXXXXXXXXXXXXXXXXXXXXXXXXXXXXXXXXXXXXXXXXXXXX   ............",
"............                                                               ............",
"............                                                               ............",
".............                                                              ............",
".......................................................................................",
".......................................................................................",
".......................................................................................",
".......................................................................................",
".......................................................................................",
".......................................................................................",
".......................................................................................",
"......................................................................................."
};
